<svg width="32" height="32" viewBox="0 0 32 32" fill="none" xmlns="http://www.w3.org/2000/svg">
<g clip-path="url(#clip0_243_3792)">
<path d="M28.9972 6.66781C29.3132 6.23438 29.5003 5.70125 29.5003 5.125C29.5003 3.67756 28.3228 2.5 26.8753 2.5C26.2991 2.5 25.7659 2.68712 25.3325 3.00312C22.6032 1.03712 19.3878 0 16 0C12.6767 0 9.48987 1.0095 6.78394 2.91931C6.50194 3.11838 6.43469 3.50831 6.63375 3.79037C6.83281 4.07237 7.22281 4.13963 7.50481 3.94056C9.31231 2.66481 11.3531 1.82537 13.5059 1.45969C13.2554 1.77806 13.0036 2.16125 12.7552 2.62275C11.9969 4.03144 11.3712 5.97137 10.935 8.25762C9.7875 8.34013 8.84219 9.16288 8.57556 10.25H2.41294C2.77619 9.39256 3.22194 8.56713 3.74806 7.78419C3.94056 7.49769 3.86431 7.10938 3.57781 6.91687C3.29131 6.72431 2.903 6.80056 2.7105 7.08706C0.93725 9.72606 0 12.8081 0 16C0 19.3866 1.03719 22.6028 3.00294 25.3324C2.68706 25.7658 2.5 26.2989 2.5 26.875C2.5 28.3224 3.67756 29.5 5.125 29.5C5.70119 29.5 6.23425 29.3129 6.66762 28.997C9.39713 30.9629 12.6131 32 16 32C20.2738 32 24.2917 30.3357 27.3137 27.3137C30.3357 24.2917 32 20.2738 32 16C32 12.6126 30.963 9.39719 28.9972 6.66781ZM30.0471 20.5H23.3823C23.1683 19.6272 22.5168 18.9249 21.6743 18.6391C21.7236 17.7708 21.75 16.8861 21.75 16C21.75 14.4546 21.6751 12.9425 21.5308 11.5001H30.0549C30.5141 12.9373 30.75 14.4491 30.75 16C30.75 17.5688 30.5029 19.0807 30.0471 20.5ZM16 30.75C14.9528 30.75 13.8197 29.2263 12.969 26.6741C12.4922 25.2436 12.1233 23.5724 11.8744 21.7501H18.2838C18.4839 22.5659 19.0661 23.2332 19.8294 23.5502C18.8786 28.5181 17.2391 30.75 16 30.75ZM5.125 24.25C4.70706 24.25 4.31187 24.3487 3.96081 24.5232C3.33931 23.6483 2.82087 22.7199 2.40937 21.75H10.6141C10.8739 23.7167 11.2681 25.5242 11.7831 27.0694C12.2784 28.5552 12.8551 29.7176 13.4976 30.5401C11.3326 30.1729 9.28981 29.3271 7.47681 28.0392C7.65131 27.6881 7.75 27.2929 7.75 26.875C7.75 25.4276 6.57244 24.25 5.125 24.25ZM11.5 16C11.5 15.1472 11.525 14.2963 11.5719 13.4611C12.6016 13.2836 13.4276 12.5047 13.6739 11.5H20.2748C20.423 12.937 20.5 14.4499 20.5 16C20.5 16.85 20.4751 17.6984 20.4285 18.5312C19.379 18.6943 18.5336 19.4814 18.2838 20.5H11.7251C11.5771 19.0631 11.5 17.5501 11.5 16ZM20.8331 22.5C20.0749 22.5 19.4581 21.8832 19.4581 21.125C19.4581 20.3668 20.0749 19.75 20.8331 19.75C21.5913 19.75 22.2081 20.3668 22.2081 21.125C22.2081 21.8832 21.5913 22.5 20.8331 22.5ZM20.2169 4.93062C19.7216 3.44469 19.1448 2.28231 18.5023 1.45981C20.6676 1.827 22.7104 2.67263 24.5235 3.96075C24.349 4.31188 24.2503 4.70706 24.2503 5.125C24.2503 6.57244 25.4279 7.75 26.8753 7.75C27.2933 7.75 27.6884 7.65131 28.0395 7.47687C28.6611 8.35175 29.1793 9.28025 29.5907 10.2501H21.3859C21.1261 8.28331 20.7319 6.47581 20.2169 4.93062ZM28.2503 5.125C28.2503 5.88319 27.6335 6.5 26.8753 6.5C26.1171 6.5 25.5003 5.88319 25.5003 5.125C25.5003 4.36681 26.1171 3.75 26.8753 3.75C27.6335 3.75 28.2503 4.36681 28.2503 5.125ZM16 1.25C17.0472 1.25 18.1803 2.77369 19.031 5.32587C19.5078 6.75644 19.8767 8.42762 20.1256 10.25H13.674C13.4773 9.44806 12.9115 8.78988 12.1674 8.4665C13.1174 3.48725 14.7585 1.25 16 1.25ZM11.1248 9.50006C11.8829 9.50006 12.4998 10.1169 12.4998 10.8751C12.4998 11.6333 11.8829 12.2501 11.1248 12.2501C10.3666 12.2501 9.74975 11.6333 9.74975 10.8751C9.74975 10.1169 10.3666 9.50006 11.1248 9.50006ZM8.57556 11.5001C8.79313 12.3871 9.46237 13.0984 10.3249 13.375C10.2761 14.2386 10.25 15.1185 10.25 16C10.25 17.5454 10.3249 19.0576 10.4692 20.5H1.94544C1.48612 19.0626 1.25 17.5507 1.25 16C1.25 14.4572 1.48781 12.9426 1.94919 11.5001H8.57556ZM3.75 26.875C3.75 26.1168 4.36681 25.5 5.125 25.5C5.88319 25.5 6.5 26.1168 6.5 26.875C6.5 27.6332 5.88319 28.25 5.125 28.25C4.36681 28.25 3.75 27.6332 3.75 26.875ZM18.4961 30.5378C18.7444 30.2218 18.994 29.8422 19.2403 29.3857C20.0009 27.9759 20.6286 26.0315 21.0658 23.7391C22.1939 23.6395 23.1191 22.8236 23.3823 21.75H29.5829C27.6507 26.297 23.4993 29.6813 18.4961 30.5378Z" fill="white"/>
<path d="M5.00391 5.87891C5.16897 5.87891 5.32953 5.81266 5.44641 5.69578C5.56266 5.57953 5.62891 5.41828 5.62891 5.25391C5.62891 5.08953 5.56266 4.92891 5.44641 4.81203C5.32953 4.69578 5.16897 4.62891 5.00391 4.62891C4.83953 4.62891 4.67828 4.69578 4.56209 4.81203C4.44584 4.92891 4.37891 5.08953 4.37891 5.25391C4.37891 5.41828 4.44578 5.57953 4.56209 5.69578C4.67828 5.81266 4.83953 5.87891 5.00391 5.87891Z" fill="white"/>
</g>
<defs>
<clipPath id="clip0_243_3792">
<rect width="32" height="32" fill="white"/>
</clipPath>
</defs>
</svg>
