<svg width="33" height="32" viewBox="0 0 33 32" fill="none" xmlns="http://www.w3.org/2000/svg">
<g clip-path="url(#clip0_243_3734)">
<path d="M29.8341 0H13.8341C13.1271 0.000846857 12.4494 0.28207 11.9494 0.781984C11.4495 1.2819 11.1683 1.95968 11.1675 2.66667V2.88L2.54026 4.9696C2.19976 5.05189 1.87881 5.20046 1.59574 5.40682C1.31268 5.61318 1.07304 5.87329 0.890531 6.17229C0.70802 6.47129 0.586209 6.80332 0.532056 7.14941C0.477904 7.4955 0.492471 7.84887 0.574925 8.18933L5.84426 29.9605C5.92578 30.3015 6.07388 30.6229 6.28004 30.9064C6.4862 31.1899 6.74636 31.4299 7.04556 31.6125C7.34477 31.7952 7.67711 31.9169 8.02351 31.9706C8.3699 32.0244 8.7235 32.0092 9.06399 31.9259L21.8341 28.8325V30.9333C21.8342 31.1443 21.8968 31.3505 22.014 31.5258C22.1312 31.7012 22.2977 31.8379 22.4926 31.9186C22.6875 31.9993 22.9019 32.0204 23.1088 31.9793C23.3157 31.9382 23.5058 31.8366 23.6549 31.6875L25.0341 30.3072L26.4133 31.6864C26.5624 31.8355 26.7524 31.937 26.9592 31.9782C27.1659 32.0193 27.3803 31.9983 27.5751 31.9177C27.77 31.8371 27.9366 31.7006 28.0538 31.5254C28.1711 31.3502 28.2339 31.1442 28.2341 30.9333V27.7333H29.8341C30.5411 27.7325 31.2189 27.4513 31.7188 26.9514C32.2187 26.4514 32.4999 25.7737 32.5008 25.0667V2.66667C32.4999 1.95968 32.2187 1.2819 31.7188 0.781984C31.2189 0.28207 30.5411 0.000846857 29.8341 0ZM21.8341 27.7333L8.81226 30.8896C8.60792 30.939 8.39584 30.9477 8.18814 30.9152C7.98044 30.8826 7.7812 30.8094 7.60179 30.6998C7.42239 30.5902 7.26635 30.4463 7.14259 30.2763C7.01883 30.1064 6.92978 29.9137 6.88053 29.7093L1.61119 7.93867C1.56171 7.73411 1.55308 7.5218 1.58578 7.3139C1.61848 7.106 1.69187 6.90659 1.80175 6.7271C1.91164 6.54761 2.05586 6.39156 2.22614 6.26789C2.39643 6.14422 2.58944 6.05536 2.79413 6.0064L11.1675 3.9792V6.72L7.56479 7.592C7.43797 7.62266 7.32679 7.69875 7.25228 7.80586C7.17778 7.91297 7.14512 8.04368 7.1605 8.17325C7.17587 8.30281 7.23821 8.42225 7.33571 8.50895C7.43321 8.59565 7.55912 8.64361 7.68959 8.64373C7.73217 8.64377 7.7746 8.63876 7.81599 8.6288L11.1675 7.81867V9.46827L8.19466 10.1867C8.06837 10.2178 7.9578 10.2939 7.88373 10.4008C7.80967 10.5077 7.77722 10.638 7.79248 10.7672C7.80775 10.8963 7.86969 11.0154 7.96664 11.1021C8.06359 11.1888 8.18887 11.2371 8.31893 11.2379C8.36134 11.2381 8.40362 11.2331 8.44479 11.2229L11.1675 10.5653V12.2096L8.82079 12.7776C8.69397 12.8083 8.58278 12.8843 8.50828 12.9915C8.43378 13.0986 8.40112 13.2293 8.4165 13.3588C8.43187 13.4884 8.49421 13.6078 8.59171 13.6946C8.68921 13.7813 8.81512 13.8292 8.94559 13.8293C8.98803 13.8294 9.03031 13.8242 9.07146 13.8139L11.1675 13.3067V14.9515L9.44639 15.3696C9.31948 15.4003 9.20823 15.4765 9.13373 15.5837C9.05923 15.6909 9.02664 15.8217 9.04216 15.9514C9.05767 16.081 9.12021 16.2005 9.21791 16.2871C9.31561 16.3737 9.44169 16.4215 9.57226 16.4213C9.61483 16.4213 9.65726 16.4163 9.69866 16.4064L11.1675 16.0491V25.0667C11.1683 25.7737 11.4495 26.4514 11.9494 26.9514C12.4494 27.4513 13.1271 27.7325 13.8341 27.7333H21.8341ZM27.1675 30.9333L25.7883 29.5541C25.5851 29.3601 25.315 29.2518 25.0341 29.2518C24.7532 29.2518 24.4831 29.3601 24.28 29.5541L22.9008 30.9333V24.5595C23.1225 24.8236 23.4328 24.9979 23.7736 25.0499C24.1145 25.1019 24.4627 25.0281 24.7531 24.8421L24.8437 24.784C24.9007 24.7473 24.9669 24.7278 25.0347 24.7278C25.1024 24.7278 25.1687 24.7473 25.2256 24.784L25.3147 24.8405C25.6047 25.0273 25.9529 25.1019 26.2941 25.0502C26.6352 24.9986 26.9457 24.8243 27.1675 24.56V30.9333ZM28.1488 22.848C28.1141 22.883 28.0725 22.9103 28.0265 22.928C27.9805 22.9458 27.9313 22.9536 27.8821 22.9509L27.7755 22.9461C27.5036 22.9322 27.2336 22.9972 26.9978 23.1331C26.762 23.2691 26.5705 23.4703 26.4464 23.7125L26.3973 23.808C26.3746 23.8519 26.343 23.8906 26.3045 23.9216C26.266 23.9526 26.2215 23.9752 26.1737 23.988C26.1259 24.0007 26.076 24.0033 26.0272 23.9957C25.9784 23.988 25.9317 23.9702 25.8901 23.9435L25.8016 23.8869C25.5725 23.7404 25.3063 23.6625 25.0344 23.6625C24.7625 23.6625 24.4962 23.7404 24.2672 23.8869L24.1776 23.9451C24.1361 23.9721 24.0894 23.99 24.0404 23.9975C23.9915 24.0051 23.9415 24.0021 23.8939 23.9888C23.8461 23.9759 23.8015 23.9532 23.763 23.922C23.7245 23.8909 23.693 23.852 23.6704 23.808L23.6219 23.7141C23.5018 23.483 23.3207 23.2891 23.0983 23.1536C22.8758 23.0182 22.6205 22.9462 22.36 22.9456C22.3383 22.9456 22.3164 22.9456 22.2944 22.9456L22.1877 22.9504C22.1384 22.9541 22.0889 22.9468 22.0428 22.929C21.9967 22.9112 21.9551 22.8834 21.9211 22.8475C21.8863 22.8126 21.8592 22.7709 21.8415 22.725C21.8238 22.6791 21.8158 22.63 21.8181 22.5808L21.8229 22.4741C21.8349 22.2026 21.7692 21.9333 21.6334 21.6979C21.4977 21.4625 21.2975 21.2707 21.0565 21.1451L20.9611 21.096C20.9171 21.0733 20.8784 21.0417 20.8474 21.0032C20.8165 20.9647 20.7939 20.9201 20.7811 20.8724C20.7683 20.8246 20.7657 20.7747 20.7734 20.7259C20.781 20.6771 20.7988 20.6304 20.8256 20.5888L20.8821 20.5003C21.0287 20.2712 21.1066 20.005 21.1066 19.7331C21.1066 19.4611 21.0287 19.1949 20.8821 18.9659L20.824 18.8763C20.7974 18.8346 20.7797 18.7878 20.7722 18.7389C20.7647 18.69 20.7675 18.6401 20.7804 18.5924C20.7933 18.5446 20.8161 18.5001 20.8472 18.4616C20.8783 18.4232 20.9171 18.3917 20.9611 18.3691L21.0549 18.3205C21.2959 18.1952 21.496 18.0037 21.6319 17.7686C21.7677 17.5334 21.8336 17.2644 21.8219 16.9931L21.8171 16.8864C21.8147 16.8372 21.8226 16.7881 21.8403 16.7422C21.8581 16.6963 21.8852 16.6546 21.92 16.6197C21.9547 16.5847 21.9963 16.5574 22.0423 16.5397C22.0883 16.522 22.1375 16.5142 22.1867 16.5168L22.2933 16.5216C22.5648 16.5337 22.8342 16.4679 23.0696 16.3322C23.305 16.1964 23.4968 15.9962 23.6224 15.7552L23.6715 15.6597C23.6941 15.6158 23.7257 15.5771 23.7643 15.5461C23.8028 15.5151 23.8473 15.4925 23.8951 15.4798C23.9428 15.467 23.9927 15.4644 24.0416 15.4721C24.0904 15.4797 24.1371 15.4975 24.1787 15.5243L24.2672 15.5808C24.4963 15.7276 24.7626 15.8056 25.0347 15.8056C25.3067 15.8056 25.5731 15.7276 25.8021 15.5808L25.8912 15.5237C25.9329 15.4971 25.9797 15.4795 26.0285 15.472C26.0774 15.4645 26.1273 15.4673 26.1751 15.4802C26.2228 15.4931 26.2674 15.5158 26.3058 15.5469C26.3443 15.578 26.3758 15.6168 26.3984 15.6608L26.4469 15.7547C26.5719 15.9959 26.7633 16.1963 26.9985 16.3322C27.2338 16.4681 27.503 16.5338 27.7744 16.5216L27.8811 16.5168C27.9304 16.5129 27.9799 16.5201 28.0261 16.538C28.0722 16.5558 28.1138 16.5837 28.1477 16.6197C28.1825 16.6546 28.2096 16.6963 28.2273 16.7422C28.245 16.7881 28.253 16.8372 28.2507 16.8864L28.2459 16.9931C28.2339 17.2646 28.2996 17.5339 28.4354 17.7693C28.5711 18.0047 28.7713 18.1965 29.0123 18.3221L29.1077 18.3712C29.1516 18.3939 29.1903 18.4255 29.2213 18.464C29.2523 18.5025 29.2749 18.5471 29.2877 18.5948C29.3004 18.6426 29.3031 18.6925 29.2954 18.7413C29.2877 18.7901 29.27 18.8368 29.2432 18.8784L29.1867 18.9669C29.0401 19.196 28.9622 19.4622 28.9622 19.7341C28.9622 20.0061 29.0401 20.2723 29.1867 20.5013L29.2448 20.5909C29.2714 20.6326 29.2891 20.6794 29.2966 20.7283C29.3041 20.7772 29.3013 20.8271 29.2884 20.8748C29.2755 20.9226 29.2527 20.9671 29.2216 21.0056C29.1905 21.044 29.1517 21.0755 29.1077 21.0981L29.0139 21.1467C28.7729 21.272 28.5728 21.4635 28.4369 21.6986C28.3011 21.9338 28.2352 22.2028 28.2469 22.4741L28.2517 22.5808C28.2542 22.6301 28.2463 22.6793 28.2286 22.7253C28.2108 22.7713 28.1837 22.8131 28.1488 22.848ZM31.4341 25.0667C31.4341 25.491 31.2656 25.898 30.9655 26.198C30.6654 26.4981 30.2585 26.6667 29.8341 26.6667H28.2341V23.9701C28.5553 23.896 28.84 23.711 29.0382 23.4476C29.2363 23.1842 29.3352 22.8593 29.3173 22.5301L29.3125 22.4235C29.3096 22.3556 29.3261 22.2882 29.3603 22.2294C29.3944 22.1706 29.4446 22.1229 29.5051 22.0917L29.5984 22.0432C29.7741 21.9524 29.9289 21.8259 30.053 21.6718C30.177 21.5178 30.2676 21.3395 30.3188 21.1485C30.3701 20.9575 30.3809 20.7578 30.3506 20.5624C30.3203 20.3669 30.2496 20.1799 30.1429 20.0133L30.0848 19.9227C30.048 19.8658 30.0284 19.7995 30.0284 19.7317C30.0284 19.664 30.048 19.5977 30.0848 19.5408L30.1413 19.4517C30.2481 19.2853 30.319 19.0984 30.3495 18.903C30.3799 18.7076 30.3692 18.5079 30.3181 18.3169C30.267 18.1258 30.1766 17.9476 30.0527 17.7934C29.9288 17.6393 29.774 17.5128 29.5984 17.4219L29.5035 17.3728C29.443 17.3413 29.3928 17.2932 29.3588 17.2342C29.3248 17.1751 29.3083 17.1076 29.3115 17.0395L29.3163 16.9328C29.3256 16.7353 29.2936 16.5381 29.2224 16.3537C29.1511 16.1693 29.0421 16.0018 28.9024 15.8619C28.7627 15.7221 28.5953 15.6129 28.411 15.5415C28.2267 15.47 28.0295 15.4378 27.832 15.4469L27.7253 15.4517C27.6573 15.4553 27.5897 15.439 27.5308 15.4048C27.4719 15.3706 27.4242 15.32 27.3936 15.2592L27.3451 15.1659C27.2542 14.9902 27.1278 14.8353 26.9737 14.7113C26.8196 14.5872 26.6414 14.4967 26.4504 14.4454C26.2593 14.3942 26.0597 14.3834 25.8642 14.4136C25.6688 14.4439 25.4818 14.5147 25.3152 14.6213L25.2256 14.6784C25.1688 14.7153 25.1024 14.735 25.0347 14.735C24.9669 14.735 24.9006 14.7153 24.8437 14.6784L24.7547 14.6219C24.5882 14.5151 24.4013 14.4442 24.2059 14.4137C24.0105 14.3833 23.8109 14.3939 23.6198 14.4451C23.4288 14.4962 23.2505 14.5866 23.0964 14.7105C22.9423 14.8344 22.8157 14.9892 22.7248 15.1648L22.6757 15.2597C22.6428 15.319 22.5944 15.3681 22.5357 15.402C22.477 15.4358 22.4101 15.453 22.3424 15.4517L22.2357 15.4469C22.0383 15.4376 21.841 15.4696 21.6566 15.5408C21.4722 15.6121 21.3047 15.7211 21.1649 15.8608C21.025 16.0005 20.9159 16.1679 20.8444 16.3522C20.7729 16.5365 20.7407 16.7337 20.7499 16.9312L20.7547 17.0379C20.7576 17.1058 20.7411 17.1731 20.7069 17.2319C20.6728 17.2907 20.6226 17.3385 20.5621 17.3696L20.4688 17.4181C20.2931 17.509 20.1383 17.6354 20.0142 17.7895C19.8902 17.9436 19.7996 18.1218 19.7484 18.3128C19.6971 18.5039 19.6863 18.7035 19.7166 18.899C19.7469 19.0944 19.8176 19.2814 19.9243 19.448L19.9824 19.5387C20.0192 19.5955 20.0388 19.6619 20.0388 19.7296C20.0388 19.7973 20.0192 19.8637 19.9824 19.9205L19.9259 20.0096C19.8191 20.1761 19.7482 20.363 19.7177 20.5584C19.6873 20.7538 19.6979 20.9534 19.749 21.1444C19.8001 21.3355 19.8906 21.5138 20.0145 21.6679C20.1384 21.822 20.2932 21.9486 20.4688 22.0395L20.5637 22.0885C20.6242 22.12 20.6744 22.1681 20.7084 22.2272C20.7424 22.2862 20.7588 22.3538 20.7557 22.4219L20.7509 22.5285C20.7329 22.858 20.8316 23.1832 21.0297 23.447C21.2279 23.7108 21.5127 23.8962 21.8341 23.9707V26.6667H13.8341C13.4098 26.6667 13.0028 26.4981 12.7028 26.198C12.4027 25.898 12.2341 25.491 12.2341 25.0667V2.66667C12.2341 2.24232 12.4027 1.83535 12.7028 1.5353C13.0028 1.23524 13.4098 1.06667 13.8341 1.06667H29.8341C30.2585 1.06667 30.6654 1.23524 30.9655 1.5353C31.2656 1.83535 31.4341 2.24232 31.4341 2.66667V25.0667Z" fill="white"/>
<path d="M25.034 16.5332C24.4011 16.5332 23.7824 16.7209 23.2562 17.0725C22.7299 17.4241 22.3198 17.9239 22.0776 18.5086C21.8354 19.0933 21.772 19.7368 21.8955 20.3575C22.0189 20.9782 22.3237 21.5484 22.7712 21.9959C23.2188 22.4435 23.789 22.7482 24.4097 22.8717C25.0304 22.9952 25.6738 22.9318 26.2586 22.6896C26.8433 22.4474 27.3431 22.0373 27.6947 21.511C28.0463 20.9848 28.234 20.3661 28.234 19.7332C28.2331 18.8848 27.8957 18.0713 27.2958 17.4714C26.6959 16.8715 25.8824 16.5341 25.034 16.5332ZM25.034 21.8665C24.6121 21.8665 24.1996 21.7414 23.8488 21.507C23.4979 21.2726 23.2245 20.9394 23.063 20.5496C22.9016 20.1598 22.8593 19.7308 22.9416 19.317C23.024 18.9032 23.2271 18.5231 23.5255 18.2247C23.8238 17.9264 24.204 17.7232 24.6178 17.6409C25.0316 17.5585 25.4606 17.6008 25.8504 17.7623C26.2402 17.9237 26.5734 18.1972 26.8078 18.548C27.0422 18.8988 27.1673 19.3113 27.1673 19.7332C27.1673 20.299 26.9426 20.8416 26.5425 21.2417C26.1424 21.6418 25.5998 21.8665 25.034 21.8665Z" fill="white"/>
<path d="M15.434 3.7334H14.3673C14.2259 3.7334 14.0902 3.78959 13.9902 3.88961C13.8902 3.98963 13.834 4.12528 13.834 4.26673C13.834 4.40818 13.8902 4.54384 13.9902 4.64386C14.0902 4.74387 14.2259 4.80007 14.3673 4.80007H15.434C15.5754 4.80007 15.7111 4.74387 15.8111 4.64386C15.9111 4.54384 15.9673 4.40818 15.9673 4.26673C15.9673 4.12528 15.9111 3.98963 15.8111 3.88961C15.7111 3.78959 15.5754 3.7334 15.434 3.7334Z" fill="white"/>
<path d="M29.2997 3.7334H18.0997C17.9583 3.7334 17.8226 3.78959 17.7226 3.88961C17.6226 3.98963 17.5664 4.12528 17.5664 4.26673C17.5664 4.40818 17.6226 4.54384 17.7226 4.64386C17.8226 4.74387 17.9583 4.80007 18.0997 4.80007H29.2997C29.4412 4.80007 29.5768 4.74387 29.6769 4.64386C29.7769 4.54384 29.8331 4.40818 29.8331 4.26673C29.8331 4.12528 29.7769 3.98963 29.6769 3.88961C29.5768 3.78959 29.4412 3.7334 29.2997 3.7334Z" fill="white"/>
<path d="M15.434 6.3999H14.3673C14.2259 6.3999 14.0902 6.45609 13.9902 6.55611C13.8902 6.65613 13.834 6.79179 13.834 6.93324C13.834 7.07468 13.8902 7.21034 13.9902 7.31036C14.0902 7.41038 14.2259 7.46657 14.3673 7.46657H15.434C15.5754 7.46657 15.7111 7.41038 15.8111 7.31036C15.9111 7.21034 15.9673 7.07468 15.9673 6.93324C15.9673 6.79179 15.9111 6.65613 15.8111 6.55611C15.7111 6.45609 15.5754 6.3999 15.434 6.3999Z" fill="white"/>
<path d="M29.2997 6.3999H18.0997C17.9583 6.3999 17.8226 6.45609 17.7226 6.55611C17.6226 6.65613 17.5664 6.79179 17.5664 6.93324C17.5664 7.07468 17.6226 7.21034 17.7226 7.31036C17.8226 7.41038 17.9583 7.46657 18.0997 7.46657H29.2997C29.4412 7.46657 29.5768 7.41038 29.6769 7.31036C29.7769 7.21034 29.8331 7.07468 29.8331 6.93324C29.8331 6.79179 29.7769 6.65613 29.6769 6.55611C29.5768 6.45609 29.4412 6.3999 29.2997 6.3999Z" fill="white"/>
<path d="M15.434 9.06689H14.3673C14.2259 9.06689 14.0902 9.12308 13.9902 9.2231C13.8902 9.32312 13.834 9.45878 13.834 9.60023C13.834 9.74168 13.8902 9.87733 13.9902 9.97735C14.0902 10.0774 14.2259 10.1336 14.3673 10.1336H15.434C15.5754 10.1336 15.7111 10.0774 15.8111 9.97735C15.9111 9.87733 15.9673 9.74168 15.9673 9.60023C15.9673 9.45878 15.9111 9.32312 15.8111 9.2231C15.7111 9.12308 15.5754 9.06689 15.434 9.06689Z" fill="white"/>
<path d="M29.2997 9.06689H18.0997C17.9583 9.06689 17.8226 9.12308 17.7226 9.2231C17.6226 9.32312 17.5664 9.45878 17.5664 9.60023C17.5664 9.74168 17.6226 9.87733 17.7226 9.97735C17.8226 10.0774 17.9583 10.1336 18.0997 10.1336H29.2997C29.4412 10.1336 29.5768 10.0774 29.6769 9.97735C29.7769 9.87733 29.8331 9.74168 29.8331 9.60023C29.8331 9.45878 29.7769 9.32312 29.6769 9.2231C29.5768 9.12308 29.4412 9.06689 29.2997 9.06689Z" fill="white"/>
<path d="M15.434 11.7334H14.3673C14.2259 11.7334 14.0902 11.7896 13.9902 11.8896C13.8902 11.9896 13.834 12.1253 13.834 12.2667C13.834 12.4082 13.8902 12.5438 13.9902 12.6439C14.0902 12.7439 14.2259 12.8001 14.3673 12.8001H15.434C15.5754 12.8001 15.7111 12.7439 15.8111 12.6439C15.9111 12.5438 15.9673 12.4082 15.9673 12.2667C15.9673 12.1253 15.9111 11.9896 15.8111 11.8896C15.7111 11.7896 15.5754 11.7334 15.434 11.7334Z" fill="white"/>
<path d="M20.7664 11.7334H18.0997C17.9583 11.7334 17.8226 11.7896 17.7226 11.8896C17.6226 11.9896 17.5664 12.1253 17.5664 12.2667C17.5664 12.4082 17.6226 12.5438 17.7226 12.6439C17.8226 12.7439 17.9583 12.8001 18.0997 12.8001H20.7664C20.9079 12.8001 21.0435 12.7439 21.1435 12.6439C21.2435 12.5438 21.2997 12.4082 21.2997 12.2667C21.2997 12.1253 21.2435 11.9896 21.1435 11.8896C21.0435 11.7896 20.9079 11.7334 20.7664 11.7334Z" fill="white"/>
<path d="M5.22456 9.25799C5.29448 9.24336 5.36074 9.21483 5.41942 9.1741C5.4781 9.13337 5.528 9.08127 5.56616 9.02089C5.60432 8.9605 5.62996 8.89307 5.64156 8.82258C5.65316 8.7521 5.65049 8.68001 5.63369 8.61058C5.6169 8.54115 5.58633 8.4758 5.5438 8.41841C5.50127 8.36102 5.44764 8.31276 5.3861 8.27649C5.32456 8.24023 5.25636 8.21669 5.18555 8.20728C5.11475 8.19787 5.04277 8.20279 4.97389 8.22173L3.93709 8.47293C3.81072 8.50404 3.70009 8.58028 3.62603 8.6873C3.55197 8.79431 3.51959 8.92471 3.535 9.05394C3.55041 9.18317 3.61254 9.3023 3.70968 9.38891C3.80683 9.47551 3.93228 9.5236 4.06243 9.52413C4.10484 9.5244 4.14712 9.51938 4.18829 9.50919L5.22456 9.25799Z" fill="white"/>
<path d="M5.85226 11.8501C5.98975 11.8168 6.10837 11.7303 6.18204 11.6095C6.2557 11.4887 6.27837 11.3436 6.24506 11.2061C6.21175 11.0687 6.12519 10.95 6.00441 10.8764C5.88364 10.8027 5.73855 10.78 5.60106 10.8133L4.56426 11.0645C4.43739 11.0952 4.32618 11.1713 4.25167 11.2785C4.17717 11.3857 4.14455 11.5164 4.16 11.646C4.17544 11.7757 4.23788 11.8951 4.33548 11.9818C4.43308 12.0684 4.55907 12.1163 4.68959 12.1163C4.73203 12.1164 4.77431 12.1112 4.81546 12.1008L5.85226 11.8501Z" fill="white"/>
<path d="M6.47868 14.4421C6.54835 14.4272 6.61433 14.3984 6.67272 14.3576C6.73111 14.3168 6.78072 14.2646 6.81863 14.2043C6.85654 14.144 6.88198 14.0767 6.89345 14.0064C6.90491 13.936 6.90217 13.8641 6.88538 13.7949C6.8686 13.7257 6.83811 13.6605 6.79572 13.6032C6.75332 13.5459 6.69989 13.4978 6.63856 13.4615C6.57723 13.4252 6.50926 13.4016 6.43866 13.392C6.36805 13.3825 6.29625 13.3871 6.22748 13.4058L5.19122 13.6565C5.06439 13.6871 4.95321 13.7632 4.8787 13.8703C4.8042 13.9774 4.77155 14.1081 4.78692 14.2377C4.80229 14.3673 4.86463 14.4867 4.96213 14.5734C5.05964 14.6601 5.18554 14.7081 5.31602 14.7082C5.35859 14.7082 5.40102 14.7032 5.44242 14.6933L6.47868 14.4421Z" fill="white"/>
<path d="M6.85497 16L5.81817 16.2512C5.69135 16.2819 5.58016 16.358 5.50566 16.4651C5.43115 16.5722 5.3985 16.7029 5.41387 16.8325C5.42925 16.962 5.49159 17.0815 5.58909 17.1682C5.68659 17.2549 5.81249 17.3028 5.94297 17.303C5.9854 17.3031 6.02768 17.2979 6.06884 17.2875L7.10617 17.0363C7.17584 17.0214 7.24182 16.9927 7.3002 16.9518C7.35859 16.911 7.40821 16.8589 7.44612 16.7986C7.48403 16.7382 7.50947 16.6709 7.52093 16.6006C7.5324 16.5303 7.52966 16.4584 7.51287 16.3891C7.49609 16.3199 7.4656 16.2547 7.4232 16.1974C7.38081 16.1402 7.32737 16.092 7.26605 16.0557C7.20472 16.0195 7.13675 15.9958 7.06614 15.9863C6.99554 15.9767 6.92374 15.9814 6.85497 16Z" fill="white"/>
</g>
<defs>
<clipPath id="clip0_243_3734">
<rect width="32" height="32" fill="white" transform="translate(0.5)"/>
</clipPath>
</defs>
</svg>
