<svg width="36" height="36" viewBox="0 0 36 36" fill="none" xmlns="http://www.w3.org/2000/svg">
<path d="M25.2717 23.4965H28.2437C32.5075 23.4965 35.9767 20.0272 35.9767 15.7634C35.9767 11.9852 33.2429 8.77196 29.5588 8.14238C29.3028 6.22332 28.3853 4.456 26.9487 3.13382C25.4118 1.71904 23.4133 0.93927 21.3231 0.93927C18.6522 0.93927 16.1682 2.21087 14.604 4.3595C13.8413 4.0809 13.0406 3.94005 12.2188 3.94005C10.4055 3.94005 8.68881 4.63266 7.38297 5.89024C6.1713 7.05756 5.432 8.59686 5.27791 10.2576C3.86857 10.5681 2.58764 11.3323 1.639 12.4365C0.596978 13.649 0.0234375 15.1984 0.0234375 16.7984C0.0234375 20.4918 3.02811 23.4965 6.72149 23.4965H10.1301V26.3455L8.99854 27.1572C8.76352 26.9899 8.47636 26.8902 8.16663 26.8902C7.37363 26.8902 6.72772 27.5354 6.72772 28.3292C6.72772 29.1229 7.37285 29.7681 8.16663 29.7681C8.9604 29.7681 9.60554 29.1229 9.60554 28.3292C9.60554 28.1852 9.58375 28.0467 9.54406 27.9159L10.8694 26.9657C10.9915 26.8778 11.0639 26.7369 11.0639 26.586V23.4972H13.5643V29.993L12.4328 30.8046C12.1978 30.6373 11.9106 30.5377 11.6009 30.5377C10.8079 30.5377 10.162 31.1829 10.162 31.9766C10.162 32.7704 10.8071 33.4155 11.6009 33.4155C12.3939 33.4155 13.0398 32.7704 13.0398 31.9766C13.0398 31.8327 13.018 31.6941 12.9783 31.5634L14.3036 30.6132C14.4258 30.5253 14.4981 30.3844 14.4981 30.2334V23.498H17.2499V32.2653C16.6857 32.4599 16.2787 32.9953 16.2787 33.6249C16.2787 34.4179 16.9238 35.0638 17.7176 35.0638C18.5114 35.0638 19.1565 34.4187 19.1565 33.6249C19.1565 32.9953 18.7495 32.4599 18.1845 32.2653V23.4965H20.9363V30.2319C20.9363 30.3821 21.0087 30.5237 21.1308 30.6116L22.4561 31.5618C22.4164 31.6926 22.3946 31.8311 22.3946 31.9751C22.3946 32.7681 23.0398 33.414 23.8336 33.414C24.6266 33.414 25.2725 32.7688 25.2725 31.9751C25.2725 31.1813 24.6273 30.5362 23.8336 30.5362C23.523 30.5362 23.2367 30.6358 23.0016 30.8031L21.8701 29.9914V23.4957H24.3386V26.5844C24.3386 26.7346 24.411 26.8762 24.5332 26.9642L25.8585 27.9144C25.8188 28.0451 25.797 28.1836 25.797 28.3276C25.797 29.1206 26.4421 29.7665 27.2359 29.7665C28.0297 29.7665 28.6748 29.1214 28.6748 28.3276C28.6748 27.5338 28.0297 26.8887 27.2359 26.8887C26.9254 26.8887 26.639 26.9883 26.404 27.1556L25.2725 26.3439V23.4965H25.2717ZM8.16585 28.8334C7.88725 28.8334 7.66079 28.607 7.66079 28.3284C7.66079 28.0498 7.88725 27.8233 8.16585 27.8233C8.44445 27.8233 8.67091 28.0498 8.67091 28.3284C8.67091 28.607 8.44445 28.8334 8.16585 28.8334ZM11.6009 32.4794C11.3223 32.4794 11.0958 32.2529 11.0958 31.9743C11.0958 31.6957 11.3223 31.4692 11.6009 31.4692C11.8795 31.4692 12.1059 31.6957 12.1059 31.9743C12.1059 32.2529 11.8787 32.4794 11.6009 32.4794ZM17.7168 34.1276C17.4382 34.1276 17.2118 33.9011 17.2118 33.6225C17.2118 33.3447 17.4367 33.119 17.7145 33.1183H17.7168H17.7192C17.9962 33.1198 18.2219 33.3455 18.2219 33.6225C18.2219 33.9011 17.9954 34.1276 17.7168 34.1276ZM24.3378 31.9751C24.3378 32.2537 24.1114 32.4801 23.8328 32.4801C23.5542 32.4801 23.3277 32.2537 23.3277 31.9751C23.3277 31.6965 23.5542 31.47 23.8328 31.47C24.1114 31.47 24.3378 31.6965 24.3378 31.9751ZM0.95729 16.7984C0.95729 15.421 1.45067 14.0879 2.34717 13.0443C3.23433 12.0124 4.45846 11.3245 5.79387 11.1089C6.01332 11.0731 6.17675 10.8887 6.18608 10.6669C6.31527 7.41865 8.96507 4.8739 12.218 4.8739C13.0421 4.8739 13.8406 5.03732 14.5923 5.35873C14.8001 5.44744 15.0413 5.37507 15.1659 5.18674C16.5378 3.11125 18.8398 1.87312 21.3231 1.87312C23.1791 1.87312 24.9526 2.56495 26.3168 3.82098C27.6732 5.06923 28.509 6.76417 28.6701 8.59297C28.6896 8.81242 28.86 8.98908 29.0787 9.01554C32.4795 9.4311 35.0437 12.3323 35.0437 15.7634C35.0437 19.5128 31.9939 22.5626 28.2445 22.5626H6.72149C3.54328 22.5626 0.95729 19.9766 0.95729 16.7984ZM27.7402 28.3284C27.7402 28.607 27.5137 28.8334 27.2351 28.8334C26.9565 28.8334 26.7301 28.607 26.7301 28.3284C26.7301 28.0498 26.9565 27.8233 27.2351 27.8233C27.5137 27.8233 27.7402 28.0498 27.7402 28.3284Z" fill="white"/>
<path d="M11.6661 15.9852C11.4086 15.9852 11.1992 16.1945 11.1992 16.4521C11.1992 16.7097 11.4086 16.919 11.6661 16.919H13.1634V17.0615C13.1634 18.151 14.049 19.0381 15.1385 19.0397V20.5369C15.1385 20.7945 15.3479 21.0039 15.6054 21.0039C15.863 21.0039 16.0724 20.7945 16.0724 20.5369V19.0397H17.337V20.5369C17.337 20.7945 17.5463 21.0039 17.8039 21.0039C18.0615 21.0039 18.2708 20.7945 18.2708 20.5369V19.0397H19.7782V20.5369C19.7782 20.7945 19.9875 21.0039 20.2451 21.0039C20.5027 21.0039 20.7121 20.7945 20.7121 20.5369V19.0397H21C22.091 19.0397 22.9782 18.1525 22.9782 17.0615V16.919H24.4755C24.7331 16.919 24.9424 16.7097 24.9424 16.4521C24.9424 16.1945 24.7331 15.9852 24.4755 15.9852H22.9782V14.5992H24.4755C24.7331 14.5992 24.9424 14.3899 24.9424 14.1323C24.9424 13.8747 24.7331 13.6654 24.4755 13.6654H22.9782V12.2794H24.4755C24.7331 12.2794 24.9424 12.07 24.9424 11.8124C24.9424 11.5548 24.7331 11.3455 24.4755 11.3455H22.9782V11.2031C22.9782 10.112 22.091 9.22488 21 9.22488H20.8576V7.72761C20.8576 7.47002 20.6482 7.26068 20.3907 7.26068C20.1331 7.26068 19.9237 7.47002 19.9237 7.72761V9.22488H18.537V7.72761C18.537 7.47002 18.3276 7.26068 18.07 7.26068C17.8124 7.26068 17.6031 7.47002 17.6031 7.72761V9.22488H16.2179V7.72761C16.2179 7.47002 16.0086 7.26068 15.751 7.26068C15.4934 7.26068 15.284 7.47002 15.284 7.72761V9.22488H15.1416C14.0506 9.22488 13.1634 10.112 13.1634 11.2031V11.3455H11.6661C11.4086 11.3455 11.1992 11.5548 11.1992 11.8124C11.1992 12.07 11.4086 12.2794 11.6661 12.2794H13.1634V13.6654H11.6661C11.4086 13.6654 11.1992 13.8747 11.1992 14.1323C11.1992 14.3899 11.4086 14.5992 11.6661 14.5992H13.1634V15.9852H11.6661ZM14.0973 11.2031C14.0973 10.6272 14.5658 10.1587 15.1416 10.1587H21C21.5759 10.1587 22.0444 10.6272 22.0444 11.2031V17.0615C22.0444 17.6373 21.5759 18.1058 21 18.1058H15.1416C14.5658 18.1058 14.0973 17.6373 14.0973 17.0615V11.2031Z" fill="white"/>
<path d="M20.007 16.2833C20.2646 16.2833 20.4739 16.0739 20.4739 15.8163V12.4482C20.4739 12.1907 20.2646 11.9813 20.007 11.9813C19.7494 11.9813 19.54 12.1907 19.54 12.4482V15.8163C19.54 16.0739 19.7486 16.2833 20.007 16.2833Z" fill="white"/>
<path d="M15.667 15.8163C15.667 16.0739 15.8763 16.2833 16.1339 16.2833C16.3915 16.2833 16.6008 16.0739 16.6008 15.8163V14.835H17.6662V15.8163C17.6662 16.0739 17.8756 16.2833 18.1331 16.2833C18.3907 16.2833 18.6001 16.0739 18.6001 15.8163V13.4475C18.6001 12.6389 17.9425 11.9813 17.1339 11.9813C16.3254 11.9813 15.6678 12.6389 15.6678 13.4475V15.8163H15.667ZM17.1339 12.9152C17.4273 12.9152 17.6662 13.1541 17.6662 13.4475V13.9004H16.6008V13.4475C16.6008 13.1541 16.8398 12.9152 17.1339 12.9152Z" fill="white"/>
</svg>
