<svg width="50" height="50" viewBox="0 0 50 50" fill="none" xmlns="http://www.w3.org/2000/svg">
<path fill-rule="evenodd" clip-rule="evenodd" d="M30.2034 30.7323C30.3186 30.9996 30.5727 31.1807 30.8629 31.2023C30.8824 31.2038 30.9018 31.2045 30.9212 31.2045C31.19 31.2045 31.4417 31.0659 31.5849 30.8351L33.4778 27.7849L36.9946 28.5051C37.28 28.5633 37.5737 28.4585 37.7573 28.2328C37.941 28.0071 37.984 27.6979 37.869 27.4307L35.2571 21.3666C35.337 21.3327 35.4188 21.2978 35.5049 21.261C36.8518 20.6843 37.6398 19.3192 37.4659 17.8644C37.4336 17.5942 37.4034 17.3538 37.3764 17.138C37.2679 16.2723 37.2133 15.8377 37.2719 15.5057C37.3305 15.1736 37.5303 14.7839 37.9284 14.0075C38.0278 13.8139 38.1383 13.5983 38.2611 13.3554C38.9221 12.0477 38.6484 10.4955 37.58 9.49296C37.3817 9.30673 37.2039 9.14198 37.0446 8.99393C36.4048 8.40057 36.0837 8.10272 35.9153 7.81073C35.7466 7.51874 35.6492 7.09178 35.4552 6.2412C35.4068 6.02909 35.3529 5.79276 35.2907 5.52772C34.9566 4.10116 33.7491 3.08807 32.2862 3.00673C32.0146 2.99159 31.7726 2.97958 31.5553 2.96874C30.6838 2.92538 30.2464 2.9036 29.9296 2.78827C29.6128 2.67294 29.2638 2.40848 28.5683 1.88153C28.3949 1.75009 28.2017 1.6038 27.9839 1.44071C26.8109 0.562781 25.2349 0.562683 24.0618 1.44071C23.8441 1.6038 23.6508 1.75009 23.4775 1.88153C22.782 2.40848 22.4329 2.67294 22.1161 2.78827C21.7993 2.9036 21.3618 2.92538 20.4904 2.96874C20.2731 2.97958 20.0312 2.99159 19.7595 3.00673C18.2966 3.08807 17.0891 4.10126 16.755 5.52772C16.6929 5.79276 16.639 6.02899 16.5905 6.2412C16.3965 7.09178 16.2991 7.51884 16.1305 7.81073C15.9619 8.10272 15.6408 8.40057 15.0012 8.99393C14.8417 9.14198 14.6641 9.30673 14.4657 9.49296C13.3975 10.4956 13.1237 12.0478 13.7846 13.3555C13.9073 13.5982 14.0179 13.8138 14.1171 14.0073C14.5153 14.7838 14.7152 15.1735 14.7738 15.5056C14.8323 15.8375 14.7778 16.2721 14.6693 17.1377C14.6422 17.3536 14.612 17.5941 14.5797 17.8644C14.4059 19.3192 15.1939 20.6843 16.5407 21.261C16.7909 21.3682 17.0142 21.4623 17.2147 21.5468C17.2756 21.5724 17.3334 21.5969 17.3899 21.6207L14.1861 28.5019C14.0632 28.7658 14.0973 29.076 14.2742 29.307C14.4513 29.538 14.742 29.6517 15.0288 29.6013L18.5653 28.9834L20.3689 32.0872C20.5092 32.3285 20.7668 32.4759 21.0443 32.4759C21.056 32.4759 21.0679 32.4756 21.0797 32.4751C21.3705 32.4619 21.6298 32.2882 21.7527 32.0244L24.941 25.1759C25.4526 25.0222 25.7626 24.9447 26.0231 24.9447C26.3602 24.9447 26.7787 25.0738 27.6125 25.3311C27.709 25.3609 27.8112 25.3925 27.9183 25.4253L30.2034 30.7323ZM33.2577 26.1448C32.9372 26.0793 32.6097 26.2203 32.4371 26.4982L31.0464 28.7394L29.7187 25.6565C30.63 25.5301 31.4641 25.0194 31.9973 24.204C32.1462 23.9762 32.2777 23.7726 32.3957 23.5898C32.8691 22.8568 33.1066 22.489 33.3649 22.2722C33.4808 22.1749 33.6264 22.087 33.8238 21.989L35.8416 26.6739L33.2577 26.1448ZM20.9672 30.008L19.6421 27.7275C19.4777 27.4446 19.1544 27.2943 18.8321 27.3505L16.2339 27.8044L18.7708 22.3556C18.9975 22.5807 19.2317 22.9431 19.6493 23.5899C19.7674 23.7727 19.8988 23.9763 20.0478 24.204C20.707 25.2121 21.8254 25.7552 22.9817 25.6811L20.9672 30.008ZM26.0225 23.3814C25.4908 23.3814 24.959 23.5337 23.9723 23.8382C23.7669 23.9015 23.5384 23.9721 23.2812 24.0498C22.5373 24.2744 21.7811 23.9996 21.3554 23.3488C21.2082 23.1239 21.0784 22.9228 20.9619 22.7424C19.8415 21.0074 19.7241 20.909 17.8209 20.1069C17.623 20.0235 17.4025 19.9306 17.1554 19.8247C16.4406 19.5185 16.0384 18.8219 16.1307 18.0498C16.1626 17.7829 16.1924 17.5453 16.2192 17.3321C16.4761 15.2831 16.4494 15.1321 15.507 13.2942C15.4089 13.103 15.2998 12.8902 15.1786 12.6505C14.8279 11.9565 14.9676 11.1643 15.5346 10.6322C15.7306 10.4483 15.906 10.2856 16.0635 10.1394C17.5777 8.73485 17.6542 8.60214 18.1136 6.58876C18.1613 6.37919 18.2146 6.14589 18.2759 5.88407C18.4531 5.12704 19.0695 4.60995 19.8458 4.56678C20.1142 4.55184 20.3531 4.53993 20.5678 4.52928C22.6305 4.42655 22.7746 4.37411 24.4207 3.12694C24.592 2.99716 24.7827 2.85262 24.9979 2.69159C25.6204 2.22567 26.4247 2.22567 27.0473 2.69159C27.2624 2.85262 27.4531 2.99716 27.6244 3.12694C29.2705 4.37411 29.4147 4.42655 31.4774 4.52928C31.6919 4.53993 31.931 4.55184 32.1993 4.56678C32.9757 4.60995 33.5919 5.12704 33.7693 5.88407C33.8306 6.14579 33.8838 6.37909 33.9316 6.58866C34.3909 8.60204 34.4675 8.73485 35.9817 10.1393C36.1392 10.2855 36.3146 10.4482 36.5106 10.6321C37.0776 11.1642 37.2171 11.9564 36.8664 12.6504C36.7452 12.8902 36.6361 13.1032 36.5379 13.2944C35.5956 15.1321 35.569 15.2831 35.826 17.3323C35.8527 17.5455 35.8825 17.7829 35.9144 18.0497C36.0067 18.8218 35.6044 19.5185 34.8897 19.8246C34.6426 19.9304 34.4221 20.0233 34.2241 20.1068C32.321 20.9089 32.2036 21.0074 31.0832 22.7423C30.9667 22.9228 30.8369 23.1238 30.6898 23.3488C30.2643 23.9995 29.5086 24.2748 28.764 24.0498C28.5068 23.9721 28.2781 23.9015 28.0729 23.8382C27.086 23.5337 26.5541 23.3814 26.0225 23.3814ZM33.7761 13.2348C33.7761 8.95936 30.2979 5.48114 26.0225 5.48114C21.7472 5.48114 18.269 8.95936 18.269 13.2348C18.269 17.5101 21.7472 20.9885 26.0225 20.9885C30.2978 20.9885 33.7761 17.5102 33.7761 13.2348ZM26.0224 19.426C22.6086 19.426 19.8314 16.6486 19.8314 13.2348C19.8314 9.82098 22.6086 7.04364 26.0224 7.04364C29.4362 7.04364 32.2135 9.82098 32.2135 13.2348C32.2136 16.6486 29.4362 19.426 26.0224 19.426ZM30.3132 11.3927L24.9783 16.2342C24.8291 16.3696 24.6411 16.4369 24.4534 16.4369C24.253 16.4369 24.053 16.3602 23.9009 16.2081L21.7044 14.0116C21.3993 13.7065 21.3993 13.2119 21.7044 12.9068C22.0096 12.6017 22.5041 12.6017 22.8093 12.9068L24.4795 14.577L29.2632 10.2357C29.5826 9.94589 30.0768 9.96971 30.3667 10.2892C30.6567 10.6086 30.6327 11.1027 30.3132 11.3927ZM45.1447 36.9899C46.1745 35.9603 46.6975 34.6614 46.6571 33.2336L46.2767 19.8026C46.2392 18.4764 44.9206 17.288 43.4988 17.288C43.4852 17.288 43.4716 17.2881 43.458 17.2883C42.7644 17.2994 40.5028 17.673 40.5192 22.0141L40.547 29.3099C40.5477 29.4767 40.5371 29.6388 40.5154 29.7967C40.4604 29.7308 40.4014 29.6665 40.3385 29.6036C39.3742 28.6394 37.7951 28.6272 36.7434 29.5758C36.7172 29.5993 36.6926 29.6246 36.6699 29.6515C35.4931 31.0429 34.0471 32.2616 32.8851 33.2408C32.4776 33.5843 32.0928 33.9086 31.7768 34.1933C30.4517 35.3877 30.2748 37.0333 30.2766 38.4854L30.2828 43.6813L29.6091 43.6756C29.1529 43.6714 28.7231 43.8461 28.3969 44.1666C28.0707 44.4872 27.8889 44.9147 27.885 45.3703L27.8675 47.4027C27.8636 47.8583 28.038 48.2889 28.3586 48.615C28.6791 48.9412 29.1067 49.1229 29.5622 49.1268L40.1204 49.2176C40.1254 49.2176 40.1304 49.2177 40.1354 49.2177C40.5854 49.2177 41.0101 49.0435 41.3326 48.7265C41.6588 48.4058 41.8405 47.9784 41.8445 47.5228L41.8619 45.4904C41.8658 45.0349 41.6914 44.6043 41.3708 44.2781C41.0503 43.9519 40.6228 43.7702 40.1672 43.7663L39.2986 43.7589V42.8361L45.1447 36.9899ZM40.2994 45.477L40.282 47.5095C40.2816 47.5585 40.2574 47.5925 40.2372 47.6123C40.2171 47.6322 40.1857 47.6555 40.1337 47.6553L29.5755 47.5645C29.5266 47.5641 29.4926 47.54 29.4728 47.5198C29.4529 47.4996 29.4294 47.4653 29.4299 47.4163L29.4474 45.3839C29.4478 45.3349 29.4719 45.3009 29.4921 45.281C29.512 45.2614 29.546 45.2381 29.5942 45.2381H29.5955H29.5956L40.1538 45.3288C40.2335 45.3296 40.3002 45.3974 40.2994 45.477ZM31.8453 43.6949L31.8391 38.4837C31.8371 36.8924 32.1222 35.9857 32.823 35.3541C33.1196 35.0867 33.4775 34.785 33.8919 34.4358C35.0864 33.429 36.5703 32.1785 37.8243 30.7061C38.2629 30.3383 38.8616 30.3366 39.2336 30.7086C39.6295 31.1044 39.63 31.5753 39.2369 32.1083C38.6157 32.8065 37.9626 33.439 37.2715 34.1078C36.9398 34.4289 36.5966 34.7609 36.2505 35.1071C35.9454 35.4122 35.9454 35.9068 36.2506 36.2119C36.4031 36.3644 36.603 36.4407 36.8029 36.4407C37.0029 36.4407 37.2029 36.3644 37.3554 36.2118C37.6924 35.8748 38.0308 35.5473 38.3581 35.2306C39.0802 34.5318 39.7621 33.8719 40.4302 33.1182C40.4337 33.1141 40.9534 32.4784 40.9534 32.4784C41.7358 31.5153 42.1139 30.4769 42.1095 29.3042L42.0817 22.0083C42.0743 20.0746 42.6113 18.8646 43.483 18.8507C43.4884 18.8506 43.4936 18.8506 43.4988 18.8506C44.079 18.8506 44.701 19.3579 44.7148 19.847L45.0952 33.2779C45.1236 34.2795 44.7685 35.1567 44.0399 35.8851L37.9649 41.9601C37.8184 42.1066 37.7361 42.3054 37.7361 42.5125V43.7455L31.8453 43.6949ZM30.1989 46.1784C30.3278 45.8543 30.695 45.696 31.0192 45.8249C31.3433 45.9537 31.5016 46.321 31.3728 46.6451C31.2439 46.9692 30.8767 47.1275 30.5526 46.9986C30.2283 46.8697 30.07 46.5025 30.1989 46.1784ZM21.6022 44.1668C21.276 43.8461 20.8451 43.6723 20.3899 43.6758L19.7162 43.6815L19.7225 38.4856C19.7242 37.0334 19.5474 35.3878 18.2223 34.1935C17.9065 33.9087 17.5215 33.5845 17.1141 33.2411C15.9522 32.2618 14.5061 31.0431 13.3292 29.6516C13.3066 29.6248 13.2821 29.5995 13.2559 29.576C12.2036 28.6274 10.6244 28.6397 9.66066 29.6038C9.59768 29.6667 9.53879 29.731 9.48371 29.7969C9.46193 29.639 9.45148 29.477 9.45217 29.3102L9.48 22.0142C9.49641 17.6731 7.23479 17.2996 6.54113 17.2884C6.52746 17.2882 6.51408 17.2881 6.50031 17.2881C5.07854 17.2881 3.75988 18.4765 3.72248 19.8027L3.34201 33.2338C3.30168 34.6616 3.82463 35.9604 4.85432 36.99L10.7005 42.8363V43.7591L9.83186 43.7665C9.37629 43.7704 8.94875 43.9521 8.62824 44.2783C8.30764 44.6045 8.13322 45.035 8.13713 45.4906L8.15461 47.523C8.15852 47.9786 8.34025 48.406 8.66643 48.7266C8.98899 49.0437 9.41359 49.2179 9.86369 49.2179C9.86867 49.2179 9.87375 49.2179 9.87863 49.2178L20.4368 49.127C20.8924 49.1231 21.3199 48.9414 21.6404 48.6152C21.9611 48.2891 22.1355 47.8585 22.1316 47.4029L22.1141 45.3705C22.1103 44.9149 21.9283 44.4874 21.6022 44.1668ZM12.263 42.5125C12.263 42.3053 12.1807 42.1066 12.0342 41.9601L5.9591 35.885C5.23059 35.1566 4.87551 34.2795 4.90383 33.2779L5.2843 19.8469C5.29826 19.3533 5.93547 18.8422 6.51604 18.8507C7.38771 18.8646 7.92473 20.0746 7.9174 22.0082L7.88957 29.3042C7.88518 30.4769 8.2633 31.5152 9.04699 32.4801L9.54855 33.0941C9.55197 33.0983 9.56545 33.1141 9.56896 33.1182C10.237 33.8719 10.919 34.5318 11.641 35.2306C11.9684 35.5473 12.3067 35.8748 12.6438 36.2118C12.7963 36.3643 12.9962 36.4407 13.1962 36.4407C13.3961 36.4407 13.5961 36.3644 13.7486 36.2119C14.0537 35.9068 14.0537 35.4122 13.7487 35.1071C13.4026 34.761 13.0594 34.4289 12.7277 34.1078C12.0365 33.439 11.3834 32.8065 10.7622 32.1083C10.3693 31.5754 10.3696 31.1045 10.7655 30.7087C11.1377 30.3366 11.7363 30.3383 12.1749 30.7061C13.4288 32.1786 14.9126 33.4291 16.1073 34.4359C16.5217 34.7852 16.8796 35.0868 17.1763 35.3543C17.877 35.9857 18.162 36.8925 18.1601 38.4838L18.1538 43.695L12.2631 43.7456L12.263 42.5125ZM20.5262 47.5199C20.5064 47.5401 20.4724 47.5642 20.4235 47.5646L9.86525 47.6554C9.81535 47.6555 9.78186 47.6323 9.76174 47.6124C9.74152 47.5926 9.7174 47.5587 9.71701 47.5096L9.69953 45.4771C9.69904 45.4281 9.72258 45.3937 9.7424 45.3736C9.76223 45.3535 9.79621 45.3293 9.84514 45.3289L20.4032 45.2382H20.4047C20.4529 45.2382 20.4869 45.2615 20.5069 45.2811C20.5271 45.301 20.5512 45.3349 20.5516 45.384L20.5691 47.4164C20.5696 47.4654 20.546 47.4997 20.5262 47.5199ZM19.8001 46.1784C19.929 46.5025 19.7707 46.8697 19.4466 46.9986C19.1225 47.1275 18.7552 46.9692 18.6264 46.6451C18.4975 46.321 18.6558 45.9538 18.9799 45.8249C19.304 45.696 19.6712 45.8543 19.8001 46.1784Z" fill="white"/>
</svg>
