<svg width="50" height="50" viewBox="0 0 50 50" fill="none" xmlns="http://www.w3.org/2000/svg">
<path d="M2.07166 20.6277C1.04966 20.7935 0.259072 21.6129 0.129995 22.6402C-0.0416146 24.1962 -0.0433422 25.7663 0.124976 27.3227C0.242289 28.3659 1.03773 29.2046 2.07331 29.3768L4.72494 29.811C5.23401 31.9793 6.09338 34.0501 7.26906 35.9418L5.70828 38.1218C5.08634 38.965 5.1014 40.119 5.74497 40.9459C6.2417 41.5536 6.77027 42.1347 7.32829 42.6868C7.83999 43.1993 8.40574 43.7143 9.08494 44.285C9.90522 44.9159 11.0435 44.929 11.8782 44.3175L14.069 42.7459C15.9588 43.9214 18.0275 44.781 20.194 45.2908L20.629 47.9467C20.7944 48.969 21.6139 49.76 22.6415 49.8892C23.1165 49.9425 23.599 49.98 24.0848 50H24.1556C24.5899 49.9996 25.0076 49.8326 25.3223 49.5333C25.6494 49.2207 25.834 48.7875 25.833 48.335V41.6567C25.8281 40.7643 25.1237 40.0328 24.2322 39.9942C16.2562 39.5778 10.0025 32.9892 10.0025 25.0023C10.0025 17.0154 16.2562 10.4268 24.2322 10.0103C25.1251 9.97117 25.8299 9.23751 25.833 8.34368V1.66877C25.8344 1.21572 25.6493 0.782174 25.3213 0.469642C24.9939 0.148388 24.547 -0.0211643 24.0888 0.00211729C23.6039 0.0212855 23.123 0.0562491 22.6297 0.106268C21.6026 0.238635 20.7871 1.03449 20.6297 2.05789L20.1955 4.71117C18.0291 5.22139 15.9603 6.08125 14.0706 7.25701L11.8798 5.68867C11.0373 5.07257 9.88803 5.09092 9.06569 5.73367C8.46152 6.22826 7.88326 6.75362 7.33322 7.30785C6.76632 7.862 6.23265 8.44914 5.73494 9.06615C5.09909 9.8875 5.08281 11.0303 5.69496 11.8695L7.26577 14.0628C6.09107 15.9543 5.23286 18.0249 4.72494 20.1928L2.07166 20.6277ZM6.23249 21.0927C6.71696 18.739 7.64641 16.4996 8.97083 14.4945C9.16062 14.2061 9.15297 13.8306 8.95167 13.5503L7.05088 10.8962C6.87516 10.6643 6.87006 10.3452 7.03838 10.1078C7.49513 9.54173 7.98519 9.0033 8.50586 8.4953C9.01164 7.98442 9.54284 7.49929 10.0975 7.04196C10.3362 6.85999 10.6671 6.85999 10.9058 7.04196L13.5558 8.94365C13.8365 9.14447 14.212 9.15138 14.5 8.96117C16.5034 7.63626 18.7416 6.70648 21.0941 6.22201C21.4323 6.15233 21.6925 5.88118 21.7483 5.54034L22.2724 2.33118C22.3101 2.04333 22.5312 1.8138 22.8175 1.76535C23.2583 1.71953 23.705 1.68703 24.1666 1.66869L24.1483 8.34442C15.2764 8.79755 8.31681 16.1257 8.32175 25.0092C8.3266 33.8927 15.2942 41.2132 24.1666 41.6565L24.155 48.3348C23.7074 48.3165 23.2642 48.2815 22.8267 48.2323C22.5391 48.1903 22.3137 47.9635 22.2733 47.6756L21.7483 44.4648C21.6925 44.124 21.4324 43.8529 21.0941 43.7831C18.7416 43.2982 16.5034 42.3683 14.5 41.0431C14.2118 40.8531 13.8364 40.8604 13.5558 41.0615L10.9034 42.9648C10.6771 43.1407 10.3629 43.1492 10.1275 42.9856C9.51503 42.4698 8.98416 41.9857 8.50586 41.5081C7.9949 41.0032 7.5101 40.4726 7.05335 39.9181C6.8736 39.6781 6.8736 39.3483 7.05335 39.1081L8.95249 36.4565C9.15355 36.176 9.16087 35.8005 8.97083 35.5123C7.64633 33.5076 6.71688 31.2683 6.23249 28.9149C6.16289 28.577 5.89215 28.3168 5.55165 28.2607L2.34331 27.7349C2.04468 27.6855 1.8154 27.4433 1.78249 27.1424C1.62643 25.709 1.62808 24.2629 1.78751 22.8299C1.82898 22.5421 2.05537 22.316 2.34331 22.275L5.55074 21.7499C5.89256 21.694 6.16396 21.4323 6.23249 21.0927Z" fill="white"/>
<path d="M47.4995 22.5017C46.4439 22.506 45.5048 23.173 45.1528 24.1683H25.8331V21.6683H39.1663C40.547 21.6683 41.6662 20.549 41.6662 19.1684V14.8484C42.8142 14.4426 43.5027 13.2687 43.2968 12.0687C43.0909 10.8687 42.0504 9.99145 40.8328 9.99145C39.6153 9.99145 38.5748 10.8687 38.3688 12.0687C38.1629 13.2687 38.8515 14.4426 39.9995 14.8484V19.1684C39.9995 19.6286 39.6264 20.0017 39.1661 20.0017H25.8331V17.5017H34.9996C35.4598 17.5017 35.8329 17.1286 35.8329 16.6683C35.8329 16.2081 35.4598 15.835 34.9996 15.835H25.8331V14.1683H30.833C32.2137 14.1683 33.333 13.0491 33.333 11.6683V6.51517C34.481 6.10935 35.1696 4.93548 34.9636 3.73545C34.7577 2.53542 33.7172 1.6582 32.4997 1.6582C31.2821 1.6582 30.2416 2.53542 30.0357 3.73545C29.8298 4.93548 30.5183 6.10935 31.6663 6.51517V11.6685C31.6663 12.1287 31.2932 12.5018 30.8329 12.5018H25.613C25.3263 11.969 24.7541 11.6534 24.1505 11.6952C17.1281 12.14 11.6602 17.9653 11.6602 25.0018C11.6602 32.0382 17.1281 37.8635 24.1505 38.3083H24.248C24.8173 38.3131 25.3426 38.0026 25.613 37.5017H30.8329C31.2931 37.5017 31.6663 37.8748 31.6663 38.335V43.4883C30.5183 43.8942 29.8298 45.068 30.0357 46.2681C30.2416 47.4681 31.2821 48.3453 32.4997 48.3453C33.7172 48.3453 34.7577 47.4681 34.9636 46.2681C35.1696 45.068 34.481 43.8942 33.333 43.4883V38.335C33.333 36.9543 32.2138 35.835 30.833 35.835H25.8331V34.1684H34.9996C35.4598 34.1684 35.8329 33.7953 35.8329 33.3351C35.8329 32.8749 35.4598 32.5017 34.9996 32.5017H25.8331V30.0018H39.1663C39.6265 30.0018 39.9996 30.3749 39.9996 30.8351V35.155C38.8517 35.5608 38.1631 36.7347 38.369 37.9347C38.5749 39.1348 39.6154 40.012 40.833 40.012C42.0505 40.012 43.0911 39.1348 43.297 37.9347C43.5029 36.7347 42.8143 35.5608 41.6664 35.155V30.8351C41.6664 29.4544 40.5471 28.3351 39.1664 28.3351H25.8331V25.835H45.1528C45.5787 27.0305 46.8338 27.716 48.0699 27.4282C49.3059 27.1405 50.1292 25.971 49.9832 24.7104C49.8372 23.4499 48.7685 22.4994 47.4995 22.5017ZM40.8329 11.6685C41.2931 11.6685 41.6662 12.0416 41.6662 12.5018C41.6662 12.9621 41.2931 13.3352 40.8329 13.3352C40.3727 13.3352 39.9996 12.9621 39.9996 12.5018C39.9996 12.0416 40.3726 11.6685 40.8329 11.6685ZM32.4997 3.33522C32.9599 3.33522 33.333 3.7083 33.333 4.16859C33.333 4.62887 32.9599 5.00187 32.4997 5.00187C32.0394 5.00187 31.6664 4.62879 31.6664 4.16859C31.6664 3.70838 32.0394 3.33522 32.4997 3.33522ZM32.4997 46.6681C32.0395 46.6681 31.6664 46.295 31.6664 45.8348C31.6664 45.3745 32.0395 45.0014 32.4997 45.0014C32.9599 45.0014 33.333 45.3745 33.333 45.8348C33.333 46.295 32.9599 46.6681 32.4997 46.6681ZM40.8329 38.3349C40.3727 38.3349 39.9996 37.9618 39.9996 37.5015C39.9996 37.0412 40.3727 36.6682 40.8329 36.6682C41.2931 36.6682 41.6662 37.0413 41.6662 37.5015C41.6662 37.9617 41.2931 38.3349 40.8329 38.3349ZM13.3331 25.0017C13.3401 18.8845 18.0654 13.809 24.1664 13.3651V36.6383C18.0654 36.1944 13.3401 31.1187 13.3331 25.0017ZM47.4995 25.835C47.0393 25.835 46.6661 25.4619 46.6661 25.0016C46.6661 24.5413 47.0392 24.1683 47.4995 24.1683C47.9598 24.1683 48.3329 24.5414 48.3329 25.0016C48.3329 25.4618 47.9597 25.835 47.4995 25.835Z" fill="white"/>
</svg>
