<svg width="24" height="24" viewBox="0 0 24 24" fill="none" xmlns="http://www.w3.org/2000/svg">
<path d="M15.3369 10.9022C14.3951 10.3817 13.3938 9.98518 12.4024 9.57377C11.8274 9.33584 11.2772 9.05826 10.7915 8.67163C9.83482 7.90829 10.0182 6.66909 11.1385 6.17837C11.4557 6.03958 11.7878 5.99497 12.1249 5.97514C13.4235 5.90574 14.6578 6.14367 15.8325 6.70874C16.4174 6.99128 16.6108 6.90206 16.809 6.29237C17.0172 5.64799 17.1907 4.99369 17.384 4.34435C17.5129 3.90816 17.3543 3.62066 16.9429 3.43726C16.1894 3.10516 15.4162 2.86723 14.6033 2.73835C13.5425 2.57478 13.5425 2.56982 13.5375 1.50411C13.5326 0.00220305 13.5326 0.00220302 12.0257 0.00220302C11.8076 0.00220302 11.5895 -0.00275377 11.3714 0.00220302C10.6676 0.0220302 10.5486 0.14595 10.5288 0.854771C10.5189 1.17201 10.5288 1.48924 10.5238 1.81143C10.5189 2.75322 10.5139 2.73835 9.61176 3.0655C7.43077 3.85859 6.08252 5.34563 5.93878 7.72489C5.8099 9.83152 6.91031 11.2541 8.64023 12.2901C9.70594 12.9295 10.8857 13.3062 12.0158 13.8069C12.457 14.0002 12.8783 14.2232 13.2451 14.5306C14.3306 15.4277 14.1324 16.9197 12.8436 17.4848C12.1546 17.7872 11.4259 17.8615 10.6775 17.7674C9.52254 17.6236 8.41717 17.3212 7.37625 16.781C6.76656 16.4637 6.58812 16.548 6.37993 17.2072C6.20149 17.7773 6.04287 18.3523 5.88425 18.9272C5.67111 19.7005 5.75042 19.8839 6.48898 20.2457C7.43077 20.7018 8.437 20.9347 9.46306 21.0983C10.2661 21.2272 10.2908 21.2619 10.3008 22.0946C10.3057 22.4713 10.3057 22.853 10.3107 23.2297C10.3156 23.7056 10.5436 23.9832 11.0344 23.9931C11.5895 24.003 12.1496 24.003 12.7048 23.9881C13.1608 23.9782 13.3938 23.7304 13.3938 23.2694C13.3938 22.7539 13.4186 22.2334 13.3988 21.7179C13.374 21.1925 13.602 20.9248 14.1076 20.786C15.2724 20.4688 16.2638 19.8442 17.0271 18.9124C19.1486 16.3348 18.3407 12.5627 15.3369 10.9022Z" fill="#1A1B1D"/>
</svg>
