<svg width="19" height="18" viewBox="0 0 19 18" fill="none" xmlns="http://www.w3.org/2000/svg">
<path d="M5.75 6.375L7.95652 7.67955C9.2429 8.44012 9.7571 8.44012 11.0435 7.67955L13.25 6.375" stroke="#0B59DB" stroke-width="1.5" stroke-linecap="round" stroke-linejoin="round"/>
<path d="M2.01183 10.1067C2.06086 12.4059 2.08537 13.5554 2.93372 14.4071C3.78206 15.2586 4.96275 15.2882 7.32412 15.3476C8.77948 15.3842 10.2205 15.3842 11.6759 15.3476C14.0373 15.2882 15.2179 15.2586 16.0663 14.4071C16.9147 13.5554 16.9392 12.4059 16.9881 10.1067C17.004 9.36743 17.004 8.63258 16.9881 7.8933C16.9392 5.59415 16.9147 4.44457 16.0663 3.593C15.2179 2.74142 14.0373 2.71176 11.6759 2.65243C10.2205 2.61586 8.77947 2.61586 7.32411 2.65242C4.96275 2.71175 3.78206 2.74141 2.93371 3.59299C2.08537 4.44456 2.06085 5.59414 2.01182 7.8933C1.99605 8.63258 1.99606 9.36743 2.01183 10.1067Z" stroke="#0B59DB" stroke-width="1.5" stroke-linejoin="round"/>
</svg>
