<svg width="44" height="50" viewBox="0 0 44 50" fill="none" xmlns="http://www.w3.org/2000/svg">
<path d="M11.5458 22.1212C11.167 19.1666 13.2882 16.4394 16.2427 16.0606C18.1367 15.8333 19.8791 16.5909 21.0154 17.8788" stroke="#0B59DB" stroke-width="1.5" stroke-miterlimit="10" stroke-linecap="round" stroke-linejoin="round"/>
<path d="M11.621 22.0454C9.65133 22.2727 8.21194 24.1666 8.51497 26.1363C8.74224 28.106 10.5604 29.5454 12.6059 29.2424L38.3635 29.1666C40.0301 29.1666 41.4695 27.7272 41.3938 26.0606C41.3938 25.2272 41.015 24.4697 40.4847 23.9393C39.9544 23.409 39.121 23.0303 38.2877 23.0303" stroke="#0B59DB" stroke-width="1.5" stroke-miterlimit="10" stroke-linecap="round" stroke-linejoin="round"/>
<path d="M32.2275 18.106C33.2124 17.5757 34.3488 17.4999 35.4851 17.803C37.6821 18.4848 38.8942 20.909 38.2124 23.106" stroke="#0B59DB" stroke-width="1.5" stroke-miterlimit="10" stroke-linecap="round" stroke-linejoin="round"/>
<path d="M20.4854 17.0455C21.1672 14.394 23.5914 12.4243 26.4702 12.4243C29.652 12.4243 32.2278 14.7728 32.6066 17.8789" stroke="#0B59DB" stroke-width="1.5" stroke-miterlimit="10" stroke-linecap="round" stroke-linejoin="round"/>
<path d="M4.7272 10.6817C4.1969 6.36356 7.2272 2.42417 11.5454 1.89387C14.2727 1.51508 16.8484 2.65144 18.5151 4.54538" stroke="#0B59DB" stroke-width="1.5" stroke-miterlimit="10" stroke-linecap="round" stroke-linejoin="round"/>
<path d="M37.9097 19.5456C40.031 19.5456 41.6976 17.8031 41.6976 15.6819C41.6976 14.6213 41.2431 13.7122 40.5613 13.0304C39.8794 12.3486 38.8946 11.894 37.834 11.894" stroke="#0B59DB" stroke-width="1.5" stroke-miterlimit="10" stroke-linecap="round" stroke-linejoin="round"/>
<path d="M4.72751 10.606C2.22751 10.909 0.485089 13.1817 0.788119 15.6817C1.09115 18.1817 3.36388 19.9241 5.86388 19.6211H11.4699" stroke="#0B59DB" stroke-width="1.5" stroke-miterlimit="10" stroke-linecap="round" stroke-linejoin="round"/>
<path d="M30.4092 5.68174C31.6213 5.07568 33.0607 4.84841 34.4243 5.30296C37.1516 6.21205 38.6668 9.09084 37.7577 11.8939" stroke="#0B59DB" stroke-width="1.5" stroke-miterlimit="10" stroke-linecap="round" stroke-linejoin="round"/>
<path d="M17.5303 6.59089C18.2878 3.71211 20.9394 1.51514 24.1212 1.51514C27.606 1.51514 30.4848 4.09089 30.8636 7.49999" stroke="#0B59DB" stroke-width="1.5" stroke-miterlimit="10" stroke-linecap="round" stroke-linejoin="round"/>
<path d="M25.1064 29.3181V38.106" stroke="#0B59DB" stroke-width="1.5" stroke-miterlimit="10" stroke-linecap="round" stroke-linejoin="round"/>
<path d="M25.1064 42.5756C26.1942 42.5756 27.0761 41.6938 27.0761 40.6059C27.0761 39.5181 26.1942 38.6362 25.1064 38.6362C24.0186 38.6362 23.1367 39.5181 23.1367 40.6059C23.1367 41.6938 24.0186 42.5756 25.1064 42.5756Z" stroke="#0B59DB" stroke-width="1.5" stroke-miterlimit="10" stroke-linecap="round" stroke-linejoin="round"/>
<path d="M14.8789 44.8483C15.9667 44.8483 16.8486 43.9665 16.8486 42.8786C16.8486 41.7908 15.9667 40.9089 14.8789 40.9089C13.791 40.9089 12.9092 41.7908 12.9092 42.8786C12.9092 43.9665 13.791 44.8483 14.8789 44.8483Z" stroke="#0B59DB" stroke-width="1.5" stroke-miterlimit="10" stroke-linecap="round" stroke-linejoin="round"/>
<path d="M19.652 29.6211V34.015C19.652 35.3029 18.5914 36.3635 17.3036 36.3635C16.0157 36.3635 14.9551 37.4241 14.9551 38.712V40.4544" stroke="#0B59DB" stroke-width="1.5" stroke-miterlimit="10" stroke-linecap="round" stroke-linejoin="round"/>
<path d="M9.19724 48.4848C10.2851 48.4848 11.1669 47.6029 11.1669 46.5151C11.1669 45.4273 10.2851 44.5454 9.19724 44.5454C8.1094 44.5454 7.22754 45.4273 7.22754 46.5151C7.22754 47.6029 8.1094 48.4848 9.19724 48.4848Z" stroke="#0B59DB" stroke-width="1.5" stroke-miterlimit="10" stroke-linecap="round" stroke-linejoin="round"/>
<path d="M14.3486 29.6211V31.3635C14.3486 32.6514 13.288 33.712 12.0001 33.712H11.6971C10.4092 33.712 9.34863 34.7726 9.34863 36.0605V44.0908" stroke="#0B59DB" stroke-width="1.5" stroke-miterlimit="10" stroke-linecap="round" stroke-linejoin="round"/>
<path d="M41.2431 48.4848C42.331 48.4848 43.2128 47.6029 43.2128 46.5151C43.2128 45.4273 42.331 44.5454 41.2431 44.5454C40.1553 44.5454 39.2734 45.4273 39.2734 46.5151C39.2734 47.6029 40.1553 48.4848 41.2431 48.4848Z" stroke="#0B59DB" stroke-width="1.5" stroke-miterlimit="10" stroke-linecap="round" stroke-linejoin="round"/>
<path d="M36.167 29.6211V31.3635C36.167 32.6514 37.2276 33.712 38.5155 33.712H38.8185C40.1064 33.712 41.167 34.7726 41.167 36.0605V44.0908" stroke="#0B59DB" stroke-width="1.5" stroke-miterlimit="10" stroke-linecap="round" stroke-linejoin="round"/>
<path d="M35.4092 44.8483C36.497 44.8483 37.3788 43.9665 37.3788 42.8786C37.3788 41.7908 36.497 40.9089 35.4092 40.9089C34.3213 40.9089 33.4395 41.7908 33.4395 42.8786C33.4395 43.9665 34.3213 44.8483 35.4092 44.8483Z" stroke="#0B59DB" stroke-width="1.5" stroke-miterlimit="10" stroke-linecap="round" stroke-linejoin="round"/>
<path d="M30.6367 29.6211V34.015C30.6367 35.3029 31.6973 36.3635 32.9852 36.3635C34.2731 36.3635 35.3337 37.4241 35.3337 38.712V40.4544" stroke="#0B59DB" stroke-width="1.5" stroke-miterlimit="10" stroke-linecap="round" stroke-linejoin="round"/>
</svg>
