<svg width="100" height="100" viewBox="0 0 100 100" fill="none" xmlns="http://www.w3.org/2000/svg">
<path fill-rule="evenodd" clip-rule="evenodd" d="M68.7253 58.5744L51.3111 67.2324V49.7746L69.1847 40.8842V57.8228C69.1847 58.1638 69.0279 58.4226 68.7253 58.5744ZM30.8043 57.8228V40.8842L48.6891 49.7746V67.2324L31.2751 58.5744C30.9723 58.4226 30.8043 58.1638 30.8043 57.8228ZM50.0001 30.04L32.4403 38.7696L50.0001 47.498L67.5599 38.7696L50.0001 30.04ZM71.0785 37.5956L50.5827 27.403C50.2129 27.2196 49.7871 27.2196 49.4173 27.403L28.9103 37.5956C28.4733 37.8176 28.1931 38.272 28.1931 38.7696V57.8228C28.1931 59.165 28.9103 60.3236 30.1093 60.9212L49.4173 70.5212C49.7817 70.7044 50.2129 70.7014 50.5827 70.5212L69.8907 60.9212C71.0897 60.3236 71.8069 59.165 71.8069 57.8228V38.7696C71.8069 38.272 71.5267 37.8176 71.0785 37.5956ZM51.1991 89.3594C64.4557 79.1426 78.1719 68.5762 78.1719 51.9904V30.447C67.5431 29.1024 57.3209 22.1886 49.9999 12.694C42.7039 22.1674 32.4071 29.107 21.8281 30.447V51.9906C21.8281 68.5764 35.5331 79.1428 48.8009 89.3596C49.2043 89.6672 49.5965 89.9746 49.9999 90.2824C50.3923 89.9744 50.7957 89.6672 51.1991 89.3594ZM90.9019 75.0276C90.1735 75.0276 89.5909 75.6146 89.5909 76.3382V86.6986L74.3059 71.4124C78.2615 65.84 80.7941 59.5302 80.7941 51.9906V30.2758C80.7941 29.044 79.9201 28.0132 78.7545 27.8766C77.1633 27.6898 75.5495 27.3526 73.9359 26.8772L89.5907 11.2278V21.5882C89.5907 22.3114 90.1733 22.8988 90.9017 22.8988C91.6189 22.8988 92.2129 22.3114 92.2129 21.5882V8.06341C92.2129 7.33981 91.6189 6.75281 90.9017 6.75281H77.3761C76.6477 6.75281 76.0649 7.33981 76.0649 8.06341C76.0649 8.78881 76.6475 9.37401 77.3761 9.37401H87.7305L71.1681 25.9334C63.3303 22.8706 56.2571 16.9438 51.0645 9.73381C50.5459 9.01381 49.4649 8.99841 48.9353 9.73381C43.7417 16.9452 36.6103 22.9452 28.8429 25.9544L12.2695 9.37401H22.6239C23.3523 9.37401 23.9349 8.78861 23.9349 8.06341C23.9349 7.33981 23.3523 6.75281 22.6239 6.75281H9.09831C8.38111 6.75281 7.78731 7.33981 7.78731 8.06341V21.5882C7.78731 22.3114 8.38131 22.8988 9.09831 22.8988C9.82671 22.8988 10.4093 22.3114 10.4093 21.5882V11.2278L26.0753 26.8894C24.4617 27.356 22.8479 27.6878 21.2455 27.8766C20.0801 28.0132 19.2059 29.044 19.2059 30.2758V51.9904C19.2059 59.53 21.7385 65.8398 25.6941 71.4122L10.4091 86.6984V76.338C10.4091 75.6144 9.82631 75.0274 9.09811 75.0274C8.36971 75.0274 7.78711 75.6144 7.78711 76.338V89.8608C7.78711 90.5856 8.36971 91.1714 9.09811 91.1714H22.6237C23.3521 91.1714 23.9347 90.5856 23.9347 89.8608C23.9347 89.1372 23.3521 88.5502 22.6237 88.5502H12.2583L27.2967 73.5228C33.1507 80.8428 41.4263 86.9602 49.1931 92.9744C49.6597 93.3358 50.3197 93.3398 50.7955 92.9744C58.5247 87.0398 66.9373 80.7324 72.7033 73.5228L87.7305 88.5502H77.3761C76.6477 88.5502 76.0649 89.1372 76.0649 89.8608C76.0649 90.5856 76.6475 91.1714 77.3761 91.1714H90.9017C91.6189 91.1714 92.2129 90.5856 92.2129 89.8608V76.338C92.2131 75.6146 91.6191 75.0276 90.9019 75.0276Z" fill="#79F4E4"/>
</svg>
