<svg width="50" height="46" viewBox="0 0 50 46" fill="none" xmlns="http://www.w3.org/2000/svg">
<path d="M43.75 17.1407C40.921 17.1407 38.5536 19.1573 38.0091 21.8282H35.4282C35.0924 18.8436 33.5365 16.242 31.2368 14.5412L32.5365 12.2903C33.131 12.4891 33.7406 12.6241 34.3658 12.6241C34.874 12.6241 35.3867 12.557 35.8917 12.4227C37.4039 12.0168 38.6673 11.0463 39.4485 9.69136C40.2313 8.33638 40.4404 6.75709 40.0345 5.24495C39.6301 3.73433 38.6597 2.4709 37.3047 1.68813C35.9482 0.903823 34.3735 0.696304 32.8583 1.10219C31.3477 1.50807 30.0842 2.477 29.3015 3.83199C27.8862 6.28178 28.4485 9.33945 30.4901 11.1478L29.2196 13.3479C27.9251 12.7795 26.5018 12.4532 25 12.4532C23.4982 12.4532 22.0749 12.7795 20.7804 13.3479L19.5099 11.1478C21.5515 9.33945 22.1138 6.28178 20.6985 3.83199C19.9158 2.477 18.6523 1.50807 17.1417 1.10219C15.6235 0.696304 14.0488 0.903823 12.6953 1.68813C11.3403 2.4709 10.3699 3.73433 9.96552 5.24495C9.55963 6.75709 9.76868 8.33638 10.5515 9.69136C11.3327 11.0463 12.5961 12.0168 14.1083 12.4227C14.6133 12.557 15.126 12.6241 15.6342 12.6241C16.2594 12.6241 16.869 12.4891 17.4635 12.2903L18.7632 14.5412C16.4635 16.242 14.9076 18.8436 14.5718 21.8282H11.9909C11.4464 19.1573 9.07898 17.1407 6.25 17.1407C3.01971 17.1407 0.390625 19.7698 0.390625 23.0001C0.390625 26.2304 3.01971 28.8595 6.25 28.8595C9.07898 28.8595 11.4464 26.8428 11.9909 24.172H14.5718C14.9076 27.1566 16.4635 29.7582 18.7632 31.459L17.4807 33.6803C16.4 33.3173 15.2378 33.2773 14.1083 33.5775C12.5961 33.9834 11.3327 34.9538 10.5515 36.3088C9.76868 37.6638 9.55963 39.2431 9.96552 40.7552C10.3699 42.2658 11.3403 43.5293 12.6953 44.312C13.5986 44.8339 14.5996 45.0994 15.6158 45.0994C16.124 45.0994 16.6367 45.0322 17.1417 44.898C18.6523 44.4921 19.9158 43.5231 20.6985 42.1682C22.1138 39.7184 21.5515 36.6607 19.5099 34.8523L20.7804 32.6522C22.0749 33.2206 23.4982 33.547 25 33.547C26.502 33.547 27.9255 33.2206 29.2202 32.652L30.4903 34.8521C28.4487 36.6603 27.8862 39.7184 29.3015 42.1682C30.0842 43.5231 31.3477 44.4921 32.8583 44.898C33.3633 45.0322 33.876 45.0994 34.3842 45.0994C35.4004 45.0994 36.4014 44.8339 37.3047 44.312C38.6597 43.5293 39.6301 42.2658 40.0345 40.7552C40.4404 39.2431 40.2313 37.6638 39.4485 36.3088C38.6673 34.9538 37.4039 33.9834 35.8917 33.5775C34.7605 33.2773 33.5983 33.3173 32.5193 33.6799L31.2372 31.4586C33.5367 29.7578 35.0924 27.1564 35.4282 24.172H38.0091C38.5536 26.8428 40.921 28.8595 43.75 28.8595C46.9803 28.8595 49.6094 26.2304 49.6094 23.0001C49.6094 19.7698 46.9803 17.1407 43.75 17.1407ZM31.3309 5.00386C31.8008 4.19057 32.5577 3.60921 33.4656 3.36659C33.7677 3.28572 34.0759 3.24605 34.3811 3.24605C34.9899 3.24605 35.5911 3.40474 36.1328 3.71754C36.9461 4.18751 37.5275 4.94588 37.7701 5.85225C38.0142 6.75862 37.8891 7.70619 37.4191 8.51948C36.9492 9.33278 36.1923 9.91566 35.2844 10.1583C34.3765 10.3978 33.429 10.2758 32.6172 9.80733C30.9387 8.83687 30.3619 6.68233 31.3309 5.00386ZM14.7156 10.1583C13.8077 9.91566 13.0508 9.33278 12.5809 8.51948C12.1109 7.70619 11.9858 6.75862 12.2299 5.85225C12.4725 4.94588 13.0539 4.18752 13.8672 3.71754C14.4089 3.40474 15.0101 3.24605 15.6189 3.24605C15.9241 3.24605 16.2323 3.28572 16.5344 3.36659C17.4423 3.60921 18.1992 4.19057 18.6691 5.00386C19.6381 6.68233 19.0613 8.83687 17.3828 9.80733C16.5726 10.2773 15.6204 10.4024 14.7156 10.1583ZM18.6691 40.9963C18.1992 41.8096 17.4423 42.3909 16.5344 42.6336C15.625 42.8731 14.6774 42.7511 13.8672 42.2826C13.0539 41.8126 12.4725 41.0543 12.2299 40.1479C11.9858 39.2415 12.1109 38.294 12.5809 37.4807C13.0508 36.6674 13.8077 36.0845 14.7156 35.8419C15.0177 35.761 15.3259 35.7213 15.6311 35.7213C16.2399 35.7213 16.8411 35.88 17.3828 36.1928C19.0613 37.1633 19.6381 39.3178 18.6691 40.9963ZM35.2844 35.8419C36.1923 36.0845 36.9492 36.6674 37.4191 37.4807C37.8891 38.294 38.0142 39.2415 37.7701 40.1479C37.5275 41.0543 36.9461 41.8126 36.1328 42.2826C35.3195 42.7526 34.3719 42.8777 33.4656 42.6336C32.5577 42.3909 31.8008 41.8096 31.3309 40.9963C30.3619 39.3178 30.9387 37.1633 32.6172 36.1928C33.1589 35.88 33.7601 35.7213 34.3689 35.7213C34.6741 35.7213 34.9823 35.761 35.2844 35.8419ZM6.25 26.5157C4.31213 26.5157 2.73438 24.9379 2.73438 23.0001C2.73438 21.0622 4.31213 19.4845 6.25 19.4845C8.18787 19.4845 9.76562 21.0622 9.76562 23.0001C9.76562 24.9379 8.18787 26.5157 6.25 26.5157ZM25 31.2032C20.4773 31.2032 16.7969 27.5228 16.7969 23.0001C16.7969 18.4774 20.4773 14.797 25 14.797C29.5227 14.797 33.2031 18.4774 33.2031 23.0001C33.2031 27.5228 29.5227 31.2032 25 31.2032ZM43.75 26.5157C41.8121 26.5157 40.2344 24.9379 40.2344 23.0001C40.2344 21.0622 41.8121 19.4845 43.75 19.4845C45.6879 19.4845 47.2656 21.0622 47.2656 23.0001C47.2656 24.9379 45.6879 26.5157 43.75 26.5157Z" fill="#0B59DB"/>
</svg>
