<svg width="100" height="100" viewBox="0 0 100 100" fill="none" xmlns="http://www.w3.org/2000/svg">
<path d="M84.0527 89.6055L82.1016 82.3223C82.0215 82.0215 81.8242 81.7656 81.5547 81.6113C81.2852 81.4551 80.9648 81.4141 80.666 81.4941L78.2773 82.1348C78.1367 81.0977 78.4434 80.5352 78.9023 79.7012C79.7266 78.2051 80.75 76.3418 79.5098 71.7109L76.1641 59.2227C75.6055 57.1387 73.457 55.8984 71.373 56.457C70.7793 56.6152 70.25 56.9102 69.8145 57.2969C69.5527 56.8652 69.207 56.4883 68.7949 56.1856V8.35156C68.7949 4.82422 65.9238 1.95312 62.3965 1.95312H22.3047C18.7754 1.95312 15.9062 4.82422 15.9062 8.35156V84.1836C15.9062 87.7129 18.7773 90.582 22.3047 90.582H54.0234L55.791 97.1777C55.8711 97.4785 56.0684 97.7344 56.3379 97.8887C56.5176 97.9922 56.7207 98.0449 56.9238 98.0449C57.0254 98.0449 57.127 98.0312 57.2266 98.0059L83.2246 91.0391C83.8496 90.873 84.2207 90.2305 84.0527 89.6055ZM69.3672 64.082C69.5352 64.707 70.1777 65.0781 70.8027 64.9102C71.4277 64.7422 71.7988 64.0996 71.6309 63.4746L70.8652 60.6152C70.8633 60.6094 70.8633 60.6035 70.8613 60.5977C70.668 59.7813 71.1699 58.9395 71.9805 58.7207C72.8164 58.498 73.6777 58.9941 73.9004 59.8301L77.2461 72.3184C78.2422 76.0391 77.5352 77.3262 76.8496 78.5723C76.2832 79.5996 75.6543 80.7539 76.0059 82.7441L59.3301 87.2129C58.5391 85.0215 57.1426 84.1836 55.998 83.5C54.8691 82.8262 53.9785 82.2949 53.4902 80.4746L50.1895 68.1543C50.082 67.752 50.1387 67.3301 50.3496 66.9668C50.5605 66.6016 50.8965 66.3418 51.2988 66.2344C52.0254 66.0391 52.793 66.3906 53.1191 67.0703C53.1523 67.1387 53.1797 67.209 53.2012 67.2793C53.2031 67.2871 53.207 67.2969 53.209 67.3047L55.0273 74.0918C55.1953 74.7168 55.8379 75.0879 56.4629 74.9199C57.0879 74.752 57.459 74.1094 57.291 73.4844L51.5605 52.0957C51.4531 51.6934 51.5098 51.2715 51.7207 50.9082C51.9316 50.543 52.2676 50.2832 52.6699 50.1758C53.5059 49.9531 54.3672 50.4492 54.5898 51.2852L58.7793 66.9199C58.9473 67.5449 59.5898 67.916 60.2148 67.748C60.8398 67.5801 61.2109 66.9375 61.043 66.3125L59.3535 60.0059C59.3535 60.002 59.3516 59.998 59.3496 59.9922C59.1504 59.1719 59.6523 58.3262 60.4668 58.1074C60.8691 58 61.291 58.0566 61.6543 58.2676C62.0195 58.4785 62.2793 58.8145 62.3867 59.2168L64.0703 65.502C64.2383 66.127 64.8809 66.498 65.5059 66.3301C66.1309 66.1621 66.502 65.5195 66.334 64.8945L64.9434 59.707C64.9414 59.7012 64.9414 59.6953 64.9394 59.6894C64.7441 58.8711 65.248 58.0293 66.0586 57.8125C66.4609 57.7051 66.8828 57.7617 67.2461 57.9727C67.6113 58.1836 67.8711 58.5195 67.9785 58.9219L69.3672 64.082ZM53.4434 4.29688L52.9883 5.69531C52.6562 6.71484 51.752 7.37305 50.6797 7.37305H34.0215C32.9512 7.37305 32.0449 6.71484 31.7129 5.69531L31.2598 4.29688H53.4434ZM38.2617 88.2402L38.3984 87.2559C38.5664 86.043 39.5781 85.1641 40.8027 85.1641H43.8984C45.123 85.1641 46.1328 86.0449 46.3027 87.2559L46.4395 88.2402H38.2617ZM55.4922 88.2402H48.8047L48.623 86.9336C48.291 84.5508 46.3047 82.8203 43.8984 82.8203H40.8027C38.3965 82.8203 36.4082 84.5508 36.0781 86.9336L35.8965 88.2402H22.3047C20.0684 88.2402 18.25 86.4219 18.25 84.1855V8.35156C18.25 6.11523 20.0684 4.29688 22.3047 4.29688H28.7949L29.4844 6.41992C30.1348 8.42188 31.916 9.7168 34.0215 9.7168H50.6797C52.7852 9.7168 54.5664 8.42383 55.2168 6.41992L55.9062 4.29688H62.3965C64.6328 4.29688 66.4512 6.11523 66.4512 8.35156V55.416C66.1191 55.418 65.7852 55.457 65.4551 55.5449C64.6836 55.752 64.0254 56.1836 63.5312 56.752C63.3184 56.5566 63.084 56.3828 62.8281 56.2344C61.9219 55.7109 60.8672 55.5703 59.8613 55.8398C59.3242 55.9844 58.8418 56.2363 58.4316 56.5684L56.8535 50.6758C56.2949 48.5918 54.1465 47.3516 52.0625 47.9102C51.0566 48.1797 50.2129 48.8281 49.6895 49.7344C49.166 50.6406 49.0254 51.6953 49.2949 52.7012L50.123 55.793H25.6309C24.9844 55.793 24.459 56.3184 24.459 56.9648C24.459 57.6113 24.9844 58.1367 25.6309 58.1367H50.752L52.291 63.8769C51.7695 63.7969 51.2266 63.8223 50.6914 63.9648C50.0156 64.1465 49.418 64.5 48.9375 64.9844H25.6328C24.9863 64.9844 24.4609 65.5098 24.4609 66.1562C24.4609 66.8027 24.9863 67.3281 25.6328 67.3281H47.8164C47.7656 67.8008 47.7988 68.2832 47.9238 68.7559L49.377 74.1797H25.6328C24.9863 74.1797 24.4609 74.7051 24.4609 75.3516C24.4609 75.998 24.9863 76.5234 25.6328 76.5234H50.0059L51.2266 81.0781C51.9609 83.8184 53.5332 84.7559 54.7969 85.5098C55.7598 86.084 56.5488 86.5566 57.0566 87.8184L55.4922 88.2402ZM57.752 95.4395L56.4082 90.4199L80.1426 84.0605L81.4863 89.0801L57.752 95.4395ZM42.3516 49.0215C51.4648 49.0215 58.8809 41.6074 58.8809 32.4941C58.8809 23.3809 51.4668 15.9648 42.3516 15.9648C33.2383 15.9648 25.8242 23.3789 25.8242 32.4941C25.8242 41.6094 33.2363 49.0215 42.3516 49.0215ZM42.3516 18.3086C50.1738 18.3086 56.5371 24.6719 56.5371 32.4941C56.5371 40.3164 50.1738 46.6777 42.3516 46.6777C34.5293 46.6777 28.168 40.3145 28.168 32.4941C28.166 24.6719 34.5293 18.3086 42.3516 18.3086ZM44.832 36.0332C44.832 34.9531 44.4023 33.6641 42.3516 33.6641C39.4219 33.6641 37.5273 31.8145 37.5273 28.9512C37.5273 26.748 39.084 24.8926 41.1797 24.3789V22.9316C41.1797 22.2852 41.7051 21.7598 42.3516 21.7598C42.998 21.7598 43.5234 22.2852 43.5234 22.9316V24.3789C45.6191 24.8926 47.1758 26.7461 47.1758 28.9512C47.1758 29.5977 46.6504 30.123 46.0039 30.123C45.3574 30.123 44.832 29.5977 44.832 28.9512C44.832 27.6445 43.7187 26.582 42.3516 26.582C40.9844 26.582 39.8711 27.6445 39.8711 28.9512C39.8711 30.0312 40.3008 31.3203 42.3516 31.3203C45.2812 31.3203 47.1758 33.1699 47.1758 36.0332C47.1758 38.2363 45.6191 40.0918 43.5234 40.6055V42.0527C43.5234 42.6992 42.998 43.2246 42.3516 43.2246C41.7051 43.2246 41.1797 42.6992 41.1797 42.0527V40.6055C39.084 40.0918 37.5273 38.2383 37.5273 36.0332C37.5273 35.3867 38.0527 34.8613 38.6992 34.8613C39.3457 34.8613 39.8711 35.3867 39.8711 36.0332C39.8711 37.3398 40.9844 38.4023 42.3516 38.4023C43.7187 38.4023 44.832 37.3398 44.832 36.0332Z" fill="#79F4E4"/>
</svg>
