<svg width="100" height="100" viewBox="0 0 100 100" fill="none" xmlns="http://www.w3.org/2000/svg">
<path d="M52.0958 70.4814C52.3292 72.4035 51.8143 74.1574 50.6067 75.5537C49.1782 77.2055 46.7979 78.3105 44.0907 78.615V80.6881C44.0907 81.551 43.3911 82.2506 42.5282 82.2506C41.6653 82.2506 40.9657 81.551 40.9657 80.6881V78.5926C36.9633 78.0545 33.8504 75.5312 32.9512 71.9248C32.7424 71.0875 33.252 70.2395 34.0893 70.0307C34.9272 69.8231 35.7747 70.3316 35.9834 71.1687C36.7876 74.3938 39.9385 75.548 42.52 75.574C42.5336 75.5738 42.5475 75.5742 42.5612 75.5744C42.6479 75.574 42.7338 75.574 42.819 75.5719C45.077 75.5182 47.2061 74.7086 48.243 73.5094C48.8758 72.7777 49.1213 71.9104 48.9936 70.858C48.692 68.3744 46.627 66.9498 42.2979 66.2393C35.4663 65.1176 33.8758 61.658 33.7448 58.9533C33.5627 55.2051 36.1881 52.0635 40.2778 51.1359C40.503 51.0848 40.7329 51.0412 40.9657 51.0053V48.8875C40.9657 48.0246 41.6653 47.325 42.5282 47.325C43.3911 47.325 44.0907 48.0246 44.0907 48.8875V50.9918C47.0233 51.4164 49.9213 53.1082 51.3663 56.55C51.7002 57.3455 51.3262 58.2615 50.5305 58.5955C49.7348 58.9297 48.819 58.5555 48.485 57.7598C47.3626 55.0867 44.961 54.0016 42.6436 53.9977C42.5795 54.0025 42.5135 54.0029 42.4489 54C41.945 54.0121 41.4471 54.0752 40.969 54.1836C38.8999 54.6527 36.7354 56.1125 36.8661 58.802C36.9069 59.6443 37.0313 62.2078 42.8042 63.1557C44.9245 63.5037 51.3772 64.5629 52.0958 70.4814ZM89.8022 80.2941L75.1836 97.5115C74.6768 98.1086 73.9665 98.4373 73.1833 98.4373C72.4002 98.4373 71.6897 98.1084 71.1829 97.5117L65.3338 90.6229C59.3075 95.6842 51.5397 98.4375 43.2268 98.4375C43.0235 98.4375 42.8206 98.4357 42.6167 98.4326C42.4178 98.4359 42.2172 98.4373 42.0188 98.4373C29.9711 98.4379 19.0295 92.5498 13.3526 82.9705C8.20122 74.2781 8.31392 63.9072 13.6616 54.5176C17.0088 48.6404 22.1352 41.9857 29.6979 33.7125C27.5499 32.7355 26.0518 30.5707 26.0518 28.0611C26.0518 24.6889 28.7561 21.9381 32.1098 21.8588L27.1702 16.9193C24.7002 14.4494 24.7002 10.4307 27.1702 7.96094C29.2606 5.87031 32.5848 5.51328 35.0747 7.11133C35.342 7.28281 35.6038 7.30625 35.8975 7.18477C36.1907 7.06328 36.3592 6.86191 36.427 6.55117C37.0579 3.66094 39.6608 1.56289 42.6165 1.5625C45.5721 1.5625 48.1754 3.66035 48.8067 6.55078C48.8745 6.86172 49.0428 7.06328 49.3366 7.18496C49.6297 7.30645 49.8913 7.28281 50.1588 7.11133C52.6485 5.51348 55.9725 5.87031 58.0631 7.96074C60.5331 10.4309 60.5331 14.4498 58.0633 16.9195L53.1239 21.859C56.4774 21.9385 59.1817 24.6893 59.1817 28.0615C59.1817 30.5709 57.6837 32.7357 55.5356 33.7127C58.7217 37.1986 61.4665 40.3891 63.8286 43.3527C64.004 41.482 65.5817 40.0127 67.4971 40.0127H78.8696C80.9022 40.0129 82.5559 41.6666 82.5557 43.699V75.9721H87.8018C88.8366 75.9721 89.7493 76.5555 90.1835 77.4945C90.6176 78.4324 90.4717 79.5055 89.8022 80.2941ZM29.3797 14.7096L36.5254 21.8549H48.7085L55.8538 14.7096C57.1051 13.458 57.1051 11.4219 55.8538 10.1705C54.7946 9.11133 53.1094 8.93066 51.8469 9.74102C50.7237 10.4617 49.3727 10.5824 48.1405 10.0717C46.9081 9.56113 46.0381 8.5207 45.7536 7.21719C45.4334 5.75156 44.1141 4.6875 42.6167 4.6875C41.1192 4.6877 39.8001 5.75176 39.4801 7.21738C39.1956 8.5209 38.3256 9.56133 37.093 10.0719C35.8602 10.582 34.5094 10.4615 33.3868 9.74121C32.1241 8.93066 30.4389 9.11133 29.3795 10.1705C28.1282 11.4219 28.1282 13.4582 29.3797 14.7096ZM29.1768 28.0611C29.1768 29.7602 30.559 31.1424 32.2581 31.1424H52.9753C54.6743 31.1424 56.0565 29.7602 56.0565 28.0613C56.0565 26.3623 54.6743 24.9801 52.9753 24.9801H32.2581C30.559 24.9799 29.1768 26.3621 29.1768 28.0611ZM63.3116 88.241L56.5645 80.2943C55.8948 79.5051 55.7491 78.432 56.1835 77.4934C56.6176 76.5549 57.5301 75.9715 58.5649 75.9715H63.811V48.448C60.7083 44.2736 56.7692 39.6244 51.7969 34.2676H33.4356C25.2413 43.0955 19.8118 50.0334 16.3768 56.0643C11.5299 64.5746 11.4106 73.5645 16.0407 81.3775C21.2444 90.1584 31.4202 95.4947 42.5901 95.3078C42.6077 95.3074 42.6252 95.3074 42.6428 95.3078C50.4331 95.4412 57.7108 92.9393 63.3116 88.241ZM72.8026 95.4877C72.8022 95.4883 72.8018 95.4887 72.8014 95.4891L72.8026 95.4877ZM86.7198 79.0967H80.9932C80.1303 79.0967 79.4307 78.3971 79.4307 77.5342V43.6984C79.4307 43.3941 79.1739 43.1373 78.8696 43.1373H67.4971C67.193 43.1373 66.936 43.3943 66.936 43.6986V77.534C66.936 78.3969 66.2364 79.0965 65.3735 79.0965H59.6469L73.1835 95.0395L86.7198 79.0967Z" fill="#79F4E4"/>
</svg>
