<svg width="98" height="98" viewBox="0 0 98 98" fill="none" xmlns="http://www.w3.org/2000/svg">
<path d="M48.9919 0.562988C22.2593 0.562988 0.560547 22.2732 0.560547 49.0051C0.560547 75.7369 22.2593 97.438 48.9919 97.438C75.7247 97.438 97.4356 75.7369 97.4356 49.0051C97.4356 22.2732 75.7247 0.562988 48.9919 0.562988ZM48.9919 3.69096C74.0359 3.69096 94.3105 23.962 94.3105 49.0051C94.3105 74.0481 74.0359 94.31 48.9919 94.31C23.9481 94.31 3.68559 74.0481 3.68559 49.0051C3.68559 23.962 23.9481 3.69096 48.9919 3.69096ZM63.9974 27.3688C63.7915 27.3688 63.5876 27.4096 63.3975 27.4886C63.2074 27.5677 63.0348 27.6836 62.8897 27.8296C62.5986 28.1223 62.4352 28.5184 62.4352 28.9312C62.4352 29.3441 62.5986 29.7401 62.8897 30.0329L70.2322 37.4026H23.998C23.7918 37.4018 23.5875 37.4419 23.3968 37.5204C23.2061 37.599 23.0329 37.7145 22.8871 37.8603C22.7412 38.0061 22.6257 38.1793 22.5472 38.37C22.4686 38.5607 22.4286 38.765 22.4294 38.9712C22.4302 39.1764 22.4714 39.3794 22.5507 39.5687C22.6299 39.7579 22.7457 39.9297 22.8914 40.0743C23.0371 40.2188 23.2097 40.3332 23.3996 40.411C23.5895 40.4887 23.7929 40.5284 23.998 40.5276H70.2414L62.8897 47.9004C62.7441 48.0455 62.6287 48.2179 62.5499 48.4078C62.4712 48.5976 62.4306 48.8011 62.4306 49.0066C62.4306 49.2121 62.4712 49.4156 62.5499 49.6054C62.6287 49.7952 62.7441 49.9677 62.8897 50.1128C63.0357 50.258 63.209 50.3729 63.3995 50.4508C63.5901 50.5288 63.7941 50.5684 64 50.5672C64.2059 50.5661 64.4096 50.5242 64.5992 50.4441C64.7889 50.364 64.9608 50.2472 65.1052 50.1004L75.1058 40.0665C75.3969 39.7738 75.5602 39.3777 75.5602 38.9649C75.5602 38.5521 75.3969 38.156 75.1058 37.8632L65.1052 27.8294C64.96 27.6834 64.7875 27.5675 64.5974 27.4884C64.4072 27.4093 64.2033 27.3688 63.9974 27.3688ZM33.9865 47.4365C33.5744 47.4406 33.1806 47.6073 32.8908 47.9004L22.9146 57.9098C22.8815 57.944 22.8501 57.9796 22.8202 58.0167C22.7749 58.0688 22.7331 58.1239 22.695 58.1815C22.6602 58.2345 22.6286 58.2895 22.6005 58.3463C22.5831 58.3853 22.5674 58.425 22.5533 58.4653C22.5108 58.5715 22.4801 58.682 22.4617 58.7949C22.4534 58.8444 22.4475 58.8943 22.444 58.9444C22.439 58.9769 22.4351 59.0094 22.4322 59.0421C22.4353 59.0717 22.4392 59.1013 22.444 59.1306C22.4492 59.1829 22.4571 59.2348 22.4676 59.2862C22.4851 59.3937 22.5139 59.4991 22.5533 59.6006C22.5693 59.642 22.5869 59.6828 22.6064 59.7227C22.6351 59.7827 22.6677 59.8408 22.7039 59.8966C22.7404 59.9499 22.7803 60.0009 22.8232 60.0492C22.8538 60.0884 22.8863 60.1261 22.9206 60.1621L32.8968 70.1716C33.1879 70.4643 33.5831 70.63 33.9959 70.6323C34.4088 70.6346 34.8058 70.4734 35.1002 70.184C35.2469 70.0396 35.3637 69.8676 35.4438 69.6779C35.5238 69.4882 35.5656 69.2846 35.5667 69.0787C35.5678 68.8728 35.5282 68.6687 35.4502 68.4782C35.3721 68.2877 35.2572 68.1145 35.112 67.9685L27.7604 60.5987H74.0036C74.4159 60.5971 74.8109 60.4326 75.1024 60.1411C75.3939 59.8496 75.5584 59.4547 75.56 59.0424C75.5608 58.8372 75.5212 58.6339 75.4434 58.444C75.3656 58.2541 75.2513 58.0814 75.1067 57.9358C74.9622 57.7901 74.7904 57.6744 74.6011 57.5951C74.4118 57.5159 74.2088 57.4746 74.0036 57.4738H27.7695L35.112 50.1041C35.4015 49.8097 35.5628 49.4128 35.5605 49C35.5583 48.5871 35.3928 48.1919 35.1002 47.9007C34.955 47.7547 34.7824 47.6389 34.5923 47.5598C34.4022 47.4807 34.1982 47.44 33.9923 47.44L33.9865 47.4365Z" fill="#79F4E4"/>
</svg>
