<svg width="50" height="50" viewBox="0 0 50 50" fill="none" xmlns="http://www.w3.org/2000/svg">
<g clip-path="url(#clip0_155_2457)">
<path d="M33.5938 16.4062H18.75C18.1284 16.4063 17.5323 16.6532 17.0927 17.0927C16.6532 17.5323 16.4063 18.1284 16.4062 18.75V32.8125C16.4063 33.4341 16.6532 34.0302 17.0927 34.4698C17.5323 34.9093 18.1284 35.1562 18.75 35.1562H31.25C31.4572 35.1562 31.6559 35.0739 31.8023 34.9273L35.7086 31.0211C35.8551 30.8746 35.9375 30.6759 35.9375 30.4688V18.75C35.9375 18.1284 35.6906 17.5323 35.251 17.0927C34.8115 16.6532 34.2154 16.4063 33.5938 16.4062ZM32.0312 32.4891V31.25H33.2703L32.0312 32.4891ZM34.375 29.6875H31.25C31.0428 29.6875 30.8441 29.7698 30.6976 29.9163C30.5511 30.0628 30.4688 30.2615 30.4688 30.4688V33.5938H18.75C18.5428 33.5938 18.3441 33.5114 18.1976 33.3649C18.0511 33.2184 17.9688 33.0197 17.9688 32.8125V21.0938H34.375V29.6875ZM34.375 19.5312H17.9688V18.75C17.9688 18.5428 18.0511 18.3441 18.1976 18.1976C18.3441 18.0511 18.5428 17.9688 18.75 17.9688H33.5938C33.801 17.9688 33.9997 18.0511 34.1462 18.1976C34.2927 18.3441 34.375 18.5428 34.375 18.75V19.5312Z" fill="#0B59DB"/>
<path d="M23.4375 23.4375H25V25H23.4375V23.4375Z" fill="#0B59DB"/>
<path d="M27.3438 23.4375H28.9062V25H27.3438V23.4375Z" fill="#0B59DB"/>
<path d="M31.25 23.4375H32.8125V25H31.25V23.4375Z" fill="#0B59DB"/>
<path d="M23.4375 26.5625H25V28.125H23.4375V26.5625Z" fill="#0B59DB"/>
<path d="M19.5312 26.5625H21.0938V28.125H19.5312V26.5625Z" fill="#0B59DB"/>
<path d="M27.3438 26.5625H28.9062V28.125H27.3438V26.5625Z" fill="#0B59DB"/>
<path d="M23.4375 29.6875H25V31.25H23.4375V29.6875Z" fill="#0B59DB"/>
<path d="M19.5312 29.6875H21.0938V31.25H19.5312V29.6875Z" fill="#0B59DB"/>
<path d="M27.3438 29.6875H28.9062V31.25H27.3438V29.6875Z" fill="#0B59DB"/>
<path d="M31.25 26.5625H32.8125V28.125H31.25V26.5625Z" fill="#0B59DB"/>
<path d="M42.1875 0.78125C40.7969 0.78125 39.4374 1.19363 38.2811 1.96623C37.1249 2.73883 36.2237 3.83696 35.6915 5.12176C35.1593 6.40655 35.0201 7.8203 35.2914 9.18423C35.5627 10.5482 36.2323 11.801 37.2157 12.7843C38.199 13.7677 39.4518 14.4373 40.8158 14.7086C42.1797 14.9799 43.5935 14.8407 44.8782 14.3085C46.163 13.7764 47.2612 12.8751 48.0338 11.7189C48.8064 10.5626 49.2188 9.20315 49.2188 7.8125C49.2167 5.94833 48.4752 4.16111 47.1571 2.84294C45.8389 1.52477 44.0517 0.783318 42.1875 0.78125ZM42.1875 13.2812C41.1059 13.2812 40.0486 12.9605 39.1492 12.3596C38.2499 11.7587 37.549 10.9046 37.135 9.9053C36.7211 8.90602 36.6128 7.80643 36.8238 6.7456C37.0348 5.68477 37.5557 4.71033 38.3205 3.94551C39.0853 3.18069 40.0598 2.65984 41.1206 2.44883C42.1814 2.23782 43.281 2.34612 44.2803 2.76003C45.2796 3.17395 46.1337 3.87489 46.7346 4.77423C47.3355 5.67356 47.6563 6.73088 47.6563 7.8125C47.6544 9.26233 47.0776 10.6522 46.0524 11.6774C45.0273 12.7026 43.6373 13.2794 42.1875 13.2812Z" fill="#0B59DB"/>
<path d="M7.8125 49.2188C9.20315 49.2188 10.5626 48.8064 11.7189 48.0338C12.8751 47.2612 13.7764 46.163 14.3085 44.8782C14.8407 43.5935 14.9799 42.1797 14.7086 40.8158C14.4373 39.4518 13.7677 38.199 12.7843 37.2157C11.801 36.2323 10.5482 35.5627 9.18423 35.2914C7.8203 35.0201 6.40655 35.1593 5.12176 35.6915C3.83696 36.2237 2.73883 37.1249 1.96623 38.2811C1.19363 39.4374 0.78125 40.7969 0.78125 42.1875C0.783318 44.0517 1.52477 45.8389 2.84294 47.1571C4.16111 48.4752 5.94833 49.2167 7.8125 49.2188ZM7.8125 36.7188C8.89412 36.7188 9.95144 37.0395 10.8508 37.6404C11.7501 38.2413 12.451 39.0954 12.865 40.0947C13.2789 41.094 13.3872 42.1936 13.1762 43.2544C12.9652 44.3152 12.4443 45.2897 11.6795 46.0545C10.9147 46.8193 9.94023 47.3402 8.8794 47.5512C7.81857 47.7622 6.71898 47.6539 5.7197 47.24C4.72042 46.8261 3.86631 46.1251 3.2654 45.2258C2.66449 44.3264 2.34375 43.2691 2.34375 42.1875C2.34561 40.7377 2.92238 39.3478 3.94756 38.3226C4.97275 37.2974 6.36267 36.7206 7.8125 36.7188Z" fill="#0B59DB"/>
<path d="M40.8062 8.91719L39.7016 7.8125L38.5938 8.91719L40.2508 10.5742C40.3973 10.7207 40.596 10.803 40.8031 10.803C41.0103 10.803 41.209 10.7207 41.3555 10.5742L45.7812 6.15547L44.6734 5.05078L40.8062 8.91719Z" fill="#0B59DB"/>
<path d="M8.20312 43.75H7.42188C7.31827 43.75 7.21892 43.7088 7.14566 43.6356C7.0724 43.5623 7.03125 43.463 7.03125 43.3594H5.46875C5.46884 43.8095 5.6244 44.2458 5.90911 44.5944C6.19383 44.943 6.59022 45.1826 7.03125 45.2727V46.0938H8.59375V45.2727C9.06757 45.1755 9.48847 44.9059 9.77495 44.5162C10.0614 44.1264 10.1931 43.6443 10.1445 43.163C10.0959 42.6818 9.87041 42.2357 9.51177 41.9112C9.15313 41.5866 8.68681 41.4067 8.20312 41.4062H7.42188C7.31827 41.4062 7.21892 41.3651 7.14566 41.2918C7.0724 41.2186 7.03125 41.1192 7.03125 41.0156C7.03125 40.912 7.0724 40.8127 7.14566 40.7394C7.21892 40.6662 7.31827 40.625 7.42188 40.625H8.20312C8.30673 40.625 8.40608 40.6662 8.47934 40.7394C8.5526 40.8127 8.59375 40.912 8.59375 41.0156H10.1562C10.1562 40.5655 10.0006 40.1292 9.71589 39.7806C9.43117 39.432 9.03478 39.1924 8.59375 39.1023V38.2812H7.03125V39.1023C6.55743 39.1995 6.13653 39.4691 5.85005 39.8588C5.56357 40.2486 5.43189 40.7307 5.48051 41.212C5.52913 41.6932 5.75459 42.1393 6.11323 42.4638C6.47187 42.7884 6.93819 42.9683 7.42188 42.9688H8.20312C8.30673 42.9688 8.40608 43.0099 8.47934 43.0832C8.5526 43.1564 8.59375 43.2558 8.59375 43.3594C8.59375 43.463 8.5526 43.5623 8.47934 43.6356C8.40608 43.7088 8.30673 43.75 8.20312 43.75Z" fill="#0B59DB"/>
<path d="M24.9998 45.3125C24.488 45.3125 23.9638 45.2844 23.4373 45.243V43.75C23.4372 43.6117 23.4005 43.4759 23.3308 43.3565C23.2611 43.237 23.161 43.1382 23.0407 43.0702C22.9203 43.0021 22.784 42.9672 22.6458 42.969C22.5075 42.9708 22.3722 43.0093 22.2537 43.0805L18.3474 45.4242C18.2319 45.4937 18.1363 45.5918 18.07 45.7092C18.0036 45.8265 17.9688 45.959 17.9688 46.0938C17.9688 46.2285 18.0036 46.361 18.07 46.4783C18.1363 46.5957 18.2319 46.6938 18.3474 46.7633L22.2537 49.107C22.3722 49.1782 22.5075 49.2167 22.6458 49.2185C22.784 49.2203 22.9203 49.1854 23.0407 49.1173C23.161 49.0493 23.2611 48.9505 23.3308 48.831C23.4005 48.7116 23.4372 48.5758 23.4373 48.4375V46.8102C23.9638 46.8484 24.4873 46.875 24.9998 46.875C28.499 46.8735 31.9468 46.0328 35.054 44.4236C38.1612 42.8143 40.8371 40.4834 42.8574 37.6263C44.8777 34.7692 46.1834 31.4693 46.6649 28.0034C47.1464 24.5375 46.7897 21.0066 45.6248 17.707L44.1529 18.2305C45.2338 21.2943 45.5644 24.5727 45.1168 27.7907C44.6693 31.0087 43.4566 34.0725 41.5806 36.7251C39.7046 39.3777 37.2199 41.5419 34.3349 43.036C31.4499 44.5302 28.2487 45.3109 24.9998 45.3125ZM21.8748 47.057L20.2677 46.0938L21.8748 45.1305V47.057Z" fill="#0B59DB"/>
<path d="M25.0002 4.6876C25.508 4.6876 26.0291 4.71416 26.5627 4.75322V6.2501C26.5628 6.38837 26.5995 6.52417 26.6692 6.64361C26.7388 6.76305 26.839 6.86186 26.9593 6.92994C27.0797 6.99802 27.216 7.03294 27.3542 7.03113C27.4925 7.02932 27.6278 6.99084 27.7463 6.91963L31.6526 4.57588C31.7681 4.50642 31.8637 4.40826 31.93 4.29094C31.9964 4.17362 32.0312 4.04113 32.0312 3.90635C32.0312 3.77156 31.9964 3.63907 31.93 3.52175C31.8637 3.40443 31.7681 3.30627 31.6526 3.23681L27.7463 0.893064C27.6278 0.821851 27.4925 0.783373 27.3542 0.781561C27.216 0.779749 27.0797 0.814668 26.9593 0.882751C26.839 0.950834 26.7388 1.04964 26.6692 1.16908C26.5995 1.28852 26.5628 1.42432 26.5627 1.5626V3.18603C26.0323 3.1501 25.5112 3.1251 25.0002 3.1251C21.501 3.12662 18.0532 3.96727 14.946 5.57653C11.8388 7.18579 9.16284 9.51672 7.14257 12.3738C5.12229 15.2309 3.81664 18.5308 3.33513 21.9967C2.85362 25.4626 3.21029 28.9935 4.37524 32.2931L5.84711 31.7696C4.76616 28.7058 4.43561 25.4274 4.88317 22.2094C5.33073 18.9914 6.54336 15.9276 8.41936 13.275C10.2954 10.6224 12.7801 8.45822 15.6651 6.96405C18.5501 5.46988 21.7513 4.68924 25.0002 4.6876ZM28.1252 2.94306L29.7323 3.90635L28.1252 4.86963V2.94306Z" fill="#0B59DB"/>
</g>
<defs>
<clipPath id="clip0_155_2457">
<rect width="50" height="50" fill="white"/>
</clipPath>
</defs>
</svg>
