<svg width="100" height="100" viewBox="0 0 100 100" fill="none" xmlns="http://www.w3.org/2000/svg">
<path d="M24.6094 86.9031V87.5C24.6094 88.6391 24.1562 89.7328 23.3516 90.5391C22.5453 91.3438 21.4516 91.7969 20.3125 91.7969H14.0625C12.9234 91.7969 11.8297 91.3438 11.0234 90.5391C10.2187 89.7328 9.76562 88.6391 9.76562 87.5V59.375C9.76562 58.2359 10.2187 57.1422 11.0234 56.3359C11.8297 55.5313 12.9234 55.0781 14.0625 55.0781H20.3125C21.4516 55.0781 22.5453 55.5313 23.3516 56.3359C24.1562 57.1422 24.6094 58.2359 24.6094 59.375V60.5062H29.1828C23.8109 54.3063 20.7031 46.3281 20.7031 37.8703V16.5703C20.7031 16.2437 20.8391 15.9328 21.0797 15.7109C21.3203 15.4891 21.6422 15.3766 21.9672 15.4031C33.4922 16.3141 41.375 13.4156 46.6266 6.70625L46.6297 6.70156C47.4375 5.67969 48.6813 5.07812 50 5.07812C51.3187 5.07812 52.5609 5.67969 53.3687 6.70312L53.3719 6.70625C58.625 13.4156 66.5078 16.3141 78.0328 15.4031C78.3578 15.3766 78.6797 15.4891 78.9203 15.7109C79.1609 15.9328 79.2969 16.2438 79.2969 16.5703V37.8703C79.2969 46.3281 76.1891 54.3063 70.8172 60.5062H75.3906V59.375C75.3906 58.2359 75.8438 57.1422 76.6484 56.3359C77.4547 55.5313 78.5484 55.0781 79.6875 55.0781H85.9375C87.0766 55.0781 88.1703 55.5313 88.9766 56.3359C89.7812 57.1422 90.2344 58.2359 90.2344 59.375V87.5C90.2344 88.6391 89.7812 89.7328 88.9766 90.5391C88.1703 91.3438 87.0766 91.7969 85.9375 91.7969H79.6875C78.5484 91.7969 77.4547 91.3438 76.6484 90.5391C75.8438 89.7328 75.3906 88.6391 75.3906 87.5V86.9031H69.7125C69.6109 87.0297 69.5 87.1516 69.3844 87.2672C68.4859 88.1656 67.2687 88.6703 65.9984 88.6703C65.0172 88.6703 64.0672 88.3703 63.2734 87.8187C63.0766 88.6578 62.6516 89.4547 61.9969 90.1094C61.0984 91.0078 59.8797 91.5125 58.6109 91.5125C57.3406 91.5125 56.1234 91.0078 55.225 90.1094L54.7266 89.6109C54.5156 90.4375 54.0859 91.2016 53.4719 91.8141C52.575 92.7125 51.3563 93.2172 50.0859 93.2172C48.8172 93.2172 47.5984 92.7125 46.7016 91.8141L46.2031 91.3172C45.9984 92.1234 45.5797 92.8875 44.9484 93.5188C44.05 94.4172 42.8313 94.9219 41.5625 94.9219C40.2922 94.9219 39.075 94.4172 38.1766 93.5203L33.9641 89.3062C32.425 87.7672 30.3391 86.9031 28.1625 86.9031L24.6094 86.9031ZM22.2656 87.5V59.375C22.2656 58.8562 22.0594 58.3609 21.6937 57.9938C21.3266 57.6281 20.8313 57.4219 20.3125 57.4219H14.0625C13.5438 57.4219 13.0484 57.6281 12.6813 57.9938C12.3156 58.3609 12.1094 58.8562 12.1094 59.375V87.5C12.1094 88.0188 12.3156 88.5141 12.6813 88.8812C13.0484 89.2469 13.5438 89.4531 14.0625 89.4531H20.3125C20.8313 89.4531 21.3266 89.2469 21.6937 88.8812C22.0594 88.5141 22.2656 88.0188 22.2656 87.5ZM31.8609 59.975L39.9891 58.1047C43.5312 57.2891 47.2438 58.3547 49.8125 60.925L50 61.1125L50.1875 60.925C52.7562 58.3547 56.4687 57.2891 60.0109 58.1047L68.1391 59.975C73.7016 54.0656 76.9531 46.2188 76.9531 37.8703V17.825C65.1422 18.4984 57.0297 15.1797 51.5297 8.15469C51.1625 7.69063 50.5969 7.42188 50 7.42188C49.4016 7.42188 48.8359 7.69063 48.4703 8.15469C42.9672 15.1813 34.8547 18.4984 23.0469 17.825V37.8703C23.0469 46.2188 26.2984 54.0656 31.8609 59.975ZM36.75 38.4C36.2531 37.9859 36.1859 37.2469 36.6 36.75C37.0141 36.2531 37.7531 36.1859 38.25 36.6L46.425 43.4125C46.5906 43.55 46.8375 43.5281 46.975 43.3625L61.6 25.8125C62.0141 25.3156 62.7531 25.2484 63.25 25.6625C63.7469 26.0766 63.8141 26.8156 63.4 27.3125L48.775 44.8625C47.8094 46.0219 46.0844 46.1797 44.925 45.2125L36.75 38.4ZM75.3906 62.85H70.6672C70.3438 62.85 70.0203 62.8141 69.7031 62.7406L59.4844 60.3891C56.7297 59.7547 53.8437 60.5828 51.8438 62.5812L46.3234 68.1031C45.7375 68.6891 45.4078 69.4844 45.4078 70.3125C45.4078 71.1406 45.7375 71.9359 46.3234 72.5219L46.325 72.525C46.9109 73.1094 47.7047 73.4391 48.5328 73.4391C49.3609 73.4391 50.1547 73.1094 50.7406 72.525L55.2484 68.0172C55.7062 67.5594 56.4484 67.5594 56.9047 68.0172L69.3844 80.4969C70.2828 81.3937 70.7875 82.6125 70.7875 83.8812C70.7875 84.1094 70.7703 84.3359 70.7391 84.5594H75.3906V62.85ZM52.6187 73.9609L64.2703 85.6109C64.7281 86.0687 65.35 86.3266 65.9984 86.3266C66.6469 86.3266 67.2687 86.0687 67.7266 85.6109C68.1859 85.1516 68.4438 84.5297 68.4438 83.8812C68.4438 83.2344 68.1859 82.6125 67.7281 82.1547L56.0766 70.5031L52.6187 73.9609ZM77.7344 59.375V87.5C77.7344 88.0188 77.9406 88.5141 78.3063 88.8812C78.6734 89.2469 79.1687 89.4531 79.6875 89.4531H85.9375C86.4563 89.4531 86.9516 89.2469 87.3187 88.8812C87.6844 88.5141 87.8906 88.0188 87.8906 87.5V59.375C87.8906 58.8562 87.6844 58.3609 87.3187 57.9938C86.9516 57.6281 86.4563 57.4219 85.9375 57.4219H79.6875C79.1687 57.4219 78.6734 57.6281 78.3063 57.9938C77.9406 58.3609 77.7344 58.8562 77.7344 59.375ZM48.3422 62.7688L48.1563 62.5812C46.1563 60.5828 43.2703 59.7547 40.5156 60.3891L30.2969 62.7406C29.9797 62.8141 29.6563 62.85 29.3328 62.85H24.6094V84.5594H28.1625C30.9594 84.5594 33.6422 85.6703 35.6203 87.6484L39.8344 91.8625C40.2922 92.3203 40.9141 92.5781 41.5625 92.5781C42.2109 92.5781 42.8328 92.3203 43.2906 91.8625C44.2453 90.9078 44.2453 89.3594 43.2906 88.4047L39.8391 84.9531C39.3813 84.4953 39.3813 83.7531 39.8391 83.2953C40.2969 82.8391 41.0391 82.8391 41.4969 83.2953L48.3578 90.1578C48.8172 90.6156 49.4391 90.8734 50.0859 90.8734C50.7344 90.8734 51.3563 90.6156 51.8156 90.1562C52.2734 89.6984 52.5312 89.0766 52.5312 88.4281C52.5312 87.7797 52.2734 87.1578 51.8156 86.7L44.9531 79.8391C44.4969 79.3812 44.4969 78.6391 44.9531 78.1813C45.4109 77.7234 46.1531 77.7234 46.6109 78.1813L56.8828 88.4531C57.3406 88.9109 57.9625 89.1688 58.6109 89.1688C59.2594 89.1688 59.8813 88.9109 60.3391 88.4516C61.2938 87.4984 61.2938 85.95 60.3406 84.9953L50.6859 75.3406C50.0125 75.6297 49.2797 75.7828 48.5328 75.7828C47.0844 75.7828 45.6938 75.2062 44.6688 74.1812L44.6656 74.1797C43.6406 73.1531 43.0641 71.7625 43.0641 70.3125C43.0641 68.8625 43.6406 67.4719 44.6656 66.4453L48.3422 62.7688Z" fill="#79F4E4"/>
</svg>
