<svg width="50" height="50" viewBox="0 0 50 50" fill="none" xmlns="http://www.w3.org/2000/svg">
<g clip-path="url(#clip0_155_2448)">
<path d="M17.1875 25.7812V36.7188C17.1875 38.9461 20.5469 40.625 25 40.625C29.4531 40.625 32.8125 38.9461 32.8125 36.7188V25.7812C32.8125 23.5539 29.4531 21.875 25 21.875C20.5469 21.875 17.1875 23.5539 17.1875 25.7812ZM25 23.4375C28.8156 23.4375 31.25 24.8258 31.25 25.7812C31.25 26.7367 28.8156 28.125 25 28.125C21.1844 28.125 18.75 26.7367 18.75 25.7812C18.75 24.8258 21.1844 23.4375 25 23.4375ZM18.75 28.175C20.6505 29.2548 22.8161 29.7789 25 29.6875C27.1839 29.7789 29.3495 29.2548 31.25 28.175V31.25C31.25 32.2055 28.8156 33.5938 25 33.5938C21.1844 33.5938 18.75 32.2055 18.75 31.25V28.175ZM18.75 33.6437C20.6505 34.7235 22.8161 35.2476 25 35.1562C27.1839 35.2476 29.3495 34.7235 31.25 33.6437V36.7188C31.25 37.6742 28.8156 39.0625 25 39.0625C21.1844 39.0625 18.75 37.6742 18.75 36.7188V33.6437Z" fill="#0B59DB"/>
<path d="M28.125 30.4688H29.6875V32.0312H28.125V30.4688Z" fill="#0B59DB"/>
<path d="M28.125 35.9375H29.6875V37.5H28.125V35.9375Z" fill="#0B59DB"/>
<path d="M24.9998 49.2187C29.5716 49.2236 34.0509 47.9308 37.917 45.4905L37.0826 44.1694C32.4838 47.0681 26.996 48.2166 21.6208 47.4053C16.2455 46.5941 11.3411 43.8772 7.80261 39.7504C4.26407 35.6236 2.3273 30.3621 2.34572 24.926C2.36414 19.4899 4.33652 14.2417 7.90294 10.139L7.63341 12.4585L9.18575 12.639L9.73263 7.90226C9.7471 7.77749 9.73127 7.65107 9.68649 7.53372C9.6417 7.41637 9.56929 7.31154 9.47537 7.22813C9.38146 7.14472 9.26882 7.08519 9.14701 7.05457C9.02519 7.02395 8.89778 7.02316 8.77559 7.05226L4.14044 8.15695L4.50216 9.67726L6.68497 9.15694C3.64922 12.6669 1.68583 16.9752 1.02843 21.5691C0.371034 26.163 1.04732 30.849 2.9768 35.0695C4.90628 39.29 8.00772 42.8674 11.912 45.3758C15.8164 47.8842 20.3591 49.2181 24.9998 49.2187Z" fill="#0B59DB"/>
<path d="M25.0002 0.781265C20.4282 0.776203 15.9487 2.0696 12.083 4.51095L12.9174 5.83205C17.5161 2.93448 23.0032 1.78676 28.3777 2.59826C33.7522 3.40977 38.6559 6.12641 42.1941 10.2526C45.7322 14.3787 47.6691 19.6394 47.6513 25.0748C47.6335 30.5102 45.6622 35.7581 42.0971 39.861L42.3666 37.5414L40.8143 37.361L40.2674 42.0977C40.2547 42.2068 40.2653 42.3174 40.2983 42.4222C40.3313 42.5271 40.3861 42.6237 40.459 42.7059C40.5319 42.7881 40.6214 42.854 40.7215 42.8993C40.8216 42.9446 40.9301 42.9683 41.04 42.9688C41.1011 42.9687 41.1619 42.9617 41.2213 42.9477L45.8596 41.843L45.4979 40.3227L43.315 40.843C46.3508 37.333 48.3142 33.0247 48.9716 28.4308C49.629 23.837 48.9527 19.1509 47.0232 14.9304C45.0937 10.7099 41.9923 7.13256 38.088 4.62415C34.1837 2.11574 29.6409 0.781865 25.0002 0.781265Z" fill="#0B59DB"/>
<path d="M18.7942 15.4735C18.749 15.6407 18.7383 15.8154 18.7628 15.9869C18.7872 16.1584 18.8463 16.3231 18.9364 16.4711L19.8176 17.9305C19.9979 18.2264 20.286 18.4407 20.6213 18.5281C20.9565 18.6156 21.3127 18.5694 21.6145 18.3992L21.8176 18.2875C22.1221 18.5005 22.4474 18.6819 22.7887 18.8289V19.0031C22.7916 19.3532 22.9334 19.6877 23.1829 19.9333C23.4323 20.1788 23.7691 20.3152 24.1192 20.3125H25.8817C26.2308 20.3146 26.5665 20.1784 26.8154 19.9336C27.0643 19.6888 27.2061 19.3554 27.2098 19.0063V18.8321C27.5512 18.6854 27.8766 18.504 28.1809 18.2906L28.3848 18.4031C28.6873 18.5725 29.0437 18.6177 29.3789 18.5294C29.7141 18.4411 30.0019 18.2261 30.1817 17.9297L31.0614 16.4719C31.1517 16.3239 31.211 16.159 31.2356 15.9874C31.2601 15.8157 31.2495 15.6409 31.2043 15.4735C31.1579 15.3034 31.0778 15.1443 30.9688 15.0057C30.8599 14.8671 30.7242 14.7517 30.57 14.6664L30.4012 14.5735C30.4366 14.2338 30.4366 13.8913 30.4012 13.5516L30.57 13.4586C30.7242 13.3733 30.8599 13.2579 30.9688 13.1193C31.0778 12.9807 31.1579 12.8217 31.2043 12.6516C31.2495 12.4843 31.2601 12.3097 31.2357 12.1382C31.2113 11.9667 31.1522 11.8019 31.0621 11.6539L30.1809 10.1946C30.0004 9.89897 29.7122 9.68494 29.3771 9.59751C29.0419 9.51009 28.6859 9.55608 28.384 9.72581L28.1809 9.83752C27.8764 9.62453 27.551 9.44313 27.2098 9.29612V9.1219C27.2069 8.77227 27.0654 8.43807 26.8165 8.1926C26.5675 7.94713 26.2313 7.81044 25.8817 7.81252H24.1192C23.7701 7.81044 23.4344 7.9467 23.1855 8.19149C22.9366 8.43629 22.7948 8.76969 22.791 9.11877V9.2969C22.4496 9.44355 22.1242 9.62498 21.8199 9.83831L21.616 9.72581C21.3135 9.55669 20.9572 9.51153 20.622 9.59983C20.2869 9.68813 19.9991 9.90301 19.8192 10.1992L18.9395 11.6571C18.8491 11.8051 18.7899 11.9699 18.7653 12.1416C18.7407 12.3132 18.7513 12.4881 18.7965 12.6555C18.843 12.8256 18.923 12.9846 19.032 13.1232C19.141 13.2618 19.2766 13.3772 19.4309 13.4625L19.5996 13.5555C19.5642 13.8952 19.5642 14.2377 19.5996 14.5774L19.4309 14.6703C19.2766 14.755 19.1407 14.8696 19.0314 15.0076C18.922 15.1455 18.8414 15.3039 18.7942 15.4735ZM21.1332 14.0625C21.133 13.8989 21.1448 13.7354 21.1684 13.5735C21.2026 13.3139 21.1573 13.05 21.0383 12.8167C20.9193 12.5835 20.7323 12.3919 20.502 12.2672L20.4199 12.2211L21.0449 11.1906L21.184 11.2688C21.413 11.3924 21.6725 11.4482 21.9321 11.4296C22.1916 11.4111 22.4405 11.319 22.6496 11.1641C22.9147 10.9697 23.2035 10.8098 23.509 10.6883C23.7561 10.594 23.9691 10.4276 24.1204 10.2107C24.2717 9.99375 24.3543 9.73635 24.3574 9.4719V9.37502H25.6559V9.47112C25.659 9.73557 25.7416 9.99297 25.8929 10.2099C26.0442 10.4268 26.2572 10.5932 26.5043 10.6875C26.8098 10.8096 27.0986 10.97 27.3637 11.1649C27.5729 11.3186 27.8214 11.4099 28.0804 11.4281C28.3394 11.4464 28.5983 11.3909 28.827 11.268L28.966 11.1899L29.591 12.2203L29.5129 12.2656C29.2826 12.3903 29.0954 12.5819 28.9762 12.8151C28.8569 13.0483 28.8112 13.3122 28.8449 13.5719C28.8648 13.7346 28.8724 13.8986 28.8676 14.0625C28.8678 14.2262 28.8561 14.3896 28.8324 14.5516C28.7982 14.8112 28.8436 15.0751 28.9626 15.3083C29.0816 15.5416 29.2686 15.7332 29.4989 15.8578L29.577 15.9039L28.952 16.9344L28.8129 16.8563C28.5838 16.7331 28.3244 16.6776 28.0649 16.6961C27.8055 16.7147 27.5566 16.8065 27.3473 16.961C27.0822 17.1554 26.7934 17.3153 26.4879 17.4367C26.2408 17.531 26.0278 17.6975 25.8765 17.9144C25.7252 18.1313 25.6426 18.3887 25.6395 18.6531V18.75H24.3512V18.6539C24.3481 18.3895 24.2655 18.1321 24.1142 17.9152C23.9629 17.6982 23.7498 17.5318 23.5028 17.4375C23.1972 17.3155 22.9085 17.1551 22.6434 16.9602C22.4342 16.8063 22.1857 16.7149 21.9267 16.6966C21.6677 16.6784 21.4088 16.734 21.1801 16.8571L21.041 16.9352L20.416 15.9047L20.4942 15.8594C20.7245 15.7347 20.9117 15.5432 21.0309 15.31C21.1502 15.0768 21.1959 14.8129 21.1621 14.5531C21.1402 14.3906 21.1306 14.2266 21.1332 14.0625Z" fill="#0B59DB"/>
<path d="M25 16.7969C25.5408 16.7969 26.0695 16.6365 26.5191 16.3361C26.9688 16.0356 27.3193 15.6085 27.5262 15.1089C27.7332 14.6093 27.7873 14.0595 27.6818 13.5291C27.5763 12.9986 27.3159 12.5114 26.9335 12.129C26.5511 11.7466 26.0639 11.4862 25.5334 11.3807C25.003 11.2752 24.4532 11.3293 23.9536 11.5363C23.454 11.7432 23.0269 12.0937 22.7265 12.5434C22.426 12.993 22.2656 13.5217 22.2656 14.0625C22.2656 14.7877 22.5537 15.4832 23.0665 15.996C23.5793 16.5088 24.2748 16.7969 25 16.7969ZM25 12.8906C25.2318 12.8906 25.4583 12.9594 25.6511 13.0881C25.8438 13.2169 25.994 13.3999 26.0827 13.614C26.1714 13.8282 26.1946 14.0638 26.1494 14.2911C26.1041 14.5184 25.9925 14.7273 25.8286 14.8911C25.6648 15.055 25.4559 15.1666 25.2286 15.2119C25.0013 15.2571 24.7657 15.2339 24.5515 15.1452C24.3374 15.0565 24.1544 14.9063 24.0256 14.7136C23.8969 14.5208 23.8281 14.2943 23.8281 14.0625C23.8281 13.7517 23.9516 13.4536 24.1714 13.2339C24.3911 13.0141 24.6892 12.8906 25 12.8906Z" fill="#0B59DB"/>
</g>
<defs>
<clipPath id="clip0_155_2448">
<rect width="50" height="50" fill="white"/>
</clipPath>
</defs>
</svg>
