<svg width="100" height="100" viewBox="0 0 100 100" fill="none" xmlns="http://www.w3.org/2000/svg">
<path fill-rule="evenodd" clip-rule="evenodd" d="M78.2115 20.1381C78.2115 19.4493 78.7701 18.8907 79.459 18.8907C80.1479 18.8907 80.7064 19.4493 80.7064 20.1381C80.7064 21.8184 83.26 22.6479 84.6791 21.4006C85.0543 21.0709 85.2863 20.6239 85.2863 20.1381C85.2863 16.8545 78.3299 19.8174 78.3299 13.9225C78.3299 11.851 79.8973 10.2026 81.8674 9.71704V8.91528C81.8674 8.22642 82.426 7.66782 83.1148 7.66782C83.8037 7.66782 84.3623 8.22642 84.3623 8.91528V9.71704C86.3326 10.2028 87.8998 11.8508 87.8998 13.9225C87.8998 14.6114 87.3412 15.17 86.6524 15.17C85.9635 15.17 85.4049 14.6114 85.4049 13.9225C85.4049 12.2403 82.8492 11.4149 81.4322 12.66C81.057 12.9897 80.825 13.4366 80.825 13.9225C80.825 17.1422 87.7814 14.2088 87.7814 20.1381C87.7814 22.1665 86.2774 23.792 84.3625 24.3129V25.1456C84.3625 25.8344 83.8039 26.393 83.115 26.393C82.4262 26.393 81.8676 25.8344 81.8676 25.1456V24.3715C79.8424 23.9229 78.2115 22.253 78.2115 20.1381ZM12.098 20.1381C12.098 19.4493 12.6566 18.8907 13.3455 18.8907C14.0344 18.8907 14.593 19.4493 14.593 20.1381C14.593 21.8184 17.1465 22.6479 18.5656 21.4006C18.9408 21.0709 19.1729 20.6239 19.1729 20.1381C19.1729 16.8545 12.2164 19.8174 12.2164 13.9225C12.2164 11.851 13.7838 10.2026 15.7539 9.71704V8.91528C15.7539 8.22642 16.3125 7.66782 17.0014 7.66782C17.6902 7.66782 18.2488 8.22642 18.2488 8.91528V9.71704C20.2191 10.2028 21.7863 11.8508 21.7863 13.9225C21.7863 14.6114 21.2277 15.17 20.5389 15.17C19.85 15.17 19.2914 14.6114 19.2914 13.9225C19.2914 12.2403 16.7357 11.4149 15.3187 12.66C14.9436 12.9897 14.7115 13.4366 14.7115 13.9225C14.7115 17.1422 21.668 14.2088 21.668 20.1381C21.668 22.1665 20.1637 23.792 18.249 24.3129V25.1456C18.249 25.8344 17.6904 26.393 17.0016 26.393C16.3127 26.393 15.7541 25.8344 15.7541 25.1456V24.3715C13.7291 23.9229 12.098 22.2528 12.098 20.1381ZM78.2115 86.0776C78.2115 85.3887 78.7701 84.8301 79.459 84.8301C80.1479 84.8301 80.7064 85.3887 80.7064 86.0776C80.7064 87.7579 83.26 88.5874 84.6791 87.3401C85.0543 87.0104 85.2863 86.5633 85.2863 86.0776C85.2863 82.794 78.3299 85.7569 78.3299 79.862C78.3299 77.7905 79.8973 76.142 81.8674 75.6565V74.8547C81.8674 74.1659 82.426 73.6073 83.1148 73.6073C83.8037 73.6073 84.3623 74.1659 84.3623 74.8547V75.6565C86.3324 76.1422 87.8998 77.7905 87.8998 79.862C87.8998 80.5508 87.3412 81.1094 86.6524 81.1094C85.9635 81.1094 85.4049 80.5508 85.4049 79.862C85.4049 78.1797 82.8492 77.3543 81.4322 78.5995C81.057 78.9292 80.825 79.376 80.825 79.862C80.825 83.0817 87.7814 80.1483 87.7814 86.0776C87.7814 88.1059 86.2772 89.7315 84.3625 90.2524V91.085C84.3625 91.7739 83.8039 92.3325 83.115 92.3325C82.4262 92.3325 81.8676 91.7739 81.8676 91.085V90.311C79.8426 89.8624 78.2115 88.1922 78.2115 86.0776ZM12.098 86.0776C12.098 85.3887 12.6566 84.8301 13.3455 84.8301C14.0344 84.8301 14.593 85.3887 14.593 86.0776C14.593 87.7579 17.1465 88.5874 18.5656 87.3401C18.9408 87.0104 19.1729 86.5633 19.1729 86.0776C19.1729 82.794 12.2164 85.7569 12.2164 79.862C12.2164 77.7905 13.7838 76.142 15.7539 75.6565V74.8547C15.7539 74.1659 16.3125 73.6073 17.0014 73.6073C17.6902 73.6073 18.2488 74.1659 18.2488 74.8547V75.6565C20.2189 76.1422 21.7863 77.7905 21.7863 79.862C21.7863 80.5508 21.2277 81.1094 20.5389 81.1094C19.85 81.1094 19.2914 80.5508 19.2914 79.862C19.2914 78.1797 16.7357 77.3543 15.3187 78.5995C14.9436 78.9292 14.7115 79.376 14.7115 79.862C14.7115 83.0819 21.668 80.1483 21.668 86.0776C21.668 88.1059 20.1637 89.7315 18.249 90.2524V91.085C18.249 91.7739 17.6904 92.3325 17.0016 92.3325C16.3127 92.3325 15.7541 91.7739 15.7541 91.085V90.311C13.7291 89.8624 12.098 88.1922 12.098 86.0776ZM24.9898 74.9223C20.5455 70.478 13.3391 70.478 8.89473 74.9223C4.45039 79.3667 4.45039 86.5731 8.89473 91.0174C13.3391 95.4618 20.5455 95.4618 24.9898 91.0174C29.4342 86.5731 29.4342 79.3667 24.9898 74.9223ZM16.9424 69.094C9.2793 69.094 3.06641 75.3067 3.06641 82.97C3.06641 90.6333 9.2793 96.8458 16.9424 96.8458C24.6055 96.8458 30.8182 90.6329 30.8182 82.97C30.8182 75.3071 24.6055 69.094 16.9424 69.094ZM91.1035 74.9223C86.6592 70.478 79.4529 70.478 75.0084 74.9223C70.5641 79.3667 70.5641 86.5729 75.0084 91.0174C79.4527 95.4618 86.6592 95.4618 91.1035 91.0174C95.5479 86.5731 95.5479 79.3667 91.1035 74.9223ZM83.0561 69.094C75.393 69.094 69.1803 75.3069 69.1803 82.97C69.1803 90.6331 75.393 96.8458 83.0561 96.8458C90.7191 96.8458 96.932 90.6331 96.932 82.97C96.932 75.3069 90.7191 69.094 83.0561 69.094ZM24.9898 8.98286C20.5455 4.53853 13.3393 4.53853 8.89473 8.98286C4.45039 13.4272 4.45039 20.6336 8.89473 25.078C13.3391 29.5223 20.5455 29.5223 24.9898 25.078C29.4342 20.6336 29.4342 13.4272 24.9898 8.98286ZM16.9424 3.15454C9.2793 3.15454 3.06641 9.36724 3.06641 17.0303C3.06641 24.6934 9.2793 30.9061 16.9424 30.9061C24.6055 30.9061 30.8182 24.6932 30.8182 17.0303C30.8182 9.36743 24.6057 3.15454 16.9424 3.15454ZM91.1035 8.98286C86.6592 4.53853 79.4529 4.53853 75.0084 8.98286C70.5641 13.4272 70.5641 20.6334 75.0084 25.078C79.4527 29.5223 86.6592 29.5223 91.1035 25.078C95.5479 20.6336 95.5479 13.4272 91.1035 8.98286ZM83.0561 3.15454C75.393 3.15454 69.1803 9.36724 69.1803 17.0303C69.1803 24.6934 75.393 30.9061 83.0561 30.9061C90.7191 30.9061 96.932 24.6934 96.932 17.0303C96.932 9.36724 90.7191 3.15454 83.0561 3.15454ZM72.5975 65.177H27.5252V67.4301H72.5975V65.177ZM61.4512 28.4192L72.5975 33.328V35.5795H27.525V33.328L50.0611 23.4032L61.451 28.4192H61.4512ZM46.7307 38.0747V39.8122H52.1043V38.0747H46.7307ZM52.823 62.6819V60.2071H46.0121V62.6819H52.823ZM47.7041 57.712H51.1309L50.4422 42.3073H48.3928L47.7041 57.712ZM32.4973 38.0747V39.8122H37.8709V38.0747H32.4973ZM60.9643 38.0747V39.8122H66.3379V38.0747H60.9643ZM67.0566 62.6819V60.2071H60.2457V62.6819H67.0566ZM61.9377 57.712H65.3647L64.676 42.3073H62.6264L61.9377 57.712ZM57.7506 62.6819V60.2245C57.7506 59.1055 58.3219 57.8911 59.4469 57.7292L60.1373 42.286C59.0812 42.12 58.4693 41.0387 58.4693 39.9694V38.0745H54.5996V39.9694C54.5996 41.0383 53.9877 42.1202 52.9314 42.286L53.6219 57.7292C54.7471 57.8909 55.3184 59.1055 55.3184 60.2245V62.6819H57.7506ZM38.5896 62.6819V60.2071H31.7787V62.6819H38.5896ZM39.3883 57.7294C40.5135 57.8913 41.0848 59.1057 41.0848 60.2247V62.6821H43.517V60.2247C43.517 59.1057 44.0883 57.8913 45.2133 57.7294L45.9037 42.2862C44.8477 42.1202 44.2357 41.0389 44.2357 39.9696V38.0747H40.366V39.9696C40.366 41.0383 39.7541 42.1202 38.698 42.2862L39.3883 57.7294ZM33.4707 57.712H36.8975L36.2088 42.3073H34.1594L33.4707 57.712ZM29.2834 62.6819V60.2245C29.2834 59.1055 29.8547 57.8909 30.9797 57.7292L31.6701 42.286C30.6139 42.12 30.0021 41.0387 30.0021 39.9694V38.0745H26.2775C25.5887 38.0745 25.0301 37.5159 25.0301 36.827V32.5159C25.0301 31.9815 25.3662 31.5256 25.8385 31.3479L49.5594 20.9012C49.8924 20.7547 50.2547 20.7655 50.5633 20.9012L74.3471 31.3754C74.8133 31.5807 75.091 32.037 75.0912 32.5157H75.0926V36.8268C75.0926 37.5157 74.534 38.0743 73.8451 38.0743H68.8328V39.9692C68.8328 41.0379 68.2209 42.1198 67.1648 42.2858L67.8553 57.729C68.9803 57.8909 69.5516 59.1053 69.5516 60.2243V62.6817H73.8451C74.534 62.6817 75.0926 63.2403 75.0926 63.9292V68.6772C75.0926 69.3661 74.534 69.9247 73.8451 69.9247H26.2777C25.5889 69.9247 25.0303 69.3661 25.0303 68.6772V63.9292C25.0303 63.2403 25.5889 62.6817 26.2777 62.6817H29.2834V62.6819ZM41.5385 13.3645C42.1252 13.7198 42.3127 14.4834 41.9576 15.07C41.6023 15.6567 40.8387 15.8442 40.2521 15.4889L36.1279 12.9817C35.5412 12.6264 35.3537 11.8627 35.709 11.2762L38.2162 7.152C38.5715 6.56528 39.3352 6.37778 39.9217 6.73306C40.5084 7.08833 40.6959 7.852 40.3406 8.43853L39.3793 10.02C46.6584 8.08442 54.3713 8.16587 61.61 10.2641C62.2693 10.4551 62.6488 11.1446 62.4578 11.804C62.2668 12.4633 61.5773 12.8428 60.918 12.6518C54.1447 10.6885 46.8219 10.6104 40.0051 12.4321L41.5385 13.3645ZM13.4006 58.5479C13.7559 57.9612 14.5195 57.7737 15.1061 58.1288C15.6926 58.4838 15.8803 59.2477 15.5252 59.8342L13.018 63.9585C12.6627 64.5452 11.899 64.7327 11.3125 64.3776L7.18828 61.8704C6.60156 61.5151 6.41406 60.7514 6.76934 60.1649C7.12461 59.5782 7.88828 59.3907 8.4748 59.7459L10.0563 60.7073C8.12051 53.4284 8.20234 45.7149 10.3004 38.4766C10.4914 37.8172 11.1809 37.4377 11.8402 37.6288C12.4996 37.8198 12.8791 38.5092 12.6881 39.1686C10.7248 45.942 10.6467 53.2645 12.4684 60.0815L13.4006 58.5479ZM58.584 86.6858C57.9973 86.3305 57.8098 85.5668 58.1648 84.9803C58.5201 84.3936 59.2838 84.2061 59.8703 84.5612L63.9945 87.0684C64.5813 87.4237 64.7688 88.1874 64.4137 88.7739L61.9064 92.8981C61.5512 93.4848 60.7875 93.6723 60.201 93.317C59.6145 92.9618 59.4268 92.1981 59.782 91.6116L60.7434 90.0301C53.4646 91.9659 45.7508 91.884 38.5127 89.786C37.8533 89.595 37.4738 88.9055 37.6648 88.2461C37.8559 87.5868 38.5453 87.2073 39.2047 87.3983C45.9779 89.3616 53.3008 89.4397 60.1176 87.618L58.5842 86.6858H58.584ZM86.7219 41.5024C86.3666 42.0891 85.6029 42.2766 85.0164 41.9213C84.4297 41.5661 84.2422 40.8024 84.5973 40.2159L87.1045 36.0917C87.4598 35.5049 88.2234 35.3174 88.81 35.6727L92.9342 38.1799C93.5209 38.5352 93.7084 39.2989 93.3531 39.8854C92.9979 40.4721 92.2342 40.6596 91.6477 40.3043L90.0662 39.343C92.0018 46.6221 91.9201 54.335 89.8221 61.5737C89.6311 62.2331 88.9416 62.6126 88.2822 62.4215C87.6229 62.2305 87.2434 61.5411 87.4344 60.8817C89.3977 54.1084 89.4758 46.7856 87.6541 39.9688L86.7219 41.5022V41.5024Z" fill="#79F4E4"/>
</svg>
