<svg width="36" height="36" viewBox="0 0 36 36" fill="none" xmlns="http://www.w3.org/2000/svg">
<path fill-rule="evenodd" clip-rule="evenodd" d="M17.8829 10.7922C14.1185 10.7922 10.9501 13.4639 10.2064 17.0078C10.1142 17.4466 9.68379 17.7277 9.24497 17.6356C8.80615 17.5435 8.52504 17.1131 8.61715 16.6743C9.51602 12.3912 13.3373 9.1684 17.8829 9.1684C22.4262 9.1684 26.1264 12.2893 27.1121 16.4611C27.2152 16.8974 26.945 17.3348 26.5087 17.4379C26.0722 17.541 25.6349 17.2709 25.5318 16.8344C24.7138 13.3725 21.6499 10.7922 17.8829 10.7922Z" fill="#0B59DB"/>
<path fill-rule="evenodd" clip-rule="evenodd" d="M13.7375 2.6687C13.7375 1.54387 14.6486 0.632812 15.7734 0.632812H17.867C18.3155 0.632812 18.679 0.996321 18.679 1.44473C18.679 1.89314 18.3155 2.25664 17.867 2.25664H15.7734C15.5454 2.25664 15.3614 2.4407 15.3614 2.6687V5.95411C15.3614 6.32668 15.1078 6.65143 14.7464 6.74179C14.2078 6.87642 13.7364 7.02548 13.2884 7.20204C12.7717 7.40573 12.2752 7.65042 11.7336 7.96226C11.41 8.14859 11.001 8.09016 10.7425 7.82065L8.47392 5.45549C8.47364 5.45521 8.47336 5.45494 8.47308 5.45465C8.31508 5.29208 8.05655 5.29016 7.89869 5.44274L7.89595 5.44544L4.86997 8.34265C4.70759 8.50064 4.70573 8.75904 4.85824 8.91682L4.86044 8.91907L7.13123 11.2865C7.38478 11.5509 7.42992 11.9522 7.24148 12.2663C6.66789 13.2223 6.45791 14.075 6.156 15.3012C6.14077 15.363 6.12531 15.4258 6.10955 15.4896C6.02003 15.8522 5.69475 16.1069 5.32131 16.1069H2.03589C1.8079 16.1069 1.62383 16.291 1.62383 16.519V20.7063C1.62383 21.1547 1.26032 21.5182 0.811919 21.5182C0.363507 21.5182 0 21.1547 0 20.7063V16.519C0 15.3941 0.911067 14.4831 2.03589 14.4831H4.68515C4.89822 13.629 5.12371 12.8222 5.54662 11.9803L3.69072 10.0454C3.69032 10.045 3.68992 10.0446 3.68952 10.0441C2.9095 9.2359 2.93991 7.94988 3.7424 7.17412L3.74519 7.17138L3.74519 7.17145L6.77169 4.27371C7.57997 3.494 8.86577 3.52452 9.64139 4.32689L9.64364 4.32916L11.4831 6.24696C11.8837 6.03728 12.2802 5.85406 12.6929 5.69137C13.0302 5.55843 13.3748 5.44057 13.7375 5.33351V2.6687Z" fill="#0B59DB"/>
<path fill-rule="evenodd" clip-rule="evenodd" d="M22.2625 2.6687C22.2625 1.54387 21.3514 0.632812 20.2266 0.632812H18.133C17.6845 0.632812 17.321 0.996321 17.321 1.44473C17.321 1.89314 17.6845 2.25664 18.133 2.25664H20.2266C20.4546 2.25664 20.6386 2.4407 20.6386 2.6687V5.95411C20.6386 6.32668 20.8922 6.65143 21.2536 6.74179C21.7922 6.87642 22.2636 7.02548 22.7116 7.20204C23.2283 7.40573 23.7249 7.65042 24.2664 7.96226C24.59 8.14859 24.999 8.09016 25.2575 7.82065L27.5261 5.45549C27.5264 5.45521 27.5266 5.45494 27.5269 5.45465C27.6849 5.29208 27.9435 5.29016 28.1013 5.44274L28.1041 5.44544L31.13 8.34265C31.2924 8.50064 31.2943 8.75904 31.1418 8.91682L31.1396 8.91907L28.8688 11.2865C28.6152 11.5509 28.5701 11.9522 28.7585 12.2663C29.3321 13.2223 29.5421 14.075 29.844 15.3012C29.8593 15.363 29.8747 15.4258 29.8905 15.4896C29.98 15.8522 30.3053 16.1069 30.6787 16.1069H33.9641C34.1921 16.1069 34.3761 16.291 34.3761 16.519V20.7063C34.3761 21.1547 34.7397 21.5182 35.1881 21.5182C35.6365 21.5182 36 21.1547 36 20.7063V16.519C36 15.3941 35.089 14.4831 33.9641 14.4831H31.3149C31.1018 13.629 30.8763 12.8222 30.4534 11.9803L32.3093 10.0454C32.3097 10.045 32.3101 10.0446 32.3105 10.0441C33.0905 9.2359 33.0601 7.94988 32.2576 7.17412L32.2548 7.17138V7.17145L29.2283 4.27371C28.42 3.494 27.1342 3.52452 26.3586 4.32689L26.3564 4.32916L24.5169 6.24696C24.1163 6.03728 23.7198 5.85406 23.3071 5.69137C22.9698 5.55843 22.6252 5.44057 22.2625 5.33351V2.6687Z" fill="#0B59DB"/>
<path fill-rule="evenodd" clip-rule="evenodd" d="M29.4147 26.9617C28.4042 26.9617 27.4712 27.2656 26.706 27.7985C26.3381 28.0547 25.832 27.9642 25.5758 27.5962C25.3195 27.2282 25.41 26.7222 25.778 26.4659C26.8166 25.7426 28.0738 25.3379 29.4147 25.3379C32.9553 25.3379 35.815 28.1976 35.815 31.7382V35.4329H27.5787C27.1303 35.4329 26.7668 35.0694 26.7668 34.621C26.7668 34.1726 27.1303 33.8091 27.5787 33.8091H34.1912V31.7382C34.1912 29.0945 32.0584 26.9617 29.4147 26.9617Z" fill="#0B59DB"/>
<path fill-rule="evenodd" clip-rule="evenodd" d="M29.4146 19.5695C27.8172 19.5695 26.5224 20.8644 26.5224 22.4617C26.5224 24.0591 27.8172 25.3539 29.4146 25.3539C31.0119 25.3539 32.3068 24.0591 32.3068 22.4617C32.3068 20.8644 31.0119 19.5695 29.4146 19.5695ZM24.8985 22.4617C24.8985 19.9676 26.9204 17.9457 29.4146 17.9457C31.9087 17.9457 33.9306 19.9676 33.9306 22.4617C33.9306 24.9559 31.9087 26.9778 29.4146 26.9778C26.9204 26.9778 24.8985 24.9559 24.8985 22.4617Z" fill="#0B59DB"/>
<path fill-rule="evenodd" clip-rule="evenodd" d="M0.853668 31.7382C0.853668 28.1976 3.71345 25.3379 7.254 25.3379C8.59486 25.3379 9.85204 25.7426 10.8907 26.4659C11.2586 26.7222 11.3492 27.2282 11.0929 27.5962C10.8367 27.9642 10.3307 28.0547 9.96272 27.7985C9.19758 27.2656 8.26446 26.9617 7.254 26.9617C4.61027 26.9617 2.4775 29.0945 2.4775 31.7382V33.8091H9.4443C9.89268 33.8091 10.2562 34.1726 10.2562 34.621C10.2562 35.0694 9.89268 35.4329 9.4443 35.4329H0.853668V31.7382Z" fill="#0B59DB"/>
<path fill-rule="evenodd" clip-rule="evenodd" d="M7.25385 19.5695C5.65655 19.5695 4.36166 20.8644 4.36166 22.4617C4.36166 24.0591 5.65655 25.3539 7.25385 25.3539C8.85121 25.3539 10.1461 24.0591 10.1461 22.4617C10.1461 20.8644 8.85121 19.5695 7.25385 19.5695ZM2.73782 22.4617C2.73782 19.9676 4.75974 17.9457 7.25385 17.9457C9.74805 17.9457 11.77 19.9676 11.77 22.4617C11.77 24.9559 9.74805 26.9778 7.25385 26.9778C4.75973 26.9778 2.73782 24.9559 2.73782 22.4617Z" fill="#0B59DB"/>
<path fill-rule="evenodd" clip-rule="evenodd" d="M18.4309 25.4962C15.2705 25.4962 12.688 28.0651 12.688 31.239V33.8091H24.1898V31.239C24.1898 28.0786 21.6209 25.4962 18.447 25.4962H18.4309ZM11.0642 31.239C11.0642 27.1657 14.3762 23.8724 18.4309 23.8724H18.447C22.5203 23.8724 25.8136 27.1844 25.8136 31.239V35.4329H11.0642V31.239Z" fill="#0B59DB"/>
<path fill-rule="evenodd" clip-rule="evenodd" d="M18.447 16.8316C16.5027 16.8316 14.9266 18.4077 14.9266 20.352C14.9266 22.2962 16.5027 23.8723 18.447 23.8723C20.3912 23.8723 21.9672 22.2962 21.9672 20.352C21.9672 18.4077 20.3912 16.8316 18.447 16.8316ZM13.3028 20.352C13.3028 17.5109 15.6059 15.2078 18.447 15.2078C21.288 15.2078 23.5911 17.5109 23.5911 20.352C23.5911 23.193 21.288 25.4962 18.447 25.4962C15.6059 25.4962 13.3028 23.193 13.3028 20.352Z" fill="#0B59DB"/>
</svg>
