<svg width="40" height="36" viewBox="0 0 40 36" fill="none" xmlns="http://www.w3.org/2000/svg">
<path d="M39.1666 21.3333C39.1666 19.3204 37.9685 17.5859 36.25 16.7939V16.3333C36.25 7.37294 28.9603 0.083313 20 0.083313C11.0396 0.083313 3.74998 7.37294 3.74998 16.3333V16.7939C2.03148 17.5859 0.833313 19.3204 0.833313 21.3333C0.833313 24.0903 3.07615 26.3333 5.83331 26.3333H7.49998C7.96018 26.3333 8.33331 25.9602 8.33331 25.5V17.1666C8.33331 16.7064 7.96018 16.3333 7.49998 16.3333H5.83331C5.69268 16.3333 5.55438 16.343 5.41665 16.3544V16.3333C5.41665 8.29213 11.9588 1.74998 20 1.74998C28.0412 1.74998 34.5833 8.29213 34.5833 16.3333V16.3544C34.4456 16.343 34.3073 16.3333 34.1666 16.3333H32.5C32.0398 16.3333 31.6666 16.7064 31.6666 17.1666V25.5C31.6666 25.9602 32.0398 26.3333 32.5 26.3333H34.1666C34.3073 26.3333 34.4456 26.3236 34.5833 26.3122V27.5833C34.5833 30.3403 32.3405 32.5833 29.5833 32.5833H23.3333C23.3333 31.6643 22.5858 30.9166 21.6666 30.9166H17.5C16.5808 30.9166 15.8333 31.6643 15.8333 32.5833V34.25C15.8333 35.169 16.5808 35.9166 17.5 35.9166H21.6666C22.5858 35.9166 23.3333 35.169 23.3333 34.25H29.5833C33.2593 34.25 36.25 31.2593 36.25 27.5833V25.8727C37.9685 25.0808 39.1666 23.3462 39.1666 21.3333ZM6.66665 18V24.6666H5.83331C3.99534 24.6666 2.49998 23.1713 2.49998 21.3333C2.49998 19.4953 3.99534 18 5.83331 18H6.66665ZM17.5 34.25V32.5833H21.6666L21.6673 33.4106C21.6672 33.4127 21.6666 33.4146 21.6666 33.4166C21.6666 33.4187 21.6672 33.4207 21.6673 33.4227L21.6679 34.25H17.5ZM34.1666 24.6666H33.3333V18H34.1666C36.0046 18 37.5 19.4953 37.5 21.3333C37.5 23.1713 36.0046 24.6666 34.1666 24.6666ZM20 26.75C25.0545 26.75 29.1666 22.6378 29.1666 17.5833C29.1666 12.5288 25.0545 8.41665 20 8.41665C14.9455 8.41665 10.8333 12.5288 10.8333 17.5833C10.8333 19.2186 11.2715 20.817 12.1041 22.2275L11.265 26.5927C11.2068 26.8958 11.3208 27.2063 11.5617 27.3998C11.7122 27.5206 11.897 27.5833 12.0833 27.5833C12.1952 27.5833 12.3075 27.5609 12.4137 27.5152L16.1552 25.9002C17.3681 26.4643 18.6596 26.75 20 26.75ZM13.199 25.3608L13.8017 22.2242C13.8419 22.0145 13.8004 21.7974 13.6853 21.6175C12.9097 20.407 12.5 19.0119 12.5 17.5833C12.5 13.4478 15.8646 10.0833 20 10.0833C24.1353 10.0833 27.5 13.4478 27.5 17.5833C27.5 21.7188 24.1353 25.0833 20 25.0833C18.7951 25.0833 17.6379 24.8005 16.5604 24.2429C16.3387 24.1279 16.0766 24.1183 15.8471 24.2178L13.199 25.3608ZM20 20.0833H15.8333C15.3731 20.0833 15 19.7102 15 19.25C15 18.7898 15.3731 18.4166 15.8333 18.4166H20C20.4602 18.4166 20.8333 18.7898 20.8333 19.25C20.8333 19.7102 20.4602 20.0833 20 20.0833ZM15 15.9166C15 15.4564 15.3731 15.0833 15.8333 15.0833H24.1666C24.6268 15.0833 25 15.4564 25 15.9166C25 16.3768 24.6268 16.75 24.1666 16.75H15.8333C15.3731 16.75 15 16.3768 15 15.9166Z" fill="#0B59DB"/>
</svg>
