<svg width="32" height="40" viewBox="0 0 32 40" fill="none" xmlns="http://www.w3.org/2000/svg">
<path d="M16.0001 5.46893C10.4871 5.46893 6.00183 9.95409 6.00183 15.4671C6.00183 20.9802 10.487 25.4654 16.0001 25.4654C21.5132 25.4654 25.9984 20.9803 25.9984 15.4671C25.9984 9.95409 21.5132 5.46893 16.0001 5.46893ZM16.0001 24.2935C11.1332 24.2935 7.17371 20.3341 7.17371 15.4671C7.17371 10.6003 11.1332 6.64081 16.0001 6.64081C20.8671 6.64081 24.8265 10.6003 24.8265 15.4671C24.8265 20.334 20.867 24.2935 16.0001 24.2935Z" fill="#0B59DB"/>
<path d="M18.4514 9.68209C18.1529 9.55685 17.8096 9.69732 17.6844 9.9956L13.3747 20.2647C13.2494 20.5631 13.3898 20.9065 13.6882 21.0318C13.9877 21.1575 14.3304 21.0154 14.4552 20.7183L18.7649 10.4491C18.8901 10.1507 18.7497 9.80724 18.4514 9.68209Z" fill="#0B59DB"/>
<path d="M15.5801 11.9566C15.5801 10.4133 14.463 9.15784 13.09 9.15784C11.7168 9.15784 10.5997 10.4134 10.5997 11.9566C10.5997 13.4998 11.7168 14.7554 13.09 14.7554C14.463 14.7553 15.5801 13.4998 15.5801 11.9566ZM13.0899 13.5835C12.3629 13.5835 11.7715 12.8536 11.7715 11.9566C11.7715 11.0596 12.3629 10.3297 13.0899 10.3297C13.8168 10.3297 14.4082 11.0595 14.4082 11.9566C14.4082 12.8537 13.8168 13.5835 13.0899 13.5835Z" fill="#0B59DB"/>
<path d="M18.9104 16.179C17.5373 16.179 16.4202 17.4345 16.4202 18.9778C16.4202 20.5211 17.5373 21.7766 18.9104 21.7766C20.2834 21.7766 21.4006 20.5211 21.4006 18.9778C21.4006 17.4345 20.2834 16.179 18.9104 16.179ZM18.9104 20.6047C18.1834 20.6047 17.592 19.8748 17.592 18.9778C17.592 18.0808 18.1834 17.3508 18.9104 17.3508C19.6373 17.3508 20.2287 18.0807 20.2287 18.9778C20.2287 19.8749 19.6373 20.6047 18.9104 20.6047Z" fill="#0B59DB"/>
<path d="M30.3297 16.9339C29.7849 16.0292 29.7849 14.9051 30.3297 14.0004C30.3305 13.999 30.3315 13.9974 30.3323 13.9959C31.5879 11.9051 30.7027 9.1831 28.4557 8.23154C27.4839 7.81998 26.8234 6.91123 26.7313 5.85412C26.5192 3.41794 24.1997 1.74302 21.8291 2.28974C21.8289 2.28982 21.8212 2.29154 21.8209 2.29162C20.7944 2.52849 19.7273 2.18177 19.0356 1.38623L19.0301 1.3799C17.4327 -0.457055 14.5726 -0.462992 12.9707 1.37927L12.9641 1.38677C12.2729 2.18169 11.2056 2.52841 10.1718 2.2899C7.79281 1.74107 5.48054 3.42341 5.26835 5.8599C5.17679 6.91123 4.51624 7.81998 3.54445 8.23154C1.29898 9.18255 0.409212 11.9056 1.67046 14.0004C2.21523 14.9051 2.21523 16.0291 1.67038 16.934C0.410228 19.0269 1.29749 21.7511 3.54452 22.7026C4.43867 23.0813 5.06812 23.8815 5.23484 24.8303L0.325697 32.649C-0.472194 33.9198 0.313509 35.5884 1.79843 35.7859L4.76367 36.1804C5.01913 36.2143 5.24679 36.3573 5.38835 36.5726L7.03195 39.072C7.85671 40.3262 9.7007 40.3041 10.4972 39.0355L15.5966 30.9139C15.8691 30.9414 16.1222 30.9422 16.4035 30.9139L21.5028 39.0354C22.301 40.3067 24.145 40.3236 24.9681 39.0719L26.6117 36.5725C26.7534 36.3572 26.981 36.2143 27.2365 36.1803L30.2017 35.7858C31.6888 35.588 32.4712 33.9178 31.6744 32.649L26.765 24.8297C26.9303 23.8836 27.5602 23.0819 28.4557 22.7026C30.7053 21.7499 31.5885 19.0245 30.3298 16.934M14.4056 30.6069L9.50476 38.4125C9.15656 38.9671 8.36156 38.9611 8.01117 38.4282L6.36749 35.9288C6.03906 35.4293 5.51085 35.0977 4.9182 35.0188L1.95288 34.6243C1.31288 34.5392 0.972728 33.8223 1.31804 33.2723L5.62343 26.4153C6.4064 28.1094 8.2864 29.0794 10.1711 28.6446C10.1712 28.6446 10.179 28.6428 10.1792 28.6428C11.9491 28.234 12.9613 29.5488 12.9701 29.5545C13.3605 30.0033 13.8458 30.366 14.4056 30.6069ZM30.0472 34.6243L27.0819 35.0187C26.4893 35.0975 25.961 35.4292 25.6325 35.9287L23.9889 38.4282C23.629 38.9754 22.8366 38.9561 22.4953 38.4124L17.5944 30.6069C18.1589 30.364 18.6432 29.9993 19.0307 29.5536C19.039 29.5479 20.0966 28.2449 21.8284 28.6444C22.9619 28.9058 24.1514 28.6636 25.0922 27.9797C25.6311 27.5879 26.0865 27.0437 26.3766 26.415L30.6821 33.2722C31.0253 33.819 30.6911 34.5386 30.0472 34.6243ZM29.3252 17.5376L29.3253 17.5378C29.3255 17.538 29.3256 17.5383 29.3258 17.5386C30.2182 19.0206 29.5898 20.9498 27.9986 21.6236C26.5977 22.2169 25.6902 23.5214 25.5637 24.9785C25.4923 25.799 25.0692 26.5474 24.403 27.0318C23.7367 27.5161 22.8943 27.6877 22.0843 27.5008C19.5904 26.9254 18.1555 28.7791 18.1457 28.7854C17.0886 30.001 15.2423 30.0897 14.0721 29.0097C14.0687 29.0065 14.0655 29.0033 14.0621 29.0002C13.7641 28.7225 12.4003 26.9298 9.91953 27.5C9.91843 27.5003 9.91742 27.5004 9.91632 27.5007C9.91617 27.5008 9.90843 27.5025 9.9082 27.5025C8.23585 27.8884 6.58718 26.7124 6.43578 24.9727C6.43578 24.9723 6.4357 24.972 6.4357 24.9717C6.30601 23.4875 5.37335 22.2047 4.00148 21.6237C2.41156 20.9504 1.78109 19.0222 2.67445 17.5385C3.44374 16.2609 3.44374 14.6736 2.67437 13.3959C1.78195 11.9137 2.41031 9.98474 4.00156 9.31083C5.37382 8.72966 6.30663 7.44638 6.4364 5.95607C6.58531 4.24576 8.2121 3.04076 9.91585 3.43373C11.3653 3.76794 12.8723 3.27857 13.848 2.15662L13.8545 2.14912C14.9879 0.845758 17.0131 0.846461 18.1462 2.14959L18.1518 2.15591C19.128 3.27857 20.635 3.76826 22.0839 3.4338C22.0841 3.4338 22.0918 3.43201 22.092 3.43201C23.7661 3.04544 25.4132 4.22404 25.5644 5.96169C25.6937 7.44638 26.6265 8.72966 27.9988 9.31083C29.5916 9.98537 30.2174 11.9154 29.3259 13.3959C29.3251 13.3974 29.3242 13.3988 29.3234 13.4003C28.5565 14.677 28.5573 16.2622 29.3252 17.5376Z" fill="#0B59DB"/>
</svg>
