<svg width="40" height="40" viewBox="0 0 40 40" fill="none" xmlns="http://www.w3.org/2000/svg">
<path d="M25 20.0001C25 18.1591 26.4923 16.6667 28.3333 16.6667C32.0152 16.6667 35 19.6516 35 23.3334C35 27.0152 32.0152 30.0001 28.3333 30.0001C26.4923 30.0001 25 28.5077 25 26.6667V20.0001Z" stroke="white" stroke-width="1.5"/>
<path d="M15 20.0001C15 18.1591 13.5076 16.6667 11.6667 16.6667C7.98477 16.6667 5 19.6516 5 23.3334C5 27.0152 7.98477 30.0001 11.6667 30.0001C13.5076 30.0001 15 28.5077 15 26.6667V20.0001Z" stroke="white" stroke-width="1.5"/>
<path d="M5 23.3333V18.3333C5 10.049 11.7157 3.33325 20 3.33325C28.2843 3.33325 35 10.049 35 18.3333V26.4103C35 29.7574 35 31.4309 34.4127 32.7361C33.7442 34.2214 32.5548 35.4108 31.0695 36.0793C29.7643 36.6666 28.0908 36.6666 24.7437 36.6666H20" stroke="white" stroke-width="1.5" stroke-linecap="round" stroke-linejoin="round"/>
</svg>
