<svg width="80" height="80" viewBox="0 0 80 80" fill="none" xmlns="http://www.w3.org/2000/svg">
<path d="M74.9992 10.2583C75.0259 8.845 74.4892 7.515 73.4876 6.51167C72.4842 5.50833 71.1409 5.01333 69.7426 5C62.1459 5.145 48.0109 6.78 38.6942 16.0983C36.0009 18.7917 32.7926 22.5783 29.5742 26.7917C21.3576 26.1733 13.2509 28.9683 7.19591 34.615C6.13924 35.6017 5.79924 37.105 6.32758 38.445C6.87258 39.825 8.18924 40.7167 9.69758 40.7167C12.9526 40.6867 16.2259 41.0433 19.4192 41.7367C17.3442 45.24 15.6142 48.5667 14.5142 51.375C13.7776 53.2583 14.2409 55.4167 15.6976 56.8733L23.1242 64.2983C24.1209 65.2983 25.4476 65.8317 26.7892 65.8317C27.4076 65.8317 28.0309 65.7183 28.6259 65.4833C31.4342 64.3833 34.7609 62.6533 38.2642 60.58C38.9559 63.7683 39.3109 67.0283 39.2842 70.3183C39.2842 71.8117 40.1759 73.1317 41.5559 73.675C41.9742 73.84 42.4092 73.92 42.8409 73.92C43.7859 73.92 44.7092 73.5317 45.3876 72.8033C51.0342 66.75 53.8326 58.6417 53.2109 50.4267C57.4242 47.21 61.2109 44.0017 63.9042 41.3067C73.2209 31.99 74.8559 17.855 75.0026 10.26L74.9992 10.2583ZM69.8059 8.33333H69.8409C70.3259 8.33333 70.7809 8.52333 71.1276 8.87C71.4826 9.225 71.6742 9.695 71.6642 10.1933C71.6109 13.025 71.2842 17.9533 69.8976 23.275C64.1542 20.51 59.4859 15.8433 56.7209 10.0983C62.0426 8.71333 66.9726 8.38667 69.8042 8.33167L69.8059 8.33333ZM10.0692 37.3817C9.81258 37.3817 9.51091 37.4367 9.42758 37.2217C9.39258 37.1333 9.42091 37.0983 9.46924 37.0517C14.3109 32.535 20.6376 30.055 27.1709 30.0117C25.0976 32.865 23.0842 35.83 21.2492 38.74C17.5909 37.8533 13.8376 37.38 10.0676 37.38L10.0692 37.3817ZM42.9492 70.5283C42.9009 70.5783 42.8676 70.6033 42.7776 70.5717C42.6709 70.53 42.6159 70.4433 42.6159 70.3283C42.6476 66.4167 42.1742 62.5317 41.2559 58.7467C44.1676 56.9117 47.1326 54.8983 49.9876 52.825C49.9459 59.3617 47.4642 65.685 42.9476 70.5267L42.9492 70.5283ZM27.4092 62.38C26.7576 62.6333 26.0042 62.465 25.4826 61.9417L18.0559 54.515C17.5359 53.995 17.3642 53.2383 17.6192 52.59C21.5026 42.6783 33.4042 26.1 41.0509 18.455C44.6209 14.885 49.0809 12.5783 53.5059 11.0733C56.6392 17.865 62.1342 23.36 68.9259 26.4933C67.4209 30.9183 65.1142 35.3783 61.5442 38.9483C53.8976 46.595 37.3209 58.4967 27.4092 62.38Z" fill="#0B59DB"/>
<path d="M16.1787 63.8218C15.5271 63.1701 14.4738 63.1701 13.8221 63.8218L5.48875 72.1551C4.83708 72.8068 4.83708 73.8601 5.48875 74.5118C5.81375 74.8368 6.24042 75.0001 6.66708 75.0001C7.09375 75.0001 7.52042 74.8368 7.84542 74.5118L16.1787 66.1784C16.8304 65.5268 16.8304 64.4734 16.1787 63.8218Z" fill="#0B59DB"/>
<path d="M18.8221 68.8198L15.4887 72.1548C14.8371 72.8065 14.8371 73.8598 15.4887 74.5115C15.8137 74.8365 16.2404 74.9998 16.6671 74.9998C17.0937 74.9998 17.5204 74.8365 17.8454 74.5115L21.1787 71.1765C21.8304 70.5248 21.8304 69.4715 21.1787 68.8198C20.5271 68.1681 19.4738 68.1681 18.8221 68.8198Z" fill="#0B59DB"/>
<path d="M6.66708 64.9984C7.09375 64.9984 7.52042 64.8351 7.84542 64.5101L11.1787 61.1784C11.8304 60.5268 11.8304 59.4734 11.1787 58.8218C10.5271 58.1701 9.47375 58.1701 8.82208 58.8218L5.48875 62.1534C4.83708 62.8051 4.83708 63.8584 5.48875 64.5101C5.81375 64.8351 6.24042 64.9984 6.66708 64.9984Z" fill="#0B59DB"/>
<path d="M50.0007 23.3335C46.324 23.3335 43.334 26.3235 43.334 30.0002C43.334 33.6768 46.324 36.6668 50.0007 36.6668C53.6773 36.6668 56.6673 33.6768 56.6673 30.0002C56.6673 26.3235 53.6773 23.3335 50.0007 23.3335ZM50.0007 33.3335C48.1623 33.3335 46.6673 31.8385 46.6673 30.0002C46.6673 28.1618 48.1623 26.6668 50.0007 26.6668C51.839 26.6668 53.334 28.1618 53.334 30.0002C53.334 31.8385 51.839 33.3335 50.0007 33.3335Z" fill="#0B59DB"/>
</svg>
