<svg width="80" height="80" viewBox="0 0 80 80" fill="none" xmlns="http://www.w3.org/2000/svg">
<g clip-path="url(#clip0_243_3711)">
<path d="M40 51.875C40.8624 51.875 41.5625 51.1749 41.5625 50.3125C41.5625 49.4501 40.8624 48.75 40 48.75C39.1376 48.75 38.4375 49.4501 38.4375 50.3125C38.4375 51.1749 39.1376 51.875 40 51.875Z" fill="#0B59DB"/>
<path d="M60.102 43.6487C59.8267 43.1726 59.3208 42.8766 58.7708 42.8687C58.7635 42.8687 58.7568 42.8687 58.7495 42.8687C58.2075 42.8687 57.7039 43.15 57.4189 43.6121L51.4112 53.3746L41.5626 37.3706V18.75H65.0001C65.6007 18.75 66.1481 18.4058 66.4082 17.8644C66.6688 17.323 66.5955 16.6803 66.2202 16.2115L60.7508 9.375L66.2202 2.53845C66.5955 2.0697 66.6688 1.427 66.4082 0.88562C66.1481 0.344238 65.6007 0 65.0001 0H40.0001C39.137 0 38.4376 0.699463 38.4376 1.5625V37.3706L28.5889 53.3752L22.5806 43.6121C22.2926 43.1439 21.7811 42.8613 21.2293 42.8687C20.6788 42.876 20.1734 43.1726 19.8975 43.6487L0.210038 77.6544C-0.0695032 78.1384 -0.0701136 78.7341 0.208817 79.2181C0.487748 79.7021 1.00411 80 1.56258 80H78.4376C78.996 80 79.5124 79.7021 79.7913 79.2181C80.0703 78.7341 80.0697 78.1378 79.7895 77.6544L60.102 43.6487ZM29.939 57.1429C29.9409 57.1399 29.9427 57.1375 29.9445 57.1344L40.0001 40.7941L62.2034 76.875H17.7961L29.939 57.1429ZM57.53 8.39905C57.0734 8.96973 57.0734 9.78027 57.53 10.351L61.7487 15.625H41.5626V3.125H61.7487L57.53 8.39905ZM21.291 47.4786L26.7542 56.3562L14.1267 76.875H4.27254L21.291 47.4786ZM65.8729 76.875L53.2459 56.3556L58.7092 47.4786L75.7276 76.875H65.8729Z" fill="#0B59DB"/>
<path d="M52.4844 73.0068C52.9367 73.7423 53.8992 73.9706 54.6341 73.5183C55.3689 73.066 55.5984 72.1041 55.1455 71.3692L44.8581 54.6517C44.4064 53.9168 43.4439 53.6874 42.7084 54.1396C41.9735 54.5925 41.7447 55.5544 42.1969 56.2893L52.4844 73.0068Z" fill="#0B59DB"/>
</g>
<defs>
<clipPath id="clip0_243_3711">
<rect width="80" height="80" fill="white"/>
</clipPath>
</defs>
</svg>
