<svg width="80" height="80" viewBox="0 0 80 80" fill="none" xmlns="http://www.w3.org/2000/svg">
<g clip-path="url(#clip0_243_3627)">
<path d="M40.1332 27.9099C41.2342 27.9099 42.126 27.0176 42.126 25.9171C42.126 24.8166 41.2342 23.9243 40.1332 23.9243C31.3288 23.9243 24.1914 31.0618 24.1914 39.8667C24.1914 48.671 31.3288 55.8084 40.1332 55.8084C48.9381 55.8084 56.0755 48.671 56.0755 39.8667C56.0755 38.7656 55.1832 37.8739 54.0827 37.8739C52.9823 37.8739 52.0899 38.7656 52.0899 39.8667C52.0899 46.4701 46.7372 51.8234 40.1332 51.8234C33.5298 51.8234 28.1764 46.4701 28.1764 39.8667C28.1764 33.2627 33.5298 27.9099 40.1332 27.9099Z" fill="#0B59DB"/>
<path d="M78.156 28.0304C77.8099 26.9849 76.682 26.4178 75.6359 26.7639C74.6141 27.102 74.0453 28.1897 74.3499 29.2218C80.3093 48.1994 69.7564 68.4149 50.7787 74.3743C31.8017 80.3338 11.5863 69.7808 5.6268 50.8032C-0.333272 31.8256 10.2203 11.6101 29.1973 5.65066C36.2225 3.44485 43.7542 3.44485 50.7787 5.65066C51.8334 5.96865 52.9461 5.37173 53.2641 4.31704C53.5772 3.27823 53.0028 2.18021 51.9707 1.84451C30.8984 -4.76681 8.45578 6.9562 1.84446 28.0292C-4.76686 49.1015 6.95676 71.5441 28.0291 78.1554C49.1021 84.7668 71.5441 73.0438 78.1554 51.9708C80.6005 44.1778 80.6005 35.8233 78.156 28.0304Z" fill="#0B59DB"/>
<path d="M43.9281 14.2371C43.9384 13.1024 43.0669 12.1539 41.9353 12.0691C41.3402 12.0184 40.7445 11.9678 40.1335 11.9678C24.7252 11.9678 12.2344 24.4586 12.2344 39.8669C12.2344 55.2746 24.7252 67.7654 40.1335 67.7654C55.5412 67.7654 68.032 55.2746 68.032 39.8669C68.032 39.1461 67.9881 38.4259 67.8996 37.7105C67.7403 36.6168 66.7247 35.8593 65.6309 36.0186C64.5372 36.1773 63.7797 37.1936 63.9384 38.2873C63.9445 38.3288 63.9518 38.3697 63.9604 38.4112C64.0037 38.894 64.0464 39.3725 64.0464 39.8657C64.0471 53.0731 53.3409 63.7792 40.1341 63.7804C26.9267 63.7811 16.2206 53.0743 16.22 39.8675C16.2194 26.6607 26.9249 15.954 40.1323 15.9534H40.1329C40.6273 15.9534 41.1064 15.9961 41.588 16.0388L41.9615 16.0699C43.0028 16.1145 43.8829 15.3064 43.9268 14.2651C43.9274 14.2554 43.9274 14.2462 43.9281 14.2371Z" fill="#0B59DB"/>
<path d="M52.091 17.946V25.092L38.7256 38.4575C37.9339 39.2222 37.912 40.4838 38.6767 41.2755C39.4415 42.0671 40.7031 42.0891 41.4947 41.3243C41.5112 41.3084 41.5277 41.2919 41.5435 41.2755L54.909 27.91H62.055C62.5836 27.91 63.0901 27.7 63.4643 27.3259L75.4204 15.3691C76.1986 14.5909 76.1986 13.3293 75.4204 12.5511C75.0469 12.1776 74.5403 11.9676 74.0118 11.9676H68.0334V5.98926C68.0334 4.88879 67.141 3.99646 66.04 3.99707C65.512 3.99707 65.0054 4.20703 64.6319 4.58057L52.6751 16.5373C52.301 16.9109 52.091 17.4175 52.091 17.946ZM56.0766 18.7712L64.0478 10.8V13.9604C64.0478 15.0609 64.9401 15.9532 66.0406 15.9532H69.201L61.2298 23.9244H56.0766V18.7712Z" fill="#0B59DB"/>
</g>
<defs>
<clipPath id="clip0_243_3627">
<rect width="80" height="80" fill="white"/>
</clipPath>
</defs>
</svg>
