<svg width="40" height="40" viewBox="0 0 40 40" fill="none" xmlns="http://www.w3.org/2000/svg">
<path d="M3.3333 20C3.33285 16.8702 4.21382 13.8036 5.87534 11.1512C7.53686 8.49882 9.91175 6.36799 12.7281 5.00268C15.5444 3.63738 18.6883 3.09281 21.7997 3.43132C24.9111 3.76983 27.8644 4.97774 30.3212 6.91674H27.786C27.5663 6.91887 27.3564 7.0076 27.2019 7.16365C27.0474 7.31969 26.9607 7.53044 26.9607 7.75006C26.9607 7.96968 27.0474 8.18043 27.2019 8.33648C27.3564 8.49252 27.5663 8.58126 27.786 8.58338H32.4999C32.721 8.58338 32.9329 8.49558 33.0892 8.3393C33.2455 8.18301 33.3333 7.97104 33.3333 7.75002V3.03588C33.3344 2.92577 33.3136 2.81654 33.2722 2.7145C33.2308 2.61246 33.1696 2.51964 33.0921 2.4414C33.0146 2.36316 32.9224 2.30105 32.8208 2.25866C32.7191 2.21628 32.6101 2.19445 32.5 2.19445C32.3899 2.19445 32.2808 2.21628 32.1792 2.25866C32.0776 2.30105 31.9853 2.36316 31.9079 2.4414C31.8304 2.51964 31.7692 2.61246 31.7278 2.7145C31.6864 2.81654 31.6656 2.92577 31.6667 3.03588V5.85776C28.0329 2.8602 23.3848 1.37634 18.6864 1.71392C13.988 2.05151 9.59976 4.18464 6.43191 7.67089C3.26406 11.1571 1.55967 15.729 1.67223 20.4382C1.7848 25.1474 3.70569 29.6326 7.0365 32.9635C7.11355 33.0423 7.20547 33.1051 7.30695 33.1481C7.40842 33.1912 7.51744 33.2137 7.62767 33.2143C7.7379 33.215 7.84717 33.1937 7.94914 33.1518C8.0511 33.1099 8.14374 33.0482 8.22169 32.9703C8.29964 32.8923 8.36135 32.7997 8.40324 32.6977C8.44513 32.5958 8.46637 32.4865 8.46574 32.3763C8.4651 32.266 8.4426 32.157 8.39954 32.0555C8.35647 31.9541 8.2937 31.8621 8.21486 31.7851C6.66237 30.2411 5.43155 28.4044 4.59363 26.3815C3.75571 24.3586 3.32733 22.1896 3.3333 20Z" fill="white"/>
<path d="M12.7167 34.9963C12.2439 34.7664 11.7759 34.5105 11.3261 34.2362C11.1374 34.1211 10.9108 34.0856 10.696 34.1376C10.4812 34.1895 10.2958 34.3247 10.1806 34.5133C10.0655 34.702 10.03 34.9286 10.082 35.1434C10.1339 35.3582 10.2691 35.5436 10.4577 35.6587C10.953 35.9611 11.468 36.2423 11.9885 36.4953C12.0869 36.5431 12.1938 36.5711 12.303 36.5776C12.4123 36.5841 12.5217 36.5691 12.6251 36.5333C12.7285 36.4975 12.8239 36.4417 12.9058 36.3691C12.9876 36.2965 13.0543 36.2084 13.1022 36.11C13.15 36.0116 13.178 35.9047 13.1845 35.7955C13.191 35.6862 13.1759 35.5768 13.1402 35.4734C13.1044 35.3699 13.0486 35.2746 12.976 35.1927C12.9033 35.1109 12.8153 35.0442 12.7169 34.9963H12.7167Z" fill="white"/>
<path d="M35.0037 12.732C35.0514 12.8305 35.1181 12.9186 35.1998 12.9913C35.2816 13.0641 35.3769 13.12 35.4803 13.1559C35.5836 13.1918 35.6931 13.207 35.8023 13.2006C35.9116 13.1942 36.0185 13.1664 36.117 13.1187C36.2155 13.071 36.3036 13.0043 36.3763 12.9226C36.4491 12.8408 36.505 12.7455 36.5409 12.6421C36.5768 12.5388 36.592 12.4293 36.5856 12.3201C36.5793 12.2108 36.5514 12.1039 36.5037 12.0054C36.2526 11.4866 35.9719 10.9715 35.6696 10.4742C35.6127 10.3807 35.5379 10.2993 35.4496 10.2346C35.3613 10.17 35.2611 10.1234 35.1547 10.0975C34.9399 10.0452 34.7132 10.0804 34.5243 10.1953C34.3355 10.3101 34.2 10.4953 34.1477 10.7101C34.0954 10.9249 34.1305 11.1516 34.2454 11.3405C34.5203 11.7926 34.7754 12.2608 35.0037 12.732Z" fill="white"/>
<path d="M21.9771 36.5499C21.451 36.6124 20.9187 36.6496 20.3947 36.6622C20.1777 36.6705 19.9725 36.7632 19.8228 36.9206C19.6731 37.0779 19.5908 37.2875 19.5933 37.5046C19.5958 37.7217 19.683 37.9293 19.8363 38.0831C19.9896 38.2369 20.1969 38.3248 20.4141 38.3281C20.4205 38.3281 20.4275 38.3281 20.434 38.3277C21.0101 38.3143 21.5948 38.273 22.1726 38.2048C22.392 38.1787 22.5919 38.0666 22.7286 37.8931C22.8653 37.7196 22.9275 37.499 22.9017 37.2797C22.8758 37.0603 22.7639 36.8602 22.5906 36.7233C22.4173 36.5864 22.1967 36.5239 21.9773 36.5496L21.9771 36.5499Z" fill="white"/>
<path d="M17.2346 36.4368C16.7162 36.3501 16.1949 36.2374 15.6855 36.1008C15.4719 36.0438 15.2444 36.0739 15.053 36.1845C14.8617 36.2952 14.7221 36.4773 14.665 36.6909C14.6079 36.9045 14.638 37.132 14.7487 37.3233C14.8593 37.5147 15.0415 37.6543 15.255 37.7114C15.8157 37.8612 16.3895 37.9852 16.9603 38.0804C17.0683 38.0985 17.1787 38.095 17.2853 38.0704C17.3919 38.0457 17.4927 38.0003 17.5817 37.9367C17.6708 37.8731 17.7464 37.7925 17.8044 37.6997C17.8623 37.6069 17.9014 37.5035 17.9194 37.3956C17.9374 37.2877 17.934 37.1772 17.9093 37.0706C17.8846 36.964 17.8392 36.8633 17.7756 36.7742C17.712 36.6852 17.6315 36.6095 17.5387 36.5516C17.4458 36.4936 17.3425 36.4545 17.2346 36.4365V36.4368Z" fill="white"/>
<path d="M37.5149 19.5982C37.294 19.5928 37.08 19.6754 36.9199 19.8278C36.7598 19.9801 36.6668 20.1898 36.6612 20.4107C36.6478 20.9377 36.6096 21.4698 36.5469 21.9931C36.5207 22.2126 36.5828 22.4335 36.7195 22.6072C36.8561 22.7809 37.0562 22.8933 37.2756 22.9196C37.3088 22.9233 37.3422 22.9252 37.3757 22.9253C37.5794 22.925 37.7759 22.8501 37.9281 22.7148C38.0804 22.5795 38.1779 22.3932 38.2021 22.1909C38.2705 21.616 38.3128 21.0313 38.3271 20.4523C38.3299 20.3429 38.3111 20.234 38.2718 20.1318C38.2324 20.0297 38.1734 19.9363 38.098 19.857C38.0225 19.7776 37.9322 19.714 37.8322 19.6696C37.7321 19.6252 37.6243 19.6009 37.5149 19.5982Z" fill="white"/>
<path d="M34.957 29.1301C34.7742 29.0061 34.5496 28.9598 34.3325 29.0012C34.1155 29.0426 33.9238 29.1684 33.7994 29.351C33.5031 29.7868 33.1829 30.2137 32.8468 30.6193C32.7754 30.7034 32.7213 30.8008 32.6878 30.9059C32.6543 31.011 32.642 31.1217 32.6516 31.2316C32.6612 31.3415 32.6926 31.4484 32.7439 31.5461C32.7951 31.6438 32.8653 31.7303 32.9503 31.8007C33.0352 31.871 33.1333 31.9238 33.2389 31.9559C33.3444 31.9881 33.4553 31.9989 33.5651 31.9879C33.6748 31.9768 33.7813 31.9441 33.8783 31.8915C33.9753 31.839 34.0609 31.7677 34.1302 31.6818C34.4996 31.2359 34.8524 30.7667 35.1779 30.2874C35.2394 30.1969 35.2825 30.0952 35.3046 29.988C35.3268 29.8809 35.3277 29.7704 35.3072 29.663C35.2867 29.5555 35.2452 29.4531 35.1851 29.3617C35.125 29.2703 35.0475 29.1916 34.957 29.1301Z" fill="white"/>
<path d="M36.1055 15.7007C36.2406 16.2081 36.353 16.7294 36.4396 17.2501C36.4719 17.4447 36.5721 17.6215 36.7225 17.7491C36.8728 17.8767 37.0635 17.9469 37.2607 17.9472C37.3066 17.9471 37.3525 17.9433 37.3978 17.9358C37.5058 17.9179 37.6092 17.8789 37.7021 17.821C37.795 17.7631 37.8756 17.6875 37.9392 17.5985C38.0029 17.5094 38.0484 17.4087 38.0732 17.3021C38.0979 17.1955 38.1014 17.0851 38.0834 16.9771C37.9886 16.4042 37.8647 15.8302 37.7163 15.2718C37.6594 15.0582 37.52 14.876 37.3288 14.7652C37.1375 14.6544 36.9101 14.6241 36.6965 14.681C36.483 14.7378 36.3007 14.8772 36.1899 15.0685C36.0791 15.2597 36.0488 15.4871 36.1057 15.7007H36.1055Z" fill="white"/>
<path d="M30.6052 32.8585C30.1978 33.1955 29.771 33.5156 29.3369 33.8098C29.2463 33.8712 29.1687 33.9499 29.1085 34.0413C29.0484 34.1326 29.0068 34.235 28.9861 34.3425C28.9655 34.4499 28.9662 34.5604 28.9883 34.6676C29.0104 34.7747 29.0533 34.8765 29.1147 34.9671C29.1761 35.0576 29.2548 35.1352 29.3461 35.1954C29.4375 35.2556 29.5399 35.2972 29.6473 35.3178C29.7548 35.3384 29.8653 35.3377 29.9724 35.3156C30.0796 35.2936 30.1814 35.2506 30.272 35.1892C30.7497 34.8657 31.2188 34.5138 31.6672 34.1435C31.8376 34.0027 31.9451 33.7999 31.966 33.5799C31.9869 33.3598 31.9195 33.1404 31.7787 32.97C31.6378 32.7996 31.4351 32.6921 31.215 32.6712C30.9949 32.6503 30.7756 32.7177 30.6052 32.8585Z" fill="white"/>
<path d="M36.9208 24.548C36.7102 24.4811 36.4818 24.5005 36.2855 24.6019C36.0893 24.7033 35.9412 24.8784 35.8739 25.0888C35.7144 25.5888 35.5281 26.0881 35.3201 26.5735C35.2746 26.6744 35.2497 26.7834 35.2469 26.8941C35.244 27.0047 35.2632 27.1148 35.3033 27.218C35.3435 27.3211 35.4038 27.4152 35.4807 27.4948C35.5576 27.5744 35.6496 27.6378 35.7514 27.6815C35.8531 27.7251 35.9625 27.748 36.0732 27.7489C36.1838 27.7498 36.2936 27.7286 36.396 27.6866C36.4984 27.6446 36.5914 27.5826 36.6696 27.5042C36.7478 27.4259 36.8096 27.3327 36.8513 27.2302C37.0809 26.696 37.2859 26.1455 37.4613 25.5949C37.4946 25.4907 37.507 25.3809 37.4979 25.2719C37.4887 25.1629 37.4582 25.0567 37.408 24.9594C37.3578 24.8622 37.2889 24.7758 37.2053 24.7052C37.1217 24.6346 37.025 24.5812 36.9208 24.548Z" fill="white"/>
<path d="M26.5575 35.3267C26.0769 35.5326 25.5773 35.7186 25.0723 35.8797C24.9681 35.9129 24.8714 35.9663 24.7878 36.037C24.7042 36.1076 24.6353 36.1939 24.5851 36.2911C24.5349 36.3884 24.5043 36.4945 24.4951 36.6036C24.4859 36.7126 24.4983 36.8224 24.5316 36.9266C24.5648 37.0309 24.6182 37.1276 24.6888 37.2112C24.7594 37.2948 24.8458 37.3636 24.943 37.4138C25.0403 37.4641 25.1464 37.4946 25.2554 37.5038C25.3645 37.513 25.4743 37.5006 25.5785 37.4674C26.1339 37.2904 26.6841 37.0858 27.2134 36.8591C27.4166 36.7721 27.577 36.6079 27.6591 36.4027C27.7413 36.1975 27.7385 35.968 27.6515 35.7648C27.5645 35.5616 27.4003 35.4013 27.1951 35.3191C26.9899 35.2369 26.7604 35.2397 26.5572 35.3267H26.5575Z" fill="white"/>
<path d="M12.9524 18.2975C12.9524 16.9317 12.0543 15.8374 10.6644 15.5092C9.90082 15.3284 9.0985 15.4117 8.38838 15.7456C7.67826 16.0795 7.10228 16.6442 6.75447 17.3476C6.65708 17.5451 6.64183 17.7732 6.71205 17.9819C6.78228 18.1907 6.93227 18.3631 7.12925 18.4616C7.32623 18.5601 7.55419 18.5766 7.76331 18.5076C7.97244 18.4385 8.14574 18.2895 8.24533 18.0931C8.42325 17.7238 8.72253 17.4269 9.09314 17.2518C9.46376 17.0768 9.88323 17.0342 10.2814 17.1314C10.5171 17.1869 11.2856 17.4355 11.2856 18.2975C11.2856 19.1667 10.2818 19.8371 9.219 20.5469C8.02228 21.3457 6.6665 22.251 6.6665 23.75C6.6665 23.9711 6.7543 24.183 6.91059 24.3393C7.06687 24.4956 7.27884 24.5834 7.49986 24.5834H12.119C12.2291 24.5845 12.3383 24.5637 12.4404 24.5223C12.5424 24.4809 12.6352 24.4197 12.7135 24.3422C12.7917 24.2647 12.8538 24.1725 12.8962 24.0708C12.9386 23.9692 12.9604 23.8602 12.9604 23.7501C12.9604 23.64 12.9386 23.5309 12.8962 23.4293C12.8538 23.3277 12.7917 23.2354 12.7135 23.1579C12.6352 23.0805 12.5424 23.0192 12.4404 22.9778C12.3383 22.9364 12.2291 22.9157 12.119 22.9167H8.81744C9.16658 22.586 9.6601 22.2564 10.1443 21.9328C11.4608 21.0539 12.9524 20.0578 12.9524 18.2975Z" fill="white"/>
<path d="M20.8331 21.0416C20.8331 20.8206 20.7453 20.6087 20.589 20.4524C20.4327 20.2961 20.2208 20.2083 19.9998 20.2083H19.3227V15.7812C19.3226 15.6086 19.269 15.4403 19.1692 15.2995C19.0695 15.1587 18.9284 15.0523 18.7656 14.9951C18.6028 14.9379 18.4262 14.9326 18.2602 14.98C18.0943 15.0274 17.9472 15.1252 17.8392 15.2598L13.6204 20.5204C13.5223 20.643 13.4607 20.7908 13.4429 20.9468C13.4251 21.1028 13.4516 21.2606 13.5196 21.4022C13.5875 21.5437 13.6941 21.6632 13.827 21.7468C13.9598 21.8305 14.1136 21.8749 14.2706 21.875H17.656V24.2187C17.655 24.3288 17.6757 24.4381 17.7171 24.5401C17.7585 24.6421 17.8197 24.735 17.8972 24.8132C17.9747 24.8915 18.0669 24.9536 18.1686 24.9959C18.2702 25.0383 18.3792 25.0602 18.4894 25.0602C18.5995 25.0602 18.7085 25.0383 18.8101 24.9959C18.9118 24.9536 19.004 24.8915 19.0815 24.8132C19.159 24.735 19.2202 24.6421 19.2616 24.5401C19.303 24.4381 19.3237 24.3288 19.3227 24.2187V21.875H19.9998C20.2208 21.875 20.4328 21.7872 20.5891 21.6309C20.7453 21.4746 20.8331 21.2626 20.8331 21.0416ZM17.656 20.2083H16.0076L17.656 18.1522V20.2083Z" fill="white"/>
<path d="M25.0984 14.4955C24.9911 14.4738 24.8805 14.4735 24.7731 14.4946C24.6656 14.5158 24.5634 14.5579 24.4723 14.6187C24.3812 14.6794 24.303 14.7575 24.2422 14.8486C24.1813 14.9396 24.139 15.0417 24.1178 15.1492L22.2428 24.5242C22.1994 24.7409 22.2439 24.9659 22.3664 25.1498C22.489 25.3337 22.6796 25.4614 22.8963 25.5048C22.9503 25.5155 23.0053 25.521 23.0604 25.521C23.2528 25.5208 23.4393 25.454 23.5881 25.3319C23.7369 25.2098 23.8388 25.04 23.8766 24.8513L25.7516 15.4763C25.7731 15.369 25.7733 15.2585 25.7522 15.1511C25.731 15.0438 25.6889 14.9416 25.6282 14.8505C25.5676 14.7594 25.4895 14.6812 25.3986 14.6203C25.3077 14.5594 25.2057 14.517 25.0984 14.4955Z" fill="white"/>
<path d="M29.3747 24.5837C29.5393 24.5836 29.7001 24.5349 29.837 24.4436C29.974 24.3523 30.0808 24.2225 30.1442 24.0706L33.2692 16.5706C33.322 16.444 33.3428 16.3063 33.3296 16.1697C33.3164 16.0331 33.2697 15.9019 33.1936 15.7877C33.1175 15.6735 33.0144 15.5799 32.8934 15.5152C32.7724 15.4505 32.6373 15.4166 32.5001 15.4166H28.2813C28.0617 15.4188 27.8518 15.5075 27.6973 15.6635C27.5428 15.8196 27.4561 16.0303 27.4561 16.2499C27.4561 16.4696 27.5428 16.6803 27.6973 16.8364C27.8518 16.9924 28.0617 17.0811 28.2813 17.0833H31.2501L28.606 23.4297C28.5534 23.5563 28.5329 23.6939 28.5461 23.8304C28.5594 23.9669 28.6061 24.098 28.6821 24.2121C28.7581 24.3263 28.8611 24.4199 28.9819 24.4848C29.1027 24.5496 29.2376 24.5837 29.3747 24.584V24.5837Z" fill="white"/>
</svg>
