<svg width="19" height="18" viewBox="0 0 19 18" fill="none" xmlns="http://www.w3.org/2000/svg">
<path d="M12.125 8.25C12.125 9.69975 10.9497 10.875 9.5 10.875C8.05025 10.875 6.875 9.69975 6.875 8.25C6.875 6.80025 8.05025 5.625 9.5 5.625C10.9497 5.625 12.125 6.80025 12.125 8.25Z" stroke="#0B59DB" stroke-width="1.5"/>
<path d="M9.5 1.5C13.153 1.5 16.25 4.52474 16.25 8.19435C16.25 11.9224 13.1025 14.5385 10.1953 16.3175C9.98338 16.4372 9.74375 16.5 9.5 16.5C9.25625 16.5 9.01662 16.4372 8.80475 16.3175C5.90292 14.5212 2.75 11.9353 2.75 8.19435C2.75 4.52474 5.84708 1.5 9.5 1.5Z" stroke="#0B59DB" stroke-width="1.5"/>
</svg>
