<svg width="16" height="16" viewBox="0 0 16 16" fill="none" xmlns="http://www.w3.org/2000/svg">
<path d="M6.90718 0.870661C7.13182 -0.29022 8.86818 -0.29022 9.09282 0.870661L9.20117 1.43059C9.36186 2.26101 10.4195 2.59022 11.059 2.00888L11.4902 1.61689C12.3843 0.804211 13.789 1.78193 13.2585 2.84759L13.0026 3.3616C12.623 4.1239 13.2767 4.98578 14.1508 4.87557L14.7402 4.80126C15.9621 4.64719 16.4986 6.22917 15.4156 6.79257L14.8931 7.06431C14.1184 7.46733 14.1184 8.53267 14.8931 8.93569L15.4156 9.20743C16.4986 9.77083 15.9621 11.3528 14.7402 11.1987L14.1508 11.1244C13.2767 11.0142 12.623 11.8761 13.0026 12.6384L13.2585 13.1524C13.789 14.2181 12.3843 15.1958 11.4902 14.3831L11.059 13.9911C10.4195 13.4098 9.36186 13.739 9.20117 14.5694L9.09282 15.1293C8.86818 16.2902 7.13182 16.2902 6.90718 15.1293L6.79883 14.5694C6.63814 13.739 5.58049 13.4098 4.94097 13.9911L4.50976 14.3831C3.61574 15.1958 2.21099 14.2181 2.74154 13.1524L2.99744 12.6384C3.37695 11.8761 2.72329 11.0142 1.84922 11.1244L1.25985 11.1987C0.0379315 11.3528 -0.498633 9.77083 0.584447 9.20743L1.10685 8.93569C1.88162 8.53267 1.88162 7.46733 1.10685 7.06431L0.584447 6.79257C-0.498633 6.22917 0.0379315 4.64719 1.25985 4.80126L1.84922 4.87557C2.72329 4.98578 3.37695 4.1239 2.99744 3.3616L2.74154 2.84759C2.21099 1.78193 3.61574 0.804211 4.50976 1.61689L4.94097 2.00888C5.58049 2.59022 6.63814 2.26101 6.79883 1.43059L6.90718 0.870661Z" fill="#0B59DB"/>
</svg>
