<svg width="19" height="18" viewBox="0 0 19 18" fill="none" xmlns="http://www.w3.org/2000/svg">
<path d="M3.33321 8.9568C2.6222 7.71698 2.27889 6.70461 2.07188 5.67841C1.76571 4.16069 2.46636 2.67811 3.62703 1.7321C4.11759 1.33229 4.67992 1.46889 4.97 1.9893L5.62488 3.16418C6.14397 4.09543 6.4035 4.56104 6.35202 5.05469C6.30055 5.54834 5.95053 5.9504 5.25048 6.75451L3.33321 8.9568ZM3.33321 8.9568C4.77238 11.4662 7.03088 13.726 9.5432 15.1668M9.5432 15.1668C10.783 15.8778 11.7954 16.2211 12.8216 16.4281C14.3393 16.7343 15.8219 16.0337 16.7679 14.873C17.1677 14.3825 17.0311 13.8201 16.5107 13.53L15.3358 12.8751C14.4045 12.356 13.9389 12.0965 13.4453 12.148C12.9516 12.1994 12.5496 12.5495 11.7455 13.2495L9.5432 15.1668Z" stroke="#0B59DB" stroke-width="1.5" stroke-linejoin="round"/>
<path d="M11 5.12389C12.0674 5.57718 12.9228 6.43258 13.3761 7.5M11.4905 1.5C14.1434 2.26557 16.2343 4.35639 17 7.00922" stroke="#0B59DB" stroke-width="1.5" stroke-linecap="round"/>
</svg>
