<svg width="120" height="120" viewBox="0 0 120 120" fill="none" xmlns="http://www.w3.org/2000/svg">
<g clip-path="url(#clip0_220_3742)">
<path d="M34 40C30.0444 40 26.1776 41.173 22.8886 43.3706C19.5996 45.5682 17.0362 48.6918 15.5224 52.3463C14.0087 56.0009 13.6126 60.0222 14.3843 63.9018C15.156 67.7814 17.0608 71.3451 19.8579 74.1421C22.6549 76.9392 26.2186 78.844 30.0982 79.6157C33.9778 80.3874 37.9992 79.9913 41.6537 78.4776C45.3082 76.9638 48.4318 74.4004 50.6294 71.1114C52.827 67.8224 54 63.9556 54 60C53.9942 54.6975 51.8852 49.6138 48.1357 45.8643C44.3862 42.1148 39.3026 40.0058 34 40ZM34 76C30.8355 76 27.7421 75.0616 25.1109 73.3035C22.4797 71.5454 20.4289 69.0466 19.2179 66.1229C18.0069 63.1993 17.6901 59.9823 18.3074 56.8786C18.9248 53.7749 20.4487 50.9239 22.6863 48.6863C24.9239 46.4487 27.7749 44.9248 30.8786 44.3074C33.9823 43.6901 37.1993 44.0069 40.1229 45.2179C43.0466 46.4289 45.5454 48.4797 47.3035 51.1109C49.0616 53.7421 50 56.8355 50 60C49.9952 64.242 48.308 68.3089 45.3085 71.3084C42.3089 74.308 38.242 75.9952 34 76Z" fill="#0B59DB"/>
<path d="M34 48C31.6266 48 29.3066 48.7038 27.3332 50.0224C25.3598 51.3409 23.8217 53.2151 22.9135 55.4078C22.0052 57.6005 21.7676 60.0133 22.2306 62.3411C22.6936 64.6689 23.8365 66.8071 25.5147 68.4853C27.193 70.1635 29.3312 71.3064 31.6589 71.7694C33.9867 72.2325 36.3995 71.9948 38.5922 71.0866C40.7849 70.1783 42.6591 68.6402 43.9776 66.6668C45.2962 64.6935 46 62.3734 46 60C45.9968 56.8184 44.7315 53.768 42.4818 51.5182C40.232 49.2685 37.1816 48.0032 34 48ZM34 68C32.4178 68 30.871 67.5308 29.5554 66.6518C28.2399 65.7727 27.2145 64.5233 26.609 63.0615C26.0035 61.5997 25.845 59.9911 26.1537 58.4393C26.4624 56.8874 27.2243 55.462 28.3432 54.3431C29.462 53.2243 30.8874 52.4624 32.4393 52.1537C33.9911 51.845 35.5997 52.0035 37.0615 52.609C38.5233 53.2145 39.7727 54.2398 40.6518 55.5554C41.5308 56.871 42 58.4178 42 60C42 62.1217 41.1572 64.1566 39.6569 65.6569C38.1566 67.1571 36.1217 68 34 68Z" fill="#0B59DB"/>
<path d="M114 0H90C88.4087 0 86.8826 0.632141 85.7574 1.75736C84.6321 2.88258 84 4.4087 84 6V16H80C78.4087 16 76.8826 16.6321 75.7574 17.7574C74.6321 18.8826 74 20.4087 74 22V58H67.912C67.894 57.696 67.9 57.386 67.874 57.084C67.8072 56.3754 67.545 55.6991 67.1167 55.1306C66.6884 54.5621 66.1107 54.1237 65.448 53.864L61.22 52.174C60.6325 50.1271 59.8139 48.1537 58.78 46.292L60.58 42.092C60.8669 41.4387 60.9661 40.7184 60.8665 40.0118C60.7669 39.3053 60.4724 38.6405 60.016 38.092C59.396 37.352 58.736 36.632 58.046 35.942C57.356 35.252 56.636 34.592 55.892 33.968C55.3441 33.515 54.6812 33.2228 53.9772 33.124C53.2732 33.0251 52.5555 33.1234 51.904 33.408L47.704 35.208C45.8423 34.1741 43.8689 33.3555 41.822 32.768L40.13 28.536C39.8702 27.8744 39.4322 27.2979 38.8644 26.8703C38.2967 26.4427 37.6216 26.1809 36.914 26.114C34.9732 25.94 33.0208 25.94 31.08 26.114C30.3714 26.1808 29.6951 26.443 29.1266 26.8713C28.5581 27.2996 28.1197 27.8773 27.86 28.54L26.17 32.768C24.1231 33.3555 22.1497 34.1741 20.288 35.208L16.088 33.408C15.435 33.1197 14.7144 33.0198 14.0075 33.1194C13.3007 33.2191 12.6358 33.5144 12.088 33.972C11.348 34.592 10.628 35.252 9.938 35.942C9.248 36.632 8.588 37.352 7.964 38.096C7.51059 38.6437 7.21815 39.3066 7.11928 40.0107C7.0204 40.7148 7.11897 41.4326 7.404 42.084L9.204 46.284C8.17013 48.1457 7.35153 50.1191 6.764 52.166L2.532 53.858C1.87231 54.1207 1.29829 54.5611 0.873593 55.1301C0.4489 55.6992 0.190136 56.3748 0.126 57.082C0.04 58.046 0 59.024 0 60C0 60.976 0.04 61.954 0.126 62.916C0.192803 63.6246 0.454953 64.3009 0.883269 64.8694C1.31158 65.4379 1.88926 65.8763 2.552 66.136L6.78 67.826C7.36753 69.8729 8.18613 71.8463 9.22 73.708L7.42 77.908C7.1331 78.5613 7.0339 79.2816 7.13352 79.9882C7.23314 80.6947 7.52765 81.3595 7.984 81.908C8.604 82.648 9.264 83.368 9.954 84.058C10.644 84.748 11.364 85.408 12.108 86.032C12.6557 86.4854 13.3186 86.7778 14.0227 86.8767C14.7268 86.9756 15.4446 86.877 16.096 86.592L20.296 84.792C22.1577 85.8259 24.1311 86.6445 26.178 87.232L27.87 91.464C28.1298 92.1255 28.5678 92.7021 29.1356 93.1297C29.7033 93.5573 30.3784 93.8191 31.086 93.886C32.05 93.972 33.028 94.012 34.004 94.012C34.98 94.012 35.958 93.972 36.92 93.886C37.6286 93.8192 38.3049 93.557 38.8734 93.1287C39.4419 92.7004 39.8803 92.1227 40.14 91.46L41.83 87.232C43.8769 86.6445 45.8503 85.8259 47.712 84.792L51.912 86.592C52.5653 86.8791 53.2856 86.9785 53.9922 86.8788C54.6988 86.7792 55.3636 86.4846 55.912 86.028C56.652 85.408 57.372 84.748 58.062 84.058C58.752 83.368 59.412 82.658 60.036 81.904C60.4894 81.3563 60.7818 80.6934 60.8807 79.9893C60.9796 79.2852 60.881 78.5674 60.596 77.916L58.796 73.716C59.8299 71.8543 60.6485 69.8809 61.236 67.834L65.464 66.144C66.1255 65.8842 66.7021 65.4462 67.1297 64.8784C67.5573 64.3107 67.8191 63.6356 67.886 62.928C67.912 62.624 67.906 62.316 67.924 62.01H74V98C74 99.5913 74.6321 101.117 75.7574 102.243C76.8826 103.368 78.4087 104 80 104H84V114C84 115.591 84.6321 117.117 85.7574 118.243C86.8826 119.368 88.4087 120 90 120H114C115.591 120 117.117 119.368 118.243 118.243C119.368 117.117 120 115.591 120 114V90C120 88.4087 119.368 86.8826 118.243 85.7574C117.117 84.6321 115.591 84 114 84H90C88.4087 84 86.8826 84.6321 85.7574 85.7574C84.6321 86.8826 84 88.4087 84 90V100H80C79.4696 100 78.9609 99.7893 78.5858 99.4142C78.2107 99.0391 78 98.5304 78 98V62H84V72C84 73.5913 84.6321 75.1174 85.7574 76.2426C86.8826 77.3679 88.4087 78 90 78H114C115.591 78 117.117 77.3679 118.243 76.2426C119.368 75.1174 120 73.5913 120 72V48C120 46.4087 119.368 44.8826 118.243 43.7574C117.117 42.6321 115.591 42 114 42H90C88.4087 42 86.8826 42.6321 85.7574 43.7574C84.6321 44.8826 84 46.4087 84 48V58H78V22C78 21.4696 78.2107 20.9609 78.5858 20.5858C78.9609 20.2107 79.4696 20 80 20H84V30C84 31.5913 84.6321 33.1174 85.7574 34.2426C86.8826 35.3679 88.4087 36 90 36H114C115.591 36 117.117 35.3679 118.243 34.2426C119.368 33.1174 120 31.5913 120 30V6C120 4.4087 119.368 2.88258 118.243 1.75736C117.117 0.632141 115.591 0 114 0ZM63.898 62.448L58.8 64.484C58.5051 64.6017 58.2425 64.7878 58.0338 65.0271C57.8252 65.2663 57.6764 65.5519 57.6 65.86C57.0155 68.2128 56.0811 70.4646 54.828 72.54C54.6635 72.8117 54.5661 73.1187 54.5439 73.4355C54.5216 73.7524 54.5751 74.07 54.7 74.362L56.938 79.326C56.392 79.976 55.81 80.606 55.204 81.212C54.598 81.818 53.968 82.4 53.466 82.9L48.354 80.7C48.062 80.5751 47.7444 80.5216 47.4275 80.5439C47.1107 80.5661 46.8037 80.6635 46.532 80.828C44.4591 82.0804 42.2101 83.0147 39.86 83.6C39.5519 83.6764 39.2664 83.8252 39.0271 84.0338C38.7878 84.2425 38.6017 84.5051 38.484 84.8L36.554 89.882C34.868 90.036 33 89.96 31.578 89.956L29.516 84.8C29.3984 84.5051 29.2122 84.2425 28.9729 84.0338C28.7336 83.8252 28.4481 83.6764 28.14 83.6C25.7872 83.0155 23.5354 82.0811 21.46 80.828C21.1883 80.6635 20.8813 80.5661 20.5645 80.5439C20.2476 80.5216 19.93 80.5751 19.638 80.7L14.674 82.946C14.024 82.4 13.394 81.818 12.788 81.212C12.182 80.606 11.6 79.976 11.1 79.474L13.3 74.362C13.4249 74.07 13.4784 73.7524 13.4561 73.4355C13.4339 73.1187 13.3365 72.8117 13.172 72.54C11.9189 70.4646 10.9845 68.2128 10.4 65.86C10.3235 65.5519 10.1748 65.2663 9.96618 65.0271C9.75751 64.7878 9.49488 64.6017 9.2 64.484L4.118 62.554C4.036 61.71 4 60.856 4 60C4 59.144 4.036 58.29 4.038 57.578L9.2 55.516C9.49488 55.3983 9.75751 55.2122 9.96618 54.9729C10.1748 54.7336 10.3235 54.4481 10.4 54.14C10.9845 51.7872 11.9189 49.5354 13.172 47.46C13.3365 47.1883 13.4339 46.8813 13.4561 46.5645C13.4784 46.2476 13.4249 45.93 13.3 45.638L11.054 40.674C11.6 40.024 12.182 39.394 12.788 38.788C13.394 38.182 14.024 37.6 14.526 37.1L19.638 39.3C19.93 39.4249 20.2476 39.4784 20.5645 39.4561C20.8813 39.4339 21.1883 39.3365 21.46 39.172C23.5354 37.9189 25.7872 36.9845 28.14 36.4C28.4481 36.3236 28.7336 36.1748 28.9729 35.9662C29.2122 35.7575 29.3984 35.4949 29.516 35.2L31.446 30.118C33.132 29.964 35 30.04 36.422 30.044L38.484 35.2C38.6017 35.4949 38.7878 35.7575 39.0271 35.9662C39.2664 36.1748 39.5519 36.3236 39.86 36.4C42.2128 36.9845 44.4646 37.9189 46.54 39.172C46.8117 39.3365 47.1187 39.4339 47.4355 39.4561C47.7524 39.4784 48.07 39.4249 48.362 39.3L53.326 37.062C53.976 37.608 54.606 38.19 55.212 38.796C55.818 39.402 56.4 40.032 56.9 40.534L54.7 45.646C54.5751 45.938 54.5216 46.2556 54.5439 46.5725C54.5661 46.8893 54.6635 47.1963 54.828 47.468C56.0804 49.5409 57.0147 51.7899 57.6 54.14C57.6764 54.4481 57.8252 54.7336 58.0338 54.9729C58.2425 55.2122 58.5051 55.3983 58.8 55.516L63.882 57.446C63.958 58.29 63.994 59.144 63.994 60C64 60.818 63.968 61.636 63.898 62.448ZM88 90C88 89.4696 88.2107 88.9609 88.5858 88.5858C88.9609 88.2107 89.4696 88 90 88H114C114.53 88 115.039 88.2107 115.414 88.5858C115.789 88.9609 116 89.4696 116 90V114C116 114.53 115.789 115.039 115.414 115.414C115.039 115.789 114.53 116 114 116H90C89.4696 116 88.9609 115.789 88.5858 115.414C88.2107 115.039 88 114.53 88 114V90ZM88 48C88 47.4696 88.2107 46.9609 88.5858 46.5858C88.9609 46.2107 89.4696 46 90 46H114C114.53 46 115.039 46.2107 115.414 46.5858C115.789 46.9609 116 47.4696 116 48V72C116 72.5304 115.789 73.0391 115.414 73.4142C115.039 73.7893 114.53 74 114 74H90C89.4696 74 88.9609 73.7893 88.5858 73.4142C88.2107 73.0391 88 72.5304 88 72V48ZM116 30C116 30.5304 115.789 31.0391 115.414 31.4142C115.039 31.7893 114.53 32 114 32H90C89.4696 32 88.9609 31.7893 88.5858 31.4142C88.2107 31.0391 88 30.5304 88 30V6C88 5.46957 88.2107 4.96086 88.5858 4.58579C88.9609 4.21071 89.4696 4 90 4H114C114.53 4 115.039 4.21071 115.414 4.58579C115.789 4.96086 116 5.46957 116 6V30Z" fill="#0B59DB"/>
<path d="M106.337 10.8898L99.6908 20.8618L97.4148 18.5858C97.0376 18.2214 96.5324 18.0199 96.008 18.0244C95.4836 18.029 94.982 18.2393 94.6112 18.6101C94.2404 18.9809 94.03 19.4826 94.0255 20.007C94.0209 20.5314 94.2225 21.0366 94.5868 21.4138L98.5868 25.4138C98.9618 25.7889 99.4704 25.9997 100.001 25.9998C100.065 25.9998 100.131 25.9998 100.201 25.9898C100.495 25.9606 100.779 25.8665 101.033 25.7143C101.286 25.5622 101.503 25.3557 101.667 25.1098L109.667 13.1098C109.813 12.8912 109.914 12.6462 109.965 12.3885C110.016 12.1308 110.016 11.8656 109.964 11.608C109.913 11.3504 109.811 11.1055 109.665 10.8872C109.519 10.6689 109.331 10.4815 109.113 10.3358C108.894 10.19 108.649 10.0887 108.392 10.0376C108.134 9.9866 107.869 9.9868 107.611 10.0382C107.353 10.0897 107.109 10.1914 106.89 10.3375C106.672 10.4836 106.483 10.6712 106.337 10.8898Z" fill="#0B59DB"/>
<path d="M98.5868 67.4138C98.9618 67.7889 99.4704 67.9996 100.001 67.9998C100.065 67.9998 100.131 67.9998 100.201 67.9898C100.495 67.9606 100.779 67.8665 101.033 67.7143C101.286 67.5622 101.503 67.3557 101.667 67.1098L109.667 55.1098C109.813 54.8912 109.914 54.6461 109.965 54.3885C110.016 54.1308 110.016 53.8656 109.964 53.608C109.913 53.3504 109.811 53.1055 109.665 52.8872C109.519 52.6689 109.331 52.4815 109.113 52.3358C108.894 52.19 108.649 52.0887 108.391 52.0376C108.134 51.9866 107.869 51.9868 107.611 52.0382C107.353 52.0897 107.109 52.1914 106.89 52.3375C106.672 52.4836 106.485 52.6712 106.339 52.8898L99.6928 62.8618L97.4168 60.5858C97.0396 60.2214 96.5344 60.0199 96.01 60.0244C95.4856 60.029 94.984 60.2393 94.6131 60.6101C94.2423 60.9809 94.032 61.4826 94.0274 62.007C94.0229 62.5314 94.2245 63.0366 94.5888 63.4138L98.5868 67.4138Z" fill="#0B59DB"/>
</g>
<defs>
<clipPath id="clip0_220_3742">
<rect width="120" height="120" fill="white"/>
</clipPath>
</defs>
</svg>
