<svg width="118" height="118" viewBox="0 0 118 118" fill="none" xmlns="http://www.w3.org/2000/svg">
<path d="M115.924 49.6374L107.515 46.4012C106.352 41.9089 104.571 37.614 102.212 33.6085L105.872 25.3691C106.187 24.6603 106.032 23.8306 105.484 23.2822L94.7179 12.5164C94.1694 11.9677 93.34 11.8137 92.631 12.1285L84.3888 15.7895C80.383 13.4307 76.0898 11.6506 71.6001 10.4872L68.3627 2.07641C68.084 1.35266 67.3884 0.875 66.6126 0.875H51.3876C50.6118 0.875 49.9164 1.35266 49.6377 2.07641L46.4003 10.4874C41.9106 11.6509 37.6173 13.4307 33.6116 15.7897L25.3694 12.1287C24.6606 11.8142 23.8309 11.968 23.2825 12.5166L12.5165 23.2827C11.968 23.8311 11.8138 24.6605 12.1288 25.3695L15.7893 33.6109C13.4303 37.6166 11.6502 41.9103 10.4868 46.4009L2.07672 49.6381C1.35297 49.9166 0.875315 50.6119 0.875315 51.3877V66.6125C0.875315 67.3883 1.35297 68.0837 2.07672 68.3623L10.4856 71.5991C10.9947 73.562 11.627 75.5 12.3723 77.3893C8.76649 79.2111 5.7611 82.0367 3.69391 85.617C0.888908 90.4754 0.14383 96.1353 1.59578 101.554C4.10711 110.927 12.6147 117.123 21.8875 117.123C23.6814 117.123 25.5051 116.891 27.3182 116.405C33.3027 114.801 37.9912 110.752 40.5995 105.621C42.4926 106.369 44.4344 107.003 46.4003 107.513L49.6377 115.924C49.9162 116.648 50.6118 117.125 51.3876 117.125H66.6128C67.3886 117.125 68.084 116.648 68.3627 115.924L71.5991 107.515C76.0914 106.352 80.3861 104.571 84.3918 102.212L92.6313 105.872C93.3402 106.187 94.1697 106.033 94.7181 105.484L105.484 94.7183C106.032 94.1698 106.186 93.3404 105.872 92.6314L102.211 84.3889C104.57 80.383 106.35 76.0892 107.513 71.6002L115.924 68.3628C116.648 68.0844 117.125 67.3887 117.125 66.613V51.3875C117.125 50.6117 116.648 49.9161 115.924 49.6374ZM26.3477 112.782C17.1581 115.244 7.68016 109.772 5.21805 100.583C2.75594 91.3941 8.22836 81.9155 17.4173 79.4534C18.8866 79.0597 20.3901 78.863 21.8917 78.863C23.5638 78.863 25.2332 79.107 26.8473 79.5938C27.5088 79.7933 28.2262 79.6128 28.7146 79.1246L33.351 74.4882L33.3679 74.4713L62.7259 45.1135L73.2639 44.7364L72.887 55.2746L71.6153 56.5463L65.0779 56.2227C64.5496 56.198 64.0338 56.3952 63.6595 56.7695C63.2849 57.1437 63.0864 57.6589 63.1127 58.1879L63.3749 63.4883L58.0745 63.2262C57.5455 63.2 57.0304 63.3987 56.6561 63.773C56.2816 64.1476 56.083 64.6627 56.1093 65.1915L56.4327 71.7289L43.5283 84.6331C43.5231 84.6383 43.5182 84.6432 43.5131 84.6484L38.8738 89.2876C38.3861 89.7753 38.2054 90.4916 38.4037 91.1523C38.4534 91.318 38.5016 91.4844 38.5466 91.6526C39.5155 95.2683 39.2934 99.0148 37.9408 102.433C37.9391 102.437 37.937 102.44 37.9352 102.444C37.9321 102.451 37.93 102.459 37.927 102.466C37.6171 103.244 37.2494 104.005 36.823 104.744C34.5191 108.735 30.7989 111.59 26.3477 112.782ZM30.4255 59C30.4255 43.2439 43.244 30.4255 59.0001 30.4255C74.7564 30.4255 87.5748 43.2439 87.5748 59C87.5748 74.7561 74.7562 87.5745 59.0001 87.5745C55.2435 87.5745 51.5083 86.8292 48.0604 85.4042L59.6723 73.7923C60.0468 73.418 60.2453 72.9027 60.2191 72.3739L59.9568 67.0735L65.2572 67.3355C65.7845 67.3611 66.3011 67.163 66.6756 66.7887C67.0502 66.4142 67.2487 65.8991 67.2224 65.3703L66.9602 60.0702L72.2603 60.3327C72.7921 60.3589 73.3045 60.1602 73.6787 59.7859L76.06 57.4044C76.3954 57.0692 76.5911 56.6194 76.608 56.1455L77.0833 42.8572C77.102 42.3369 76.9035 41.8323 76.5353 41.4643C76.1674 41.0963 75.6618 40.8971 75.1424 40.9163L61.8543 41.3919C61.3806 41.4087 60.9309 41.6047 60.5955 41.9398L32.5959 69.9402C31.1706 66.492 30.4255 62.7568 30.4255 59ZM113.375 65.3248L105.255 68.4502C104.678 68.6722 104.248 69.1646 104.105 69.766C102.969 74.5388 101.085 79.0834 98.5047 83.274C98.1805 83.8006 98.1367 84.4529 98.3875 85.018L101.922 92.9759L92.9767 101.921L85.0218 98.3881C84.4567 98.1369 83.804 98.1807 83.2776 98.5053C79.0881 101.086 74.5422 102.97 69.7661 104.106C69.1647 104.25 68.6723 104.68 68.4503 105.257L65.3256 113.375H52.675L49.5496 105.255C49.3277 104.678 48.8355 104.247 48.2338 104.104C46.1174 103.601 44.0268 102.94 41.9959 102.139C43.0377 98.6794 43.2018 94.9128 42.2936 91.171L45.2202 88.2444C49.5023 90.2609 54.2359 91.3248 58.9996 91.3248C76.8236 91.3248 91.3244 76.824 91.3244 59.0002C91.3244 41.1765 76.8234 26.6757 58.9996 26.6757C41.1759 26.6757 26.6751 41.1765 26.6751 59.0002C26.6751 63.7641 27.7389 68.498 29.7557 72.7801L26.8309 75.7048C23.4245 74.877 19.8576 74.9176 16.4463 75.8314C16.2482 75.8844 16.0539 75.946 15.8582 76.0044C15.0576 73.974 14.3971 71.8831 13.8932 69.7658C13.75 69.1644 13.3197 68.672 12.7427 68.45L4.62531 65.3251V52.6749L12.7445 49.5495C13.3213 49.3273 13.7519 48.8352 13.8951 48.2337C15.0311 43.4593 16.9155 38.9143 19.4957 34.7246C19.8198 34.198 19.8637 33.5455 19.6127 32.9804L16.0785 25.0236L25.0239 16.0784L32.9816 19.6128C33.5467 19.8636 34.1992 19.82 34.7256 19.4956C38.9158 16.9156 43.4605 15.0315 48.2336 13.8955C48.835 13.7523 49.3274 13.322 49.5494 12.7449L52.675 4.625H65.3254L68.4508 12.7449C68.6727 13.322 69.1649 13.7523 69.7666 13.8955C74.5401 15.0315 79.0846 16.9156 83.2745 19.4956C83.8012 19.8198 84.4537 19.8636 85.0188 19.6128L92.9767 16.0784L101.922 25.0236L98.3889 32.9785C98.1379 33.5436 98.1817 34.1963 98.5061 34.7227C101.086 38.9122 102.971 43.4581 104.107 48.2342C104.25 48.8356 104.681 49.328 105.258 49.5502L113.375 52.6749V65.3248ZM13.263 94.043C10.3148 96.9915 10.3148 101.789 13.263 104.737C14.6913 106.165 16.5904 106.952 18.6102 106.952C20.6298 106.952 22.529 106.166 23.9573 104.737C26.9055 101.789 26.9055 96.9915 23.9573 94.043C21.0091 91.0946 16.2116 91.0946 13.263 94.043ZM21.3055 102.086C20.5856 102.806 19.6284 103.202 18.6102 103.202C17.5921 103.202 16.6347 102.806 15.9147 102.086C14.4285 100.599 14.4285 98.1809 15.9147 96.6948C16.6579 95.9516 17.6341 95.5801 18.6102 95.5801C19.5862 95.5801 20.5626 95.9516 21.3055 96.6948C22.7917 98.1809 22.7917 100.599 21.3055 102.086Z" fill="#0B59DB"/>
</svg>
