<svg width="90" height="100" viewBox="0 0 90 100" fill="none" xmlns="http://www.w3.org/2000/svg">
<path d="M55.3967 72.804C56.373 73.7803 56.373 75.3631 55.3967 76.3395L42.7723 88.9638L34.6033 80.7947C33.627 79.8184 33.627 78.2355 34.6033 77.2591C35.5797 76.2828 37.1626 76.2828 38.1389 77.2591L42.7723 81.8927L51.8611 72.804C52.8375 71.8277 54.4204 71.8277 55.3967 72.804Z" fill="#0B59DB"/>
<path fill-rule="evenodd" clip-rule="evenodd" d="M25 80H9.99996C4.4772 80 0 75.5229 0 70V10C0 4.47714 4.4772 0 9.99996 0H80C85.5228 0 90 4.47714 90 10V70C90 75.5229 85.5228 80 80 80H65C65 91.0457 56.0456 100 45 100C33.9544 100 25 91.0457 25 80ZM60 4.99998H80C82.7614 4.99998 85 7.23858 85 10V70C85 72.7615 82.7614 75.0001 80 75.0001H64.3699C62.1497 66.3739 54.3192 60.0001 45 60.0001C35.6808 60.0001 27.8503 66.3739 25.6301 75.0001H9.99996C7.23852 75.0001 5.00004 72.7615 5.00004 70V10C5.00004 7.23858 7.23852 4.99998 9.99996 4.99998H30V35.141L45 29.5171L60 35.141V4.99998ZM55 4.99998H35V27.9265L45 24.1773L55 27.9265V4.99998ZM45 95C53.2843 95 60 88.2843 60 80C60 71.7158 53.2843 65 45 65C36.7157 65 30 71.7158 30 80C30 88.2843 36.7157 95 45 95Z" fill="#0B59DB"/>
</svg>
