<svg width="120" height="120" viewBox="0 0 120 120" fill="none" xmlns="http://www.w3.org/2000/svg">
<path d="M61.4167 83.7948C61.4166 86.996 62.3658 90.1253 64.1442 92.787C65.9227 95.4488 68.4505 97.5233 71.408 98.7484C74.3655 99.9735 77.6198 100.294 80.7595 99.6695C83.8992 99.045 86.7832 97.5035 89.0467 95.2399C91.3103 92.9763 92.8518 90.0923 93.4762 86.9526C94.1007 83.8129 93.7801 80.5586 92.555 77.6011C91.3299 74.6436 89.2553 72.1158 86.5935 70.3374C83.9318 68.559 80.8024 67.6099 77.6012 67.61C73.3103 67.615 69.1966 69.3218 66.1625 72.3559C63.1283 75.3901 61.4216 79.5039 61.4167 83.7948ZM90.5057 83.7948C90.5058 86.347 89.7491 88.8419 88.3313 90.964C86.9134 93.0861 84.8981 94.7401 82.5403 95.7168C80.1824 96.6936 77.5879 96.9492 75.0847 96.4514C72.5816 95.9536 70.2823 94.7247 68.4776 92.9201C66.6728 91.1155 65.4438 88.8163 64.9458 86.3132C64.4478 83.8101 64.7032 81.2155 65.6798 78.8576C66.6564 76.4996 68.3103 74.4843 70.4323 73.0663C72.5543 71.6483 75.0491 70.8914 77.6012 70.8913C81.0224 70.895 84.3024 72.2557 86.7216 74.6747C89.1409 77.0937 90.5017 80.3736 90.5057 83.7948ZM111.601 110.901L100.941 100.242C100.501 99.8035 99.9053 99.5572 99.2841 99.5572C98.6628 99.5572 98.0669 99.8035 97.627 100.242L96.9974 100.872L93.7518 97.6257C95.686 95.3719 97.1261 92.7376 97.9791 89.8928C98.8322 87.048 99.0793 84.0559 98.7044 81.1097C98.3296 78.1635 97.3411 75.3286 95.8028 72.7881C94.2646 70.2475 92.2107 68.0578 89.7737 66.3601V16.3731C89.772 14.7728 89.1354 13.2385 88.0038 12.1069C86.8722 10.9753 85.338 10.3388 83.7377 10.337H59.9966C59.8314 9.54976 59.4007 8.84324 58.7765 8.33581C58.1524 7.82838 57.3728 7.55088 56.5684 7.54981H52.9544V5.20605C52.9544 3.9442 52.4531 2.73404 51.5608 1.84177C50.6686 0.94951 49.4584 0.448242 48.1966 0.448242C46.9347 0.448242 45.7245 0.94951 44.8323 1.84177C43.94 2.73404 43.4388 3.9442 43.4388 5.20605V7.54981H39.8242C39.0199 7.55093 38.2404 7.82845 37.6163 8.33588C36.9922 8.84331 36.5615 9.5498 36.3963 10.337H12.6559C11.0555 10.3386 9.52106 10.975 8.38931 12.1067C7.25756 13.2383 6.62094 14.7726 6.61914 16.3731V109.038C6.62094 110.639 7.25757 112.173 8.38932 113.305C9.52108 114.436 11.0555 115.072 12.6559 115.074H83.7377C85.338 115.072 86.8722 114.436 88.0038 113.304C89.1354 112.173 89.772 110.638 89.7737 109.038V101.231C90.3478 100.829 90.9004 100.401 91.4315 99.9449L94.6771 103.191L94.0694 103.798C93.6306 104.238 93.3842 104.834 93.3842 105.456C93.3842 106.077 93.6306 106.673 94.0694 107.113L104.73 117.773C105.983 119.027 107.369 119.552 108.655 119.552C109.907 119.551 111.108 119.052 111.994 118.166C113.701 116.458 114.115 113.414 111.601 110.901ZM95.5935 83.795C95.5935 87.3534 94.5384 90.8318 92.5615 93.7904C90.5846 96.749 87.7748 99.055 84.4874 100.417C81.2 101.779 77.5825 102.135 74.0926 101.441C70.6026 100.747 67.3969 99.0332 64.8807 96.5172C62.3646 94.0011 60.651 90.7955 59.9567 87.3056C59.2624 83.8156 59.6185 80.1982 60.9801 76.9107C62.3417 73.6232 64.6475 70.8133 67.6061 68.8363C70.5646 66.8592 74.0429 65.8039 77.6012 65.8037C82.3713 65.8089 86.9445 67.7061 90.3175 71.079C93.6904 74.4519 95.5877 79.025 95.593 83.795H95.5935ZM36.4684 19.3236C36.6826 20.0481 37.1251 20.6841 37.73 21.1367C38.3349 21.5894 39.0699 21.8345 39.8254 21.8357H56.5684C57.324 21.8345 58.0589 21.5893 58.6639 21.1367C59.2689 20.684 59.7115 20.0481 59.9259 19.3236H80.7871V62.7611C77.7593 62.3037 74.6685 62.5055 71.7258 63.3525C68.7831 64.1995 66.058 65.6718 63.7367 67.6689C61.4154 69.6659 59.5525 72.1405 58.2755 74.9237C56.9985 77.7069 56.3374 80.7329 56.3374 83.795C56.3374 86.8572 56.9985 89.8832 58.2755 92.6664C59.5525 95.4495 61.4154 97.9242 63.7367 99.9212C66.058 101.918 68.7831 103.391 71.7258 104.238C74.6685 105.085 77.7593 105.286 80.7871 104.829V106.088H15.6055V19.3236H36.4684ZM86.4925 16.3731V64.472C85.7046 64.108 84.895 63.7929 84.0684 63.5284V17.683C84.0684 17.2479 83.8955 16.8306 83.5878 16.5229C83.2802 16.2152 82.8629 16.0424 82.4277 16.0424H60.07V13.6182H83.7372C84.4676 13.6189 85.168 13.9094 85.6846 14.4258C86.2011 14.9423 86.4917 15.6426 86.4925 16.3731ZM39.6039 11.0528C39.6039 10.9943 39.6271 10.9383 39.6684 10.8969C39.7097 10.8556 39.7658 10.8323 39.8242 10.8322H45.0791C45.5143 10.8322 45.9316 10.6594 46.2392 10.3517C46.5469 10.044 46.7198 9.62672 46.7198 9.1916V5.20723C46.7198 4.81562 46.8753 4.44005 47.1522 4.16314C47.4292 3.88623 47.8047 3.73066 48.1963 3.73066C48.5879 3.73066 48.9635 3.88623 49.2404 4.16314C49.5173 4.44005 49.6729 4.81562 49.6729 5.20723V9.1916C49.6729 9.62672 49.8457 10.044 50.1534 10.3517C50.4611 10.6594 50.8784 10.8322 51.3135 10.8322H56.5682C56.6267 10.8322 56.6828 10.8555 56.7242 10.8968C56.7656 10.9382 56.7889 10.9943 56.789 11.0528V18.3341C56.7889 18.3926 56.7655 18.4486 56.7242 18.4899C56.6828 18.5312 56.6267 18.5544 56.5682 18.5544H39.8242C39.7658 18.5544 39.7098 18.5311 39.6685 18.4898C39.6272 18.4485 39.604 18.3925 39.6039 18.3341V11.0528ZM86.4925 109.038C86.4917 109.769 86.2012 110.469 85.6847 110.985C85.1683 111.502 84.468 111.792 83.7377 111.793H12.6559C11.9255 111.792 11.2251 111.502 10.7085 110.985C10.1919 110.469 9.90126 109.769 9.90039 109.038V16.3731C9.90126 15.6426 10.1919 14.9423 10.7085 14.4258C11.2251 13.9094 11.9255 13.6189 12.6559 13.6182H36.3227V16.0424H13.9649C13.5298 16.0424 13.1125 16.2152 12.8048 16.5229C12.4971 16.8306 12.3243 17.2479 12.3243 17.683V107.728C12.3243 108.164 12.4971 108.581 12.8048 108.889C13.1125 109.196 13.5298 109.369 13.9649 109.369H82.4277C82.8629 109.369 83.2802 109.196 83.5878 108.889C83.8955 108.581 84.0684 108.164 84.0684 107.728V104.062C84.895 103.798 85.7046 103.483 86.4925 103.119V109.038ZM109.672 115.845C109.158 116.361 108.162 116.566 107.049 115.453L97.0544 105.456L99.2852 103.225L109.282 113.221C110.394 114.335 110.188 115.331 109.673 115.845H109.672ZM39.3334 36.1171C39.3334 35.682 39.5063 35.2647 39.814 34.957C40.1216 34.6493 40.5389 34.4765 40.9741 34.4765H71.1761C71.6112 34.4765 72.0285 34.6493 72.3362 34.957C72.6439 35.2647 72.8167 35.682 72.8167 36.1171C72.8167 36.5522 72.6439 36.9695 72.3362 37.2772C72.0285 37.5848 71.6112 37.7577 71.1761 37.7577H40.9741C40.5389 37.7577 40.1216 37.5848 39.814 37.2772C39.5063 36.9695 39.3334 36.5522 39.3334 36.1171ZM39.3334 43.258C39.3334 42.8229 39.5063 42.4056 39.814 42.0979C40.1216 41.7902 40.5389 41.6174 40.9741 41.6174H71.1761C71.6112 41.6174 72.0285 41.7902 72.3362 42.0979C72.6439 42.4056 72.8167 42.8229 72.8167 43.258C72.8167 43.6931 72.6439 44.1104 72.3362 44.4181C72.0285 44.7258 71.6112 44.8986 71.1761 44.8986H40.9741C40.539 44.8986 40.1218 44.7258 39.8141 44.4183C39.5065 44.1107 39.3336 43.6935 39.3334 43.2585V43.258ZM39.3334 58.8369C39.3334 58.4018 39.5063 57.9845 39.814 57.6768C40.1216 57.3691 40.5389 57.1963 40.9741 57.1963H71.1761C71.6112 57.1963 72.0285 57.3691 72.3362 57.6768C72.6439 57.9845 72.8167 58.4018 72.8167 58.8369C72.8167 59.272 72.6439 59.6893 72.3362 59.997C72.0285 60.3047 71.6112 60.4775 71.1761 60.4775H40.9741C40.539 60.4775 40.1218 60.3048 39.8141 59.9972C39.5065 59.6896 39.3336 59.2724 39.3334 58.8374V58.8369ZM39.3334 65.9783C39.3334 65.5432 39.5063 65.1259 39.814 64.8182C40.1216 64.5106 40.5389 64.3377 40.9741 64.3377H58.7905C59.2257 64.3377 59.643 64.5106 59.9506 64.8182C60.2583 65.1259 60.4312 65.5432 60.4312 65.9783C60.4312 66.4134 60.2583 66.8307 59.9506 67.1384C59.643 67.4461 59.2257 67.6189 58.7905 67.6189H40.9741C40.539 67.6189 40.1218 67.4462 39.8141 67.1386C39.5065 66.831 39.3336 66.4138 39.3334 65.9788V65.9783ZM39.3334 81.557C39.3334 81.1219 39.5063 80.7046 39.814 80.3969C40.1216 80.0892 40.5389 79.9164 40.9741 79.9164H52.161C52.5961 79.9164 53.0134 80.0892 53.3211 80.3969C53.6288 80.7046 53.8016 81.1219 53.8016 81.557C53.8016 81.9921 53.6288 82.4094 53.3211 82.7171C53.0134 83.0248 52.5961 83.1976 52.161 83.1976H40.9741C40.539 83.1976 40.1218 83.0248 39.8141 82.7173C39.5065 82.4097 39.3336 81.9925 39.3334 81.5575V81.557ZM39.3334 88.6982C39.3334 88.2631 39.5063 87.8457 39.814 87.5381C40.1216 87.2304 40.5389 87.0575 40.9741 87.0575H52.161C52.5961 87.0575 53.0134 87.2304 53.3211 87.5381C53.6288 87.8457 53.8016 88.2631 53.8016 88.6982C53.8016 89.1333 53.6288 89.5506 53.3211 89.8583C53.0134 90.1659 52.5961 90.3388 52.161 90.3388H40.9741C40.539 90.3388 40.1218 90.166 39.8141 89.8584C39.5065 89.5509 39.3336 89.1337 39.3334 88.6986V88.6982ZM20.845 40.1697C20.5373 39.862 20.3644 39.4446 20.3644 39.0095C20.3644 38.5744 20.5373 38.157 20.845 37.8493C21.1527 37.5416 21.57 37.3688 22.0052 37.3688C22.4403 37.3688 22.8576 37.5416 23.1653 37.8493L26.3434 41.0268L32.7123 34.6576C33.02 34.3499 33.4374 34.1771 33.8725 34.1771C34.3076 34.1771 34.725 34.3499 35.0327 34.6576C35.3403 34.9653 35.5132 35.3826 35.5132 35.8178C35.5132 36.2529 35.3403 36.6702 35.0327 36.9779L27.5027 44.5077C27.3503 44.6601 27.1694 44.7809 26.9704 44.8634C26.7713 44.9458 26.558 44.9883 26.3425 44.9883C26.127 44.9883 25.9137 44.9458 25.7146 44.8634C25.5156 44.7809 25.3347 44.6601 25.1823 44.5077L20.845 40.1697ZM20.845 62.8018C20.6926 62.6495 20.5718 62.4686 20.4893 62.2696C20.4069 62.0705 20.3644 61.8571 20.3644 61.6417C20.3644 61.4262 20.4069 61.2129 20.4893 61.0138C20.5718 60.8148 20.6926 60.6339 20.845 60.4815C20.9974 60.3292 21.1782 60.2083 21.3773 60.1259C21.5763 60.0434 21.7897 60.001 22.0052 60.001C22.2206 60.001 22.434 60.0434 22.633 60.1259C22.8321 60.2083 23.013 60.3292 23.1653 60.4815L26.3434 63.6585L32.7123 57.2896C32.8647 57.1372 33.0456 57.0164 33.2446 56.9339C33.4437 56.8515 33.657 56.809 33.8725 56.809C34.088 56.809 34.3013 56.8515 34.5004 56.9339C34.6994 57.0164 34.8803 57.1372 35.0327 57.2896C35.185 57.4419 35.3059 57.6228 35.3883 57.8219C35.4708 58.0209 35.5132 58.2343 35.5132 58.4497C35.5132 58.6652 35.4708 58.8785 35.3883 59.0776C35.3059 59.2767 35.185 59.4575 35.0327 59.6099L27.5027 67.1389C27.3503 67.2913 27.1694 67.4122 26.9704 67.4946C26.7713 67.5771 26.558 67.6195 26.3425 67.6195C26.127 67.6195 25.9137 67.5771 25.7146 67.4946C25.5156 67.4122 25.3347 67.2913 25.1823 67.1389L20.845 62.8018ZM20.845 85.4338C20.5373 85.1261 20.3644 84.7088 20.3644 84.2736C20.3644 83.8385 20.5373 83.4212 20.845 83.1135C21.1527 82.8058 21.57 82.6329 22.0052 82.6329C22.4403 82.6329 22.8576 82.8058 23.1653 83.1135L26.3434 86.2904L32.7112 79.9218C32.8635 79.7694 33.0444 79.6486 33.2435 79.5661C33.4425 79.4836 33.6559 79.4412 33.8713 79.4412C34.0868 79.4412 34.3001 79.4836 34.4992 79.5661C34.6983 79.6486 34.8791 79.7694 35.0315 79.9218C35.1838 80.0741 35.3047 80.255 35.3871 80.4541C35.4696 80.6531 35.512 80.8665 35.512 81.0819C35.512 81.2974 35.4696 81.5107 35.3871 81.7098C35.3047 81.9088 35.1838 82.0897 35.0315 82.2421L27.5024 89.7711C27.3501 89.9235 27.1692 90.0444 26.9701 90.1268C26.7711 90.2093 26.5577 90.2517 26.3423 90.2517C26.1268 90.2517 25.9134 90.2093 25.7144 90.1268C25.5153 90.0444 25.3345 89.9235 25.1821 89.7711L20.845 85.4338Z" fill="#0B59DB"/>
</svg>
