<svg width="46" height="50" viewBox="0 0 46 50" fill="none" xmlns="http://www.w3.org/2000/svg">
<path d="M42.2439 31.7641V18.2358C43.9268 17.8011 45.1735 16.2701 45.1735 14.4533C45.1805 10.966 40.8813 9.24216 38.4819 11.7175L26.764 4.95211C27.4751 2.52237 25.5401 -0.0387138 22.9999 0.00044561C20.4603 -0.0388114 18.5242 2.52266 19.236 4.9522L17.2147 6.11917C16.7476 6.3888 16.5876 6.98605 16.8573 7.45313C17.1285 7.92451 17.7325 8.07773 18.1913 7.81055L20.2145 6.64241C21.6667 8.18984 24.3336 8.18935 25.7854 6.64241L37.5034 13.4078C36.8905 15.4796 38.2507 17.7511 40.2908 18.2359V31.7642C38.2507 32.2488 36.8904 34.5208 37.5034 36.5924L25.7854 43.3577C24.3331 41.8104 21.6662 41.8108 20.2144 43.3577L8.49634 36.5923C9.10922 34.5204 7.74899 32.2489 5.7089 31.7642V18.2358C7.74899 17.7513 9.10932 15.4793 8.49634 13.4077L10.5787 12.2055C11.0458 11.9359 11.2059 11.3386 10.9361 10.8715C10.6665 10.4043 10.0692 10.2444 9.60218 10.5141L7.51785 11.7175C5.11711 9.24167 0.819442 10.9666 0.826278 14.4533C0.826278 16.2701 2.07303 17.8011 3.75581 18.2358V31.7641C2.07293 32.1988 0.82618 33.7299 0.82618 35.5466C0.819247 39.034 5.11838 40.7579 7.51775 38.2824L19.2359 45.0479C18.5248 47.4776 20.4598 50.0387 22.9999 49.9996C25.5396 50.0388 27.4757 47.4774 26.7639 45.0478L38.4819 38.2825C40.8827 40.7582 45.1803 39.0333 45.1735 35.5466C45.1735 33.7299 43.9268 32.1988 42.2439 31.7641ZM22.9999 5.85961C21.9229 5.85961 21.0468 4.98345 21.0468 3.90652C21.145 1.31897 24.8551 1.31976 24.953 3.90652C24.953 4.98345 24.0768 5.85961 22.9999 5.85961ZM2.77927 14.4533C2.77927 13.3764 3.65542 12.5002 4.73235 12.5002C7.3198 12.5984 7.31912 16.3085 4.73235 16.4064C3.65542 16.4064 2.77927 15.5301 2.77927 14.4533ZM4.73235 37.4998C3.65542 37.4998 2.77927 36.6237 2.77927 35.5467C2.87751 32.9593 6.58759 32.96 6.68544 35.5467C6.68544 36.6236 5.80929 37.4998 4.73235 37.4998ZM22.9999 48.0465C21.9229 48.0465 21.0468 47.1703 21.0468 46.0934C21.145 43.5058 24.8551 43.5066 24.953 46.0934C24.953 47.1703 24.0768 48.0465 22.9999 48.0465ZM39.3143 14.4533C39.3143 13.3764 40.1904 12.5002 41.2674 12.5002C43.8549 12.5983 43.8541 16.3085 41.2674 16.4064C40.1904 16.4064 39.3143 15.5301 39.3143 14.4533ZM41.2674 37.4998C40.1904 37.4998 39.3143 36.6237 39.3143 35.5467C39.4124 32.9593 43.1227 32.96 43.2205 35.5467C43.2205 36.6236 42.3443 37.4998 41.2674 37.4998Z" fill="white"/>
<path d="M10.3047 18.2343V31.7656C10.3047 32.1145 10.4908 32.4368 10.793 32.6112L22.5115 39.3769C22.8136 39.5514 23.1858 39.5513 23.4881 39.3769L35.2066 32.6112C35.5088 32.4368 35.6949 32.1145 35.6949 31.7656V18.2343C35.6949 17.8854 35.5088 17.563 35.2066 17.3886L23.488 10.623C23.1859 10.4485 22.8136 10.4487 22.5115 10.623L10.793 17.3886C10.4908 17.563 10.3047 17.8855 10.3047 18.2343ZM12.2578 19.9257L22.0232 25.5638V36.84L12.2578 31.2019V19.9257ZM32.7653 18.2344L22.9998 23.8724L19.0936 21.6172L28.859 15.9791L32.7653 18.2344ZM23.9763 36.8399V25.5638L33.7417 19.9257V31.2018L23.9763 36.8399ZM22.9998 12.5963L26.9059 14.8515L17.1405 20.4896L13.2343 18.2344L22.9998 12.5963Z" fill="white"/>
<path d="M30.3724 28.2643L26.8898 30.2749C26.4227 30.5445 26.2627 31.1417 26.5324 31.6088C26.8035 32.0802 27.4076 32.2335 27.8664 31.9662L31.3489 29.9556C31.816 29.686 31.976 29.0888 31.7063 28.6217C31.4369 28.1547 30.8398 27.9946 30.3724 28.2643Z" fill="white"/>
<path d="M13.897 10.1387C15.1913 10.0906 15.1903 8.23311 13.897 8.18555H13.8963C12.6019 8.23369 12.6037 10.0913 13.897 10.1387Z" fill="white"/>
</svg>
