<svg width="60" height="60" viewBox="0 0 60 60" fill="none" xmlns="http://www.w3.org/2000/svg">
<g clip-path="url(#clip0_61_1601)">
<path d="M52.8918 15.0112C52.1622 15.0105 51.4369 15.1221 50.7413 15.3421C50.8073 14.8178 50.8407 14.2898 50.8413 13.7615C50.7114 6.03252 44.3406 -0.127827 36.6116 0.00201539C30.9716 0.0967419 25.9396 3.56788 23.848 8.80671C19.803 6.29846 14.4905 7.5444 11.9824 11.5894C11.1659 12.9062 10.7195 14.4188 10.6902 15.9679C9.60126 15.3392 8.36557 15.009 7.10813 15.0112C3.24309 15.0112 0.109863 18.1444 0.109863 22.0094C0.109863 25.8745 3.24309 29.0077 7.10813 29.0077C7.66024 29.0077 8.10788 28.5601 8.10788 28.0079C8.10788 27.4558 7.66024 27.0082 7.10813 27.0082C4.34769 26.9633 2.14636 24.6893 2.19122 21.9288C2.23609 19.1684 4.51015 16.9671 7.27059 17.0119C8.95092 17.0393 10.505 17.9091 11.4071 19.327C11.7095 19.789 12.3291 19.9183 12.7911 19.616C13.1904 19.3547 13.3493 18.8477 13.1706 18.4052C12.8558 17.6459 12.6915 16.8327 12.6867 16.0108C12.7269 12.3877 15.692 9.48079 19.3151 9.51241C20.9295 9.51878 22.4868 10.1098 23.699 11.176C24.1152 11.5389 24.7468 11.4957 25.1095 11.0795C25.2079 10.9668 25.2796 10.8333 25.3196 10.6891C27.1489 4.32369 33.792 0.646481 40.1573 2.47578C45.2113 3.92817 48.7296 8.50378 48.8348 13.7614C48.8305 14.8093 48.6842 15.852 48.3999 16.8606C48.2521 17.3926 48.5634 17.9437 49.0953 18.0915C49.3831 18.1715 49.6917 18.1186 49.9365 17.9473C50.8013 17.3375 51.8337 17.0103 52.8918 17.0105C55.6525 17.0105 57.8905 19.2486 57.8905 22.0093C57.8905 24.77 55.6525 27.0081 52.8918 27.0081C52.3397 27.0081 51.892 27.4557 51.892 28.0078C51.892 28.5599 52.3397 29.0076 52.8918 29.0076C56.7568 29.0076 59.89 25.8743 59.89 22.0093C59.89 18.1444 56.7568 15.0112 52.8918 15.0112Z" fill="#0B59DB"/>
<path d="M46.9933 38.0055H13.0017C11.3452 38.0055 10.0024 39.3483 10.0024 41.0047V45.0038C10.0024 46.6602 11.3452 48.003 13.0017 48.003H46.9933C48.6497 48.003 49.9925 46.6602 49.9925 45.0038V41.0047C49.9925 39.3483 48.6497 38.0055 46.9933 38.0055ZM47.993 45.0038C47.993 45.5559 47.5454 46.0035 46.9933 46.0035H13.0017C12.4496 46.0035 12.0019 45.5559 12.0019 45.0038V41.0047C12.0019 40.4526 12.4496 40.005 13.0017 40.005H46.9933C47.5454 40.005 47.993 40.4526 47.993 41.0047V45.0038Z" fill="#0B59DB"/>
<path d="M44.22 41.0667C43.1546 41.0733 42.2944 41.9387 42.2944 43.0041C42.2994 44.0768 43.1712 44.9432 44.244 44.9416C45.3141 44.935 46.1761 44.0622 46.1695 42.9921C46.1628 41.9221 45.2901 41.0601 44.22 41.0667ZM44.244 43.0672C44.214 43.0672 44.194 43.0342 44.194 43.0042L44.244 42.9422V43.0672Z" fill="#0B59DB"/>
<path d="M33.7966 42.0045H14.8013C14.2492 42.0045 13.8015 42.4522 13.8015 43.0043C13.8015 43.5564 14.2492 44.004 14.8013 44.004H33.7966C34.3487 44.004 34.7963 43.5564 34.7963 43.0043C34.7963 42.4522 34.3488 42.0045 33.7966 42.0045Z" fill="#0B59DB"/>
<path d="M39.9699 42.0045H37.3105C36.7584 42.0045 36.3108 42.4522 36.3108 43.0043C36.3108 43.5564 36.7584 44.004 37.3105 44.004H39.9699C40.522 44.004 40.9696 43.5564 40.9696 43.0043C40.9696 42.4522 40.5221 42.0045 39.9699 42.0045Z" fill="#0B59DB"/>
<path d="M46.9933 50.0024H13.0017C11.3452 50.0024 10.0024 51.3452 10.0024 53.0017V57.0007C10.0024 58.6572 11.3452 60 13.0017 60H46.9933C48.6497 60 49.9925 58.6572 49.9925 57.0007V53.0017C49.9925 51.3452 48.6497 50.0024 46.9933 50.0024ZM47.993 57.0007C47.993 57.5528 47.5454 58.0005 46.9933 58.0005H13.0017C12.4496 58.0005 12.0019 57.5528 12.0019 57.0007V53.0017C12.0019 52.4496 12.4496 52.0019 13.0017 52.0019H46.9933C47.5454 52.0019 47.993 52.4496 47.993 53.0017V57.0007Z" fill="#0B59DB"/>
<path d="M44.22 53.0638C43.1546 53.0704 42.2944 53.9358 42.2944 55.0012C42.2994 56.0739 43.1712 56.9403 44.244 56.9387C45.3141 56.9321 46.1761 56.0593 46.1695 54.9892C46.1628 53.9192 45.2901 53.0571 44.22 53.0638ZM44.244 55.0643C44.214 55.0643 44.194 55.0313 44.194 55.0013L44.244 54.9393V55.0643Z" fill="#0B59DB"/>
<path d="M33.7966 54.0015H14.8013C14.2492 54.0015 13.8015 54.4491 13.8015 55.0012C13.8015 55.5533 14.2492 56.001 14.8013 56.001H33.7966C34.3487 56.001 34.7963 55.5533 34.7963 55.0012C34.7963 54.4491 34.3488 54.0015 33.7966 54.0015Z" fill="#0B59DB"/>
<path d="M39.9699 54.0015H37.3105C36.7584 54.0015 36.3108 54.4491 36.3108 55.0012C36.3108 55.5533 36.7584 56.001 37.3105 56.001H39.9699C40.522 56.001 40.9696 55.5533 40.9696 55.0012C40.9696 54.4491 40.5221 54.0015 39.9699 54.0015Z" fill="#0B59DB"/>
<path d="M46.9933 26.0084H13.0017C11.3452 26.0084 10.0024 27.3512 10.0024 29.0077V33.0067C10.0024 34.6632 11.3452 36.0059 13.0017 36.0059H46.9933C48.6497 36.0059 49.9925 34.6632 49.9925 33.0067V29.0077C49.9925 27.3512 48.6497 26.0084 46.9933 26.0084ZM47.993 33.0067C47.993 33.5588 47.5454 34.0064 46.9933 34.0064H13.0017C12.4496 34.0064 12.0019 33.5588 12.0019 33.0067V29.0077C12.0019 28.4556 12.4496 28.0079 13.0017 28.0079H46.9933C47.5454 28.0079 47.993 28.4556 47.993 29.0077V33.0067Z" fill="#0B59DB"/>
<path d="M45.8556 30.7343C45.6629 29.6722 44.6458 28.9673 43.5837 29.16C43.0804 29.2513 42.633 29.5362 42.3375 29.9535C42.0407 30.3724 41.9247 30.8928 42.0156 31.3981C42.1838 32.3287 42.9934 33.0058 43.9391 33.0067C44.0483 33.0066 44.1573 32.9976 44.265 32.9797C44.7784 32.895 45.2359 32.6065 45.5337 32.1799C45.8315 31.761 45.9476 31.2398 45.8556 30.7343ZM43.8881 31.0862L43.9331 31.0072L43.9381 31.1322C43.8931 31.1322 43.8901 31.1072 43.8881 31.0862Z" fill="#0B59DB"/>
<path d="M33.5966 30.0074H14.6013C14.0492 30.0074 13.6016 30.4551 13.6016 31.0072C13.6016 31.5593 14.0492 32.0069 14.6013 32.0069H33.5966C34.1487 32.0069 34.5964 31.5593 34.5964 31.0072C34.5964 30.4551 34.1488 30.0074 33.5966 30.0074Z" fill="#0B59DB"/>
<path d="M39.3312 30.0074H36.6719C36.1198 30.0074 35.6721 30.4551 35.6721 31.0072C35.6721 31.5593 36.1198 32.0069 36.6719 32.0069H39.3312C39.8833 32.0069 40.331 31.5593 40.331 31.0072C40.331 30.4551 39.8835 30.0074 39.3312 30.0074Z" fill="#0B59DB"/>
<path d="M25.7055 16.3038L22.7062 13.3045C22.3158 12.9143 21.683 12.9143 21.2925 13.3045L18.2933 16.3038C17.9098 16.701 17.9208 17.3339 18.3179 17.7175C18.7053 18.0916 19.3195 18.0916 19.7069 17.7175L20.9996 16.4248V23.0091C20.9996 23.5613 21.4473 24.0089 21.9994 24.0089C22.5515 24.0089 22.9991 23.5613 22.9991 23.0091V16.4248L24.2918 17.7175C24.689 18.101 25.3219 18.09 25.7055 17.6928C26.0796 17.3054 26.0796 16.6912 25.7055 16.3038Z" fill="#0B59DB"/>
<path d="M41.6771 19.303C41.2897 18.9289 40.6754 18.9289 40.2879 19.303L38.9952 20.5957V14.0113C38.9952 13.4592 38.5476 13.0116 37.9955 13.0116C37.4434 13.0116 36.9957 13.4592 36.9957 14.0113V20.5957L35.7031 19.303C35.3059 18.9194 34.6731 18.9304 34.2894 19.3275C33.9152 19.7149 33.9152 20.3292 34.2894 20.7167L37.2887 23.7159C37.6791 24.1062 38.3119 24.1062 38.7023 23.7159L41.7016 20.7167C42.0852 20.3195 42.0742 19.6866 41.6771 19.303Z" fill="#0B59DB"/>
</g>
<defs>
<clipPath id="clip0_61_1601">
<rect width="60" height="60" fill="white"/>
</clipPath>
</defs>
</svg>
