<svg width="50" height="50" viewBox="0 0 50 50" fill="none" xmlns="http://www.w3.org/2000/svg">
<path d="M46.2817 28.9694L49.6087 24.8239C50.0381 24.2889 50.1206 23.5723 49.8239 22.9537C49.5271 22.3352 48.9167 21.9509 48.2307 21.9509H43.8708C43.7864 21.4099 43.7563 20.8267 43.7253 20.2182C43.6513 18.7699 43.5748 17.2725 42.7179 16.095C42.035 15.1566 41.0147 14.6259 39.9463 14.1894L41.0314 13.422C42.3941 12.7448 43.792 11.7741 45.0776 10.6118C46.8776 8.98459 48.2966 7.13547 49.0732 5.4052C49.9355 3.48401 49.919 1.88244 49.0267 0.895433C48.1343 -0.0915788 46.5425 -0.26902 44.5443 0.396019C42.7448 0.994847 40.7625 2.22082 38.9626 3.84826C37.6774 5.01028 36.5714 6.30315 35.7608 7.59055L33.9671 9.6425C33.3565 8.99563 32.6552 8.42375 31.7687 8.13586C30.4094 7.69446 28.9752 8.08098 27.5882 8.45481C26.673 8.70139 25.8086 8.9344 25 8.9344C24.1914 8.9344 23.327 8.70139 22.4117 8.45471C21.0248 8.08088 19.5907 7.69426 18.2311 8.13577C16.8112 8.5968 15.8641 9.77991 14.9479 10.9239C14.3755 11.6389 13.8349 12.3142 13.2234 12.7592C12.6 13.2129 11.7823 13.5238 10.9166 13.8529C9.55547 14.3702 8.14785 14.9053 7.28203 16.095C6.4251 17.2726 6.34863 18.77 6.27461 20.2183C6.24355 20.8267 6.21338 21.4099 6.1291 21.9509H1.76934C1.0833 21.9509 0.472851 22.3352 0.176073 22.9537C-0.120606 23.5723 -0.0380867 24.2889 0.391308 24.8239L3.71826 28.9694L0.391308 33.1148C-0.0380867 33.6498 -0.120606 34.3664 0.176073 34.985C0.472851 35.6035 1.0833 35.9878 1.76934 35.9878H6.1292C6.21357 36.5288 6.24365 37.112 6.27471 37.7205C6.34873 39.1688 6.42519 40.6662 7.28213 41.8437C8.14795 43.0334 9.55547 43.5685 10.9167 44.086C11.7824 44.4151 12.6001 44.7259 13.2235 45.1796C13.835 45.6246 14.3757 46.2999 14.948 47.0149C15.8641 48.159 16.8113 49.3421 18.2312 49.803C19.5906 50.2446 21.0249 49.8579 22.4118 49.4841C23.327 49.2374 24.1915 49.0044 25.0001 49.0044C25.8087 49.0044 26.6731 49.2374 27.5884 49.4841C28.9685 49.8525 30.3821 50.2476 31.7689 49.803C33.1889 49.342 34.136 48.1589 35.0521 47.0149C35.6246 46.2999 36.1652 45.6246 36.7767 45.1796C37.4001 44.7259 38.2179 44.4151 39.0835 44.086C40.4446 43.5685 41.8522 43.0334 42.7181 41.8437C43.575 40.6662 43.6515 39.1687 43.7255 37.7204C43.7566 37.112 43.7867 36.5288 43.871 35.9878H48.2309C48.9169 35.9878 49.5273 35.6035 49.8241 34.985C50.1208 34.3664 50.0383 33.6498 49.6089 33.1148L46.2817 28.9694ZM38.5135 15.2027C39.7278 15.6644 40.9241 16.1198 41.5335 16.9571C42.1341 17.7823 42.1964 19.0018 42.2623 20.293C42.2903 20.8413 42.3195 21.4015 42.3917 21.951H38.9078C38.1505 20.4515 37.1631 19.0956 35.9651 17.9091C36.1154 17.554 36.2183 17.178 36.2693 16.7899L38.5135 15.2027ZM28.4185 15.7295C29.2898 14.7368 30.4383 13.5205 31.934 13.4549L34.8125 16.6388C34.7083 17.3519 34.339 18.0014 33.7724 18.4518C31.1896 20.5048 27.8008 19.1847 26.2193 17.5916C26.2028 17.5862 26.2041 17.5302 26.2278 17.5291C27.1186 17.1877 27.75 16.4794 28.4185 15.7295ZM36.383 9.10452L39.5877 12.6491L35.6792 15.4131L33.2333 12.7076L36.383 9.10452ZM39.945 4.93479C41.5979 3.44035 43.3955 2.32209 45.0069 1.78586C46.3787 1.32932 47.4753 1.36369 47.9401 1.87776C48.9197 2.96125 47.4836 6.46194 44.0954 9.52532C43.0574 10.4638 41.9461 11.2637 40.8519 11.8632L37.2933 7.92707C37.9996 6.89856 38.9071 5.87326 39.945 4.93479ZM7.7376 20.2931C7.80351 19.002 7.86582 17.7824 8.4665 16.9571C9.07588 16.1197 10.2229 15.6836 11.4372 15.2221C12.3548 14.8733 13.3037 14.5126 14.0854 13.9436C14.8557 13.383 15.484 12.5984 16.0915 11.8395C16.9088 10.8188 17.6807 9.85461 18.6836 9.52893C19.6292 9.2218 20.7957 9.53616 22.0306 9.86897C22.9976 10.1295 23.9975 10.399 25 10.399C26.0025 10.399 27.0024 10.1295 27.9695 9.86897C29.2044 9.53616 30.3707 9.2218 31.3164 9.52883C31.9546 9.73606 32.5021 10.2104 32.9978 10.7513L31.9145 11.9905C30.5449 12.0006 29.1531 12.8655 28.2778 13.7408C27.2006 13.5097 26.1001 13.392 25 13.392C22.0762 13.392 19.2243 14.2092 16.7528 15.7553C16.4099 15.9698 16.3058 16.4217 16.5203 16.7647C16.7362 17.1106 17.1919 17.2099 17.5297 16.9972C19.7681 15.597 22.3512 14.857 25 14.857C25.7001 14.857 26.4005 14.9093 27.0937 15.013C26.6178 15.5401 26.1851 15.9767 25.7035 16.1614C25.2297 16.343 24.883 16.7484 24.7763 17.2457C24.6689 17.7458 24.8197 18.2609 25.1799 18.6237C26.3227 19.7748 27.9032 20.5938 29.5164 20.8703C31.5446 21.2362 33.6961 20.6613 35.1494 19.167C35.964 20.009 36.6648 20.9406 37.2444 21.951H12.7553C13.3663 20.8868 14.1142 19.9064 14.9882 19.0262C15.2732 18.7392 15.2716 18.2754 14.9846 17.9905C14.6976 17.7054 14.2338 17.707 13.9488 17.9941C12.7883 19.1629 11.8293 20.4925 11.0923 21.951H7.6083C7.68037 21.4015 7.70957 20.8414 7.7376 20.2931ZM42.2624 37.6456C42.1965 38.9368 42.1342 40.1564 41.5336 40.9817C40.9242 41.819 39.7772 42.255 38.563 42.7166C37.6453 43.0654 36.6965 43.4261 35.9146 43.9951C35.1444 44.5557 34.5161 45.3404 33.9086 46.0992C33.0913 47.1199 32.3194 48.0841 31.3165 48.4098C30.3708 48.7168 29.2044 48.4025 27.9695 48.0697C27.0025 47.8092 26.0025 47.5397 25.0001 47.5397C23.9977 47.5397 22.9977 47.8092 22.0307 48.0697C20.7958 48.4026 19.6295 48.7169 18.6836 48.4098C17.6808 48.0842 16.9088 47.12 16.0915 46.0992C15.4839 45.3404 14.8557 44.5557 14.0854 43.9951C13.3036 43.4261 12.3548 43.0654 11.4371 42.7166C10.2229 42.255 9.07588 41.819 8.4665 40.9817C7.86592 40.1564 7.80361 38.9369 7.73769 37.6457C7.70967 37.0974 7.68047 36.5372 7.6083 35.9877H11.0926C12.3363 38.4491 14.2084 40.537 16.5317 42.045C19.053 43.6815 21.9813 44.5465 25 44.5465C28.0187 44.5465 30.9471 43.6816 33.4683 42.045C35.7916 40.537 37.6636 38.4491 38.9074 35.9877H42.3917C42.3196 36.5372 42.2904 37.0974 42.2624 37.6456ZM48.5031 34.3515C48.4725 34.4155 48.3962 34.523 48.2307 34.523H32.2344C31.8299 34.523 31.502 34.8509 31.502 35.2554C31.502 35.6599 31.8299 35.9878 32.2344 35.9878H37.2424C34.7438 40.3318 30.0598 43.0818 25 43.0818C19.9402 43.0818 15.2562 40.3318 12.7576 35.9878H28.8164C29.2209 35.9878 29.5488 35.6599 29.5488 35.2554C29.5488 34.8509 29.2209 34.523 28.8164 34.523H1.76934C1.60381 34.523 1.52754 34.4155 1.49687 34.3515C1.46621 34.2874 1.43008 34.1608 1.53369 34.0317L5.22861 29.4279C5.44355 29.16 5.44355 28.7788 5.22861 28.511L1.53369 23.9072C1.43008 23.7781 1.46621 23.6514 1.49687 23.5873C1.52754 23.5233 1.60381 23.4158 1.76934 23.4158H48.2307C48.3962 23.4158 48.4725 23.5233 48.5031 23.5873C48.5338 23.6514 48.5699 23.7781 48.4663 23.9072L44.7714 28.511C44.5564 28.7788 44.5564 29.16 44.7714 29.4279L48.4663 34.0317C48.5699 34.1607 48.5339 34.2874 48.5031 34.3515Z" fill="white"/>
<path d="M25.0503 25.6063C24.9205 25.2661 24.5952 25.0423 24.2312 25.0427C23.867 25.0427 23.543 25.2654 23.4127 25.6044L21.014 31.9026C20.87 32.2806 21.0597 32.7038 21.4377 32.8477C21.8158 32.9917 22.2388 32.8019 22.3828 32.424L22.8006 31.3272H25.6436L26.0567 32.4219C26.1991 32.8042 26.6318 32.9906 27.0005 32.8486C27.3789 32.7057 27.5699 32.2832 27.4272 31.9047L25.0503 25.6063ZM23.3585 29.8623L24.2286 27.5776L25.0908 29.8623H23.3585Z" fill="white"/>
<path d="M34.2342 25.0427C34.2318 25.0427 34.2294 25.0427 34.227 25.0427C33.8225 25.0466 33.4978 25.3777 33.5017 25.7822L33.5414 29.8909L30.42 25.3708C30.2379 25.1071 29.9054 24.9925 29.5994 25.0878C29.2934 25.1832 29.085 25.4666 29.085 25.7871V32.1632C29.085 32.5677 29.4129 32.8957 29.8174 32.8957C30.2219 32.8957 30.5498 32.5677 30.5498 32.1632V28.1366L33.5261 32.4464C33.7439 32.7612 34.1062 32.8957 34.4491 32.7882C34.7996 32.6788 35.0262 32.349 35.0261 31.941L34.9664 25.7681C34.9625 25.366 34.6354 25.0427 34.2342 25.0427Z" fill="white"/>
<path d="M39.3963 25.2317H37.6406C37.4461 25.2317 37.2596 25.309 37.1222 25.4467C36.9848 25.5844 36.9078 25.771 36.9082 25.9656L36.9207 32.1647C36.9211 32.3597 36.9992 32.5464 37.1377 32.6835C37.2749 32.8195 37.4602 32.8956 37.6531 32.8956H37.6587L39.4604 32.8818C41.2981 32.8497 42.632 31.2439 42.632 29.0635C42.632 26.7716 41.3317 25.2317 39.3963 25.2317ZM39.4421 31.4172L38.3841 31.4253L38.3745 26.6966H39.3963C40.702 26.6966 41.1672 27.9194 41.1672 29.0638C41.1673 30.2202 40.6315 31.3964 39.4421 31.4172Z" fill="white"/>
<path d="M11.7697 28.4909C12.0141 28.1362 12.158 27.7074 12.158 27.2451C12.158 26.0306 11.17 25.0427 9.95566 25.0427H8.1001C7.69561 25.0427 7.36768 25.3707 7.36768 25.7751V32.1632C7.36768 32.3581 7.44531 32.5449 7.5833 32.6823C7.72061 32.819 7.90645 32.8957 8.1 32.8957C8.10322 32.8957 9.80938 32.888 10.2796 32.888C11.6316 32.888 12.7315 31.7881 12.7315 30.4362C12.7316 29.6444 12.354 28.9394 11.7697 28.4909ZM9.95566 26.5076C10.3623 26.5076 10.6932 26.8384 10.6932 27.2451C10.6932 27.6517 10.3623 27.9826 9.95566 27.9826L8.83252 27.9843V26.5076H9.95566ZM10.2797 31.4233C10.0145 31.4233 9.35693 31.4256 8.83242 31.4278V29.4492H10.2797C10.824 29.4492 11.2668 29.8919 11.2668 30.4362C11.2668 30.9804 10.824 31.4233 10.2797 31.4233Z" fill="white"/>
<path d="M19.3438 27.4353C19.3438 26.116 18.2284 25.0427 16.8573 25.0427H15.1598C14.7532 25.0427 14.4253 25.3707 14.4253 25.7751V32.1632C14.4253 32.5677 14.7532 32.8957 15.1577 32.8957C15.5622 32.8957 15.8901 32.5677 15.8901 32.1632V30.1798L18.0616 32.6471C18.3297 32.9516 18.7929 32.9795 19.0953 32.713C19.3989 32.4457 19.4285 31.983 19.1612 31.6793L17.4675 29.7548C18.5445 29.4924 19.3438 28.5521 19.3438 27.4353ZM16.8573 28.3631L15.8998 28.3665L15.8944 26.5075H16.8573C17.4111 26.5075 17.879 26.9324 17.879 27.4352C17.879 27.938 17.4112 28.3631 16.8573 28.3631Z" fill="white"/>
</svg>
