<svg width="58" height="56" viewBox="0 0 58 56" fill="none" xmlns="http://www.w3.org/2000/svg">
<path d="M57.1471 23.4117C57.1471 16.9705 51.9413 11.7647 45.5001 11.7647C45.2354 11.7647 44.9707 11.7647 44.706 11.7647C43.7354 5.49996 38.353 0.823486 31.9119 0.823486C26.5295 0.823486 21.6766 4.17643 19.8236 9.1176C14.5295 6.91172 8.26479 10.7941 8.26479 16.9705V17.6764C4.0295 18.2941 0.853027 21.9117 0.853027 26.3235C0.853027 31.1764 4.82362 35.0588 9.58832 35.0588H12.7648V44.3235H8.00009C7.64715 42.8235 6.23538 41.6764 4.55891 41.6764C2.61773 41.6764 1.0295 43.2647 1.0295 45.2058C1.0295 47.147 2.61773 48.7353 4.55891 48.7353C6.23538 48.7353 7.55891 47.5882 8.00009 46.0882H13.6471C14.1766 46.0882 14.5295 45.7353 14.5295 45.2058V43.4411H22.0295V48.2058C20.5295 48.5588 19.3824 49.9705 19.3824 51.647C19.3824 53.5882 20.9707 55.1764 22.9119 55.1764C24.853 55.1764 26.4413 53.5882 26.4413 51.647C26.4413 49.9705 25.2942 48.647 23.7942 48.2058V42.5588C23.7942 42.0294 23.4413 41.6764 22.9119 41.6764H14.5295V35.0588H22.5589C23.0001 42.8235 29.4413 49 37.3824 49C45.5883 49 52.206 42.3823 52.206 34.1764C52.206 33.7353 52.206 33.3823 52.1177 32.9411C55.2942 30.8235 57.1471 27.2058 57.1471 23.4117ZM4.73538 47.0588C3.76479 47.0588 2.97067 46.2647 2.97067 45.2941C2.97067 44.3235 3.76479 43.5294 4.73538 43.5294C5.70597 43.5294 6.50009 44.3235 6.50009 45.2941C6.50009 46.2647 5.70597 47.0588 4.73538 47.0588ZM24.7648 51.647C24.7648 52.6176 23.9707 53.4117 23.0001 53.4117C22.0295 53.4117 21.2354 52.6176 21.2354 51.647C21.2354 50.6764 22.0295 49.8823 23.0001 49.8823C23.9707 49.8823 24.7648 50.6764 24.7648 51.647ZM37.3824 47.2352C30.1471 47.2352 24.3236 41.4117 24.3236 34.1764C24.3236 26.9411 30.1471 21.1176 37.3824 21.1176C44.6177 21.1176 50.4413 27.0294 50.4413 34.1764C50.4413 41.4117 44.6177 47.2352 37.3824 47.2352ZM51.853 31C50.353 24.3823 44.4413 19.3529 37.3824 19.3529C29.5295 19.3529 23.0883 25.5294 22.5589 33.2941H9.58832C5.70597 33.2941 2.61773 30.1176 2.61773 26.3235C2.61773 22.5294 5.5295 19.5294 9.32362 19.3529C9.85303 19.3529 10.206 18.9117 10.1177 18.3823C10.0295 17.9411 10.0295 17.5 10.0295 17.0588C10.0295 11.9411 15.5883 8.76466 19.9119 11.2353C20.4413 11.5 21.0589 11.2353 21.2354 10.7058C22.5589 5.94113 26.9707 2.67643 32.0001 2.67643C37.8236 2.67643 42.6766 7.08819 43.206 12.9117C43.206 13.4411 43.7354 13.7941 44.2648 13.7058C44.706 13.6176 45.1471 13.6176 45.6766 13.6176C51.1471 13.6176 55.5589 18.0294 55.5589 23.5C55.3824 26.3235 54.0589 29.147 51.853 31Z" fill="#0B59DB"/>
<path d="M15.6765 26.147C15.1471 26.147 14.7942 26.5882 14.7942 27.0293C14.7942 27.4705 15.1471 27.9117 15.6765 27.9117C16.206 27.9117 16.5589 27.4705 16.5589 27.0293C16.5589 26.4999 16.206 26.147 15.6765 26.147Z" fill="#0B59DB"/>
<path d="M11.2647 26.147C10.7353 26.147 10.3823 26.5882 10.3823 27.0293C10.3823 27.4705 10.7353 27.9117 11.2647 27.9117C11.7941 27.9117 12.147 27.4705 12.147 27.0293C12.147 26.4999 11.7941 26.147 11.2647 26.147Z" fill="#0B59DB"/>
<path d="M6.85306 26.147C6.32364 26.147 5.9707 26.5882 5.9707 27.0293C5.9707 27.4705 6.32364 27.9117 6.85306 27.9117C7.38247 27.9117 7.73541 27.4705 7.73541 27.0293C7.73541 26.4999 7.38247 26.147 6.85306 26.147Z" fill="#0B59DB"/>
<path d="M43.1176 30.0293H42.5C42.5 28.4411 42.5 28.7058 42.5 28.7058C42.5 25.8823 40.2059 23.5881 37.3823 23.5881C34.5588 23.5881 32.2647 25.8823 32.2647 28.7058V30.0293H31.647C30.6764 30.0293 29.8823 30.8234 29.8823 31.794V41.4117C29.8823 42.3823 30.6764 43.1764 31.647 43.1764H43.1176C44.0882 43.1764 44.8823 42.3823 44.8823 41.4117V31.794C44.8823 30.8234 44.0882 30.0293 43.1176 30.0293ZM34.0294 28.7058C34.0294 26.8528 35.5294 25.3528 37.3823 25.3528C39.2353 25.3528 40.7353 26.8528 40.7353 28.7058V30.0293H33.9411L34.0294 28.7058ZM31.647 41.4117V31.794H43.1176V41.4117H31.647Z" fill="#0B59DB"/>
<path d="M37.3824 32.9412C35.7941 32.9412 34.5588 34.1765 34.5588 35.7647C34.5588 37 35.353 38.0588 36.5 38.4118V39.3823C36.5 39.9118 36.853 40.2647 37.3824 40.2647C37.9118 40.2647 38.2647 39.9118 38.2647 39.3823V38.4118C39.4118 38.0588 40.2059 37 40.2059 35.7647C40.2059 34.1765 38.8824 32.9412 37.3824 32.9412ZM37.3824 36.7353C36.853 36.7353 36.3235 36.2941 36.3235 35.6765C36.3235 35.0588 36.7647 34.6176 37.3824 34.6176C38 34.6176 38.4412 35.0588 38.4412 35.6765C38.4412 36.2941 37.9118 36.7353 37.3824 36.7353Z" fill="#0B59DB"/>
<path d="M31.8236 5.14697C28.3824 5.14697 25.2941 7.17638 24.0589 10.4411C23.8824 10.8823 24.0589 11.4117 24.5883 11.5881C25.0294 11.7646 25.5589 11.5881 25.7353 11.0587C26.7941 8.49991 29.1765 6.91168 31.9118 6.91168C32.4412 6.91168 32.7941 6.55874 32.7941 6.02933C32.7941 5.49991 32.353 5.14697 31.8236 5.14697Z" fill="#0B59DB"/>
</svg>
