<svg width="50" height="50" viewBox="0 0 50 50" fill="none" xmlns="http://www.w3.org/2000/svg">
<g clip-path="url(#clip0_115_1801)">
<path d="M12.6162 32.958C18.541 32.958 23.3603 28.1387 23.3603 22.2139C23.3603 21.8369 23.3398 21.4609 23.3008 21.0889C24.8984 22.1562 26.7812 22.8301 28.8086 22.9678V31.9355C28.8086 32.3672 29.1582 32.7168 29.5898 32.7168H32.0127V35.5244C32.0127 35.8545 32.2207 36.1494 32.5322 36.2607C32.6182 36.291 32.7061 36.3057 32.7939 36.3057C33.0244 36.3057 33.249 36.2031 33.3994 36.0176L36.0879 32.7158H44.9648C45.3965 32.7158 45.7461 32.3662 45.7461 31.9346V20.5039C45.7461 20.0723 45.3965 19.7227 44.9648 19.7227H37.5537C39.6426 17.6631 40.9404 14.8018 40.9404 11.6436C40.9404 5.38477 35.8486 0.292969 29.5898 0.292969C23.3311 0.292969 18.2393 5.38477 18.2393 11.6436C18.2393 12.1416 18.2715 12.6328 18.335 13.1152C16.6357 12.0439 14.665 11.4688 12.6162 11.4688C6.69141 11.4688 1.87207 16.2881 1.87207 22.2129C1.87207 28.1377 6.69141 32.957 12.6162 32.957V32.958ZM44.1836 21.2861V31.1543H35.7168C35.4814 31.1543 35.2598 31.2598 35.1113 31.4424L33.5752 33.3281V31.9355C33.5752 31.5039 33.2256 31.1543 32.7939 31.1543H30.3711V22.9678C32.2705 22.8379 34.0439 22.2383 35.5742 21.2852C37.1045 20.332 44.1836 21.2861 44.1836 21.2861ZM29.5898 1.85645C34.9873 1.85645 39.3779 6.24707 39.3779 11.6445C39.3779 17.042 34.9873 21.4326 29.5898 21.4326C24.1924 21.4326 19.8018 17.042 19.8018 11.6445C19.8018 6.24707 24.1924 1.85645 29.5898 1.85645ZM12.6162 13.0322C14.9795 13.0322 17.2197 13.9268 18.9326 15.5518C19.4756 17.0283 20.3174 18.3613 21.3838 19.4785C21.6592 20.3604 21.7988 21.2812 21.7988 22.2139C21.7988 27.2764 17.6797 31.3955 12.6172 31.3955C7.55469 31.3955 3.43555 27.2764 3.43555 22.2139C3.43555 17.1514 7.55469 13.0322 12.6172 13.0322H12.6162ZM48.3408 33.7939C47.1475 32.9629 45.3516 32.9004 43.5361 33.626L32.0889 38.2021C32.0937 38.0684 32.0928 37.9326 32.082 37.7949C32.0186 36.9395 31.4883 34.9453 27.9385 34.9121C24.9824 34.8848 21.8652 34.8125 19.1025 34.2744C18.668 34.1895 18.25 34.0967 17.8447 34.0068C15.4395 33.4717 13.1611 32.9658 8.17969 34.3896C8.13086 33.3545 7.27539 32.5264 6.22754 32.5264H2.25C1.1709 32.5264 0.292969 33.4043 0.292969 34.4834V47.4131C0.292969 48.4922 1.1709 49.3701 2.25 49.3701H6.22852C7.1748 49.3701 7.96582 48.6953 8.14648 47.8018C9.83105 47.918 10.75 48.1104 11.3086 48.25C15.3213 49.2539 18.6562 49.707 21.624 49.707C28.9629 49.707 34.0488 46.9346 41.5234 42.8594C44.4687 41.2539 48.2539 38.9668 49.5547 37.1924C49.6484 37.0635 49.7012 36.9102 49.7061 36.751C49.7393 35.4805 49.2539 34.4307 48.3418 33.7949L48.3408 33.7939ZM6.62207 47.4121C6.62207 47.626 6.44141 47.8066 6.22754 47.8066H2.25C2.03613 47.8066 1.85547 47.626 1.85547 47.4121V34.4824C1.85547 34.2686 2.03613 34.0879 2.25 34.0879H6.22852C6.44238 34.0879 6.62305 34.2686 6.62305 34.4824V47.4121H6.62207ZM40.7754 41.4863C30.292 47.2012 25.0293 50.0703 11.6875 46.7334C11.0635 46.5771 10.0361 46.3623 8.18457 46.2383V36.0166C13.085 34.5498 15.1367 35.0049 17.5049 35.5322C17.9199 35.624 18.3477 35.7197 18.8037 35.8086C21.6963 36.3721 24.8955 36.4463 27.9228 36.4746C29.5791 36.4902 30.4541 36.9727 30.5234 37.9102C30.5645 38.4639 30.4004 38.9043 30.0078 39.2959C28.3857 40.9131 23.4248 41.1523 19.3242 40.8369C18.8936 40.8037 18.5186 41.126 18.4853 41.5557C18.4521 41.9863 18.7744 42.3613 19.2041 42.3945C20.1455 42.4668 21.2871 42.5264 22.4971 42.5264C25.707 42.5264 29.3994 42.1074 31.1103 40.4023C31.1758 40.3369 31.2373 40.2695 31.2959 40.2012L44.1152 35.0771C45.4014 34.5625 46.71 34.5625 47.4473 35.0771C47.873 35.374 48.1055 35.8398 48.1396 36.4639C47.1299 37.6572 44.4766 39.4697 40.7744 41.4883L40.7754 41.4863ZM7.86523 26.7939C7.77148 27.2822 7.96387 27.7666 8.36523 28.0576C8.7666 28.3496 9.28711 28.3818 9.72168 28.1426L12.6152 26.5498L15.5088 28.1426C15.7021 28.249 15.9131 28.3018 16.1221 28.3018C16.3828 28.3018 16.6426 28.2197 16.8652 28.0576C17.2666 27.7656 17.459 27.2812 17.3652 26.7939L16.7441 23.5498L19.1533 21.29C19.5156 20.9502 19.6455 20.4453 19.4922 19.9736C19.3389 19.501 18.9375 19.1689 18.4443 19.1074L15.167 18.6953L13.7627 15.7051C13.5518 15.2559 13.1113 14.9766 12.6152 14.9766C12.1191 14.9766 11.6787 15.2559 11.4678 15.7051L10.0635 18.6953L6.78613 19.1074C6.29297 19.1689 5.8916 19.501 5.73828 19.9736C5.58496 20.4463 5.71484 20.9502 6.07715 21.29L8.48633 23.5498L7.86523 26.7939ZM7.60352 20.5791L10.6855 20.1914C10.9512 20.1582 11.1816 19.9912 11.2949 19.748L12.6162 16.9365L13.9375 19.748C14.0518 19.9902 14.2812 20.1572 14.5469 20.1914L17.6289 20.5791L15.3633 22.7041C15.168 22.8877 15.0801 23.1582 15.1309 23.4209L15.7148 26.4717L12.9932 24.9736C12.7588 24.8447 12.4746 24.8447 12.2393 24.9736L9.51855 26.4717L10.1025 23.4209C10.1533 23.1582 10.0654 22.8877 9.87012 22.7041L7.60449 20.5791H7.60352ZM24.0703 17.6885H25.626C26.0283 17.6885 26.3887 17.5059 26.6299 17.2188C26.8994 17.2656 27.1289 17.332 27.3799 17.4053C27.6504 17.4834 27.958 17.5723 28.3359 17.6416C28.7588 17.7188 29.665 17.8076 30.6904 17.8076C32.2773 17.8076 34.1484 17.5938 34.9512 16.791C34.9551 16.7871 34.959 16.7832 34.9629 16.7793C35.9336 15.7676 36.54 11.6855 36.3916 10.6885C36.3057 10.1143 36.209 9.46289 35.5732 9.01172C35.0361 8.62988 34.2383 8.48828 32.8232 8.52344H32.5957C32.8721 5.65527 32.4062 3.99121 31.1797 3.44824C30.2441 3.03418 29.1865 3.49316 28.625 4.16211C27.626 5.35156 27.4668 6.56836 27.3516 7.45703C27.2305 8.38672 27.1797 8.77148 26.4961 8.97168C26.2646 8.76562 25.96 8.63867 25.626 8.63867H24.0703C23.3477 8.63867 22.7607 9.22656 22.7607 9.94824V16.3779C22.7607 17.1006 23.3486 17.6875 24.0703 17.6875V17.6885ZM28.9004 7.65918C29.0059 6.84668 29.1152 6.00684 29.8213 5.16699C29.9902 4.96484 30.3516 4.79102 30.5469 4.87695C30.585 4.89355 31.4697 5.33301 30.9434 9.19922C30.9131 9.42285 30.9805 9.64844 31.1289 9.81836C31.2773 9.98828 31.4922 10.0859 31.7178 10.0859H32.834H32.8535C34.1426 10.0527 34.5449 10.1973 34.6699 10.2861C34.7529 10.3447 34.7891 10.5332 34.8467 10.9189C34.9697 11.7471 34.3047 15.167 33.8398 15.6934C33.2451 16.2617 30.0693 16.3682 28.6162 16.1035C28.3164 16.0488 28.0723 15.9785 27.8145 15.9033C27.5439 15.8252 27.2686 15.7461 26.9365 15.6855V10.4639C28.6006 9.95703 28.7666 8.69531 28.9014 7.6582L28.9004 7.65918ZM24.3223 10.2021H25.3721V16.127H24.3223V10.2021ZM34.3828 26.2207C34.3828 26.8809 33.8477 27.415 33.1885 27.415C32.5293 27.415 31.9941 26.8799 31.9941 26.2207C31.9941 25.5615 32.5293 25.0264 33.1885 25.0264C33.8477 25.0264 34.3828 25.5615 34.3828 26.2207ZM40.1699 26.2207C40.1699 25.5605 40.7051 25.0264 41.3643 25.0264C42.0234 25.0264 42.5586 25.5615 42.5586 26.2207C42.5586 26.8799 42.0234 27.415 41.3643 27.415C40.7051 27.415 40.1699 26.8799 40.1699 26.2207ZM36.082 26.2207C36.082 25.5605 36.6172 25.0264 37.2764 25.0264C37.9355 25.0264 38.4707 25.5615 38.4707 26.2207C38.4707 26.8799 37.9355 27.415 37.2764 27.415C36.6172 27.415 36.082 26.8799 36.082 26.2207Z" fill="white"/>
</g>
<defs>
<clipPath id="clip0_115_1801">
<rect width="50" height="50" fill="white"/>
</clipPath>
</defs>
</svg>
