<svg width="60" height="60" viewBox="0 0 60 60" fill="none" xmlns="http://www.w3.org/2000/svg">
<path fill-rule="evenodd" clip-rule="evenodd" d="M40.2349 18.5316C39.4998 17.7964 38.5326 17.3388 37.4979 17.2368C36.4633 17.1348 35.4253 17.3948 34.5608 17.9723C33.6963 18.5499 33.0589 19.4093 32.757 20.4042C32.4552 21.399 32.5077 22.4678 32.9055 23.4283C33.3033 24.3889 34.0219 25.1817 34.9387 25.6718C35.8556 26.162 36.9141 26.319 37.9338 26.1162C38.9534 25.9134 39.8713 25.3632 40.5308 24.5596C41.1903 23.7559 41.5508 22.7484 41.5508 21.7088C41.5516 21.1186 41.4358 20.5341 41.2099 19.9889C40.9841 19.4436 40.6528 18.9484 40.2349 18.5316ZM37.0576 15.4756C38.4998 15.4755 39.8973 15.9755 41.0121 16.8904C42.127 17.8052 42.8901 19.0784 43.1715 20.4928C43.4529 21.9072 43.2351 23.3755 42.5553 24.6473C41.8755 25.9192 40.7757 26.916 39.4433 27.4679C38.111 28.0198 36.6284 28.0927 35.2484 27.674C33.8683 27.2554 32.6761 26.3712 31.8749 25.1721C31.0737 23.973 30.713 22.5332 30.8544 21.098C30.9958 19.6628 31.6304 18.321 32.6502 17.3012C33.2283 16.7216 33.9153 16.2619 34.6717 15.9486C35.4281 15.6353 36.2389 15.4745 37.0576 15.4756ZM40.9482 12.5742C41.4232 12.7759 41.8816 13.0145 42.3193 13.2877C42.4601 13.3758 42.6233 13.4216 42.7894 13.4195C42.9555 13.4174 43.1175 13.3676 43.256 13.276L43.2573 13.278L45.1117 12.0487L46.8607 13.7976L45.6025 15.696C45.5082 15.8384 45.458 16.0053 45.4581 16.1761C45.4583 16.3468 45.5087 16.5137 45.6032 16.6559C46.1221 17.5317 46.5025 18.4825 46.7309 19.4746C46.7702 19.6466 46.8611 19.8026 46.9913 19.9217C47.1216 20.0408 47.285 20.1174 47.4599 20.1413L49.5871 20.5724V23.048L47.3565 23.5001C47.1957 23.5323 47.0473 23.6095 46.9285 23.7227C46.8098 23.8359 46.7256 23.9805 46.6857 24.1396H46.6836C46.4316 25.1405 46.0251 26.096 45.4788 26.9717C45.3907 27.1125 45.345 27.2757 45.3471 27.4418C45.3491 27.6079 45.399 27.7699 45.4905 27.9085L45.4887 27.9098L46.718 29.764L44.9693 31.5117L43.0709 30.2534C42.9285 30.1591 42.7615 30.1089 42.5908 30.1091C42.4201 30.1092 42.2532 30.1596 42.111 30.2541C41.2352 30.7731 40.2844 31.1535 39.2923 31.3819C39.1203 31.4213 38.9643 31.5122 38.8452 31.6424C38.7262 31.7727 38.6496 31.9361 38.6257 32.1109L38.1945 34.2381H35.7193L35.2671 32.0076C35.235 31.8467 35.1578 31.6982 35.0447 31.5795C34.9315 31.4607 34.7869 31.3766 34.6277 31.3368V31.3347C33.6269 31.0825 32.6714 30.6761 31.7957 30.1299C31.6549 30.0417 31.4917 29.9959 31.3256 29.998C31.1595 30.0001 30.9975 30.0499 30.859 30.1416L30.8577 30.1396L29.0038 31.3694L27.2548 29.6205L28.513 27.722C28.6072 27.5797 28.6574 27.4127 28.6573 27.242C28.6572 27.0713 28.6068 26.9044 28.5123 26.7621C27.9933 25.8863 27.6129 24.9355 27.3846 23.9434C27.3452 23.7714 27.2544 23.6155 27.1241 23.4964C26.9939 23.3773 26.8304 23.3007 26.6556 23.2769L24.5283 22.8456V20.3705L26.7589 19.9183C26.9198 19.8861 27.0682 19.809 27.187 19.6958C27.3057 19.5826 27.3899 19.438 27.4297 19.2789H27.4318C27.684 18.2781 28.0904 17.3227 28.6366 16.4471C28.7247 16.3063 28.7705 16.1431 28.7684 15.977C28.7663 15.8109 28.7165 15.6489 28.6249 15.5104L28.6268 15.5091L27.3974 13.6545L29.1461 11.9063L31.0437 13.1643C31.186 13.2585 31.353 13.3087 31.5237 13.3086C31.6945 13.3084 31.8614 13.258 32.0036 13.1635C32.8795 12.6445 33.8305 12.2641 34.8227 12.0357C34.9948 11.9963 35.1507 11.9054 35.2698 11.7752C35.3889 11.6449 35.4655 11.4815 35.4894 11.3066L35.9197 9.18319H38.3967L38.8481 11.4098C38.8803 11.5706 38.9575 11.7191 39.0707 11.8378C39.1839 11.9566 39.3285 12.0408 39.4876 12.0807V12.0828C39.9868 12.2081 40.4754 12.3724 40.9489 12.5741L40.9482 12.5742ZM26.2833 17.2399C25.5316 17.13 24.7439 17.0393 23.9245 16.9695C22.7382 16.8682 21.5 16.8148 20.225 16.8148C15.6752 16.8148 11.5754 17.4945 8.62512 18.5946C5.9298 19.5994 4.26246 20.8868 4.26246 22.2189C4.26246 23.551 5.92957 24.8385 8.62488 25.8433C11.5752 26.943 15.675 27.6232 20.2248 27.6232C21.4598 27.6232 22.6593 27.5731 23.8095 27.4782C24.8249 27.3944 25.8016 27.2764 26.7298 27.1278C26.3528 26.4114 26.0519 25.6575 25.832 24.8785L23.4915 24.4041C23.2952 24.3647 23.1186 24.2585 22.9917 24.1037C22.8647 23.9489 22.7953 23.7549 22.7951 23.5547V19.6621C22.7952 19.4584 22.8669 19.2612 22.9979 19.1051C23.1288 18.949 23.3105 18.844 23.5111 18.8085L25.894 18.3255C26.0055 17.9583 26.1352 17.5964 26.2833 17.2399ZM37.9277 35.9713V51.5667C37.9277 53.6996 35.8267 55.5494 32.43 56.8155C29.2881 57.9866 24.9715 58.711 20.225 58.711C15.4786 58.711 11.162 57.9866 8.0202 56.8156C4.6234 55.5494 2.52246 53.6997 2.52246 51.5667V41.7842V22.2188C2.52246 20.086 4.62352 18.2362 8.0202 16.9701C11.162 15.799 15.4786 15.0746 20.225 15.0746C21.5428 15.0746 22.8289 15.1305 24.0673 15.236C24.9134 15.3082 25.7445 15.4056 26.5546 15.5263L25.5564 14.0205C25.4459 13.8535 25.3965 13.6535 25.4165 13.4543C25.4365 13.2551 25.5248 13.0689 25.6663 12.9273L25.6651 12.9262L28.4179 10.1739C28.5667 10.0251 28.7645 9.93534 28.9745 9.92118C29.1845 9.90703 29.3925 9.96945 29.56 10.0969L31.56 11.4228C32.2999 11.0261 33.0806 10.711 33.8885 10.483L34.3629 8.1428C34.4023 7.94643 34.5084 7.76974 34.6633 7.64274C34.8182 7.51574 35.0122 7.44627 35.2125 7.44612V7.44272H39.1049C39.3192 7.44276 39.5259 7.52187 39.6855 7.6649C39.8451 7.80792 39.9463 8.00479 39.9697 8.2178L40.4413 10.5448C40.8446 10.6672 41.2409 10.8115 41.6285 10.977C42.0123 11.1409 42.3868 11.3257 42.7505 11.5305L44.7458 10.2071C44.9128 10.0965 45.1128 10.0471 45.312 10.0672C45.5113 10.0872 45.6974 10.1754 45.8391 10.317L45.8402 10.3158L48.5925 13.0681C48.7413 13.2169 48.8311 13.4147 48.8453 13.6247C48.8595 13.8347 48.7971 14.0427 48.6696 14.2102L47.3436 16.211C47.7401 16.9508 48.0552 17.7314 48.2832 18.5391L50.6236 19.0136C50.82 19.053 50.9967 19.1591 51.1237 19.314C51.2507 19.4688 51.3201 19.6629 51.3203 19.8632V23.7556C51.3203 23.9593 51.2485 24.1566 51.1176 24.3127C50.9867 24.4688 50.805 24.5739 50.6044 24.6094L48.2216 25.0924C48.0991 25.4958 47.9549 25.8921 47.7894 26.2798C47.6255 26.6635 47.4407 27.038 47.2359 27.4016L48.559 29.3972C48.6694 29.5642 48.7188 29.7642 48.6988 29.9634C48.6788 30.1626 48.5906 30.3488 48.4491 30.4905L48.4502 30.4916L45.698 33.244C45.5491 33.3928 45.3513 33.4827 45.1413 33.4968C44.9313 33.511 44.7232 33.4485 44.5557 33.321L42.5554 31.9946C41.8156 32.3911 41.035 32.7062 40.2273 32.9342L39.7529 35.2746C39.7135 35.471 39.6074 35.6477 39.4525 35.7747C39.2976 35.9017 39.1035 35.9712 38.9032 35.9713H37.9277ZM4.26246 44.969V51.5666C4.26246 52.8987 5.92969 54.1862 8.62512 55.1909C11.5754 56.2906 15.6752 56.9708 20.225 56.9708C24.7748 56.9708 28.8746 56.2906 31.825 55.1909C34.5203 54.1862 36.1876 52.8987 36.1876 51.5666V44.969C35.2543 45.759 33.9765 46.4564 32.43 47.033C29.2881 48.204 24.9715 48.9284 20.225 48.9284C15.4786 48.9284 11.162 48.204 8.0202 47.033C6.47332 46.4564 5.19598 45.759 4.26246 44.969ZM4.26246 32.0015V25.4038C5.19586 26.1938 6.47356 26.8913 8.02008 27.4677C11.162 28.6388 15.4786 29.3632 20.225 29.3632C21.501 29.3632 22.7486 29.3107 23.9524 29.2109C24.4943 29.1661 25.0271 29.1118 25.5507 29.0479L25.4453 29.2063C25.3178 29.3738 25.2554 29.5818 25.2696 29.7918C25.2837 30.0018 25.3735 30.1996 25.5223 30.3484L28.2748 33.1008L28.2759 33.0996C28.4176 33.2411 28.6037 33.3294 28.8029 33.3494C29.0021 33.3694 29.2021 33.32 29.3691 33.2096L31.3648 31.8865C31.7283 32.0914 32.1028 32.2761 32.4866 32.44C32.8742 32.6054 33.2706 32.7497 33.6738 32.8722L34.0246 34.602C32.6797 35.396 30.8187 36.0678 28.6043 36.5568C26.1633 37.0958 23.2992 37.4051 20.2246 37.4051C15.6748 37.4051 11.575 36.7254 8.62465 35.6253C5.92934 34.6205 4.26199 33.333 4.26199 32.0009L4.26246 32.0015ZM35.1093 35.9714C33.5841 36.9141 31.4735 37.6992 28.9786 38.25C26.4005 38.8192 23.4069 39.146 20.2247 39.146C15.4786 39.146 11.1616 38.4217 8.01973 37.2505C6.47285 36.6741 5.19551 35.9766 4.26211 35.1866V41.7859C4.2634 43.1175 5.93039 44.4044 8.62477 45.4087C11.5751 46.5083 15.6749 47.1886 20.2247 47.1886C24.7745 47.1886 28.8743 46.5089 31.8246 45.4087C34.5199 44.404 36.1873 43.1165 36.1873 41.7844V35.9719L35.1093 35.9714ZM7.41691 32.0181L8.02781 32.2799C8.23962 32.37 8.47856 32.3723 8.69207 32.2863C8.90557 32.2003 9.07616 32.0329 9.16629 31.8211C9.25642 31.6093 9.25872 31.3704 9.17268 31.1569C9.08664 30.9434 8.91931 30.7728 8.7075 30.6826L8.0966 30.4208C7.99172 30.3762 7.87908 30.3527 7.76511 30.3516C7.65113 30.3505 7.53806 30.3719 7.43234 30.4145C7.32663 30.4571 7.23034 30.5201 7.14897 30.5999C7.0676 30.6797 7.00275 30.7748 6.95812 30.8796C6.9135 30.9845 6.88996 31.0972 6.88886 31.2111C6.88777 31.3251 6.90913 31.4382 6.95173 31.5439C6.99434 31.6496 7.05734 31.7459 7.13716 31.8273C7.21698 31.9086 7.31204 31.9735 7.41691 32.0181ZM7.41691 41.8811L8.02781 42.143C8.2393 42.2313 8.47712 42.2323 8.68938 42.1459C8.90165 42.0595 9.07113 41.8927 9.16086 41.6818C9.25059 41.4709 9.25328 41.2331 9.16835 41.0203C9.08342 40.8074 8.91775 40.6368 8.7075 40.5456L8.0966 40.2838C7.88479 40.1937 7.64585 40.1914 7.43234 40.2774C7.21884 40.3635 7.04826 40.5308 6.95812 40.7426C6.86799 40.9544 6.86569 41.1934 6.95173 41.4069C7.03777 41.6204 7.2051 41.791 7.41691 41.8811ZM7.41691 51.7442L8.02781 52.006C8.23962 52.0961 8.47856 52.0984 8.69207 52.0124C8.90557 51.9263 9.07616 51.759 9.16629 51.5472C9.25642 51.3354 9.25872 51.0964 9.17268 50.8829C9.08664 50.6694 8.91931 50.4988 8.7075 50.4087L8.0966 50.1469C7.99172 50.1023 7.87908 50.0787 7.76511 50.0776C7.65113 50.0765 7.53806 50.0979 7.43234 50.1405C7.32663 50.1831 7.23034 50.2461 7.14897 50.3259C7.0676 50.4058 7.00275 50.5008 6.95812 50.6057C6.9135 50.7106 6.88996 50.8232 6.88886 50.9372C6.88777 51.0512 6.90913 51.1642 6.95173 51.2699C6.99434 51.3757 7.05734 51.472 7.13716 51.5533C7.21698 51.6347 7.31204 51.6995 7.41691 51.7442ZM23.3727 10.3135C23.4847 10.2916 23.5999 10.292 23.7118 10.3147C23.8237 10.3373 23.93 10.3818 24.0246 10.4456C24.1193 10.5093 24.2005 10.5911 24.2636 10.6862C24.3266 10.7813 24.3704 10.8879 24.3922 10.9999C24.4141 11.112 24.4137 11.2272 24.391 11.3391C24.3684 11.4509 24.3239 11.5572 24.2601 11.6519C24.1964 11.7466 24.1146 11.8278 24.0195 11.8908C23.9244 11.9539 23.8178 11.9976 23.7057 12.0195L20.352 12.6805C20.2399 12.7024 20.1247 12.702 20.0128 12.6793C19.901 12.6567 19.7947 12.6122 19.7 12.5485C19.6053 12.4847 19.5241 12.4029 19.4611 12.3078C19.398 12.2127 19.3543 12.1061 19.3324 11.9941L18.6712 8.64026C18.6284 8.41456 18.6767 8.18109 18.8055 7.99087C18.9343 7.80065 19.1332 7.66917 19.3587 7.62516C19.5841 7.58114 19.8179 7.62818 20.0088 7.75599C20.1996 7.8838 20.3322 8.08198 20.3774 8.30721L20.6292 9.58456C22.5501 6.98469 25.0607 4.87803 27.9547 3.4379C30.8486 1.99776 34.0432 1.26531 37.2755 1.30079C40.5077 1.33627 43.6854 2.13868 46.5471 3.642C49.4087 5.14531 51.8725 7.30658 53.7358 9.94798C55.5991 12.5894 56.8087 15.6355 57.265 18.8356C57.7212 22.0357 57.4112 25.2984 56.3603 28.3553C55.3095 31.4122 53.5479 34.1759 51.2204 36.4191C48.8929 38.6623 46.0661 40.3208 42.9725 41.2582C42.7517 41.3249 42.5134 41.3012 42.3101 41.1922C42.1068 41.0832 41.9551 40.8979 41.8884 40.6771C41.8217 40.4563 41.8455 40.218 41.9545 40.0147C42.0635 39.8114 42.2487 39.6597 42.4696 39.593C45.2994 38.7366 47.8856 37.221 50.0157 35.1705C52.1457 33.1201 53.7588 30.5935 54.7222 27.7983C55.6857 25.0031 55.9721 22.0192 55.5579 19.0918C55.1437 16.1644 54.0407 13.377 52.3396 10.9589C50.6384 8.54072 48.3877 6.56078 45.7724 5.18179C43.1572 3.80279 40.252 3.06411 37.2956 3.02646C34.3393 2.9888 31.4162 3.65325 28.7667 4.96519C26.1171 6.27713 23.8167 8.19911 22.0546 10.5732L23.3727 10.3135Z" fill="#0B59DB"/>
</svg>
