<svg width="60" height="58" viewBox="0 0 60 58" fill="none" xmlns="http://www.w3.org/2000/svg">
<path d="M58.125 23.7383H48.9149C48.6341 23.7383 48.3679 23.8642 48.1897 24.0815C48.0117 24.2988 47.9405 24.5844 47.9955 24.8599C48.2331 26.047 48.3537 27.2656 48.3537 28.4819C48.3537 38.6021 40.1202 46.8355 30 46.8355C19.8798 46.8355 11.6464 38.6021 11.6464 28.4818C11.6464 27.2655 11.7669 26.0469 12.0046 24.8597C12.0596 24.5842 11.9883 24.2987 11.8103 24.0814C11.6323 23.8641 11.3661 23.7381 11.0852 23.7381H1.875C1.35727 23.7381 0.9375 24.1579 0.9375 24.6756V32.288C0.9375 32.6759 1.17633 33.0236 1.5382 33.163L5.74383 34.7817C6.32555 37.0265 7.21547 39.1731 8.39473 41.1759L6.56437 45.2972C6.40699 45.6516 6.48398 46.0663 6.7582 46.3407L12.1411 51.7237C12.4154 51.9978 12.83 52.0748 13.1845 51.9175L17.3044 50.0878C19.3073 51.2673 21.4547 52.1575 23.7006 52.7394L25.3189 56.9436C25.4582 57.3055 25.806 57.5443 26.1939 57.5443H33.8064C34.1943 57.5443 34.542 57.3055 34.6813 56.9436L36.2999 52.7381C38.5447 52.1565 40.6914 51.2664 42.6942 50.0872L46.8153 51.9175C47.1695 52.0749 47.5843 51.998 47.8587 51.7237L53.2418 46.3408C53.5161 46.0665 53.5931 45.6517 53.4357 45.2974L51.606 41.1776C52.7855 39.1747 53.6757 37.0273 54.2575 34.7814L58.4618 33.1631C58.8237 33.0238 59.0625 32.676 59.0625 32.2881V24.6758C59.0625 24.158 58.6427 23.7383 58.125 23.7383ZM57.1875 31.6444L53.1285 33.2068C52.84 33.3178 52.6248 33.564 52.5532 33.8647C51.9852 36.2526 51.043 38.5255 49.7529 40.6204C49.5907 40.8837 49.5689 41.21 49.6943 41.4925L51.4609 45.47L46.9882 49.9424L43.0093 48.1753C42.727 48.0499 42.4007 48.0715 42.1373 48.2337C40.0423 49.5238 37.7699 50.4659 35.3832 51.0339C35.0825 51.1054 34.8363 51.3207 34.7253 51.6091L33.1627 55.6692H26.8376L25.2752 51.6103C25.1643 51.3217 24.918 51.1066 24.6173 51.035C22.2294 50.4669 19.9566 49.5247 17.8616 48.2346C17.5982 48.0721 17.2718 48.0505 16.9895 48.176L13.0119 49.9426L8.53945 45.47L10.3066 41.491C10.432 41.2085 10.4102 40.8822 10.2482 40.619C8.95816 38.524 8.01609 36.2517 7.44797 33.8649C7.37648 33.5643 7.16121 33.3181 6.87281 33.2071L2.8125 31.6443V25.6133H9.9743C9.83953 26.5619 9.77145 27.5226 9.77145 28.4819C9.77145 39.636 18.846 48.7105 30 48.7105C41.154 48.7105 50.2287 39.6359 50.2287 28.4819C50.2287 27.5226 50.1606 26.5619 50.0258 25.6133H57.1875V31.6444ZM5.11113 13.6412L5.11125 20.0694C5.11125 20.5871 5.53102 21.0069 6.04875 21.0069H14.0149V24.561C13.7024 25.8392 13.5439 27.1576 13.5439 28.4818C13.5439 37.5557 20.9261 44.938 30 44.938C39.0739 44.938 46.4562 37.5557 46.4562 28.4818C46.4562 27.1576 46.2977 25.8392 45.9852 24.561V21.0069H53.9514C54.4691 21.0069 54.8889 20.5871 54.8889 20.0694V13.6412C56.3384 13.2316 57.4039 11.8978 57.4039 10.319C57.4039 8.4153 55.8552 6.86655 53.9515 6.86655C52.0478 6.86655 50.4989 8.4153 50.4989 10.319C50.4989 11.8978 51.5645 13.2315 53.0139 13.6412V19.1319H45.0477C44.53 19.1319 44.1102 19.5516 44.1102 20.0694V24.6758C44.1102 24.753 44.1198 24.83 44.1387 24.905C44.4322 26.0691 44.5811 27.2725 44.5811 28.4818C44.5811 36.5218 38.04 43.063 29.9999 43.063C21.9598 43.063 15.4188 36.5219 15.4188 28.4818C15.4188 27.2725 15.5678 26.069 15.8612 24.905C15.8801 24.83 15.8897 24.753 15.8897 24.6758V20.0694C15.8897 19.5516 15.4699 19.1319 14.9522 19.1319H6.98625L6.98613 13.6412C8.43563 13.2315 9.50121 11.8978 9.50121 10.319C9.50121 8.4153 7.95234 6.86655 6.04863 6.86655C4.14492 6.86655 2.59617 8.4153 2.59617 10.319C2.59617 11.8978 3.66176 13.2315 5.11113 13.6412ZM52.3739 10.319C52.3739 9.44913 53.0816 8.74155 53.9515 8.74155C54.8214 8.74155 55.5289 9.44913 55.5289 10.319C55.5289 11.1889 54.8214 11.8966 53.9515 11.8966C53.0816 11.8966 52.3739 11.1889 52.3739 10.319ZM6.04863 8.74155C6.91852 8.74155 7.62621 9.44913 7.62621 10.319C7.62621 11.1889 6.91852 11.8966 6.04863 11.8966C5.17875 11.8966 4.47117 11.1889 4.47117 10.319C4.47117 9.44913 5.17875 8.74155 6.04863 8.74155ZM19.8435 18.9658V33.1443H19.5234C19.0057 33.1443 18.5859 33.5641 18.5859 34.0818C18.5859 34.5996 19.0057 35.0193 19.5234 35.0193H40.4766C40.9943 35.0193 41.4141 34.5996 41.4141 34.0818C41.4141 33.5641 40.9943 33.1443 40.4766 33.1443H40.1565V16.8998C40.1565 16.3821 39.7368 15.9623 39.219 15.9623H36.9334L36.9333 10.4716C38.3828 10.062 39.4484 8.72819 39.4484 7.14944C39.4484 5.24573 37.8996 3.69698 35.9959 3.69698C34.0922 3.69698 32.5433 5.24573 32.5433 7.14944C32.5433 8.72819 33.6089 10.0619 35.0583 10.4716L35.0584 16.8998C35.0584 17.4175 35.4782 17.8373 35.9959 17.8373H38.2815V33.1442H34.0105V24.9488C35.46 24.5391 36.5256 23.2055 36.5256 21.6268C36.5256 19.7231 34.9767 18.1742 33.073 18.1742C31.1693 18.1742 29.6205 19.7231 29.6205 21.6268C29.6205 23.2055 30.6861 24.5392 32.1355 24.9488V33.1442H27.8645V17.8373H30.1501C30.6679 17.8373 31.0876 17.4175 31.0876 16.8998V9.886C31.0876 9.36827 30.6679 8.9485 30.1501 8.9485H25.3493V7.2303C26.7988 6.82061 27.8644 5.48702 27.8644 3.90827C27.8644 2.00456 26.3155 0.455688 24.4118 0.455688C22.5081 0.455688 20.9593 2.00456 20.9593 3.90827C20.9593 5.48702 22.0249 6.82073 23.4743 7.2303V9.886C23.4743 10.4037 23.8941 10.8235 24.4118 10.8235H29.2126V15.9624H26.927C26.4093 15.9624 25.9895 16.3822 25.9895 16.8999V33.1443H21.7186V18.9658C23.168 18.5561 24.2336 17.2224 24.2336 15.6437C24.2336 13.7399 22.6848 12.1912 20.7811 12.1912C18.8774 12.1912 17.3285 13.7399 17.3285 15.6437C17.3284 17.2224 18.394 18.5561 19.8435 18.9658ZM34.4183 7.14944C34.4183 6.27956 35.126 5.57198 35.9959 5.57198C36.8658 5.57198 37.5734 6.27956 37.5734 7.14944C37.5734 8.01932 36.8658 8.72702 35.9959 8.72702C35.126 8.72702 34.4183 8.01932 34.4183 7.14944ZM31.4955 21.6268C31.4955 20.7569 32.2031 20.0492 33.073 20.0492C33.9429 20.0492 34.6506 20.7569 34.6506 21.6268C34.6506 22.4967 33.9429 23.2042 33.073 23.2042C32.2031 23.2042 31.4955 22.4967 31.4955 21.6268ZM22.8343 3.90827C22.8343 3.03838 23.5419 2.33069 24.4118 2.33069C25.2817 2.33069 25.9894 3.03838 25.9894 3.90827C25.9894 4.77815 25.2817 5.48573 24.4118 5.48573C23.5419 5.48573 22.8343 4.77815 22.8343 3.90827ZM20.781 14.0661C21.6509 14.0661 22.3584 14.7737 22.3584 15.6435C22.3584 16.5134 21.6509 17.2211 20.781 17.2211C19.9111 17.2211 19.2034 16.5134 19.2034 15.6435C19.2034 14.7737 19.9111 14.0661 20.781 14.0661Z" fill="#0B59DB"/>
</svg>
