<svg width="194" height="194" viewBox="0 0 194 194" fill="none" xmlns="http://www.w3.org/2000/svg">
<path d="M106.553 193.237C106.549 193.237 106.542 193.237 106.539 193.237L83.2881 192.847C82.9123 192.84 82.579 192.598 82.462 192.24L75.5237 171.362C68.7237 169.357 62.5335 166.642 56.6234 163.071L36.28 172.182C35.9361 172.335 35.5355 172.257 35.2767 171.987L19.3758 155.376C19.1169 155.106 19.0567 154.702 19.2233 154.364L29.1787 134.438C25.878 128.354 23.3678 121.87 21.7086 115.154L1.11002 107.307C0.759032 107.172 0.532133 106.834 0.539224 106.458L1.03558 83.2666C1.04267 82.8903 1.28729 82.5638 1.64183 82.4431L22.5417 75.4792C24.5484 68.6573 27.2642 62.4529 30.8308 56.5432L21.7369 36.223C21.5845 35.8822 21.6625 35.4776 21.932 35.2185L38.5384 19.2817C38.8079 19.0226 39.2121 18.9623 39.5489 19.1291L59.4171 29.071C65.8378 25.6281 72.1486 23.1896 78.6827 21.6172L86.4647 1.14436C86.5995 0.792972 86.9185 0.565817 87.3121 0.572916L110.598 1.04499C110.974 1.05209 111.304 1.297 111.421 1.65194L118.323 22.4336C125.148 24.4497 131.338 27.1685 137.22 30.7285L157.564 21.6208C157.907 21.4682 158.308 21.5463 158.567 21.816L174.471 38.4271C174.73 38.6969 174.79 39.1015 174.624 39.4387L164.686 59.3366C166.455 63.0812 170.99 74.7977 172.156 78.6524L192.719 86.4823C193.07 86.6172 193.297 86.9544 193.29 87.3306L192.797 110.54C192.79 110.916 192.546 111.243 192.191 111.364L171.334 118.313C169.207 125.348 166.48 131.556 163.02 137.253L172.117 157.577C172.27 157.917 172.192 158.322 171.922 158.581L155.316 174.518C155.046 174.777 154.642 174.837 154.305 174.67L134.473 164.746C130.768 166.439 119.192 171 115.161 172.214L107.39 192.666C107.248 193.01 106.918 193.237 106.553 193.237ZM83.944 191.083L105.943 191.452L113.651 171.171C113.75 170.904 113.973 170.706 114.243 170.631C117.774 169.659 130.913 164.477 134.097 162.961C134.341 162.844 134.629 162.847 134.873 162.968L154.532 172.807L170.238 157.736L161.205 137.554C161.084 137.285 161.105 136.976 161.258 136.724C164.828 130.931 167.611 124.599 169.76 117.366C169.841 117.089 170.054 116.869 170.33 116.776L191.032 109.88L191.5 87.9198L171.11 80.1537C170.848 80.0544 170.646 79.8343 170.571 79.561C169.635 76.1784 164.544 63.0173 162.899 59.727C162.775 59.4786 162.775 59.184 162.899 58.932L172.755 39.2009L157.716 23.4913L137.518 32.5351C137.252 32.6558 136.944 32.6345 136.692 32.4819C130.7 28.8083 124.382 26.0327 117.38 24.0024C117.1 23.9208 116.877 23.7078 116.785 23.431L109.932 2.80194L87.8935 2.35472L80.1682 22.6821C80.0618 22.9589 79.8278 23.1648 79.5406 23.2322C72.8612 24.7904 66.4192 27.2821 59.8496 30.8457C59.5944 30.9841 59.2895 30.9876 59.0307 30.8598L39.3078 20.989L23.6018 36.0597L32.6319 56.2344C32.7524 56.5006 32.7312 56.8094 32.5787 57.0614C28.8951 63.0847 26.1261 69.4169 24.1088 76.4127C24.0273 76.6931 23.8146 76.9167 23.538 77.009L2.79052 83.9232L2.31901 105.866L22.7687 113.656C23.0417 113.759 23.2473 113.994 23.3147 114.278C24.9916 121.252 27.4911 127.698 30.9478 133.987C31.0897 134.243 31.0932 134.552 30.9655 134.811L21.0846 154.595L36.1205 170.301L56.3185 161.257C56.5844 161.137 56.8928 161.158 57.141 161.31C63.1611 164.995 69.4789 167.767 76.4562 169.783C76.7363 169.864 76.9596 170.077 77.0518 170.354L83.944 191.083ZM96.9058 136.067C96.4804 136.067 96.0549 136.06 95.6295 136.046C85.1919 135.719 75.5769 131.4 68.5535 123.879C61.3883 116.453 57.57 106.579 57.8075 96.0692C58.0486 85.4423 62.3917 75.607 70.0355 68.3769C77.5552 61.2639 87.4681 57.498 97.9517 57.7713C108.453 58.0446 118.178 62.35 125.333 69.8854C132.501 77.4349 136.291 87.4051 136.004 97.9575C135.721 108.503 131.392 118.253 123.819 125.412C116.526 132.316 107.01 136.067 96.9058 136.067ZM96.9058 59.4821C87.6843 59.4821 78.4522 62.8611 71.2516 69.6724C63.9552 76.576 59.8071 85.9676 59.5767 96.1153C59.3498 106.149 62.9908 115.573 69.8299 122.654C69.8334 122.658 69.837 122.661 69.8405 122.665C76.5413 129.842 85.7202 133.962 95.6827 134.275C105.783 134.587 115.349 130.988 122.603 124.127C129.828 117.295 133.958 107.984 134.231 97.9149C134.504 87.8382 130.885 78.3187 124.046 71.1134C116.707 63.3829 106.812 59.4821 96.9058 59.4821Z" fill="#A0A7BF"/>
</svg>
