<svg width="133" height="133" viewBox="0 0 133 133" fill="none" xmlns="http://www.w3.org/2000/svg">
<path d="M73.8364 132.849C73.5422 132.849 73.2585 132.699 73.0919 132.444L64.9162 119.812C60.2753 119.638 55.677 118.885 51.2276 117.568L39.6059 126.882C39.3116 127.116 38.9039 127.141 38.5848 126.942L25.1408 118.623C24.8217 118.424 24.6621 118.048 24.7401 117.682L27.853 103.115C24.6054 99.6227 21.9428 95.9349 19.7305 91.8637L4.801 90.1991C4.42874 90.1565 4.12387 89.8867 4.03523 89.5211L0.429581 74.2339C0.344492 73.8683 0.496923 73.4886 0.808916 73.2862L13.4021 65.1155C13.6112 60.2316 14.3487 55.7416 15.6569 51.4185L6.42481 39.8688C6.19081 39.5777 6.16598 39.166 6.36097 38.8501L14.6997 25.3127C14.8947 24.9933 15.2705 24.8336 15.6392 24.9116L30.0866 28.0103C33.5823 24.7555 37.2659 22.0934 41.3183 19.8893L42.9953 4.91085C43.0378 4.53817 43.3072 4.23291 43.6724 4.14772L58.9281 0.538003C59.2933 0.452818 59.6726 0.605444 59.8747 0.917791L68.0433 13.5394C70.9859 13.8234 78.9311 15.126 81.7391 15.7897L93.3466 6.48678C93.6408 6.25252 94.0485 6.22767 94.3676 6.42288L107.826 14.7462C108.145 14.945 108.304 15.3212 108.226 15.6868L105.117 30.2251C108.446 33.8561 111.105 37.5475 113.229 41.4944L128.162 43.159C128.534 43.2016 128.839 43.4714 128.928 43.837L132.537 59.1242C132.622 59.4898 132.47 59.8696 132.158 60.0719L119.579 68.2355C119.267 71.0927 118.001 79.0682 117.32 81.9538L126.552 93.4965C126.786 93.7875 126.811 94.1957 126.616 94.5151L118.341 108.063C118.146 108.383 117.767 108.546 117.398 108.468L102.884 105.355C99.402 108.599 95.722 111.261 91.6519 113.48L89.9749 128.458C89.9324 128.831 89.6629 129.136 89.2977 129.221L74.042 132.831C73.9711 132.838 73.9038 132.849 73.8364 132.849ZM51.0361 115.698C51.1212 115.698 51.2099 115.712 51.2949 115.737C55.9465 117.157 60.5732 117.913 65.4339 118.055C65.7246 118.062 65.994 118.214 66.1535 118.459L74.2406 130.957L88.2802 127.634L89.9394 112.816C89.9714 112.525 90.1451 112.269 90.4039 112.131C94.63 109.877 98.4235 107.133 102.004 103.74C102.217 103.541 102.511 103.456 102.798 103.516L117.154 106.594L124.776 94.114L115.661 82.7134C115.484 82.4934 115.424 82.2023 115.498 81.929C116.147 79.5261 117.646 70.0315 117.859 67.6392C117.884 67.3659 118.033 67.121 118.26 66.9719L130.672 58.9183L127.35 44.8486L112.573 43.2016C112.282 43.1697 112.023 42.9922 111.889 42.7331C109.737 38.6478 106.996 34.8393 103.511 31.0911C103.313 30.8782 103.231 30.5836 103.295 30.2996L106.369 15.9246L93.9741 8.25792L82.5119 17.4437C82.2921 17.6212 82.0014 17.6815 81.7284 17.607C79.4275 16.9894 69.9755 15.4383 67.4831 15.2644C67.203 15.2467 66.9513 15.0976 66.7988 14.8633L58.7331 2.40143L44.69 5.72365L43.0307 20.5423C42.9988 20.8334 42.8251 21.089 42.5663 21.2274C38.3579 23.467 34.5644 26.2107 30.9658 29.611C30.7531 29.8134 30.4553 29.895 30.1717 29.8347L15.8838 26.768L8.20104 39.2405L17.3374 50.6696C17.5218 50.9003 17.5785 51.2055 17.4899 51.4895C16.1001 55.9368 15.3379 60.5652 15.157 65.6373C15.1464 65.9284 14.9975 66.1946 14.7529 66.3507L2.298 74.4327L5.62 88.5025L20.3936 90.1494C20.6843 90.1813 20.9395 90.3552 21.0778 90.6144C23.3256 94.8417 26.0697 98.6431 29.4626 102.239C29.6647 102.452 29.7462 102.75 29.686 103.034L26.605 117.441L38.9854 125.104L50.483 115.89C50.6426 115.762 50.8376 115.698 51.0361 115.698ZM66.4053 93.7236C61.4986 93.7236 56.645 92.3393 52.3125 89.6525C46.0939 85.7943 41.7757 79.771 40.159 72.6935C38.5671 65.7332 39.8009 58.5208 43.6299 52.3839C47.466 46.2364 53.4186 41.9594 60.3959 40.3408C67.3838 38.7188 74.627 39.954 80.7853 43.8121C86.9436 47.6703 91.2123 53.6546 92.8112 60.6611C94.4173 67.6924 93.1551 74.9687 89.2588 81.1446C85.4156 87.2353 79.4877 91.4449 72.5707 92.9924C70.5286 93.4787 68.4617 93.7236 66.4053 93.7236ZM66.4443 41.4163C64.5617 41.4163 62.6685 41.6293 60.793 42.0658C47.2745 45.2035 38.794 58.7622 41.8856 72.296C43.3959 78.9049 47.4305 84.5342 53.2449 88.1404C58.9919 91.7076 65.7104 92.815 72.163 91.2603C72.1666 91.2603 72.1737 91.2568 72.1772 91.2568C78.6369 89.8157 84.1712 85.883 87.7626 80.1934C91.4037 74.4185 92.5843 67.6214 91.0846 61.055C89.592 54.51 85.5999 48.9197 79.8458 45.3171C75.7403 42.7438 71.1206 41.4163 66.4443 41.4163Z" fill="#A0A7BF"/>
</svg>
