<svg width="49" height="54" viewBox="0 0 49 54" fill="none" xmlns="http://www.w3.org/2000/svg">
<path d="M45.3773 18.6101C47.2688 23.3169 47.5143 28.5248 46.074 33.3886C44.6337 38.2525 41.5921 42.4869 37.4427 45.4048C33.2933 48.3228 28.2797 49.7529 23.2153 49.4633C21.0802 49.3412 18.9889 48.9164 17 48.2132M29.5 5.06259C24.8739 4.00811 20.0236 4.44172 15.6469 6.31494C10.9834 8.31088 7.13127 11.8241 4.71547 16.2846C4.30558 17.0414 3.94111 17.8179 3.62275 18.6101C2.06475 22.4869 1.61069 26.7386 2.33837 30.8873C2.61041 32.4382 3.04264 33.9464 3.62275 35.3899" stroke="#3E66F3" stroke-width="2.5" stroke-linecap="round"/>
<circle cx="34.5" cy="7" r="5" stroke="#3E66F3" stroke-width="2.5"/>
<circle cx="12" cy="46.9998" r="5" stroke="#3E66F3" stroke-width="2.5"/>
<path d="M18.0007 22.0275L23.8959 19.7349C24.2845 19.5838 24.7155 19.5838 25.1041 19.7349L30.9993 22.0275C31.6026 22.2621 32 22.843 32 23.4903V25.8738C32 29.2134 30.4582 32.3659 27.822 34.4162C25.8681 35.9359 23.1319 35.9359 21.178 34.4162C18.5418 32.3659 17 29.2134 17 25.8738V23.4903C17 22.843 17.3974 22.2621 18.0007 22.0275Z" stroke="#3E66F3" stroke-width="2.5" stroke-linecap="round" stroke-linejoin="round"/>
</svg>
