<svg width="54" height="44" viewBox="0 0 54 44" fill="none" xmlns="http://www.w3.org/2000/svg">
<path d="M12 39.5C5.7868 39.5 2 34.4632 2 28.25C2 22.0368 7.0368 17 13.25 17H14.5V14.5C14.5 7.59644 20.0964 2 27 2C33.9036 2 39.5 7.59644 39.5 14.5V17H40.75C46.9632 17 52 22.0368 52 28.25C52 34.4632 48.2132 39.5 42 39.5" stroke="#3E66F3" stroke-width="2.5" stroke-linecap="round" stroke-linejoin="round"/>
<path d="M19.5 41.1669V30.3336C19.5 29.8733 19.8731 29.5002 20.3333 29.5002H33.6667C34.1269 29.5002 34.5 29.8733 34.5 30.3336V41.1669C34.5 41.6271 34.1269 42.0002 33.6667 42.0002H20.3333C19.8731 42.0002 19.5 41.6271 19.5 41.1669Z" stroke="#3E66F3" stroke-width="2.5" stroke-linecap="round" stroke-linejoin="round"/>
<path d="M22 29.5002V27.0002C22 24.2388 24.2386 22.0002 27 22.0002V22.0002C29.7614 22.0002 32 24.2388 32 27.0002V29.5002" stroke="#3E66F3" stroke-width="2.5" stroke-linecap="round" stroke-linejoin="round"/>
</svg>
