<svg width="100" height="100" viewBox="0 0 100 100" fill="none" xmlns="http://www.w3.org/2000/svg">
<path fill-rule="evenodd" clip-rule="evenodd" d="M24.1635 33.0334V16.1632C24.1635 15.4112 24.7739 14.8008 25.5251 14.8008H41.6553L38.3789 11.525C37.8473 10.9926 37.8473 10.1298 38.3789 9.59764C38.9115 9.06544 39.7747 9.06544 40.3051 9.59764L45.9077 15.1986C45.9111 15.2022 45.9135 15.2058 45.9169 15.2094H45.9181C45.9181 15.2112 45.9181 15.2112 45.9205 15.2112C45.9205 15.2128 45.9205 15.2128 45.9227 15.2128V15.2146C45.9239 15.2146 45.9239 15.2164 45.9261 15.2164C46.4367 15.7498 46.4363 16.5784 45.9203 17.115H45.9179C45.9179 17.1168 45.9167 17.1168 45.9167 17.1186C45.9145 17.1186 45.9145 17.1204 45.9133 17.1204V17.1222C45.9109 17.1222 45.9109 17.1222 45.9109 17.124C45.9097 17.124 45.9097 17.1258 45.9075 17.1258L40.3049 22.7286C39.7745 23.261 38.9113 23.261 38.3787 22.7286C37.8471 22.1964 37.8471 21.3332 38.3787 20.8008L41.6551 17.5254H26.8887V33.0332C26.8887 33.7852 26.2793 34.3956 25.5249 34.3956C24.7739 34.396 24.1635 33.7854 24.1635 33.0334ZM92.2449 60.7916C92.7777 61.324 92.7777 62.1866 92.2449 62.719C91.7133 63.2512 90.8503 63.2512 90.3175 62.719L87.0423 59.4434V80.2086C87.0423 80.961 86.4319 81.5714 85.6797 81.5714H70.8299C70.0777 81.5714 69.4671 80.961 69.4671 80.2086C69.4671 79.4548 70.0775 78.8462 70.8299 78.8462H84.3169V59.4436L81.0395 62.7192C80.5079 63.2514 79.6459 63.2514 79.1133 62.7192C78.5817 62.187 78.5817 61.3242 79.1133 60.7918L84.7205 55.1852C85.2939 54.65 86.1187 54.6676 86.6421 55.1906L92.2449 60.7916ZM75.2059 32.6048C75.1385 31.6144 74.6503 30.886 73.6751 30.3194C72.0719 29.4322 70.2549 30.156 68.0645 28.893C65.7279 27.5052 65.1963 25.6158 65.1631 24.2748C65.1607 24.2458 65.1607 24.2168 65.1631 24.1876C65.2443 22.1492 66.2627 20.5506 68.1079 19.564C68.7367 19.2152 69.4203 18.9696 70.1485 18.8298V17.493C70.1485 16.7388 70.7589 16.1306 71.5111 16.1306C72.2633 16.1306 72.8737 16.7388 72.8737 17.493V18.801C74.4845 19.0118 75.9283 19.515 77.2577 20.3274C77.8979 20.7194 78.1013 21.559 77.7093 22.2002C77.3171 22.8432 76.4781 23.0452 75.8367 22.6526C74.5849 21.8876 73.1765 21.4846 71.5327 21.421C70.8391 21.4076 69.9291 21.6396 69.4235 21.9496C69.4155 21.955 69.4087 21.9586 69.3995 21.962C68.4095 22.4908 67.9419 23.1976 67.8881 24.251C67.9121 24.8596 68.1111 25.7424 69.4325 26.5364C70.9537 27.3966 72.8557 26.7072 75.0147 27.9462C76.8277 28.9912 77.8361 30.5804 77.9333 32.5426C77.9345 32.59 77.9345 32.6372 77.9309 32.6846C77.7429 35.6108 75.6297 37.5218 72.8735 38.0312V39.3574C72.8735 40.1094 72.2631 40.7198 71.5109 40.7198C70.7587 40.7198 70.1483 40.1094 70.1483 39.3574V38.0566C68.6187 37.8548 67.1463 37.3462 65.7619 36.5362C65.1115 36.156 64.8919 35.3206 65.2715 34.6718C65.6521 34.0216 66.4867 33.8038 67.1361 34.1834C68.9613 35.25 71.7127 35.9798 73.6853 34.892C74.6539 34.3504 75.1293 33.6422 75.2059 32.6048ZM71.5113 13.24C63.1375 13.24 56.3255 20.0508 56.3255 28.4242C56.3255 36.7978 63.1377 43.6104 71.5113 43.6104C79.8839 43.6104 86.6949 36.7978 86.6949 28.4242C86.6949 20.051 79.8839 13.24 71.5113 13.24ZM71.5113 46.3358C81.3871 46.3358 89.4201 38.3002 89.4201 28.4242C89.4201 18.5486 81.3871 10.5148 71.5113 10.5148C61.6355 10.5148 53.6001 18.5486 53.6001 28.4242C53.6001 38.3002 61.6353 46.3358 71.5113 46.3358ZM71.5113 7.76104C60.1161 7.76104 50.8473 17.0318 50.8473 28.4242C50.8473 39.8188 60.1161 49.0878 71.5113 49.0878C82.9053 49.0878 92.1741 39.8188 92.1741 28.4242C92.1741 17.0318 82.9053 7.76104 71.5113 7.76104ZM71.5113 51.8132C84.4085 51.8132 94.8995 41.3216 94.8995 28.4242C94.8995 15.5272 84.4087 5.03564 71.5113 5.03564C58.6139 5.03564 48.1219 15.5274 48.1219 28.4242C48.1219 41.3216 58.6141 51.8132 71.5113 51.8132ZM52.0213 84.2057C49.8173 84.2057 48.0237 82.4122 48.0237 80.2086C48.0237 78.003 49.8173 76.212 52.0213 76.212C54.2241 76.212 56.0179 78.0032 56.0179 80.2086C56.0179 82.4122 54.2241 84.2057 52.0213 84.2057ZM52.0213 73.4866C48.3151 73.4866 45.2995 76.5008 45.2995 80.2086C45.2995 83.915 48.3151 86.9306 52.0213 86.9306C55.7285 86.9306 58.7431 83.915 58.7431 80.2086C58.7431 76.5008 55.7287 73.4866 52.0213 73.4866ZM64.0531 81.0208V79.395L62.1691 78.7828C61.7255 78.6372 61.3861 78.2778 61.2717 77.8254C61.0477 76.9586 60.7023 76.1268 60.2451 75.3546C60.0085 74.9532 59.9925 74.457 60.2051 74.0408L61.1047 72.2752L59.9547 71.1248L58.1885 72.0242C57.7723 72.2368 57.2763 72.2206 56.8749 71.9826C56.1021 71.5266 55.2711 71.1814 54.4045 70.9578C53.9517 70.8416 53.5905 70.5036 53.4465 70.0602L52.8337 68.1762H51.2069L50.5965 70.0602C50.4513 70.5036 50.0911 70.8416 49.6385 70.9578C48.7719 71.1814 47.9397 71.5268 47.1659 71.9826C46.7647 72.2206 46.2709 72.2366 45.8547 72.0242L44.0885 71.1248L42.9385 72.2752L43.8381 74.0408C44.0507 74.457 44.0335 74.953 43.7957 75.3546C43.3395 76.1268 42.9943 76.9586 42.7715 77.8254C42.6549 78.2778 42.3165 78.6372 41.8741 78.7828L39.9901 79.395V81.0208L41.8741 81.633C42.3165 81.778 42.6549 82.138 42.7715 82.5904C42.9943 83.4572 43.3397 84.289 43.7957 85.0612C44.0335 85.4626 44.0507 85.9588 43.8381 86.375L42.9385 88.1406L44.0885 89.2904L45.8547 88.391C46.2709 88.1784 46.7669 88.195 47.1681 88.433C47.9397 88.8908 48.7721 89.2342 49.6385 89.4574C50.0911 89.574 50.4513 89.912 50.5965 90.3568L51.2069 92.239H52.8337L53.4465 90.355C53.5905 89.912 53.9517 89.574 54.4045 89.4574C55.2711 89.2342 56.1021 88.889 56.8749 88.433C57.2761 88.195 57.7723 88.1786 58.1885 88.391L59.9547 89.2904L61.1047 88.1406L60.2051 86.375C59.9925 85.9588 60.0085 85.4626 60.2451 85.0612C60.7023 84.289 61.0475 83.4572 61.2717 82.5904C61.3883 82.138 61.7255 81.778 62.1691 81.633L64.0531 81.0208ZM65.8377 77.1076L63.6965 76.4138C63.4987 75.8028 63.2519 75.209 62.9591 74.637L63.9823 72.6312C64.2497 72.1042 64.1493 71.4666 63.7319 71.049L61.1805 68.4982C60.7633 68.0802 60.1253 67.9802 59.5983 68.2474L57.5933 69.2704C57.0205 68.978 56.4273 68.7306 55.8157 68.5326L55.1207 66.3924C54.9389 65.831 54.4153 65.4514 53.8255 65.4514H50.2185C49.6287 65.4514 49.1051 65.831 48.9211 66.3924L48.2273 68.5326C47.6169 68.7304 47.0235 68.978 46.4497 69.2686L44.4457 68.2472C43.9187 67.9802 43.2809 68.0802 42.8623 68.498L40.3119 71.0488C39.8947 71.4664 39.7917 72.104 40.0615 72.631L41.0823 74.6368C40.7919 75.2088 40.5449 75.8028 40.3461 76.4136L38.2061 77.1074C37.6447 77.2908 37.2653 77.814 37.2653 78.4046V82.0106C37.2653 82.6014 37.6447 83.1242 38.2061 83.3078L40.3461 84.0018C40.5449 84.6122 40.7919 85.2066 41.0823 85.7786L40.0615 87.7844C39.7917 88.3108 39.8945 88.9486 40.3119 89.3666L42.8623 91.9174C43.2807 92.3354 43.9187 92.4354 44.4457 92.1678L46.4509 91.147C47.0237 91.4376 47.6169 91.6846 48.2273 91.883L48.9211 94.0229C49.1051 94.5846 49.6287 94.9642 50.2185 94.9642H53.8253C54.4151 94.9642 54.9387 94.5846 55.1205 94.0229L55.8155 91.883C56.4271 91.6848 57.0205 91.4378 57.5931 91.147L59.5981 92.1678C60.1251 92.4352 60.7629 92.3352 61.1803 91.9174L63.7319 89.3666C64.1491 88.9486 64.2497 88.311 63.9823 87.7844L62.9591 85.7786C63.2517 85.2066 63.4987 84.6122 63.6965 84.0018L65.8377 83.3078C66.3989 83.1244 66.7785 82.6014 66.7785 82.0106V78.4046C66.7785 77.8142 66.3989 77.2912 65.8377 77.1076ZM31.0361 60.2826C27.8923 63.3258 22.8745 63.2438 19.8319 60.0972C16.7873 56.9484 16.8679 51.9392 20.0171 48.8936C23.1661 45.8484 28.1769 45.934 31.2213 49.0788C34.2647 52.2228 34.1791 57.241 31.0361 60.2826ZM25.7021 43.941C19.8315 43.8286 14.9767 48.5282 14.8797 54.4126C14.7815 60.367 19.5741 65.237 25.5307 65.237C31.3423 65.237 36.0767 60.578 36.1735 54.7636C36.2717 48.8796 31.5853 44.0388 25.7021 43.941ZM34.4187 66.0362C34.0495 66.3234 33.8539 66.7776 33.8973 67.2424L34.2093 70.5562L31.2153 71.8516L29.0135 69.3536C28.7061 69.003 28.2395 68.8338 27.7777 68.9082C26.4321 69.1208 25.0649 69.1426 23.7171 68.974C23.2541 68.9154 22.7933 69.0972 22.4961 69.4552L20.3743 72.0184L17.3425 70.8176L17.5505 67.4966C17.5803 67.0312 17.3687 66.5826 16.9915 66.3082C15.8941 65.5108 14.9131 64.5586 14.0775 63.4798C13.7905 63.111 13.3367 62.9146 12.8715 62.9582L9.55754 63.2708L8.26234 60.2766L10.7601 58.0764C11.1111 57.7678 11.2779 57.3008 11.2049 56.8414C10.9923 55.4932 10.9717 54.1272 11.1397 52.779C11.2003 52.316 11.0161 51.8542 10.6573 51.5582L8.09554 49.4362L9.29594 46.4042L12.6169 46.6132C13.0821 46.644 13.5315 46.4314 13.8047 46.0554C14.6027 44.9542 15.5549 43.9754 16.6341 43.1394C17.0033 42.854 17.1989 42.3982 17.1553 41.935L16.8433 38.6194L19.8373 37.324L22.0367 39.822C22.3465 40.173 22.8107 40.34 23.2725 40.2672C24.6203 40.0528 25.9865 40.031 27.3353 40.202C27.7983 40.2618 28.2589 40.0782 28.5551 39.7184L30.6769 37.157L33.7097 38.3578L33.5005 41.6788C33.4719 42.144 33.6823 42.5928 34.0583 42.8654C35.1581 43.6646 36.1389 44.6168 36.9745 45.6956C37.2591 46.0644 37.7141 46.2608 38.1795 46.2172L41.4947 45.9046L42.7877 48.8986L40.2923 51.1006C39.9413 51.4074 39.7745 51.8744 39.8465 52.3358C40.0591 53.6822 40.0809 55.0482 39.9105 56.3962C39.8521 56.8594 40.0341 57.321 40.3941 57.6172L42.9571 59.7392L41.7555 62.7714L38.4345 62.5624C37.9703 62.5352 37.5211 62.744 37.2467 63.12C36.4501 64.2198 35.4979 65.2004 34.4187 66.0362ZM36.6789 67.7114C37.5271 66.9938 38.3011 66.1944 38.9915 65.3276L42.5719 65.5548C43.1607 65.5892 43.7071 65.2442 43.9243 64.6956L45.8551 59.8228C46.0733 59.2722 45.9133 58.6474 45.4573 58.2714L42.6943 55.9824C42.7835 54.8776 42.7663 53.7656 42.6417 52.6632L45.3339 50.2884C45.7775 49.898 45.9181 49.2676 45.6837 48.7264L43.6019 43.9136C43.3675 43.3724 42.8097 43.0436 42.2233 43.0982L38.6497 43.4358C37.9317 42.5874 37.1327 41.8136 36.2661 41.1232L36.4913 37.5426C36.5301 36.9536 36.1827 36.407 35.6339 36.189L30.7593 34.2596C30.2105 34.0416 29.5853 34.2016 29.2081 34.6574L26.9207 37.4206C25.8165 37.3294 24.7041 37.3478 23.5997 37.4734L21.2277 34.781C20.8367 34.3376 20.2057 34.1956 19.6649 34.43L14.8521 36.5122C14.3103 36.746 13.9821 37.3022 14.0359 37.891L14.3743 41.4644C13.5261 42.182 12.7521 42.9812 12.0617 43.848L8.48134 43.6208C7.89034 43.5848 7.34494 43.9316 7.12774 44.4804L5.19814 49.3528C4.97974 49.9034 5.13994 50.5282 5.59594 50.9064L8.35894 53.1936C8.26874 54.298 8.28694 55.4098 8.41154 56.5146L5.71934 58.8872C5.27574 59.278 5.13394 59.908 5.36834 60.4498L7.44994 65.2624C7.68554 65.8036 8.24094 66.1346 8.82974 66.0782L12.4009 65.7402C13.1211 66.5886 13.9201 67.3626 14.7867 68.053L14.5593 71.6338C14.5227 72.2224 14.8679 72.769 15.4189 72.9868L20.2911 74.9164C20.8351 75.1334 21.4635 74.9778 21.8423 74.5186L24.1297 71.7554C25.2363 71.8464 26.3475 71.8282 27.4507 71.7026L29.8251 74.3948C30.2137 74.8382 30.8459 74.9804 31.3879 74.7458L36.2007 72.6636C36.7425 72.4296 37.0707 71.8736 37.0157 71.285L36.6789 67.7114Z" fill="#79F4E4"/>
</svg>
