<svg width="100" height="100" viewBox="0 0 100 100" fill="none" xmlns="http://www.w3.org/2000/svg">
<path d="M98.4183 61.5667L80.0167 50.4683C79.5085 50.1613 78.9262 49.999 78.3325 49.999C77.7388 49.999 77.1564 50.1613 76.6483 50.4683L69.85 54.57L57.25 46.1667L70.0833 38.425C70.5646 38.1326 70.9629 37.7216 71.2401 37.2314C71.5173 36.7412 71.6642 36.1881 71.6667 35.625V14.375C71.6655 13.8109 71.5194 13.2565 71.2425 12.765C70.9655 12.2736 70.5669 11.8615 70.085 11.5683L51.6833 0.468315C51.1752 0.161302 50.5928 -0.000976563 49.9992 -0.000976562C49.4055 -0.000976563 48.8231 0.161302 48.315 0.468315L29.915 11.5683C29.4331 11.8615 29.0345 12.2736 28.7575 12.765C28.4806 13.2565 28.3345 13.8109 28.3333 14.375V35.625C28.3345 36.1891 28.4806 36.7435 28.7575 37.2349C29.0345 37.7264 29.4331 38.1385 29.915 38.4316L42.7483 46.1733L30.1483 54.57L23.3483 50.4683C22.8402 50.1613 22.2578 49.999 21.6642 49.999C21.0705 49.999 20.4881 50.1613 19.98 50.4683L1.58 61.5683C1.09858 61.862 0.700536 62.2742 0.42391 62.7656C0.147285 63.257 0.00133042 63.8111 0 64.375L0 85.625C0.00153912 86.1893 0.147747 86.7437 0.424655 87.2354C0.701563 87.7271 1.09992 88.1395 1.58167 88.4333L19.9833 99.5317C20.4916 99.8381 21.0739 100 21.6675 100C22.2611 100 22.8434 99.8381 23.3517 99.5317L41.7533 88.4317C42.2347 88.138 42.6328 87.7258 42.9094 87.2344C43.186 86.743 43.332 86.1889 43.3333 85.625V78.3333H56.6667V85.625C56.6682 86.1893 56.8144 86.7437 57.0913 87.2354C57.3682 87.7271 57.7666 88.1395 58.2483 88.4333L76.65 99.5317C77.1583 99.8381 77.7406 100 78.3342 100C78.9277 100 79.51 99.8381 80.0183 99.5317L98.42 88.4317C98.9014 88.138 99.2995 87.7258 99.5761 87.2344C99.8527 86.743 99.9987 86.1889 100 85.625V64.375C99.9985 63.8107 99.8523 63.2563 99.5753 62.7646C99.2984 62.2729 98.9001 61.8605 98.4183 61.5667ZM78.2967 53.3233L95.57 63.7433L78.3133 74.135L61.0917 63.7433L78.2967 53.3233ZM51.6667 45.69V27.0233C51.69 27.01 51.7183 27.005 51.7417 26.9916L68.3333 16.975L68.36 35.5766L51.6667 45.69ZM49.9633 3.32332L67.2367 13.7433L49.98 24.1367L32.7583 13.7433L49.9633 3.32332ZM31.64 16.9616L48.2717 27C48.2917 27.0116 48.3133 27.015 48.3333 27.025V45.6517L31.6667 35.625L31.64 16.9616ZM21.63 53.3233L38.9033 63.7433L21.6467 74.135L4.425 63.7433L21.63 53.3233ZM3.33333 85.625L3.30833 66.9583L19.9383 77C19.9583 77.0117 19.98 77.015 20 77.0267V95.6517L3.33333 85.625ZM23.3333 95.69V77.0233C23.3567 77.01 23.385 77.0067 23.4083 76.9917L40 66.975L40.0267 85.5783L23.3333 95.69ZM43.3333 75V64.375C43.3318 63.8107 43.1856 63.2563 42.9087 62.7646C42.6318 62.2729 42.2334 61.8605 41.7517 61.5667L33.305 56.4733L45.905 48.0767L48.3167 49.5316C48.825 49.8381 49.4073 50.0001 50.0008 50.0001C50.5944 50.0001 51.1767 49.8381 51.685 49.5316L54.095 48.0767L66.695 56.4733L58.2467 61.5683C57.7653 61.862 57.3672 62.2742 57.0906 62.7656C56.8139 63.257 56.668 63.8111 56.6667 64.375V75H43.3333ZM60 85.625L59.975 66.9583L76.605 77C76.625 77.0117 76.6467 77.015 76.6667 77.0267V95.6517L60 85.625ZM80 95.69V77.0233C80.0233 77.01 80.0517 77.0067 80.075 76.9917L96.6667 66.975L96.6933 85.5783L80 95.69Z" fill="#79F4E4"/>
</svg>
