<svg width="32" height="32" viewBox="0 0 32 32" fill="none" xmlns="http://www.w3.org/2000/svg">
<path d="M13.3333 10.6668C13.3333 13.181 13.3333 14.438 12.5523 15.2191C11.7712 16.0002 10.5142 16.0002 8 16.0002C5.48584 16.0002 4.22876 16.0002 3.44772 15.2191C2.66667 14.438 2.66667 13.181 2.66667 10.6668C2.66667 8.15267 2.66667 6.89559 3.44772 6.11455C4.22876 5.3335 5.48584 5.3335 8 5.3335C10.5142 5.3335 11.7712 5.3335 12.5523 6.11455C13.3333 6.89559 13.3333 8.15267 13.3333 10.6668Z" stroke="#0B59DB" stroke-width="1.5"/>
<path d="M13.3333 9.3335V15.3096C13.3333 20.6064 9.97905 25.0984 5.33333 26.6668" stroke="#0B59DB" stroke-width="1.5" stroke-linecap="round"/>
<path d="M29.3333 10.6668C29.3333 13.181 29.3333 14.438 28.5523 15.2191C27.7712 16.0002 26.5141 16.0002 24 16.0002C21.4859 16.0002 20.2288 16.0002 19.4477 15.2191C18.6667 14.438 18.6667 13.181 18.6667 10.6668C18.6667 8.15267 18.6667 6.89559 19.4477 6.11455C20.2288 5.3335 21.4859 5.3335 24 5.3335C26.5141 5.3335 27.7712 5.3335 28.5523 6.11455C29.3333 6.89559 29.3333 8.15267 29.3333 10.6668Z" stroke="#0B59DB" stroke-width="1.5"/>
<path d="M29.3333 9.3335V15.3096C29.3333 20.6064 25.9791 25.0984 21.3333 26.6668" stroke="#0B59DB" stroke-width="1.5" stroke-linecap="round"/>
</svg>
