<svg width="32" height="32" viewBox="0 0 32 32" fill="none" xmlns="http://www.w3.org/2000/svg">
<path d="M15.9973 2.66675C11.9869 2.66675 9.38658 5.35873 6.31129 6.33995C5.06086 6.73892 4.43564 6.9384 4.18261 7.21961C3.92958 7.50083 3.85549 7.91175 3.7073 8.73359C2.12158 17.5281 5.58754 25.6587 13.8534 28.8234C14.7415 29.1634 15.1855 29.3334 16.0017 29.3334C16.8177 29.3334 17.2618 29.1634 18.1498 28.8234C26.4151 25.6586 29.8778 17.5281 28.2917 8.73359C28.1434 7.9116 28.0693 7.50062 27.8162 7.2194C27.5631 6.93819 26.9379 6.73881 25.6875 6.34007C22.611 5.35895 20.0078 2.66675 15.9973 2.66675Z" stroke="#0B59DB" stroke-width="1.5" stroke-linecap="round" stroke-linejoin="round"/>
<path d="M12 17.3333C12 17.3333 13.3333 17.3333 14.6667 20C14.6667 20 18.902 13.3333 22.6667 12" stroke="#0B59DB" stroke-width="1.5" stroke-linecap="round" stroke-linejoin="round"/>
</svg>
