<svg width="40" height="26" viewBox="0 0 40 26" fill="none" xmlns="http://www.w3.org/2000/svg">
<path d="M34.5944 11.4765C35.7657 10.6533 36.5414 9.28413 36.5414 7.7408C36.5414 5.21607 34.4994 3.17412 31.9747 3.17412C29.4499 3.17412 27.408 5.21607 27.408 7.7408C27.408 9.28413 28.1757 10.6533 29.355 11.4765C28.3498 11.8247 27.4317 12.3629 26.6561 13.0594C25.5877 12.1492 24.3292 11.4527 22.9521 11.0412C24.6221 10.0281 25.7459 8.18401 25.7459 6.08666C25.7459 2.8892 23.1579 0.301147 19.9604 0.301147C16.763 0.301147 14.1749 2.89711 14.1749 6.08666C14.1749 8.18401 15.2909 10.0281 16.9687 11.0412C15.6074 11.4527 14.3649 12.1413 13.3043 13.0356C12.5287 12.355 11.6264 11.8247 10.6371 11.4844C11.8085 10.6613 12.5841 9.29205 12.5841 7.74871C12.5841 5.22398 10.5421 3.18203 8.01741 3.18203C5.49268 3.18203 3.45073 5.22398 3.45073 7.74871C3.45073 9.29205 4.21844 10.6613 5.3977 11.4844C2.25564 12.5687 0 15.5524 0 19.0586V19.5809C0 19.5968 0.015829 19.6126 0.0316581 19.6126H9.71112C9.65572 20.0479 9.62406 20.499 9.62406 20.9501V21.4883C9.62406 23.8152 11.5077 25.6989 13.8346 25.6989H26.1021C28.429 25.6989 30.3126 23.8152 30.3126 21.4883V20.9501C30.3126 20.499 30.281 20.0479 30.2256 19.6126H39.9683C39.9842 19.6126 40 19.5968 40 19.5809V19.0586C39.9842 15.5445 37.7364 12.5607 34.5944 11.4765ZM28.6743 7.73288C28.6743 5.91254 30.1543 4.43253 31.9747 4.43253C33.795 4.43253 35.275 5.91254 35.275 7.73288C35.275 9.52948 33.8267 10.9937 32.038 11.0332C32.0142 11.0332 31.9984 11.0332 31.9747 11.0332C31.9509 11.0332 31.9351 11.0332 31.9114 11.0332C30.1148 11.0016 28.6743 9.5374 28.6743 7.73288ZM15.4254 6.08666C15.4254 3.59359 17.4515 1.56747 19.9446 1.56747C22.4377 1.56747 24.4638 3.59359 24.4638 6.08666C24.4638 8.49268 22.5722 10.4634 20.2058 10.5979C20.1187 10.5979 20.0317 10.5979 19.9446 10.5979C19.8575 10.5979 19.7705 10.5979 19.6834 10.5979C17.317 10.4634 15.4254 8.49268 15.4254 6.08666ZM4.69331 7.73288C4.69331 5.91254 6.17333 4.43253 7.99367 4.43253C9.81401 4.43253 11.294 5.91254 11.294 7.73288C11.294 9.52948 9.84567 10.9937 8.05698 11.0332C8.03324 11.0332 8.01741 11.0332 7.99367 11.0332C7.96992 11.0332 7.9541 11.0332 7.93035 11.0332C6.14167 11.0016 4.69331 9.5374 4.69331 7.73288ZM9.93273 18.3383H1.28215C1.63831 14.9668 4.48753 12.3233 7.94618 12.2996C7.96201 12.2996 7.97784 12.2996 7.99367 12.2996C8.0095 12.2996 8.02533 12.2996 8.04115 12.2996C9.68738 12.3075 11.1911 12.9169 12.3546 13.9062C11.2149 15.1409 10.368 16.6605 9.93273 18.3383ZM29.0305 21.4883C29.0305 23.1108 27.7087 24.4325 26.0863 24.4325H13.8188C12.1963 24.4325 10.8746 23.1108 10.8746 21.4883V20.9501C10.8746 16.0352 14.8002 12.0146 19.6834 11.8722C19.7705 11.8801 19.8655 11.8801 19.9525 11.8801C20.0396 11.8801 20.1345 11.8801 20.2216 11.8722C25.1049 12.0146 29.0305 16.0352 29.0305 20.9501V21.4883ZM29.9723 18.3383C29.537 16.6684 28.706 15.1725 27.5742 13.9379C28.7455 12.9248 30.2651 12.3154 31.9272 12.2996C31.943 12.2996 31.9588 12.2996 31.9747 12.2996C31.9905 12.2996 32.0063 12.2996 32.0222 12.2996C35.4808 12.3233 38.33 14.9668 38.6862 18.3383H29.9723Z" fill="white"/>
</svg>
