<svg width="24" height="24" viewBox="0 0 24 24" fill="none" xmlns="http://www.w3.org/2000/svg">
<path fill-rule="evenodd" clip-rule="evenodd" d="M18.3742 23.9999C15.5992 23.9999 13.3398 21.7406 13.3398 18.9655C13.3398 16.1905 15.5992 13.9312 18.3742 13.9312C21.1492 13.9312 23.4086 16.1905 23.4086 18.9655C23.4086 21.7405 21.1493 23.9999 18.3742 23.9999ZM18.093 21.7678C17.6321 21.7186 17.1919 21.5977 16.8696 21.4312C16.7336 21.3609 16.6774 21.1921 16.7477 21.0515C16.818 20.9109 16.9867 20.8593 17.1274 20.9296C17.7133 21.2343 18.8383 21.3562 19.4664 21.0609C19.7055 20.9484 19.8461 20.7937 19.8977 20.5874C20.0055 20.114 19.9727 19.7718 19.7992 19.5656C19.5274 19.2421 18.8992 19.2234 18.3836 19.2468C17.6992 19.2749 16.9399 19.2374 16.5133 18.7265C16.2227 18.3749 16.1524 17.8687 16.2977 17.2171C16.3821 16.8374 16.6399 16.5421 17.0383 16.3546C17.3398 16.2152 17.71 16.1477 18.093 16.1372V15.7124C18.093 15.5577 18.2195 15.4312 18.3742 15.4312C18.5289 15.4312 18.6555 15.5577 18.6555 15.7124V16.1607C19.115 16.2106 19.5536 16.3323 19.8742 16.4999C20.0102 16.5703 20.0664 16.739 19.9961 16.8796C19.9258 17.0202 19.757 17.0718 19.6164 17.0015C19.0305 16.6968 17.9055 16.5796 17.2774 16.8702C17.0383 16.9827 16.8977 17.1374 16.8461 17.3437C16.7383 17.8171 16.7711 18.1593 16.9445 18.3656C17.2164 18.689 17.8446 18.7077 18.3602 18.6843C19.0446 18.6562 19.8039 18.6937 20.2305 19.2046C20.5211 19.5562 20.5914 20.0624 20.4461 20.714C20.3617 21.0937 20.1039 21.389 19.7055 21.5765C19.4066 21.7131 19.0377 21.7797 18.6555 21.7905V22.2187C18.6555 22.3734 18.5289 22.4999 18.3742 22.4999C18.2195 22.4999 18.093 22.3734 18.093 22.2187V21.7678Z" fill="white"/>
<path fill-rule="evenodd" clip-rule="evenodd" d="M11.1897 21.7785C11.0658 21.7752 10.9424 21.7697 10.8193 21.7623C9.42041 21.5028 8.11422 20.4314 7.0895 18.682C6.79254 18.1754 6.52822 17.6272 6.29819 17.0452C7.80149 17.4956 9.46401 17.7456 11.1897 17.7714L11.1897 21.7785ZM8.63999 21.4083C6.82093 20.9186 5.15422 19.9587 3.78593 18.5904C2.4177 17.2222 1.45783 15.5555 0.96812 13.7365C1.54583 14.4997 2.36092 15.199 3.39136 15.803C4.05622 16.1925 4.78738 16.5282 5.56952 16.8067C5.84802 17.5889 6.18376 18.32 6.57323 18.9848C7.17727 20.0154 7.87667 20.8306 8.63999 21.4083ZM11.7853 17.7715C12.1954 17.7655 12.6041 17.7471 13.0098 17.7155C12.9162 18.1172 12.8666 18.5356 12.8666 18.9654C12.8666 19.8028 13.0549 20.5971 13.391 21.3085C12.9887 21.5332 12.5766 21.6844 12.1581 21.7623C12.034 21.7698 11.9098 21.7752 11.7853 21.7786L11.7853 17.7715ZM0.614126 11.5584C0.606778 11.4365 0.601317 11.3142 0.597995 11.1915H4.60493C4.63116 12.9154 4.88106 14.5763 5.33103 16.0781C4.74901 15.8481 4.20085 15.5837 3.69419 15.2867C1.94544 14.2624 0.874119 12.9567 0.614126 11.5584ZM5.20561 11.1915H11.1897V17.1707C9.35452 17.1425 7.59609 16.8541 6.04028 16.3359C5.52253 14.7815 5.23423 13.0248 5.20561 11.1915ZM11.7853 11.1915H17.7743C17.7619 11.9794 17.701 12.7568 17.5932 13.5141C15.5572 13.8044 13.876 15.2127 13.1939 17.0953C12.7287 17.1377 12.2575 17.1631 11.7853 17.1706L11.7853 11.1915ZM18.3702 11.1915H22.3772C22.3737 11.3233 22.3678 11.4548 22.3596 11.5858C22.1878 12.4641 21.6939 13.3096 20.9011 14.0743C20.1436 13.6811 19.284 13.4586 18.3734 13.4586C18.3162 13.4586 18.2592 13.4597 18.2023 13.4615C18.3028 12.7195 18.3587 11.9598 18.3702 11.1915ZM22.007 13.7325C21.9276 14.0264 21.8358 14.3173 21.7317 14.6048C21.6351 14.5302 21.5362 14.4587 21.4348 14.3906C21.646 14.1768 21.8369 13.9572 22.007 13.7325ZM0.597656 10.5959C0.600978 10.4699 0.606492 10.3443 0.614079 10.219C0.874114 8.82071 1.94542 7.51509 3.69412 6.4907C4.20079 6.19373 4.74894 5.92939 5.33097 5.69935C4.88014 7.20412 4.63012 8.86838 4.6047 10.5958L0.597656 10.5959ZM6.04022 5.44162C7.59601 4.92338 9.35445 4.63495 11.1896 4.60677V10.5958H5.20538C5.23312 8.75898 5.52153 6.99878 6.04022 5.44162ZM11.7853 4.60677C13.6241 4.63491 15.3826 4.92353 16.9394 5.44093C17.4582 6.99826 17.7467 8.75871 17.7745 10.5959H11.7853L11.7853 4.60677ZM17.6411 5.69501C18.2255 5.92488 18.7762 6.18905 19.2857 6.48576C21.0165 7.49964 22.0837 8.78907 22.3575 10.1712C22.3667 10.3122 22.3733 10.4538 22.3771 10.5958H18.3701C18.3442 8.86661 18.0933 7.2008 17.6411 5.69501ZM0.96975 8.03879C1.46072 6.22114 2.42141 4.55646 3.78588 3.19198C5.15363 1.82423 6.82165 0.864537 8.63991 0.374669C7.87661 0.951649 7.17676 1.76512 6.57317 2.79259C6.1837 3.45744 5.84793 4.18858 5.56944 4.97073C4.7873 5.24923 4.05616 5.585 3.3913 5.97448C2.36186 6.57788 1.54735 7.27644 0.96975 8.03879ZM10.7804 0.0225219C10.9164 0.0138452 11.0528 0.00757359 11.1896 0.00391955V4.0061C9.46394 4.03191 7.8014 4.28189 6.29811 4.73231C6.52813 4.15028 6.79247 3.60209 7.08943 3.09543C8.10464 1.36231 9.39618 0.294554 10.7804 0.0225219ZM11.7853 0.00390625C11.9228 0.00757356 12.0598 0.0138585 12.1964 0.0225883C13.5826 0.294728 14.871 1.36244 15.8904 3.09542C16.1877 3.60258 16.4522 4.15133 16.6824 4.73398C15.1776 4.28252 13.5131 4.03194 11.7853 4.00609L11.7853 0.00390625ZM14.3323 0.373442C16.1524 0.862921 17.8201 1.82307 19.189 3.19201C20.5554 4.55837 21.5146 6.22232 22.0049 8.03844C21.4273 7.27622 20.6129 6.57782 19.5836 5.97452C18.9182 5.58471 18.1863 5.2487 17.4034 4.97005C17.1253 4.19005 16.7902 3.46084 16.4017 2.7976C15.7974 1.76663 15.0966 0.951205 14.3323 0.373442Z" fill="white"/>
</svg>
