<svg width="1156" height="620" viewBox="0 0 1156 620" fill="none" xmlns="http://www.w3.org/2000/svg">
<path d="M841.788 322.288C841.788 322.288 835.342 300.985 829.453 296.083C823.565 291.181 814.673 286.436 808.153 294.287C801.629 302.138 808.798 309.879 814.237 314.405C819.672 318.93 841.788 322.288 841.788 322.288Z" fill="#D1D7ED"/>
<path d="M826.014 345.21C825.986 345.21 825.957 345.21 825.929 345.21C821.487 345.16 818.041 344.603 815.392 343.51C811.407 341.863 809.411 339.048 809.454 335.155C809.496 331.229 811.482 328.379 815.35 326.682C818.097 325.479 821.731 324.901 826.16 324.943C833.176 325.021 849.3 334.441 849.981 334.842C850.261 335.006 850.428 335.311 850.417 335.634C850.406 335.957 850.222 336.251 849.931 336.397C849.226 336.755 832.552 345.21 826.014 345.21ZM825.66 326.711C821.753 326.711 818.441 327.261 816.059 328.304C812.843 329.717 811.262 331.96 811.226 335.172C811.191 338.317 812.776 340.507 816.069 341.87C818.505 342.878 821.735 343.389 825.95 343.439C825.975 343.439 826 343.439 826.021 343.439C831.052 343.439 843.372 337.639 847.644 335.552C843.507 333.231 831.534 326.778 826.138 326.718C825.979 326.711 825.819 326.711 825.66 326.711Z" fill="#0B1422"/>
<path d="M852.237 337.944C852.237 337.944 865.876 324.485 867.73 317.869C869.585 311.253 870.446 302.305 862.824 300.165C855.201 298.024 851.652 306.767 849.94 312.872C848.231 318.98 852.237 337.944 852.237 337.944Z" fill="#5A5E6B"/>
<path d="M863.956 362.347C863.425 362.364 862.91 362.059 862.687 361.537C846.924 324.755 830.52 311.271 816.381 301.521C815.775 301.102 815.622 300.271 816.041 299.664C816.459 299.057 817.289 298.905 817.895 299.324C832.342 309.287 849.098 323.051 865.141 360.487C865.431 361.165 865.119 361.949 864.442 362.24C864.283 362.307 864.119 362.343 863.956 362.347Z" fill="#0B1422"/>
<path d="M852.294 339.279C852.205 339.283 852.116 339.276 852.028 339.261C851.301 339.141 850.812 338.452 850.932 337.724C853.556 322.022 858.073 311.693 858.264 311.26C858.562 310.586 859.349 310.277 860.023 310.579C860.696 310.877 861.001 311.665 860.703 312.339C860.657 312.442 856.126 322.817 853.563 338.165C853.457 338.803 852.914 339.261 852.294 339.279Z" fill="#0B1422"/>
<path d="M195.822 314.384C195.822 314.384 191.248 292.601 185.806 287.206C180.364 281.811 171.919 276.313 164.74 283.568C157.56 290.823 164.034 299.157 169.058 304.136C174.078 309.12 195.822 314.384 195.822 314.384Z" fill="#D1D7ED"/>
<path d="M178.932 335.882C178.617 335.882 178.316 335.868 178.039 335.843C173.618 335.407 170.232 334.555 167.69 333.234C163.865 331.247 162.117 328.272 162.496 324.393C162.879 320.485 165.102 317.819 169.101 316.463C171.941 315.502 175.614 315.232 180.021 315.668C187.005 316.357 202.25 327.14 202.896 327.598C203.161 327.786 203.3 328.102 203.264 328.425C203.229 328.748 203.016 329.021 202.715 329.145C202.006 329.429 185.963 335.882 178.932 335.882ZM176.188 317.244C173.646 317.244 171.434 317.546 169.672 318.142C166.346 319.267 164.577 321.369 164.262 324.563C163.953 327.69 165.343 330.011 168.505 331.655C170.842 332.869 174.019 333.66 178.213 334.072C183.176 334.562 196.053 329.816 200.509 328.098C196.588 325.426 185.218 317.958 179.847 317.429C178.567 317.308 177.344 317.244 176.188 317.244Z" fill="#0B1422"/>
<path d="M204.877 330.888C204.877 330.888 219.633 318.664 222.051 312.233C224.469 305.805 226.103 296.963 218.693 294.17C211.284 291.376 206.994 299.778 204.76 305.712C202.527 311.647 204.877 330.888 204.877 330.888Z" fill="#5A5E6B"/>
<path d="M214.45 356.216C213.919 356.188 213.433 355.837 213.256 355.301C200.737 317.29 185.563 302.433 172.321 291.49C171.754 291.021 171.672 290.18 172.14 289.609C172.608 289.041 173.448 288.959 174.019 289.428C187.548 300.608 203.048 315.775 215.787 354.463C216.017 355.162 215.638 355.918 214.936 356.149C214.777 356.202 214.61 356.224 214.45 356.216Z" fill="#0B1422"/>
<path d="M204.809 332.223C204.721 332.219 204.632 332.205 204.547 332.184C203.834 331.999 203.405 331.271 203.59 330.558C207.564 315.143 212.956 305.244 213.187 304.829C213.541 304.183 214.353 303.945 214.999 304.303C215.644 304.658 215.878 305.471 215.523 306.117C215.47 306.216 210.056 316.158 206.174 331.225C206.011 331.85 205.43 332.255 204.809 332.223Z" fill="#0B1422"/>
<path d="M171.866 496.683C165.79 496.683 154.101 493.454 137.31 481.066C121.405 469.332 120.565 456.81 119.753 444.699C119.537 441.498 119.317 438.19 118.806 434.988C117.193 424.886 111.815 419.626 106.125 414.054C103.459 411.441 100.7 408.744 98.1795 405.436C91.7375 396.981 90.4789 381.705 89.4685 369.431C89.2026 366.219 88.9544 363.184 88.6353 360.508C88.3482 358.115 87.8802 355.663 87.4228 353.288C85.402 342.757 83.3137 331.868 96.9989 324.208C100.576 322.206 104.43 321.851 108.461 323.15C123.174 327.892 136.416 353.324 141.429 364.036C145.992 373.789 150.197 378.166 155.519 383.706C160.791 389.194 167.353 396.023 176.305 410.444C184.194 423.151 185.502 440.152 185.211 452.178C184.849 467.06 182.01 480.704 179.471 488.509C177.227 495.409 175.887 495.952 175.447 496.133C174.635 496.467 173.437 496.683 171.866 496.683ZM103.809 324.165C101.75 324.165 99.7571 324.698 97.8639 325.759C85.2956 332.794 87.1746 342.587 89.1636 352.955C89.6245 355.358 90.0996 357.842 90.3938 360.298C90.7165 363.006 90.9682 366.055 91.2341 369.285C92.2268 381.328 93.4606 396.321 99.5905 404.36C102.033 407.565 104.742 410.217 107.366 412.783C113.272 418.565 118.852 424.028 120.558 434.704C121.083 437.984 121.306 441.334 121.526 444.575C122.313 456.281 123.125 468.388 138.366 479.632C157.38 493.663 170.562 496.201 174.784 494.49C175.39 494.167 177.071 491.019 178.968 483.966C183.559 466.893 187.849 432.397 174.802 411.381C165.946 397.12 159.458 390.362 154.242 384.935C148.807 379.277 144.51 374.805 139.823 364.785C135.991 356.589 122.362 329.493 107.919 324.836C106.522 324.389 105.15 324.165 103.809 324.165Z" fill="#0B1422"/>
<path d="M184.885 513.54C185.339 513.777 185.899 513.795 186.388 513.54C187.182 513.124 187.491 512.145 187.076 511.35C186.69 510.604 148.194 436.642 142.394 415.175C136.498 393.347 106.784 339.857 105.522 337.589C105.082 336.801 104.097 336.525 103.317 336.961C102.537 337.398 102.253 338.388 102.689 339.169C102.998 339.723 133.474 394.578 139.263 416.024C145.152 437.828 182.609 509.799 184.201 512.851C184.36 513.156 184.601 513.391 184.885 513.54Z" fill="#0B1422"/>
<path d="M119.047 369.342C119.813 369.743 120.767 369.47 121.199 368.714C121.649 367.937 121.383 366.943 120.607 366.496L97.9663 353.416C97.204 352.962 96.1971 353.232 95.7504 354.009C95.3002 354.786 95.5661 355.78 96.3425 356.227L118.983 369.307C119.008 369.321 119.026 369.328 119.047 369.342Z" fill="#0B1422"/>
<path d="M98.19 372.874C98.2112 372.885 98.229 372.895 98.2502 372.902L127.755 386.834C128.563 387.217 129.531 386.869 129.914 386.056C130.297 385.247 129.974 384.239 129.141 383.895L99.6365 369.963C98.8281 369.58 97.8602 369.928 97.4773 370.737C97.1015 371.536 97.4242 372.473 98.19 372.874Z" fill="#0B1422"/>
<path d="M124.877 380.995C125.033 381.077 125.203 381.133 125.384 381.162C126.271 381.297 127.097 380.686 127.231 379.802L131.316 352.99C131.45 352.103 130.84 351.279 129.958 351.141C129.071 351.006 128.245 351.613 128.111 352.5L124.026 379.313C123.92 380.015 124.282 380.683 124.877 380.995Z" fill="#0B1422"/>
<path d="M100.542 398.547C100.584 398.568 100.627 398.589 100.673 398.607L139.495 414.718C140.321 415.062 141.271 414.668 141.615 413.841C141.955 413.014 141.576 412.066 140.739 411.722L101.917 395.611C101.091 395.267 100.141 395.661 99.797 396.488C99.4709 397.269 99.8041 398.16 100.542 398.547Z" fill="#0B1422"/>
<path d="M151.969 437.082C151.98 437.036 151.987 436.986 151.991 436.937L156.571 395.114C156.671 394.223 156.025 393.421 155.135 393.325C154.249 393.226 153.444 393.858 153.349 394.763L148.768 436.585C148.669 437.476 149.314 438.278 150.204 438.374C151.044 438.467 151.806 437.899 151.969 437.082Z" fill="#0B1422"/>
<path d="M150.465 443.368C151.259 443.784 152.237 443.478 152.652 442.683C153.067 441.888 152.762 440.909 151.968 440.493L126.576 427.201C125.782 426.786 124.803 427.091 124.388 427.886C123.974 428.681 124.278 429.661 125.073 430.076L150.465 443.368Z" fill="#0B1422"/>
<path d="M164.496 475.16C165.29 475.575 166.268 475.27 166.683 474.475C167.098 473.68 166.793 472.7 165.999 472.285L140.607 458.993C139.813 458.577 138.834 458.883 138.42 459.678C138.005 460.473 138.31 461.452 139.104 461.868L164.496 475.16Z" fill="#0B1422"/>
<path d="M160.563 464.405C160.332 465.272 160.85 466.159 161.715 466.39C162.58 466.62 163.466 466.102 163.697 465.236L171.039 437.508C171.27 436.642 170.752 435.755 169.887 435.524C169.022 435.293 168.136 435.812 167.905 436.678L160.563 464.405Z" fill="#0B1422"/>
<path d="M137.631 595.278C131.796 595.278 125.247 593.632 119.469 590.636C111.279 586.391 105.397 579.814 102.912 572.112C97.5298 555.444 61.1295 532.919 43.6367 522.097C28.1647 512.524 27.913 497.61 27.64 481.819C27.5549 476.747 27.4627 471.504 26.8493 466.375C25.9346 458.748 20.2621 449.988 14.2527 440.717C9.26788 433.022 4.11291 425.068 1.59215 417.433C-1.31859 408.62 -0.244341 401.453 4.86453 395.522C12.6041 386.543 27.7286 387.178 49.8162 397.414C62.2569 403.182 76.9418 412.07 92.2756 423.126C103.447 431.18 114.743 451.688 123.822 468.168C127.417 474.695 130.814 480.857 133.763 485.478C137.756 491.729 143.432 497.511 149.441 503.63C158.996 513.362 169.827 524.39 176.262 540C180.637 550.609 179.708 562.23 173.645 572.719C166.764 584.616 154.039 593.383 141.226 595.055C140.074 595.204 138.869 595.278 137.631 595.278ZM20.5031 391.011C14.6285 391.011 9.66141 392.676 6.20822 396.68C-4.27897 408.85 5.89623 424.556 15.7382 439.751C21.861 449.203 27.6435 458.127 28.6079 466.166C29.2354 471.384 29.324 476.676 29.4126 481.79C29.675 497.081 29.9196 511.527 44.5655 520.589C63.5935 532.362 99.0117 554.279 104.596 571.569C109.878 587.928 129.477 594.803 141.003 593.298C153.288 591.694 165.502 583.267 172.117 571.831C177.9 561.833 178.793 550.769 174.631 540.682C168.324 525.395 157.624 514.494 148.182 504.879C142.106 498.689 136.366 492.847 132.274 486.44C129.293 481.773 125.882 475.582 122.273 469.03C113.282 452.707 102.089 432.39 91.2439 424.571C75.3712 413.12 41.9172 391.011 20.5031 391.011Z" fill="#0B1422"/>
<path d="M167.995 597.011C158.015 578.806 146.273 557.165 136.668 538.836C115.414 498.27 31.1299 416.024 27.5526 412.542C26.8577 411.868 25.7445 411.882 25.0673 412.577C24.3901 413.273 24.4079 414.388 25.1028 415.066C25.9749 415.914 112.56 500.396 133.556 540.469C143.032 558.56 154.587 579.86 164.482 597.916C165.581 597.383 166.779 597.06 167.995 597.011Z" fill="#0B1422"/>
<path d="M78.0887 469.474C78.039 469.46 77.9929 469.446 77.9433 469.424L31.8464 451.926C30.9388 451.582 30.4815 450.567 30.8254 449.658C31.1693 448.749 32.1797 448.27 33.0909 448.636L75.9543 464.906L65.2225 425.746C64.9637 424.809 65.5168 423.84 66.4528 423.584C67.3887 423.325 68.3566 423.879 68.6119 424.816L80.262 467.316C80.4392 467.955 80.2407 468.637 79.7479 469.084C79.2976 469.496 78.6701 469.641 78.0887 469.474Z" fill="#0B1422"/>
<path d="M102.355 496.946C101.703 496.762 101.189 496.205 101.089 495.488L93.7116 440.901C93.5804 439.936 94.2576 439.052 95.2184 438.921C96.1827 438.79 97.0655 439.468 97.1967 440.429L104.575 495.015C104.706 495.977 104.029 496.865 103.068 496.996C102.82 497.028 102.579 497.01 102.355 496.946Z" fill="#0B1422"/>
<path d="M54.3507 502.185C53.4218 501.922 52.8758 500.957 53.1346 500.024C53.3934 499.087 54.3613 498.536 55.2973 498.792L122.135 517.21C122.138 517.21 122.142 517.213 122.145 517.213C123.074 517.476 123.62 518.441 123.361 519.375C123.102 520.312 122.135 520.862 121.202 520.606L54.3613 502.189C54.3578 502.189 54.3542 502.189 54.3507 502.185Z" fill="#0B1422"/>
<path d="M138.013 547.791L77.366 530.641C76.43 530.378 75.8876 529.405 76.1535 528.468C76.4159 527.531 77.3873 526.988 78.3233 527.255L138.97 544.405C139.903 544.668 140.449 545.64 140.183 546.577C139.92 547.511 138.949 548.054 138.013 547.791Z" fill="#0B1422"/>
<path d="M1014.16 570.447C1010.69 570.447 1007.39 570.017 1004.39 569.016C997.846 566.826 992.645 560.917 988.936 551.447C985.433 542.499 984.267 532.944 983.884 528.042C982.707 512.936 987.078 498.824 995.881 489.322C999.661 485.244 1004.24 482.003 1008.67 478.869C1012.81 475.937 1017.1 472.903 1020.65 469.222C1030.18 459.351 1033.82 446.133 1037.67 432.138C1040.6 421.49 1043.64 410.476 1049.52 401.152C1055.43 391.788 1063.98 384.182 1075.68 377.9C1084.78 373.012 1095.46 369.069 1109.29 365.491C1121.04 362.453 1134.43 360.27 1144.66 367.12C1157.67 375.83 1158.58 395.363 1151.96 408.46C1145.44 421.373 1133.77 430.14 1120.32 439.464C1117.74 441.26 1114.8 443.294 1113.14 446.137C1111.69 448.628 1111.31 452.469 1113.47 454.684C1114.5 455.731 1115.92 456.291 1117.42 456.881C1118.37 457.257 1119.36 457.644 1120.28 458.176C1122.92 459.706 1124.73 462.215 1125.53 465.438C1126.79 470.563 1125.43 477.332 1122.06 482.692C1113.7 495.97 1099.29 503.732 1083.99 511.158C1081.13 512.549 1078.47 514.008 1077.45 516.528C1076.28 519.428 1077.63 522.502 1079.07 525.76C1079.77 527.354 1080.5 529.001 1080.93 530.669C1082.79 537.75 1079.13 544.575 1075.09 548.6C1070.37 553.3 1064.17 555.951 1058.73 558.07C1057.49 558.553 1056.17 559.075 1054.79 559.621C1043.45 564.125 1027.51 570.447 1014.16 570.447ZM985.653 527.907C986.929 544.277 992.673 563.227 1004.95 567.334C1018.83 571.973 1040.09 563.55 1054.15 557.978C1055.53 557.431 1056.84 556.909 1058.09 556.423C1063.36 554.372 1069.37 551.805 1073.84 547.347C1078.48 542.726 1080.59 536.358 1079.22 531.12C1078.82 529.59 1078.13 528.007 1077.45 526.477C1075.93 523.027 1074.36 519.456 1075.82 515.861C1077.07 512.759 1080.04 511.112 1083.23 509.561C1098.28 502.252 1112.45 494.625 1120.56 481.744C1123.64 476.853 1124.95 470.471 1123.81 465.864C1123.12 463.081 1121.64 461.012 1119.39 459.709C1118.59 459.244 1117.71 458.897 1116.77 458.531C1115.17 457.899 1113.5 457.243 1112.21 455.922C1109.4 453.051 1109.79 448.376 1111.61 445.242C1113.47 442.058 1116.58 439.904 1119.32 438.005C1132.57 428.819 1144.05 420.198 1150.39 407.658C1156.66 395.235 1155.88 376.767 1143.68 368.593C1134.03 362.13 1121.11 364.266 1109.74 367.205C1089.32 372.49 1064.18 381.229 1051.02 402.096C1045.28 411.2 1042.28 422.082 1039.38 432.606C1035.64 446.197 1031.77 460.252 1021.93 470.45C1018.26 474.251 1013.91 477.332 1009.69 480.314C1005.34 483.395 1000.83 486.582 997.183 490.525C988.716 499.668 984.515 513.295 985.653 527.907Z" fill="#0B1422"/>
<path d="M1131.87 378.042C1131.2 377.389 1130.13 377.406 1129.49 378.077C1126.18 381.545 1048.12 463.461 1029.04 503.292C1014.72 533.182 995.036 572.094 986.141 589.578C987.335 589.635 988.513 589.816 989.654 590.114C998.787 572.154 1018.01 534.133 1032.07 504.783C1050.91 465.438 1131.1 381.293 1131.91 380.448C1132.55 379.774 1132.54 378.698 1131.87 378.042Z" fill="#0B1422"/>
<path d="M1082.92 434.566C1082.96 434.551 1083.01 434.534 1083.05 434.516L1126.59 416.293C1127.44 415.935 1127.85 414.938 1127.49 414.071C1127.14 413.202 1126.15 412.769 1125.3 413.149L1084.82 430.093L1093.87 391.92C1094.09 391.008 1093.54 390.085 1092.63 389.865C1091.73 389.641 1090.82 390.202 1090.61 391.118L1080.77 432.546C1080.62 433.167 1080.83 433.824 1081.32 434.243C1081.76 434.615 1082.37 434.74 1082.92 434.566Z" fill="#0B1422"/>
<path d="M1060.56 461.814C1061.18 461.616 1061.66 461.065 1061.73 460.37L1067.11 407.374C1067.21 406.437 1066.53 405.599 1065.61 405.503C1064.68 405.404 1063.87 406.082 1063.77 407.019L1058.38 460.015C1058.29 460.952 1058.96 461.79 1059.88 461.885C1060.12 461.91 1060.35 461.882 1060.56 461.814Z" fill="#0B1422"/>
<path d="M1006.04 554.464C1006.66 554.265 1007.14 553.715 1007.2 553.019L1012.59 500.024C1012.68 499.086 1012.01 498.249 1011.09 498.153C1010.16 498.054 1009.34 498.732 1009.25 499.665L1003.86 552.661C1003.76 553.598 1004.44 554.436 1005.36 554.531C1005.6 554.56 1005.83 554.531 1006.04 554.464Z" fill="#0B1422"/>
<path d="M1106.61 465.527C1107.49 465.247 1107.99 464.299 1107.71 463.405C1107.44 462.503 1106.5 461.999 1105.61 462.276L1042.28 481.975C1042.27 481.975 1042.27 481.979 1042.27 481.979C1041.39 482.259 1040.89 483.207 1041.17 484.101C1041.44 485.003 1042.39 485.507 1043.27 485.23L1106.61 465.531C1106.61 465.531 1106.61 465.531 1106.61 465.527Z" fill="#0B1422"/>
<path d="M1028.02 511.992L1085.47 493.695C1086.36 493.415 1086.84 492.46 1086.56 491.562C1086.28 490.664 1085.34 490.167 1084.46 490.447L1027 508.744C1026.12 509.025 1025.63 509.98 1025.91 510.878C1026.19 511.776 1027.13 512.273 1028.02 511.992Z" fill="#0B1422"/>
<path d="M578.476 620C884.395 620 1132.39 611.492 1132.39 600.997C1132.39 590.501 884.395 581.993 578.476 581.993C272.558 581.993 24.5625 590.501 24.5625 600.997C24.5625 611.492 272.558 620 578.476 620Z" fill="#D1D7ED"/>
<path d="M1034.36 380.757C1034.36 380.757 1038.34 357.409 1043.91 351.45C1049.48 345.49 1058.24 339.304 1066.17 346.729C1074.1 354.155 1067.55 363.276 1062.41 368.778C1057.27 374.28 1034.36 380.757 1034.36 380.757Z" fill="#5A5E6B"/>
<path d="M1021.78 400.048C1021.78 400.048 1040.59 388.211 1048.54 387.877C1056.49 387.54 1066.81 388.946 1067.19 398.131C1067.58 407.317 1056.78 409 1049.44 409.308C1042.1 409.621 1021.78 400.048 1021.78 400.048Z" fill="#D1D7ED"/>
<path d="M1021.39 399.853C1021.18 399.853 1020.97 399.775 1020.81 399.629C1020.16 399.054 1004.93 385.499 1002.47 378.248C998.729 367.216 1000.46 359.851 1007.34 357.512C1014.07 355.23 1019.42 359.83 1023.27 371.181C1025.54 377.875 1022.4 398.234 1022.27 399.101C1022.22 399.42 1022 399.69 1021.69 399.8C1021.6 399.835 1021.5 399.853 1021.39 399.853ZM1010.46 358.751C1009.64 358.751 1008.79 358.9 1007.92 359.195C1000.48 361.718 1001.77 370.641 1004.15 377.68C1006.07 383.348 1017.05 393.776 1020.76 397.191C1021.46 392.161 1023.37 376.991 1021.59 371.756C1018.66 363.11 1014.93 358.751 1010.46 358.751Z" fill="#0B1422"/>
<path d="M1006.57 423.896C1006.57 423.896 1026.24 412.343 1034.42 412.251C1042.59 412.159 1053.14 413.926 1053.24 423.368C1053.35 432.809 1042.21 434.193 1034.67 434.278C1027.12 434.364 1006.57 423.896 1006.57 423.896Z" fill="#5A5E6B"/>
<path d="M1006.67 422.004C1006.67 422.004 992.046 408.648 989.869 401.89C987.693 395.132 986.445 385.925 994.234 383.408C1002.02 380.892 1006.03 389.78 1008.04 396.019C1010.06 402.259 1006.67 422.004 1006.67 422.004Z" fill="#FF94BF"/>
<path d="M998.603 442.879C998.975 442.818 999.312 442.573 999.472 442.197C1013.91 408.347 1026.33 392.907 1035.4 381.63C1037 379.643 1038.51 377.765 1039.9 375.958C1049.04 363.997 1054.75 357.186 1060.62 353.161C1061.14 352.802 1061.27 352.089 1060.92 351.567C1060.56 351.045 1059.85 350.91 1059.32 351.269C1053.2 355.468 1047.37 362.41 1038.08 374.563C1036.72 376.349 1035.21 378.216 1033.62 380.189C1024.46 391.569 1011.93 407.15 997.366 441.292C997.118 441.874 997.387 442.548 997.968 442.797C998.174 442.889 998.394 442.91 998.603 442.879Z" fill="#0B1422"/>
<path d="M1019.93 402.029C1020.51 401.933 1020.93 401.411 1020.88 400.818C1019.65 383.387 1011.88 369.495 1011.55 368.909C1011.24 368.359 1010.54 368.164 1009.99 368.476C1009.44 368.789 1009.24 369.488 1009.56 370.038C1009.63 370.176 1017.4 384.083 1018.6 400.978C1018.64 401.61 1019.19 402.085 1019.82 402.039C1019.86 402.039 1019.89 402.036 1019.93 402.029Z" fill="#0B1422"/>
<path d="M1057.26 398.731C1057.73 398.653 1058.12 398.288 1058.21 397.791C1058.31 397.166 1057.89 396.577 1057.27 396.47C1056.23 396.296 1031.75 392.268 1020.05 399.597C1019.52 399.931 1019.35 400.641 1019.69 401.177C1020.03 401.713 1020.73 401.876 1021.27 401.539C1032.23 394.667 1056.64 398.685 1056.89 398.728C1057.02 398.753 1057.14 398.753 1057.26 398.731Z" fill="#0B1422"/>
<path d="M1039.84 423.112C1040.34 423.03 1040.74 422.626 1040.79 422.104C1040.86 421.476 1040.41 420.908 1039.78 420.84C1038.74 420.73 1014.35 418.178 1005.98 423.247C1005.44 423.577 1005.27 424.28 1005.59 424.819C1005.92 425.359 1006.63 425.533 1007.16 425.206C1014.87 420.532 1039.28 423.094 1039.53 423.119C1039.64 423.133 1039.74 423.13 1039.84 423.112Z" fill="#0B1422"/>
<path d="M590.775 25.3L569.531 31.7564L586.074 55.2214L571.85 59.6794L613.962 95.94L598.71 68.5245L610.211 64.9219L590.775 25.3Z" fill="#717687"/>
<path d="M576.716 98.9073C576.957 99.0244 577.227 99.0847 577.514 99.0776L594.727 98.6588C595.688 98.6339 596.453 97.8353 596.429 96.8699C596.404 95.9045 595.599 95.1449 594.642 95.1662L577.429 95.585C576.468 95.6099 575.702 96.4085 575.727 97.3739C575.745 98.0519 576.145 98.6304 576.716 98.9073Z" fill="#EBF0FA"/>
<path d="M562.698 80.0635C562.784 80.1061 562.876 80.1416 562.971 80.1664L587.966 87.4072C588.892 87.6769 589.86 87.141 590.129 86.2146C590.398 85.2882 589.867 84.3228 588.938 84.0495L563.943 76.8087C563.018 76.539 562.05 77.0749 561.78 78.0013C561.539 78.8354 561.947 79.7015 562.698 80.0635Z" fill="#EBF0FA"/>
<path d="M616.833 75.3677C616.975 75.4352 617.131 75.4849 617.291 75.5133C618.241 75.6765 619.145 75.0412 619.308 74.09L624.53 43.9734C624.697 43.0222 624.052 42.1171 623.109 41.9538C622.159 41.7905 621.254 42.4259 621.091 43.3771L615.869 73.4937C615.734 74.2816 616.149 75.0376 616.833 75.3677Z" fill="#EBF0FA"/>
<path d="M273.34 534.303H106.141V458.73L273.34 259.762H353.334V463.018H394.797V534.303H353.334V596.116H273.34V534.303ZM273.34 463.018V358.939L184.997 463.018H273.34Z" fill="url(#paint0_linear_383_10248)"/>
<path d="M447.93 429.405C447.93 366.542 459.232 322.554 481.841 297.435C504.45 272.32 538.886 259.762 585.157 259.762C607.386 259.762 625.638 262.509 639.911 267.996C654.181 273.487 665.824 280.629 674.837 289.428C683.849 298.227 690.947 307.476 696.13 317.177C701.314 326.877 705.483 338.196 708.635 351.127C714.793 375.795 717.874 401.51 717.874 428.28C717.874 488.286 707.734 532.202 687.455 560.026C667.175 587.849 632.246 601.76 582.675 601.76C554.883 601.76 532.426 597.323 515.299 588.449C498.175 579.576 484.124 566.567 473.162 549.424C465.199 537.242 459.002 520.589 454.57 499.456C450.146 478.322 447.93 454.975 447.93 429.405ZM538.968 429.632C538.968 471.742 542.687 500.506 550.121 515.921C557.556 531.34 568.334 539.045 582.455 539.045C591.769 539.045 599.842 535.773 606.677 529.231C613.513 522.69 618.543 512.35 621.773 498.213C625.003 484.08 626.616 462.045 626.616 432.117C626.616 388.204 622.897 358.687 615.462 343.574C608.028 328.46 596.874 320.9 582.001 320.9C566.827 320.9 555.861 328.609 549.104 344.024C542.346 359.436 538.968 387.973 538.968 429.632Z" fill="url(#paint1_linear_383_10248)"/>
<path d="M929.657 534.303H762.461V458.73L929.657 259.762H1009.65V463.018H1051.11V534.303H1009.65V596.116H929.657V534.303ZM929.657 463.018V358.939L841.313 463.018H929.657Z" fill="url(#paint2_linear_383_10248)"/>
<path d="M431.369 53.1378C431.369 33.4068 416.241 19.3122 397.582 19.3122C391.98 19.3122 386.704 20.6858 382.053 23.0994C375.994 14.02 365.666 8.03577 353.942 8.03577C337.945 8.03577 324.551 19.1702 321.055 34.1202C316.609 31.0145 311.209 29.1759 305.374 29.1759C290.214 29.1759 277.922 39.0432 277.922 58.7743C277.922 78.5053 288.544 85.4976 301.527 85.4976C301.527 85.4976 404.314 86.4488 407.431 85.4976C419.556 84.9439 431.369 72.8689 431.369 53.1378Z" fill="#EBF0FA"/>
<path d="M1041.16 31.1175C1041.16 17.5056 1030.72 7.78026 1017.85 7.78026C1013.99 7.78026 1010.34 8.72795 1007.14 10.3926C1002.96 4.12794 995.83 0 987.739 0C976.702 0 967.463 7.68442 965.049 17.9954C961.982 15.8516 958.256 14.5844 954.228 14.5844C943.77 14.5844 935.289 21.3922 935.289 35.0041C935.289 48.616 942.617 53.4431 951.576 53.4431C951.576 53.4431 1022.49 54.0998 1024.65 53.4431C1033.01 53.0633 1041.16 44.7329 1041.16 31.1175Z" fill="#EBF0FA"/>
<path d="M150.891 110.308C150.891 97.0687 161.704 75.9498 185.671 75.9498C209.637 75.9498 222.571 87.5173 224.918 97.5478C227.903 95.4644 231.526 94.2327 235.441 94.2327C245.616 94.2327 253.862 100.852 253.862 114.095C253.862 127.334 246.733 132.027 238.022 132.027C238.022 132.027 169.043 132.662 166.951 132.027C158.818 131.654 150.891 123.551 150.891 110.308Z" fill="#EBF0FA"/>
<path d="M696.829 497.134C696.829 497.134 700.371 491.793 702.977 493.464C705.582 495.136 703.14 499.736 701.19 501.624C699.24 503.513 696.414 502.927 696.414 502.927L696.829 497.134Z" fill="#FFBFA3"/>
<path d="M700.156 498.118C700.156 498.118 702.003 492.605 701.446 487.473C700.89 482.337 698.163 477.623 698.163 477.623L692.359 480.598L700.156 498.118Z" fill="#0B1422"/>
<path d="M653.398 535.326C652.876 528.163 661.513 522.112 667.866 522.112C674.219 522.112 684.221 522.112 684.221 522.112C684.221 522.112 689.901 522.112 697.14 522.112C704.38 522.112 714.296 528.167 713.775 535.326L707.11 574.476H660.063L653.398 535.326Z" fill="#A0A7BF"/>
<path d="M655.493 528.745C655.493 528.745 637.295 558.972 644.155 567.7C651.012 576.428 663.587 576.485 663.587 576.485L671.589 563.568L662.446 551.568L669.302 540.657L655.493 528.745Z" fill="url(#paint3_linear_383_10248)"/>
<path d="M710.93 528.298C712.735 530.03 731.022 557.935 723.02 566.663C715.018 575.391 703.588 577.514 703.588 577.514L695.586 563.565L704.729 551.564L697.869 540.654C697.873 540.657 709.126 526.57 710.93 528.298Z" fill="url(#paint4_linear_383_10248)"/>
<path d="M687.587 572.293L710.447 574.476C710.447 574.476 737.881 558.113 743.596 571.203C749.312 584.293 717.308 599.566 709.306 601.749C701.304 603.932 665.871 606.111 654.441 601.749C643.011 597.387 617.864 585.386 624.72 572.293C631.577 559.203 660.156 574.476 660.156 574.476L687.587 572.293Z" fill="#0B1422"/>
<path d="M708.997 545.818H658.171C656.118 545.818 654.438 547.5 654.438 549.555V576.186C654.438 578.241 656.118 579.924 658.171 579.924H708.997C711.05 579.924 712.73 578.241 712.73 576.186V549.555C712.73 547.5 711.05 545.818 708.997 545.818Z" fill="#CACCE8"/>
<path d="M712.447 579.235H654.729C653.981 579.235 653.367 579.849 653.367 580.598V582.238C653.367 582.987 653.981 583.601 654.729 583.601H712.444C713.192 583.601 713.805 582.987 713.805 582.238V580.598C713.805 579.849 713.192 579.235 712.447 579.235Z" fill="#9DA1CC"/>
<path d="M686.844 563.82C686.844 565.538 685.384 566.929 683.586 566.929C681.785 566.929 680.328 565.538 680.328 563.82C680.328 562.102 681.785 560.711 683.586 560.711C685.384 560.711 686.844 562.102 686.844 563.82Z" fill="white"/>
<path d="M716.384 573.28C706.362 577.695 673.766 592.059 673.766 592.059L675.336 602.019C675.336 602.019 694.279 601.742 707.73 597.809C721.181 593.877 732.746 588.691 738.777 582.565C744.804 576.435 726.404 568.861 716.384 573.28Z" fill="url(#paint5_linear_383_10248)"/>
<path d="M695.465 594.995C695.465 594.995 704.406 592.091 712.557 593.628C720.708 595.165 723.247 598.246 722.367 601.6C721.488 604.954 713.685 607.765 707.902 607.134C702.12 606.502 691.398 603.503 691.398 603.503L695.465 594.995Z" fill="#0B1422"/>
<path d="M672.461 594.217C672.461 594.217 663.498 591.378 655.362 592.975C647.225 594.572 644.708 597.671 645.612 601.018C646.516 604.365 654.337 607.119 660.116 606.448C665.895 605.774 675.336 602.019 675.336 602.019L672.461 594.217Z" fill="#0B1422"/>
<path d="M673.579 594.483C673.579 594.483 661.833 594.2 663.9 599.818C665.971 605.437 676.245 601.6 676.245 601.6L673.579 594.483Z" fill="#FFBFA3"/>
<path d="M694.341 595.264C694.341 595.264 706.484 594.86 704.456 600.496C702.428 606.129 691.516 602.97 691.516 602.97L694.341 595.264Z" fill="#FFBFA3"/>
<path d="M652.769 576.52C663.104 580.556 695.523 594.988 695.523 594.988L694.211 603.733C694.211 603.733 676.286 603.889 659.977 600.035C643.672 596.18 634.574 591.112 628.501 585.028C622.425 578.948 642.435 572.484 652.769 576.52Z" fill="url(#paint6_linear_383_10248)"/>
<path d="M677.086 511.588V520.181L670.758 521.899C670.758 521.899 673.076 527.698 682.862 527.698C692.647 527.698 695.866 522.112 695.866 522.112L689.644 519.641L689.538 510.189L677.086 511.588Z" fill="#FFBFA3"/>
<path d="M670.048 496.953C670.339 507.847 677.614 516.493 686.296 516.259C694.979 516.028 700.588 504.773 700.297 493.88C700.006 482.987 693.926 476.573 685.243 476.807C676.561 477.041 669.757 486.06 670.048 496.953Z" fill="#FFD1BD"/>
<path d="M671.961 495.282C671.961 495.282 668.958 489.617 666.204 491.026C663.445 492.435 665.427 497.252 667.182 499.324C668.941 501.397 671.805 501.088 671.805 501.088L671.961 495.282Z" fill="#FFD1BD"/>
<path d="M672.879 499.331C672.879 499.331 673.07 492.148 674.166 489.113C675.261 486.078 678.321 481.751 678.321 481.751C678.321 481.751 686.461 483.398 690.247 483.168C694.034 482.937 698.43 481.709 699.958 479.547C701.486 477.382 703.745 470.386 703.745 470.386L695.704 470.72L697.264 467.178L688.769 468.86L688.237 466.553L684.5 467.873L683.387 465.428C683.387 465.428 668.61 472.498 667.309 479.906C666.008 487.313 666.206 491.029 666.206 491.029C666.206 491.029 667.89 490.88 670.29 492.829C672.691 494.781 670.677 501.848 670.677 501.848C670.677 501.848 672.003 510.42 676.307 513.777C680.611 517.135 686.479 518.228 691.3 517.38C696.126 516.528 699.175 503.041 699.175 503.041L695.388 507.303C695.388 507.303 693.452 512.5 691.517 513.352C689.581 514.203 687.542 511.992 687.542 511.992C687.542 511.992 684.539 513.266 682.876 512.954C681.604 512.716 677.587 511.272 675.105 505.88C674.322 501.823 673.042 501.624 672.879 499.331Z" fill="#0B1422"/>
<path d="M993.007 166.715C993.007 166.715 1003.93 158.998 1003.56 150.338C1003.19 141.677 997.857 131.246 987.646 131.26C977.435 131.271 971.352 137.539 971.352 137.539L993.007 166.715Z" fill="#0B1422"/>
<path d="M963.256 196.75L954.687 224.58L943.221 229.631C943.221 229.631 939.952 228.094 934.389 227.271C927.38 226.234 919.747 232.804 920.754 235.172C921.757 237.539 941.09 237.028 941.09 237.028C941.09 237.028 955.789 236.34 960.565 234.803C965.341 233.266 973.279 202.617 973.279 202.617L963.256 196.75Z" fill="#FFBFA3"/>
<path d="M953.758 300.019C953.758 300.019 957.81 313.457 957.098 316.737C956.385 320.016 955.584 323.793 955.584 323.793C955.584 323.793 962.735 325.387 967.751 320.059C972.768 314.731 969.425 312.566 969.425 312.566L961.097 295.983L953.758 300.019Z" fill="#FFD1BD"/>
<path d="M969.44 312.158C969.44 312.158 971.532 312.598 973.648 315.519C975.765 318.44 976.662 320.265 974.794 321.933C972.925 323.601 969.94 323.985 968.554 325.553C967.167 327.122 963.92 330.622 959.421 333.351C954.922 336.081 947.235 338.622 946.267 336.439C945.3 334.26 955.581 323.789 955.581 323.789C955.581 323.789 963.516 323.537 966.501 319.69C969.49 315.842 969.44 312.158 969.44 312.158Z" fill="#0B1422"/>
<path d="M922.795 300.065C922.795 300.065 923.206 314.096 921.66 317.074C920.118 320.052 918.359 323.488 918.359 323.488C918.359 323.488 924.847 326.895 931.08 323.062C937.313 319.229 934.647 316.265 934.647 316.265L930.928 298.078L922.795 300.065Z" fill="#FFD1BD"/>
<path d="M934.766 315.878C934.766 315.878 936.67 316.85 937.954 320.222C939.237 323.594 939.627 325.593 937.387 326.714C935.149 327.839 932.168 327.428 930.42 328.578C928.672 329.728 924.623 332.262 919.571 333.717C914.519 335.176 906.435 335.62 906.07 333.263C905.705 330.906 918.358 323.484 918.358 323.484C918.358 323.484 926.084 325.312 929.97 322.38C933.855 319.449 934.766 315.878 934.766 315.878Z" fill="#0B1422"/>
<path d="M925.83 246.267C918.367 251.3 921.278 305.251 921.278 305.251H933.339C933.339 305.251 939.359 266.25 938.037 260.919C938.037 260.919 978.603 257.174 982.067 255.613C985.53 254.047 987.803 247.155 985.658 240.478C983.513 233.802 962.145 239.002 962.145 239.002C962.145 239.002 933.293 241.234 925.83 246.267Z" fill="url(#paint7_linear_383_10248)"/>
<path d="M944.516 247.868C937.376 253.384 950.675 297.162 953.759 306.358L966.696 304.044C966.696 304.044 963.753 264.454 962.112 259.222C962.112 259.222 998.774 260.742 1002.14 258.953C1005.5 257.164 1008.24 245.774 1005.69 239.25C1003.14 232.73 974.375 239.928 974.375 239.928C974.375 239.928 951.657 242.352 944.516 247.868Z" fill="url(#paint8_linear_383_10248)"/>
<path d="M980.205 181.423C980.205 181.423 972.515 186.737 969.785 191.479C967.055 196.221 966.988 202.51 967.239 204.647C967.491 206.784 968.998 210.834 968.998 210.834C968.998 210.834 971.132 215.611 970.001 222.27C968.87 228.932 966.367 233.841 966.367 237.358C966.367 240.876 976.78 243.609 985.945 242.853C995.109 242.1 1005.69 241.135 1005.69 238.327C1005.69 235.52 1001.38 228.676 1001.26 223.274C1001.14 217.869 1003.52 203.415 1003.52 203.415L1001.38 183.933L995.358 179.535L980.205 181.423Z" fill="url(#paint9_linear_383_10248)"/>
<path d="M978.538 179.539C978.538 179.539 974.018 180.291 970.629 182.68C967.239 185.069 961.031 198.823 961.031 198.823L967.867 203.419C967.867 203.419 966.736 197.261 969.749 193.239C972.763 189.218 978.088 184.483 978.088 184.483L978.538 179.539Z" fill="url(#paint10_linear_383_10248)"/>
<path d="M994.996 203.462L988.107 222.135L960.588 231.587C960.588 231.587 957.319 230.05 951.757 229.227C944.747 228.19 937.114 234.76 938.121 237.127C939.125 239.495 958.457 238.984 958.457 238.984C958.457 238.984 986.359 235.09 991.135 233.553C995.911 232.016 1004.66 209.119 1004.66 209.119L994.996 203.462Z" fill="#FFD1BD"/>
<path d="M998.796 178.701C998.796 178.701 1003.4 178.658 1008.17 182.431C1012.94 186.201 1011.44 194.624 1009.68 198.645C1007.92 202.667 1005.1 209.957 1005.1 209.957L992.914 204.303C992.914 204.303 999.757 193.495 999.82 191.042C999.884 188.59 995.74 181.342 995.74 181.342L998.796 178.701Z" fill="url(#paint11_linear_383_10248)"/>
<path d="M993.271 162.108C993.271 162.108 992.239 173.21 994.079 175.095C995.919 176.98 997.33 178.193 998.795 178.698C1000.26 179.202 992.938 185.402 983.227 185.569C973.52 185.736 978.54 179.535 978.54 179.535C978.54 179.535 982.972 177.757 983.227 175.347C983.482 172.937 983.227 167.975 983.227 167.975L993.271 162.108Z" fill="#FFBFA3"/>
<path d="M969.83 141.163C969.83 141.163 967.153 155.24 969.16 161.607C971.17 167.975 975.187 173.842 980.041 173.842C984.894 173.842 990.415 168.216 992.758 165.032C995.102 161.849 993.602 141.166 993.602 141.166H969.83V141.163Z" fill="#FFD1BD"/>
<path d="M992.281 155.889C992.281 155.889 995.16 150.459 997.805 151.807C1000.45 153.16 998.55 157.777 996.865 159.762C995.181 161.749 992.434 161.455 992.434 161.455L992.281 155.889Z" fill="#FFD1BD"/>
<path d="M984.914 242.981H916.517L915.836 239.026H984.662L984.914 242.981Z" fill="#9DA1CC"/>
<path d="M953.992 239.179H915.834L910.016 209.709C909.434 206.802 911.632 204.079 914.596 204.04L943.984 203.639C946.324 203.607 948.334 205.29 948.72 207.597L953.992 239.179Z" fill="#CACCE8"/>
<path d="M927.167 224.155C927.475 225.826 928.939 226.955 930.439 226.678C931.939 226.401 932.903 224.822 932.595 223.15C932.286 221.478 930.822 220.35 929.322 220.626C927.823 220.907 926.858 222.486 927.167 224.155Z" fill="white"/>
<path d="M975.287 142.845C975.287 142.845 981.077 150.537 985.813 152.744C990.55 154.949 993.563 154.562 993.563 154.562L997.899 145.418L992.911 135.2C992.911 135.2 981.07 130.028 976.251 131.998C971.433 133.968 968.04 137.415 966.363 141.972C964.686 146.529 968.413 155.133 968.413 155.133C969.412 155.147 975.397 147.807 975.287 142.845Z" fill="#0B1422"/>
<path d="M998.977 140.247C998.977 140.247 1002.57 133.414 1010.63 133.166C1018.68 132.921 1023.85 141.393 1022.74 149.131C1021.64 156.869 1015.12 163.826 1013.82 169.43C1012.53 175.031 1015.67 177.494 1015.67 177.494C1015.67 177.494 1005.35 175.876 1005.68 167.421C1006.01 158.963 1006.44 152.801 1005.4 151.541C1004.35 150.281 1000.05 148.68 1000.05 148.68L998.977 140.247Z" fill="#0B1422"/>
<path d="M362.472 575.114C362.472 575.114 358.661 583.253 358.888 586.561C359.118 589.869 359.359 593.678 359.359 593.678C359.359 593.678 352.137 594.214 347.993 588.279C343.848 582.345 347.429 580.712 347.429 580.712L355.874 570.11L362.472 575.114Z" fill="#FFD1BD"/>
<path d="M347.471 580.311C347.471 580.311 343.762 580.598 341.273 583.15C338.785 585.702 337.788 587.328 339.377 589.227C340.965 591.129 345.507 593.202 346.638 594.934C347.769 596.666 350.226 599.158 354.235 602.473C358.245 605.788 369.356 605.149 370.615 603.155C371.203 602.221 366.421 599.861 363.631 597.199C360.457 594.171 359.178 590.874 359.178 590.874C359.178 590.874 353.477 589.642 350.757 586.448C348.034 583.253 347.471 580.311 347.471 580.311Z" fill="#0B1422"/>
<path d="M388.959 580.354C388.959 580.354 390.537 589.248 392.841 591.633C395.146 594.015 397.78 596.773 397.78 596.773C397.78 596.773 392.6 601.838 385.612 599.975C378.624 598.111 380.312 594.551 380.312 594.551L380.691 580.783L388.959 580.354Z" fill="#FFD1BD"/>
<path d="M380.099 594.217C380.099 594.217 377.451 596.83 377.189 600.386C376.926 603.943 377.21 605.827 379.649 606.257C382.088 606.686 386.896 605.345 388.878 605.941C390.86 606.537 394.341 606.857 399.539 606.807C404.736 606.754 412.518 604.887 412.196 602.551C411.873 600.216 395.852 594.75 395.852 594.75C395.852 594.75 390.7 597.486 386.563 596.794C382.422 596.102 380.099 594.217 380.099 594.217Z" fill="#0B1422"/>
<path d="M388.283 471.937C388.283 471.937 399.972 493.653 402.291 518.903C404.17 539.362 361.533 579.338 361.533 579.338L351.844 573.368L374.648 523.148L371.687 496.183L372.971 470.422L388.283 471.937Z" fill="url(#paint12_linear_383_10248)"/>
<path d="M355.179 470.613C355.179 470.613 352.832 479.008 353.254 492.407C353.676 505.802 379.5 588.581 379.5 588.581L391.895 588.396C391.895 588.396 389.87 545.679 388.452 525.483C387.782 515.95 385.088 497.809 385.698 492.598C386.311 487.388 388.286 471.937 388.286 471.937L355.179 470.613Z" fill="url(#paint13_linear_383_10248)"/>
<path d="M371.281 403.221C362.492 404.857 378.932 437.256 385.041 444.351C391.153 451.447 415.385 439.244 415.385 439.244L412.978 430.992L395.666 431.364C395.666 431.364 389.852 420.372 386.679 412.939C383.509 405.511 377.344 402.092 371.281 403.221Z" fill="url(#paint14_linear_383_10248)"/>
<path d="M371.15 400.804C384.225 404.613 386.753 410.536 389.32 420.73C391.886 430.924 392.684 463.756 391.025 472.047C389.366 480.342 358.06 478.181 355.086 476.569C352.111 474.958 353.855 463.983 353.164 450.872C352.476 437.757 349.459 428.564 352.09 416.759C354.724 404.95 360.723 397.766 371.15 400.804Z" fill="url(#paint15_linear_383_10248)"/>
<path d="M421.529 434.868C422.954 435.347 424.51 434.57 424.989 433.143L435.522 401.66C436.001 400.233 435.224 398.675 433.799 398.195C432.374 397.716 430.817 398.494 430.339 399.92L419.805 431.403C419.327 432.834 420.103 434.392 421.529 434.868Z" fill="#9DA1CC"/>
<path d="M428.602 422.434C426.886 421.284 421.408 423.208 416.324 427.123C411.24 431.034 411.375 434.268 411.375 434.268L405.156 436.642L408.269 444.813L416.243 441.768C416.243 441.768 420.593 441.682 425.173 438.36C429.754 435.038 426.627 427.79 426.627 427.79C426.627 427.79 430.318 423.588 428.602 422.434Z" fill="#FFD1BD"/>
<path d="M356.549 409C347.76 410.636 360.896 449.842 367.008 456.941C373.12 464.036 410.396 444.692 410.396 444.692L405.727 435.975L374.939 444.078C374.939 444.078 373.471 427.804 370.298 420.372C367.129 412.932 362.612 407.871 356.549 409Z" fill="url(#paint16_linear_383_10248)"/>
<path d="M377.67 391.625L375.011 400.946L378.957 404.222C378.957 404.222 381.23 408.432 371.654 407.814C362.078 407.196 361.266 401.386 361.266 401.386L364.074 399.53L365.761 388.239L377.67 391.625Z" fill="#FFBFA3"/>
<path d="M363.27 378.184C361.667 390.145 370.038 398.831 377.455 400.737C384.871 402.643 390.977 391.356 392.299 380.615C392.877 375.919 393.37 370.932 391.757 367.809C389.679 363.788 385.981 361.246 381.163 360.653C372.604 359.592 364.705 367.458 363.27 378.184Z" fill="#FFD1BD"/>
<path d="M365.779 376.441C365.779 376.441 363.666 370.436 360.752 371.412C357.838 372.388 359.072 377.41 360.49 379.703C361.908 381.996 364.769 382.12 364.769 382.12L365.779 376.441Z" fill="#FFD1BD"/>
<path d="M365.317 377.091C365.874 377.087 366.423 377.126 366.966 377.204C367.409 375.011 368.054 372.359 368.809 370.858C370.259 367.976 373.808 364.043 373.808 364.043C373.808 364.043 381.697 366.648 385.483 366.868C389.27 367.088 393.779 366.396 395.555 364.43C397.332 362.464 400.402 355.784 400.402 355.784L392.379 355.155L394.346 351.823L385.714 352.483L385.462 350.129L381.594 350.996L380.778 348.436C380.778 348.436 365.267 353.697 363.094 360.898C360.924 368.1 360.68 371.426 360.68 371.426C360.68 371.426 362.371 371.866 364.519 374.088C365.179 374.766 365.37 375.877 365.317 377.091Z" fill="#0B1422"/>
<path d="M238.438 545.711C238.296 545.711 238.151 545.676 238.02 545.608C237.236 545.189 218.8 535.294 215.237 529.306C212.794 525.199 211.447 521.682 211.118 518.548C210.628 513.901 212.429 510.324 216.467 507.914C220.541 505.486 224.586 505.475 228.493 507.889C231.308 509.628 233.971 512.585 236.407 516.674C240.268 523.158 239.363 543.979 239.324 544.863C239.31 545.168 239.14 545.441 238.878 545.594C238.743 545.672 238.591 545.711 238.438 545.711ZM222.562 507.857C220.86 507.857 219.141 508.382 217.379 509.436C213.94 511.488 212.468 514.409 212.883 518.36C213.184 521.231 214.454 524.514 216.762 528.394C219.57 533.107 233.343 540.994 237.601 543.351C237.736 538.499 237.924 522.686 234.886 517.579C232.631 513.791 230.099 510.963 227.564 509.397C225.902 508.372 224.242 507.857 222.562 507.857Z" fill="#0B1422"/>
<path d="M241.203 559.366C241.203 559.366 229.337 545.282 223.147 543.014C216.953 540.746 208.455 539.251 205.842 546.403C203.225 553.555 211.33 557.609 217.045 559.703C222.76 561.797 241.203 559.366 241.203 559.366Z" fill="#5A5E6B"/>
<path d="M242.914 562.358C242.914 562.358 259.577 554.535 263.371 549.136C267.164 543.738 270.809 535.908 264.587 531.524C258.365 527.141 252.355 533.924 248.853 538.907C245.35 543.894 242.914 562.358 242.914 562.358Z" fill="#D1D7ED"/>
<path d="M245.723 588.222C245.234 588.066 244.865 587.626 244.83 587.083C242.312 548.707 231.761 531.233 222.072 517.87C221.657 517.295 221.785 516.493 222.356 516.077C222.93 515.662 223.731 515.79 224.146 516.361C234.048 530.016 244.826 547.858 247.386 586.916C247.432 587.622 246.897 588.233 246.191 588.279C246.031 588.286 245.872 588.268 245.723 588.222Z" fill="#0B1422"/>
<path d="M242.528 563.582C242.447 563.557 242.369 563.522 242.294 563.479C241.674 563.135 241.45 562.354 241.794 561.737C249.193 548.352 256.589 540.44 256.901 540.11C257.387 539.595 258.199 539.567 258.713 540.057C259.227 540.543 259.252 541.356 258.766 541.871C258.691 541.949 251.271 549.899 244.038 562.979C243.734 563.522 243.095 563.763 242.528 563.582Z" fill="#0B1422"/>
<path d="M753.173 336.617H703.282C695.447 336.617 689.094 342.977 689.094 350.822V396.35C689.094 403.995 695.128 410.228 702.69 410.54L702.928 430.807L723.158 410.554H753.176C761.012 410.554 767.365 404.194 767.365 396.35V350.822C767.361 342.974 761.008 336.617 753.173 336.617Z" fill="url(#paint17_linear_383_10248)"/>
<path d="M716.53 358.18L711.383 363.333L735.512 387.49L740.659 382.337L716.53 358.18Z" fill="white"/>
<path d="M711.4 382.362L716.547 387.515L740.676 363.358L735.529 358.205L711.4 382.362Z" fill="white"/>
<path d="M324.567 200.523H374.458C382.293 200.523 388.646 206.883 388.646 214.727V260.255C388.646 267.901 382.612 274.133 375.05 274.446L374.812 294.713L354.582 274.46H324.564C316.728 274.46 310.375 268.099 310.375 260.255V214.724C310.379 206.88 316.732 200.523 324.567 200.523Z" fill="url(#paint18_linear_383_10248)"/>
<path d="M332.33 245.896L337.477 251.049L361.606 226.892L356.459 221.74L332.33 245.896Z" fill="white"/>
<path d="M337.459 221.738L332.312 226.891L356.442 251.047L361.588 245.894L337.459 221.738Z" fill="white"/>
<path d="M832.286 80.855H882.176C890.012 80.855 896.365 87.2156 896.365 95.0597V140.588C896.365 148.233 890.331 154.466 882.768 154.778L882.531 175.045L862.301 154.792H832.282C824.447 154.792 818.094 148.432 818.094 140.588V95.0597C818.097 87.212 824.447 80.855 832.286 80.855Z" fill="url(#paint19_linear_383_10248)"/>
<path d="M839.689 126.228L844.836 131.38L868.965 107.224L863.818 102.071L839.689 126.228Z" fill="white"/>
<path d="M844.811 102.079L839.664 107.232L863.793 131.388L868.94 126.236L844.811 102.079Z" fill="white"/>
<path d="M370.105 291.646C369.874 291.646 369.647 291.557 369.477 291.387L349.506 271.39H319.856C311.546 271.39 304.781 264.621 304.781 256.298V210.77C304.781 202.45 311.542 195.678 319.856 195.678H369.747C378.057 195.678 384.821 202.446 384.821 210.77V256.298C384.821 264.135 378.911 270.577 371.218 271.315L370.991 290.766C370.987 291.124 370.768 291.444 370.438 291.579C370.332 291.625 370.218 291.646 370.105 291.646ZM319.856 197.452C312.521 197.452 306.554 203.426 306.554 210.77V256.298C306.554 263.641 312.521 269.615 319.856 269.615H349.875C350.109 269.615 350.336 269.707 350.502 269.874L369.243 288.636L369.456 270.474C369.463 270.002 369.835 269.619 370.307 269.597C377.454 269.303 383.052 263.46 383.052 256.294V210.77C383.052 203.426 377.085 197.452 369.75 197.452H319.856Z" fill="#0B1422"/>
<path d="M877.777 171.904C877.546 171.904 877.319 171.815 877.149 171.645L857.178 151.651H827.528C819.218 151.651 812.453 144.883 812.453 136.559V91.0312C812.453 82.7114 819.214 75.9392 827.528 75.9392H877.418C885.729 75.9392 892.493 82.7079 892.493 91.0312V136.559C892.493 144.396 886.583 150.838 878.89 151.577L878.663 171.027C878.659 171.386 878.439 171.705 878.11 171.84C878.003 171.883 877.89 171.904 877.777 171.904ZM827.528 77.7139C820.193 77.7139 814.226 83.6875 814.226 91.0312V136.559C814.226 143.903 820.193 149.877 827.528 149.877H857.547C857.781 149.877 858.008 149.969 858.174 150.136L876.915 168.898L877.128 150.735C877.135 150.263 877.507 149.88 877.979 149.859C885.126 149.564 890.724 143.722 890.724 136.556V91.0312C890.724 83.6875 884.757 77.7139 877.422 77.7139H827.528Z" fill="#0B1422"/>
<path d="M699.009 427.666C698.896 427.666 698.783 427.644 698.676 427.602C698.346 427.467 698.13 427.147 698.123 426.789L697.896 407.338C690.203 406.6 684.289 400.158 684.289 392.321V346.793C684.289 338.473 691.05 331.701 699.364 331.701H749.254C757.565 331.701 764.329 338.47 764.329 346.793V392.321C764.329 400.641 757.568 407.413 749.254 407.413H719.604L699.633 427.407C699.467 427.577 699.24 427.666 699.009 427.666ZM699.368 333.476C692.032 333.476 686.065 339.449 686.065 346.793V392.321C686.065 399.487 691.663 405.329 698.811 405.624C699.282 405.642 699.655 406.029 699.662 406.501L699.874 424.663L718.615 405.901C718.782 405.734 719.005 405.642 719.243 405.642H749.261C756.597 405.642 762.564 399.668 762.564 392.324V346.796C762.564 339.453 756.597 333.479 749.261 333.479H699.368V333.476Z" fill="#0B1422"/>
<defs>
<linearGradient id="paint0_linear_383_10248" x1="221.09" y1="297.312" x2="261.205" y2="571.636" gradientUnits="userSpaceOnUse">
<stop stop-color="#9DC2FF"/>
<stop offset="1" stop-color="#0B59DB"/>
</linearGradient>
<linearGradient id="paint1_linear_383_10248" x1="556.79" y1="251.807" x2="596.906" y2="526.131" gradientUnits="userSpaceOnUse">
<stop stop-color="#9DC2FF"/>
<stop offset="1" stop-color="#0B59DB"/>
</linearGradient>
<linearGradient id="paint2_linear_383_10248" x1="864.549" y1="209.17" x2="904.664" y2="483.493" gradientUnits="userSpaceOnUse">
<stop stop-color="#9DC2FF"/>
<stop offset="1" stop-color="#0B59DB"/>
</linearGradient>
<linearGradient id="paint3_linear_383_10248" x1="663.486" y1="538.366" x2="654.64" y2="569.924" gradientUnits="userSpaceOnUse">
<stop stop-color="#A0A7BF"/>
<stop offset="1" stop-color="#717687"/>
</linearGradient>
<linearGradient id="paint4_linear_383_10248" x1="705.247" y1="536.778" x2="713.083" y2="574.145" gradientUnits="userSpaceOnUse">
<stop stop-color="#A0A7BF"/>
<stop offset="1" stop-color="#717687"/>
</linearGradient>
<linearGradient id="paint5_linear_383_10248" x1="727.146" y1="580.074" x2="668.279" y2="602.25" gradientUnits="userSpaceOnUse">
<stop stop-color="#111214"/>
<stop offset="1" stop-color="#454852"/>
</linearGradient>
<linearGradient id="paint6_linear_383_10248" x1="635.485" y1="582.424" x2="694.682" y2="599.054" gradientUnits="userSpaceOnUse">
<stop stop-color="#111214"/>
<stop offset="1" stop-color="#454852"/>
</linearGradient>
<linearGradient id="paint7_linear_383_10248" x1="954.31" y1="250.929" x2="911.066" y2="323.29" gradientUnits="userSpaceOnUse">
<stop stop-color="#111214"/>
<stop offset="1" stop-color="#454852"/>
</linearGradient>
<linearGradient id="paint8_linear_383_10248" x1="990.917" y1="230.505" x2="932.533" y2="306.908" gradientUnits="userSpaceOnUse">
<stop stop-color="#111214"/>
<stop offset="1" stop-color="#454852"/>
</linearGradient>
<linearGradient id="paint9_linear_383_10248" x1="983.687" y1="246.738" x2="989.609" y2="188.576" gradientUnits="userSpaceOnUse">
<stop stop-color="#717687"/>
<stop offset="1" stop-color="#A0A7BF"/>
</linearGradient>
<linearGradient id="paint10_linear_383_10248" x1="964.028" y1="246.101" x2="970.068" y2="186.779" gradientUnits="userSpaceOnUse">
<stop stop-color="#717687"/>
<stop offset="1" stop-color="#A0A7BF"/>
</linearGradient>
<linearGradient id="paint11_linear_383_10248" x1="996.932" y1="249.139" x2="1002.94" y2="190.077" gradientUnits="userSpaceOnUse">
<stop stop-color="#717687"/>
<stop offset="1" stop-color="#A0A7BF"/>
</linearGradient>
<linearGradient id="paint12_linear_383_10248" x1="376.45" y1="522.028" x2="327.755" y2="537.083" gradientUnits="userSpaceOnUse">
<stop stop-color="#111214"/>
<stop offset="1" stop-color="#454852"/>
</linearGradient>
<linearGradient id="paint13_linear_383_10248" x1="370.864" y1="483.511" x2="377.835" y2="577.509" gradientUnits="userSpaceOnUse">
<stop stop-color="#111214"/>
<stop offset="1" stop-color="#454852"/>
</linearGradient>
<linearGradient id="paint14_linear_383_10248" x1="366.434" y1="408.231" x2="406.692" y2="444.567" gradientUnits="userSpaceOnUse">
<stop stop-color="#A0A7BF"/>
<stop offset="1" stop-color="#717687"/>
</linearGradient>
<linearGradient id="paint15_linear_383_10248" x1="372.931" y1="405.682" x2="369.675" y2="488.299" gradientUnits="userSpaceOnUse">
<stop stop-color="#A0A7BF"/>
<stop offset="1" stop-color="#717687"/>
</linearGradient>
<linearGradient id="paint16_linear_383_10248" x1="362.572" y1="432.71" x2="447.458" y2="468.695" gradientUnits="userSpaceOnUse">
<stop stop-color="#A0A7BF"/>
<stop offset="1" stop-color="#717687"/>
</linearGradient>
<linearGradient id="paint17_linear_383_10248" x1="744.165" y1="349.944" x2="702.534" y2="411.549" gradientUnits="userSpaceOnUse">
<stop stop-color="#E4E4F7"/>
<stop offset="1" stop-color="#DFDFF0"/>
</linearGradient>
<linearGradient id="paint18_linear_383_10248" x1="330.808" y1="200.037" x2="364.738" y2="267.819" gradientUnits="userSpaceOnUse">
<stop stop-color="#E4E4F7"/>
<stop offset="1" stop-color="#DFDFF0"/>
</linearGradient>
<linearGradient id="paint19_linear_383_10248" x1="844.987" y1="81.0496" x2="871.211" y2="159.634" gradientUnits="userSpaceOnUse">
<stop stop-color="#E4E4F7"/>
<stop offset="1" stop-color="#DFDFF0"/>
</linearGradient>
</defs>
</svg>
