<svg width="44" height="40" viewBox="0 0 44 40" fill="none" xmlns="http://www.w3.org/2000/svg">
<path d="M11.6641 24.5826C12.0531 19.4691 16.2591 15.3361 21.3801 15.0446C23.5964 14.9159 25.684 15.4762 27.4218 16.5451C37.0762 21.5299 33.0969 2.01949 23.7979 0.17591C20.2104 -0.535795 16.2703 0.913342 14.1827 4.50045L1.48366 26.4919C-1.8632 32.3056 2.04893 39.5027 8.55795 40C12.0307 40 14.2219 37.3933 14.247 34.3664C14.2694 30.765 11.3116 29.5674 11.6641 24.5826Z" fill="#0B59DB"/>
<path d="M32.3577 25.3715C32.3577 27.6095 31.6525 29.6703 30.4576 31.3624C28.9213 34.2492 29.9539 37.4791 32.2961 39.0454C33.1776 39.6313 34.2466 39.9858 35.4415 40C37.3808 39.8486 39.0794 39.1111 40.4394 37.9907C43.6351 35.3439 44.8692 30.5764 42.5298 26.4919C39.029 20.4496 32.3577 19.2405 32.3577 25.3715Z" fill="#0B59DB"/>
<path d="M15.7299 29.5672C17.7951 32.657 21.959 33.7631 25.2835 32.0853C31.5771 28.9069 27.3235 23.1961 32.8979 20.1435C36.2084 18.3114 38.0077 21.0582 40.6886 18.6801C41.9087 17.6254 42.362 15.8704 41.8079 14.3441C40.3863 10.4512 34.8344 11.0114 34.0816 14.9929C33.2001 19.0374 28.6835 20.0663 25.2331 18.7716C23.0168 17.6768 20.336 17.7026 18.0721 19.0631C14.4706 21.2497 13.3624 26.0058 15.7299 29.5672Z" fill="white"/>
<path d="M2.07544 34.2977C0.790988 31.8311 0.855352 28.9185 2.25174 26.5004L14.9508 4.50899C16.4227 1.96514 19.0672 0.453125 21.9999 0.453125C31.8054 0.453125 36.1457 20.4609 27.8905 15.3332C25.926 14.1242 23.6229 13.5639 21.3339 13.6926C15.7455 14.0241 11.2009 18.4744 10.7868 24.0595C10.423 29.1729 12.8884 29.9217 13.3921 33.2945C14.2204 38.9796 5.61259 41.1033 2.07544 34.2977Z" fill="#0B59DB"/>
<path d="M31.2105 31.3996C32.5453 29.4931 33.2505 27.2523 33.2505 24.9256C33.2505 16.6853 46.2881 25.906 41.9227 34.3007C37.8538 42.1066 27.7601 38.0136 31.2105 31.3996Z" fill="#0B59DB"/>
<path d="M15.5135 23.5876C16.0928 20.9666 18.3455 18.8572 20.9619 18.4227C24.4739 17.8368 26.5363 21.1181 31.3943 18.8172C33.1824 17.9654 34.6152 16.6563 34.9566 14.6956C35.5359 11.5915 39.865 11.1971 40.9731 14.2125C41.5888 15.8789 40.6597 17.4938 39.2353 18.1055C37.3856 18.9058 35.27 17.4566 32.3877 19.123C29.1668 20.9809 29.0409 25.2654 27.9327 27.8721C25.2686 34.1317 13.7142 31.7536 15.5135 23.5876Z" fill="white"/>
<path opacity="0.4" d="M6.35025 29.1757C6.35025 18.8774 14.765 10.2827 24.8475 10.2827C27.4304 10.2827 29.9014 10.8486 32.1541 11.8604C31.5468 7.20719 27.6935 0.453125 21.996 0.453125C19.0633 0.453125 16.4216 1.968 14.9469 4.50899L2.24783 26.5004C0.851446 28.9156 0.787082 31.8282 2.07154 34.2977C3.71698 37.4647 6.46218 38.6966 8.8436 38.5365C7.26532 35.764 6.35025 32.5628 6.35025 29.1757Z" fill="#0B59DB"/>
<path opacity="0.4" d="M34.3008 22.0959C36.282 25.0999 37.449 28.6956 37.449 32.5257C37.449 34.6065 37.0992 36.6159 36.4695 38.4994C38.4732 38.2222 40.544 36.9474 41.9236 34.2978C45.5167 27.3837 37.309 19.9122 34.3008 22.0959Z" fill="#0B59DB"/>
<path opacity="0.4" d="M17.1604 29.5528C20.0903 24.9167 24.9371 21.624 30.4835 20.918C30.9676 20.2091 31.5804 19.5889 32.3892 19.123C35.2715 17.4566 37.3871 18.9058 39.2368 18.1055C40.6584 17.4938 41.5902 15.8789 40.9746 14.2125C39.8664 11.1971 35.5373 11.5915 34.9581 14.6956C34.6195 16.6535 33.1839 17.9654 31.3957 18.8172C26.5378 21.1181 24.4726 17.8368 20.9634 18.4227C18.3469 18.8543 16.0914 20.9666 15.515 23.5876C14.9357 26.2029 15.7304 28.218 17.1604 29.5528Z" fill="white"/>
</svg>
