<svg width="50" height="46" viewBox="0 0 50 46" fill="none" xmlns="http://www.w3.org/2000/svg">
<path d="M13.1128 28.2699C13.5601 22.3895 18.397 17.6365 24.2861 17.3012C26.8349 17.1533 29.2356 17.7976 31.2341 19.0269C42.3366 24.7594 37.7605 2.32241 27.0666 0.202297C22.941 -0.616165 18.4098 1.05034 16.0091 5.17552L1.40523 30.4657C-2.44366 37.1514 2.05529 45.4281 9.54066 46C13.5344 46 16.0542 43.0023 16.0831 39.5213C16.1089 35.3797 12.7073 34.0025 13.1128 28.2699Z" fill="#0B59DB"/>
<path d="M36.9075 29.1771C36.9075 31.7508 36.0965 34.1207 34.7224 36.0666C32.9556 39.3865 34.1431 43.1008 36.8367 44.9021C37.8504 45.5759 39.0798 45.9835 40.4539 45.9999C42.6841 45.8257 44.6375 44.9777 46.2015 43.6892C49.8766 40.6454 51.2958 35.1627 48.6054 30.4656C44.5795 23.5169 36.9075 22.1265 36.9075 29.1771Z" fill="#0B59DB"/>
<path d="M17.7887 34.0023C20.1636 37.5556 24.9522 38.8277 28.7754 36.8982C36.0129 33.2431 31.1214 26.6756 37.5319 23.1651C41.3389 21.0582 43.4082 24.217 46.4912 21.4822C47.8943 20.2693 48.4156 18.2511 47.7784 16.4958C46.1436 12.0189 39.7588 12.6632 38.8932 17.242C37.8795 21.8931 32.6854 23.0764 28.7174 21.5874C26.1687 20.3285 23.0857 20.358 20.4822 21.9226C16.3405 24.4372 15.0661 29.9068 17.7887 34.0023Z" fill="#0B1422"/>
<path d="M2.08417 39.4424C0.607048 36.6057 0.681067 33.2562 2.28691 30.4754L16.8908 5.1853C18.5835 2.25988 21.6247 0.521057 24.9973 0.521057C36.2736 0.521057 41.2649 23.53 31.7714 17.6332C29.5123 16.2428 26.8638 15.5985 24.2314 15.7464C17.8047 16.1277 12.5785 21.2456 12.1022 27.6683C11.6839 33.5488 14.519 34.41 15.0983 38.2886C16.0509 44.8265 6.15189 47.2687 2.08417 39.4424Z" fill="#0B59DB"/>
<path d="M35.5916 36.1094C37.1267 33.9169 37.9376 31.3399 37.9376 28.6643C37.9376 19.1879 52.9309 29.7918 47.9106 39.4457C43.2315 48.4224 31.6237 43.7155 35.5916 36.1094Z" fill="#0B59DB"/>
<path d="M17.5409 27.126C18.2071 24.1118 20.7977 21.686 23.8066 21.1864C27.8454 20.5126 30.2171 24.2861 35.8038 21.64C37.8602 20.6605 39.5079 19.1551 39.9005 16.9002C40.5667 13.3305 45.5451 12.8769 46.8195 16.3447C47.5275 18.261 46.4591 20.1181 44.821 20.8216C42.6938 21.7419 40.2609 20.0754 36.9463 21.9917C33.2422 24.1283 33.0974 29.0555 31.823 32.0532C28.7593 39.2517 15.4717 36.517 17.5409 27.126Z" fill="#0B1422"/>
<path opacity="0.4" d="M7.00151 33.5521C7.00151 21.709 16.6784 11.825 28.2734 11.825C31.2437 11.825 34.0853 12.4759 36.6759 13.6395C35.9776 8.28823 31.5462 0.521057 24.9941 0.521057C21.6215 0.521057 18.5836 2.26317 16.8876 5.1853L2.28374 30.4754C0.677893 33.253 0.603874 36.6024 2.081 39.4424C3.97326 43.0844 7.13024 44.501 9.86887 44.317C8.05384 41.1286 7.00151 37.4472 7.00151 33.5521Z" fill="#0B59DB"/>
<path opacity="0.4" d="M39.1443 25.4103C41.4227 28.8649 42.7647 32.9999 42.7647 37.4045C42.7647 39.7974 42.3624 42.1082 41.6383 44.2743C43.9425 43.9555 46.3239 42.4895 47.9105 39.4425C52.0426 31.4912 42.6038 22.899 39.1443 25.4103Z" fill="#0B59DB"/>
<path opacity="0.4" d="M19.4363 33.986C22.8057 28.6545 28.3795 24.8679 34.7578 24.056C35.3146 23.2408 36.0194 22.5275 36.9494 21.9917C40.2641 20.0754 42.697 21.7419 44.8242 20.8216C46.459 20.1181 47.5306 18.261 46.8226 16.3447C45.5482 12.8769 40.5698 13.3305 39.9036 16.9002C39.5142 19.1518 37.8633 20.6605 35.807 21.64C30.2203 24.2861 27.8453 20.5126 23.8098 21.1864C20.8008 21.6828 18.207 24.1118 17.5441 27.126C16.8779 30.1336 17.7919 32.4509 19.4363 33.986Z" fill="#0B1422"/>
</svg>
