<svg width="148" height="46" viewBox="0 0 148 46" fill="none" xmlns="http://www.w3.org/2000/svg">
<path d="M60.6 42H55.8C55.2 42 55 41.65 55.2 40.95L63.1 10.9C63.3333 10.2 63.8333 9.85 64.6 9.85H71.25C72.0833 9.85 72.5833 10.2 72.75 10.9L80.65 40.95C80.85 41.65 80.65 42 80.05 42H75.25C74.8833 42 74.6333 41.9333 74.5 41.8C74.3667 41.6333 74.2667 41.35 74.2 40.95L72.8 35.45H63.05L61.65 40.95C61.5833 41.35 61.4667 41.6333 61.3 41.8C61.1667 41.9333 60.9333 42 60.6 42ZM67.85 15.9L64.25 30.35H71.65L68.05 15.9H67.85ZM85.132 22H83.132C82.732 22 82.4487 21.9333 82.282 21.8C82.1487 21.6667 82.082 21.4 82.082 21V17.55C82.082 16.85 82.432 16.5 83.132 16.5H85.132C85.4987 16.5 85.682 16.3167 85.682 15.95V11.2C85.682 10.5 86.0487 10.15 86.782 10.15H90.982C91.682 10.15 92.032 10.5 92.032 11.2V15.95C92.032 16.3167 92.232 16.5 92.632 16.5H96.532C97.232 16.5 97.582 16.85 97.582 17.55V21C97.582 21.3667 97.4987 21.6333 97.332 21.8C97.1987 21.9333 96.932 22 96.532 22H92.632C92.232 22 92.032 22.1833 92.032 22.55V33.6C92.032 34.6333 92.2654 35.3833 92.732 35.85C93.1987 36.2833 93.9654 36.5 95.032 36.5H97.032C97.732 36.5 98.082 36.85 98.082 37.55V41C98.082 41.3667 97.9987 41.6333 97.832 41.8C97.6987 41.9333 97.432 42 97.032 42H93.982C91.3487 42 89.2987 41.3 87.832 39.9C86.3987 38.5 85.682 36.5 85.682 33.9V22.55C85.682 22.1833 85.4987 22 85.132 22ZM121.009 42H109.959C107.326 42 105.292 41.3 103.859 39.9C102.426 38.5 101.709 36.4833 101.709 33.85V24.65C101.709 22.0167 102.426 20 103.859 18.6C105.292 17.2 107.326 16.5 109.959 16.5H113.909C116.542 16.5 118.576 17.2 120.009 18.6C121.442 20 122.159 22.0167 122.159 24.65V31C122.159 31.7 121.809 32.05 121.109 32.05H108.559C108.159 32.05 107.959 32.2333 107.959 32.6V33.7C107.959 34.7333 108.176 35.4833 108.609 35.95C109.076 36.3833 109.842 36.6 110.909 36.6H121.009C121.709 36.6 122.059 36.9667 122.059 37.7V41C122.059 41.3667 121.976 41.6333 121.809 41.8C121.676 41.9333 121.409 42 121.009 42ZM108.559 27.8H115.359C115.726 27.8 115.909 27.6167 115.909 27.25V24.85C115.909 23.7833 115.692 23.0333 115.259 22.6C114.826 22.1667 114.076 21.95 113.009 21.95H110.909C109.842 21.95 109.092 22.1667 108.659 22.6C108.226 23.0333 108.009 23.7833 108.009 24.85V27.25C108.009 27.6167 108.192 27.8 108.559 27.8ZM141.516 16.5H146.366C146.766 16.5 147.033 16.6167 147.166 16.85C147.299 17.0833 147.249 17.3833 147.016 17.75L140.366 28.7V28.9L147.316 40.75C147.516 41.0833 147.533 41.3833 147.366 41.65C147.199 41.8833 146.899 42 146.466 42H142.166C141.599 42 141.183 41.9333 140.916 41.8C140.683 41.6667 140.433 41.3833 140.166 40.95L133.816 29.8C133.516 29.2667 133.516 28.7167 133.816 28.15L139.816 17.5C140.183 16.8333 140.749 16.5 141.516 16.5ZM132.216 42H127.966C127.266 42 126.916 41.65 126.916 40.95V7.9C126.916 7.2 127.266 6.85 127.966 6.85H132.216C132.916 6.85 133.266 7.2 133.266 7.9V40.95C133.266 41.65 132.916 42 132.216 42Z" fill="#0B1422"/>
<path d="M13.1128 28.2699C13.5601 22.3895 18.397 17.6365 24.2861 17.3012C26.8349 17.1533 29.2356 17.7976 31.2341 19.0269C42.3366 24.7594 37.7605 2.32241 27.0666 0.202297C22.941 -0.616165 18.4098 1.05034 16.0091 5.17552L1.40523 30.4657C-2.44366 37.1514 2.05529 45.4281 9.54066 46C13.5344 46 16.0542 43.0023 16.0831 39.5213C16.1089 35.3797 12.7073 34.0025 13.1128 28.2699Z" fill="#0B59DB"/>
<path d="M36.9075 29.1771C36.9075 31.7508 36.0965 34.1207 34.7224 36.0666C32.9556 39.3865 34.1431 43.1008 36.8367 44.9021C37.8504 45.5759 39.0798 45.9835 40.4539 45.9999C42.6841 45.8257 44.6375 44.9777 46.2015 43.6892C49.8766 40.6454 51.2958 35.1627 48.6054 30.4656C44.5795 23.5169 36.9075 22.1265 36.9075 29.1771Z" fill="#0B59DB"/>
<path d="M17.7887 34.0023C20.1636 37.5556 24.9522 38.8277 28.7754 36.8982C36.0129 33.2431 31.1214 26.6756 37.5319 23.1651C41.3389 21.0582 43.4082 24.217 46.4912 21.4822C47.8943 20.2693 48.4156 18.2511 47.7784 16.4958C46.1436 12.0189 39.7588 12.6632 38.8932 17.242C37.8795 21.8931 32.6854 23.0764 28.7174 21.5874C26.1687 20.3285 23.0857 20.358 20.4822 21.9226C16.3405 24.4372 15.0661 29.9068 17.7887 34.0023Z" fill="#0B1422"/>
<path d="M2.08417 39.4424C0.607048 36.6057 0.681067 33.2562 2.28691 30.4754L16.8908 5.1853C18.5835 2.25988 21.6247 0.521057 24.9973 0.521057C36.2736 0.521057 41.2649 23.53 31.7714 17.6332C29.5123 16.2428 26.8638 15.5985 24.2314 15.7464C17.8047 16.1277 12.5785 21.2456 12.1022 27.6683C11.6839 33.5488 14.519 34.41 15.0983 38.2886C16.0509 44.8265 6.15189 47.2687 2.08417 39.4424Z" fill="#0B59DB"/>
<path d="M35.5916 36.1094C37.1267 33.9169 37.9376 31.3399 37.9376 28.6643C37.9376 19.1879 52.9309 29.7918 47.9106 39.4457C43.2315 48.4224 31.6237 43.7155 35.5916 36.1094Z" fill="#0B59DB"/>
<path d="M17.5409 27.126C18.2071 24.1118 20.7977 21.686 23.8066 21.1864C27.8454 20.5126 30.2171 24.2861 35.8038 21.64C37.8602 20.6605 39.5079 19.1551 39.9005 16.9002C40.5667 13.3305 45.5451 12.8769 46.8195 16.3447C47.5275 18.261 46.4591 20.1181 44.821 20.8216C42.6938 21.7419 40.2609 20.0754 36.9463 21.9917C33.2422 24.1283 33.0974 29.0555 31.823 32.0532C28.7593 39.2517 15.4717 36.517 17.5409 27.126Z" fill="#0B1422"/>
<path opacity="0.4" d="M7.00151 33.5521C7.00151 21.709 16.6784 11.825 28.2734 11.825C31.2437 11.825 34.0853 12.4759 36.6759 13.6395C35.9776 8.28823 31.5462 0.521057 24.9941 0.521057C21.6215 0.521057 18.5836 2.26317 16.8876 5.1853L2.28374 30.4754C0.677893 33.253 0.603874 36.6024 2.081 39.4424C3.97326 43.0844 7.13024 44.501 9.86887 44.317C8.05384 41.1286 7.00151 37.4472 7.00151 33.5521Z" fill="#0B59DB"/>
<path opacity="0.4" d="M39.1443 25.4103C41.4227 28.8649 42.7647 32.9999 42.7647 37.4045C42.7647 39.7974 42.3624 42.1082 41.6383 44.2743C43.9425 43.9555 46.3239 42.4895 47.9105 39.4425C52.0426 31.4912 42.6038 22.899 39.1443 25.4103Z" fill="#0B59DB"/>
<path opacity="0.4" d="M19.4363 33.986C22.8057 28.6545 28.3795 24.8679 34.7578 24.056C35.3146 23.2408 36.0194 22.5275 36.9494 21.9917C40.2641 20.0754 42.697 21.7419 44.8242 20.8216C46.459 20.1181 47.5306 18.261 46.8226 16.3447C45.5482 12.8769 40.5698 13.3305 39.9036 16.9002C39.5142 19.1518 37.8633 20.6605 35.807 21.64C30.2203 24.2861 27.8453 20.5126 23.8098 21.1864C20.8008 21.6828 18.207 24.1118 17.5441 27.126C16.8779 30.1336 17.7919 32.4509 19.4363 33.986Z" fill="#0B1422"/>
</svg>
