<svg width="148" height="46" viewBox="0 0 148 46" fill="none" xmlns="http://www.w3.org/2000/svg">
<path d="M60.6 42H55.8C55.2 42 55 41.65 55.2 40.95L63.1 10.9C63.3333 10.2 63.8333 9.85 64.6 9.85H71.25C72.0833 9.85 72.5833 10.2 72.75 10.9L80.65 40.95C80.85 41.65 80.65 42 80.05 42H75.25C74.8833 42 74.6333 41.9333 74.5 41.8C74.3667 41.6333 74.2667 41.35 74.2 40.95L72.8 35.45H63.05L61.65 40.95C61.5833 41.35 61.4667 41.6333 61.3 41.8C61.1667 41.9333 60.9333 42 60.6 42ZM67.85 15.9L64.25 30.35H71.65L68.05 15.9H67.85ZM85.132 22H83.132C82.732 22 82.4487 21.9333 82.282 21.8C82.1487 21.6667 82.082 21.4 82.082 21V17.55C82.082 16.85 82.432 16.5 83.132 16.5H85.132C85.4987 16.5 85.682 16.3167 85.682 15.95V11.2C85.682 10.5 86.0487 10.15 86.782 10.15H90.982C91.682 10.15 92.032 10.5 92.032 11.2V15.95C92.032 16.3167 92.232 16.5 92.632 16.5H96.532C97.232 16.5 97.582 16.85 97.582 17.55V21C97.582 21.3667 97.4987 21.6333 97.332 21.8C97.1987 21.9333 96.932 22 96.532 22H92.632C92.232 22 92.032 22.1833 92.032 22.55V33.6C92.032 34.6333 92.2654 35.3833 92.732 35.85C93.1987 36.2833 93.9654 36.5 95.032 36.5H97.032C97.732 36.5 98.082 36.85 98.082 37.55V41C98.082 41.3667 97.9987 41.6333 97.832 41.8C97.6987 41.9333 97.432 42 97.032 42H93.982C91.3487 42 89.2987 41.3 87.832 39.9C86.3987 38.5 85.682 36.5 85.682 33.9V22.55C85.682 22.1833 85.4987 22 85.132 22ZM121.009 42H109.959C107.326 42 105.292 41.3 103.859 39.9C102.426 38.5 101.709 36.4833 101.709 33.85V24.65C101.709 22.0167 102.426 20 103.859 18.6C105.292 17.2 107.326 16.5 109.959 16.5H113.909C116.542 16.5 118.576 17.2 120.009 18.6C121.442 20 122.159 22.0167 122.159 24.65V31C122.159 31.7 121.809 32.05 121.109 32.05H108.559C108.159 32.05 107.959 32.2333 107.959 32.6V33.7C107.959 34.7333 108.176 35.4833 108.609 35.95C109.076 36.3833 109.842 36.6 110.909 36.6H121.009C121.709 36.6 122.059 36.9667 122.059 37.7V41C122.059 41.3667 121.976 41.6333 121.809 41.8C121.676 41.9333 121.409 42 121.009 42ZM108.559 27.8H115.359C115.726 27.8 115.909 27.6167 115.909 27.25V24.85C115.909 23.7833 115.692 23.0333 115.259 22.6C114.826 22.1667 114.076 21.95 113.009 21.95H110.909C109.842 21.95 109.092 22.1667 108.659 22.6C108.226 23.0333 108.009 23.7833 108.009 24.85V27.25C108.009 27.6167 108.192 27.8 108.559 27.8ZM141.516 16.5H146.366C146.766 16.5 147.033 16.6167 147.166 16.85C147.299 17.0833 147.249 17.3833 147.016 17.75L140.366 28.7V28.9L147.316 40.75C147.516 41.0833 147.533 41.3833 147.366 41.65C147.199 41.8833 146.899 42 146.466 42H142.166C141.599 42 141.183 41.9333 140.916 41.8C140.683 41.6667 140.433 41.3833 140.166 40.95L133.816 29.8C133.516 29.2667 133.516 28.7167 133.816 28.15L139.816 17.5C140.183 16.8333 140.749 16.5 141.516 16.5ZM132.216 42H127.966C127.266 42 126.916 41.65 126.916 40.95V7.9C126.916 7.2 127.266 6.85 127.966 6.85H132.216C132.916 6.85 133.266 7.2 133.266 7.9V40.95C133.266 41.65 132.916 42 132.216 42Z" fill="white"/>
<path d="M13.1128 28.2699C13.5601 22.3895 18.397 17.6365 24.2861 17.3012C26.8349 17.1533 29.2356 17.7976 31.2341 19.0269C42.3366 24.7594 37.7605 2.32241 27.0666 0.202297C22.941 -0.616165 18.4098 1.05034 16.0091 5.17552L1.40523 30.4657C-2.44366 37.1514 2.05529 45.4281 9.54066 46C13.5344 46 16.0542 43.0023 16.0831 39.5213C16.1089 35.3797 12.7073 34.0025 13.1128 28.2699Z" fill="#0B59DB"/>
<path d="M36.9076 29.1767C36.9076 31.7504 36.0966 34.1203 34.7225 36.0662C32.9557 39.3861 34.1432 43.1004 36.8368 44.9017C37.8505 45.5755 39.0798 45.9831 40.454 45.9995C42.6841 45.8253 44.6375 44.9773 46.2016 43.6888C49.8767 40.645 51.2959 35.1623 48.6055 30.4652C44.5796 23.5165 36.9076 22.1261 36.9076 29.1767Z" fill="#0B59DB"/>
<path d="M17.7888 34.0024C20.1638 37.5557 24.9523 38.8277 28.7755 36.8983C36.0131 33.2431 31.1215 26.6757 37.532 23.1652C41.3391 21.0582 43.4083 24.217 46.4913 21.4822C47.8944 20.2693 48.4157 18.2511 47.7785 16.4959C46.1437 12.019 39.759 12.6632 38.8933 17.242C37.8796 21.8931 32.6855 23.0764 28.7176 21.5874C26.1688 20.3285 23.0858 20.3581 20.4824 21.9227C16.3406 24.4373 15.0663 29.9068 17.7888 34.0024Z" fill="white"/>
<path d="M2.08417 39.4428C0.607048 36.6061 0.681067 33.2567 2.28691 30.4759L16.8908 5.18573C18.5835 2.26031 21.6247 0.521484 24.9973 0.521484C36.2736 0.521484 41.2649 23.5304 31.7714 17.6336C29.5123 16.2432 26.8638 15.5989 24.2314 15.7468C17.8047 16.1281 12.5785 21.246 12.1022 27.6688C11.6839 33.5492 14.519 34.4104 15.0983 38.2891C16.0509 44.8269 6.15189 47.2691 2.08417 39.4428Z" fill="#0B59DB"/>
<path d="M35.5915 36.1096C37.1266 33.9172 37.9375 31.3402 37.9375 28.6646C37.9375 19.1882 52.9308 29.792 47.9105 39.4459C43.2314 48.4227 31.6236 43.7157 35.5915 36.1096Z" fill="#0B59DB"/>
<path d="M17.541 27.1259C18.2071 24.1117 20.7977 21.6859 23.8067 21.1863C27.8454 20.5125 30.2172 24.2859 35.8039 21.6399C37.8602 20.6604 39.5079 19.1549 39.9005 16.9001C40.5667 13.3304 45.5451 12.8768 46.8195 16.3445C47.5275 18.2609 46.4591 20.118 44.8211 20.8214C42.6939 21.7418 40.261 20.0753 36.9463 21.9916C33.2422 24.1282 33.0974 29.0554 31.823 32.0531C28.7594 39.2516 15.4717 36.5168 17.541 27.1259Z" fill="white"/>
<path opacity="0.4" d="M7.00151 33.5525C7.00151 21.7095 16.6784 11.8255 28.2734 11.8255C31.2437 11.8255 34.0853 12.4763 36.6759 13.6399C35.9776 8.28866 31.5462 0.521484 24.9941 0.521484C21.6215 0.521484 18.5836 2.26359 16.8876 5.18573L2.28374 30.4759C0.677893 33.2534 0.603874 36.6028 2.081 39.4428C3.97326 43.0848 7.13024 44.5015 9.86887 44.3174C8.05384 41.129 7.00151 37.4476 7.00151 33.5525Z" fill="#0B59DB"/>
<path opacity="0.4" d="M39.1443 25.4105C41.4227 28.8651 42.7647 33.0002 42.7647 37.4048C42.7647 39.7977 42.3624 42.1084 41.6383 44.2746C43.9425 43.9557 46.3239 42.4897 47.9105 39.4427C52.0426 31.4915 42.6038 22.8993 39.1443 25.4105Z" fill="#0B59DB"/>
<path opacity="0.4" d="M19.4364 33.9859C22.8058 28.6543 28.3796 24.8677 34.7579 24.0558C35.3146 23.2407 36.0194 22.5274 36.9495 21.9916C40.2641 20.0753 42.697 21.7418 44.8242 20.8214C46.459 20.118 47.5307 18.2609 46.8227 16.3445C45.5483 12.8768 40.5699 13.3304 39.9037 16.9001C39.5143 19.1516 37.8634 20.6604 35.807 21.6399C30.2203 24.2859 27.8454 20.5125 23.8098 21.1863C20.8009 21.6826 18.2071 24.1117 17.5441 27.1259C16.878 30.1335 17.7919 32.4508 19.4364 33.9859Z" fill="white"/>
</svg>
