<svg width="198" height="50" viewBox="0 0 198 50" fill="none" xmlns="http://www.w3.org/2000/svg">
<path d="M60.2655 32V12.8041H54.3378V9.11852H70.3088V12.8041H64.4733V32H60.2655ZM72.8578 32V9.11852H88.0609V12.8041H77.0348V18.6704H87.4467V22.356H77.0348V28.3144H88.0609V32H72.8578ZM101.874 32.3686C100.236 32.3686 98.7203 32.0717 97.328 31.4779C95.9561 30.8841 94.748 30.0548 93.7038 28.9901C92.68 27.9254 91.8815 26.6763 91.3081 25.2431C90.7348 23.8098 90.4482 22.2434 90.4482 20.5439C90.4482 18.8444 90.7246 17.278 91.2774 15.8448C91.8507 14.391 92.6493 13.142 93.6731 12.0977C94.7173 11.033 95.9356 10.214 97.328 9.64064C98.7203 9.04685 100.236 8.74996 101.874 8.74996C103.512 8.74996 104.976 9.02638 106.266 9.57922C107.576 10.1321 108.682 10.8692 109.583 11.7906C110.484 12.6915 111.129 13.6846 111.518 14.7698L107.771 16.5204C107.341 15.3738 106.614 14.4319 105.59 13.6948C104.566 12.9372 103.327 12.5584 101.874 12.5584C100.44 12.5584 99.1708 12.8963 98.0651 13.572C96.9799 14.2477 96.1301 15.1793 95.5159 16.3669C94.9221 17.5545 94.6252 18.9468 94.6252 20.5439C94.6252 22.141 94.9221 23.5436 95.5159 24.7516C96.1301 25.9392 96.9799 26.8709 98.0651 27.5466C99.1708 28.2223 100.44 28.5601 101.874 28.5601C103.327 28.5601 104.566 28.1915 105.59 27.4544C106.614 26.6968 107.341 25.7447 107.771 24.5981L111.518 26.3487C111.129 27.4339 110.484 28.4372 109.583 29.3586C108.682 30.2596 107.576 30.9865 106.266 31.5393C104.976 32.0921 103.512 32.3686 101.874 32.3686ZM114.909 32V9.11852H119.086V19.1004H128.822V9.11852H133.03V32H128.822V22.786H119.086V32H114.909ZM137.434 32V9.11852H141.611V28.3144H151.409V32H137.434ZM154.11 32V9.11852H158.287V32H154.11ZM162.688 32V9.11852H177.953V12.8041H166.866V19.1311H176.571V22.8167H166.866V32H162.688ZM180.685 32V9.11852H195.888V12.8041H184.862V18.6704H195.273V22.356H184.862V28.3144H195.888V32H180.685Z" fill="#0B59DB"/>
<path d="M57.7314 47.3544C57.0875 47.3544 56.5317 47.2133 56.0642 46.931C55.5967 46.6487 55.235 46.2562 54.9792 45.7534C54.7322 45.2417 54.6087 44.6507 54.6087 43.9803C54.6087 43.4686 54.6792 43.0099 54.8204 42.6042C54.9615 42.1984 55.1688 41.8543 55.4423 41.5721C55.7157 41.281 56.0421 41.0604 56.4215 40.9105C56.8096 40.7605 57.2463 40.6855 57.7314 40.6855C58.049 40.6855 58.3798 40.734 58.7238 40.8311C59.0679 40.9281 59.381 41.0957 59.6633 41.3339C59.7515 41.3956 59.8088 41.4706 59.8353 41.5588C59.8618 41.647 59.8618 41.7352 59.8353 41.8235C59.8088 41.9029 59.7647 41.9734 59.703 42.0352C59.6412 42.0881 59.5619 42.119 59.4648 42.1278C59.3766 42.1366 59.284 42.1057 59.1869 42.0352C58.9576 41.8587 58.7238 41.7352 58.4856 41.6647C58.2475 41.5941 58.0181 41.5588 57.7976 41.5588C57.4536 41.5588 57.1536 41.6162 56.8978 41.7308C56.642 41.8367 56.4259 41.9911 56.2494 42.194C56.073 42.3968 55.9363 42.6483 55.8392 42.9482C55.751 43.2481 55.7069 43.5966 55.7069 43.9935C55.7069 44.761 55.8878 45.3696 56.2494 45.8195C56.6111 46.2606 57.1272 46.4811 57.7976 46.4811C58.0181 46.4811 58.2431 46.4458 58.4724 46.3753C58.7106 46.3047 58.9488 46.1812 59.1869 46.0048C59.284 45.9342 59.3766 45.9033 59.4648 45.9122C59.553 45.921 59.628 45.9563 59.6898 46.018C59.7515 46.0709 59.7912 46.1415 59.8088 46.2297C59.8353 46.3179 59.8353 46.4061 59.8088 46.4944C59.7824 46.5738 59.725 46.6443 59.6368 46.7061C59.3545 46.9354 59.0458 47.103 58.7106 47.2089C58.3754 47.3059 58.049 47.3544 57.7314 47.3544ZM63.6742 47.3544C63.0479 47.3544 62.5054 47.2177 62.0467 46.9442C61.588 46.6708 61.2307 46.2871 60.9749 45.7931C60.7279 45.2902 60.6044 44.6992 60.6044 44.02C60.6044 43.5083 60.675 43.0496 60.8161 42.6438C60.9573 42.2292 61.1646 41.8764 61.438 41.5853C61.7115 41.2942 62.0335 41.0736 62.404 40.9237C62.7833 40.7649 63.2067 40.6855 63.6742 40.6855C64.3006 40.6855 64.8431 40.8222 65.3018 41.0957C65.7605 41.3692 66.1133 41.7573 66.3603 42.2601C66.6162 42.7541 66.7441 43.3407 66.7441 44.02C66.7441 44.5316 66.6735 44.9903 66.5324 45.3961C66.3912 45.8019 66.1839 46.1547 65.9105 46.4547C65.637 46.7458 65.3106 46.9707 64.9313 47.1295C64.5608 47.2795 64.1418 47.3544 63.6742 47.3544ZM63.6742 46.4944C64.0712 46.4944 64.4196 46.3973 64.7196 46.2033C65.0195 46.0092 65.2489 45.7269 65.4076 45.3564C65.5752 44.9859 65.659 44.5404 65.659 44.02C65.659 43.2172 65.4782 42.6042 65.1165 42.1807C64.7637 41.7573 64.2829 41.5456 63.6742 41.5456C63.2685 41.5456 62.9156 41.6426 62.6157 41.8367C62.3246 42.0219 62.0952 42.2998 61.9276 42.6703C61.7688 43.032 61.6894 43.4819 61.6894 44.02C61.6894 44.8139 61.8703 45.427 62.232 45.8592C62.5936 46.2826 63.0744 46.4944 63.6742 46.4944ZM68.9097 47.328C68.7332 47.328 68.6009 47.2795 68.5127 47.1824C68.4245 47.0854 68.3804 46.9487 68.3804 46.7722V41.2545C68.3804 41.0781 68.4245 40.9457 68.5127 40.8575C68.6009 40.7605 68.7288 40.712 68.8964 40.712C69.064 40.712 69.192 40.7605 69.2802 40.8575C69.3772 40.9457 69.4257 41.0781 69.4257 41.2545V42.4189L69.2802 42.2337C69.4478 41.7397 69.7168 41.3603 70.0873 41.0957C70.4666 40.8222 70.9165 40.6855 71.437 40.6855C71.9839 40.6855 72.425 40.8178 72.7602 41.0825C73.1042 41.3383 73.3336 41.7397 73.4482 42.2866H73.2498C73.4086 41.7926 73.6908 41.4044 74.0966 41.1222C74.5112 40.8311 74.992 40.6855 75.5389 40.6855C76.0241 40.6855 76.421 40.7781 76.7298 40.9634C77.0474 41.1486 77.2855 41.4309 77.4443 41.8102C77.6031 42.1807 77.6825 42.6527 77.6825 43.2261V46.7722C77.6825 46.9487 77.634 47.0854 77.5369 47.1824C77.4487 47.2795 77.3164 47.328 77.14 47.328C76.9724 47.328 76.8401 47.2795 76.743 47.1824C76.6548 47.0854 76.6107 46.9487 76.6107 46.7722V43.279C76.6107 42.688 76.5093 42.2557 76.3064 41.9822C76.1035 41.7 75.7594 41.5588 75.2743 41.5588C74.745 41.5588 74.326 41.7441 74.0172 42.1146C73.7173 42.4762 73.5673 42.9702 73.5673 43.5966V46.7722C73.5673 46.9487 73.5188 47.0854 73.4218 47.1824C73.3336 47.2795 73.2013 47.328 73.0248 47.328C72.8572 47.328 72.7249 47.2795 72.6279 47.1824C72.5397 47.0854 72.4955 46.9487 72.4955 46.7722V43.279C72.4955 42.688 72.3897 42.2557 72.178 41.9822C71.9751 41.7 71.6355 41.5588 71.1591 41.5588C70.6298 41.5588 70.2108 41.7441 69.9021 42.1146C69.6021 42.4762 69.4522 42.9702 69.4522 43.5966V46.7722C69.4522 47.1427 69.2713 47.328 68.9097 47.328ZM80.2157 49.7097C80.0393 49.7097 79.9069 49.6612 79.8187 49.5642C79.7305 49.476 79.6864 49.3437 79.6864 49.1672V41.2545C79.6864 41.0781 79.7305 40.9457 79.8187 40.8575C79.9069 40.7605 80.0349 40.712 80.2025 40.712C80.3789 40.712 80.5112 40.7605 80.5994 40.8575C80.6965 40.9457 80.745 41.0781 80.745 41.2545V42.5115L80.5994 42.3263C80.7406 41.8235 81.0184 41.4265 81.433 41.1354C81.8565 40.8355 82.3593 40.6855 82.9415 40.6855C83.5149 40.6855 84.0133 40.8222 84.4367 41.0957C84.8689 41.3603 85.1997 41.7441 85.4291 42.2469C85.6673 42.7409 85.7864 43.3319 85.7864 44.02C85.7864 44.6992 85.6673 45.2902 85.4291 45.7931C85.1997 46.2871 84.8734 46.6708 84.4499 46.9442C84.0265 47.2177 83.5237 47.3544 82.9415 47.3544C82.3593 47.3544 81.8609 47.2089 81.4463 46.9178C81.0317 46.6179 80.7494 46.2209 80.5994 45.7269H80.7582V49.1672C80.7582 49.3437 80.7097 49.476 80.6127 49.5642C80.5156 49.6612 80.3833 49.7097 80.2157 49.7097ZM82.7165 46.4944C83.1223 46.4944 83.4708 46.3973 83.7619 46.2033C84.0618 46.0092 84.2912 45.7269 84.4499 45.3564C84.6175 44.9859 84.7013 44.5404 84.7013 44.02C84.7013 43.2172 84.5205 42.6042 84.1588 42.1807C83.806 41.7573 83.3252 41.5456 82.7165 41.5456C82.3196 41.5456 81.9711 41.6426 81.6712 41.8367C81.3713 42.0219 81.1375 42.2998 80.9699 42.6703C80.8111 43.032 80.7317 43.4819 80.7317 44.02C80.7317 44.8139 80.9126 45.427 81.2743 45.8592C81.6359 46.2826 82.1167 46.4944 82.7165 46.4944ZM89.4253 47.3544C88.9842 47.3544 88.5872 47.2706 88.2344 47.103C87.8904 46.9266 87.6169 46.6884 87.414 46.3885C87.2111 46.0886 87.1097 45.7534 87.1097 45.3829C87.1097 44.9065 87.2288 44.5316 87.4669 44.2582C87.7139 43.9847 88.1153 43.7906 88.671 43.6759C89.2356 43.5613 90.0031 43.5039 90.9734 43.5039H91.5689V44.2052H90.9866C90.2721 44.2052 89.7076 44.2405 89.2929 44.3111C88.8872 44.3728 88.6005 44.4831 88.4329 44.6419C88.2741 44.8007 88.1947 45.0256 88.1947 45.3167C88.1947 45.6784 88.3182 45.9739 88.5652 46.2033C88.821 46.4326 89.165 46.5473 89.5973 46.5473C89.9501 46.5473 90.2589 46.4635 90.5235 46.2959C90.797 46.1283 91.0087 45.8989 91.1587 45.6078C91.3174 45.3167 91.3968 44.9815 91.3968 44.6022V43.0937C91.3968 42.5468 91.2866 42.1543 91.066 41.9161C90.8455 41.6691 90.4838 41.5456 89.981 41.5456C89.6723 41.5456 89.3635 41.5853 89.0548 41.6647C88.746 41.7441 88.4196 41.872 88.0756 42.0484C87.9521 42.1102 87.8463 42.1322 87.758 42.1146C87.6698 42.0881 87.5993 42.0396 87.5463 41.969C87.4934 41.8984 87.4625 41.8191 87.4537 41.7308C87.4449 41.6338 87.4625 41.5412 87.5066 41.453C87.5596 41.3648 87.6389 41.2942 87.7448 41.2413C88.1329 41.0472 88.5167 40.906 88.896 40.8178C89.2753 40.7296 89.637 40.6855 89.981 40.6855C90.5368 40.6855 90.9955 40.7781 91.3571 40.9634C91.7188 41.1398 91.9879 41.4133 92.1643 41.7838C92.3407 42.1454 92.4289 42.613 92.4289 43.1864V46.7722C92.4289 46.9487 92.3848 47.0854 92.2966 47.1824C92.2172 47.2795 92.0981 47.328 91.9394 47.328C91.7717 47.328 91.6438 47.2795 91.5556 47.1824C91.4674 47.0854 91.4233 46.9487 91.4233 46.7722V45.7401H91.5424C91.4718 46.0753 91.3351 46.362 91.1322 46.6002C90.9381 46.8384 90.6955 47.0236 90.4044 47.156C90.1133 47.2883 89.7869 47.3544 89.4253 47.3544ZM94.9466 47.328C94.7702 47.328 94.6379 47.2795 94.5497 47.1824C94.4615 47.0854 94.4174 46.9487 94.4174 46.7722V41.2545C94.4174 41.0781 94.4615 40.9457 94.5497 40.8575C94.6379 40.7605 94.7658 40.712 94.9334 40.712C95.101 40.712 95.2289 40.7605 95.3171 40.8575C95.4142 40.9457 95.4627 41.0781 95.4627 41.2545V42.3924L95.3171 42.2337C95.5024 41.722 95.8023 41.3383 96.2169 41.0825C96.6403 40.8178 97.1255 40.6855 97.6724 40.6855C98.1841 40.6855 98.6075 40.7781 98.9427 40.9634C99.2867 41.1486 99.5425 41.4309 99.7102 41.8102C99.8778 42.1807 99.9616 42.6527 99.9616 43.2261V46.7722C99.9616 46.9487 99.913 47.0854 99.816 47.1824C99.7278 47.2795 99.5999 47.328 99.4323 47.328C99.2559 47.328 99.1191 47.2795 99.0221 47.1824C98.9339 47.0854 98.8898 46.9487 98.8898 46.7722V43.2922C98.8898 42.6924 98.7707 42.2557 98.5325 41.9822C98.3032 41.7 97.9327 41.5588 97.421 41.5588C96.83 41.5588 96.358 41.7441 96.0052 42.1146C95.6612 42.4762 95.4891 42.9614 95.4891 43.5701V46.7722C95.4891 47.1427 95.3083 47.328 94.9466 47.328ZM103.302 49.7097C103.17 49.7097 103.064 49.6745 102.985 49.6039C102.905 49.5333 102.857 49.4363 102.839 49.3128C102.83 49.1981 102.852 49.079 102.905 48.9555L103.818 46.9046V47.3677L101.278 41.4662C101.225 41.3339 101.207 41.2104 101.225 41.0957C101.243 40.981 101.295 40.8884 101.384 40.8178C101.472 40.7473 101.595 40.712 101.754 40.712C101.895 40.712 102.006 40.7428 102.085 40.8046C102.164 40.8663 102.235 40.9766 102.297 41.1354L104.467 46.4547H104.109L106.306 41.1354C106.377 40.9766 106.452 40.8663 106.531 40.8046C106.61 40.7428 106.725 40.712 106.875 40.712C107.016 40.712 107.122 40.7473 107.193 40.8178C107.272 40.8884 107.316 40.981 107.325 41.0957C107.343 41.2016 107.325 41.3206 107.272 41.453L103.885 49.2863C103.814 49.4451 103.735 49.5554 103.646 49.6171C103.567 49.6789 103.452 49.7097 103.302 49.7097ZM114.662 47.3544C114.159 47.3544 113.736 47.2662 113.392 47.0898C113.056 46.9046 112.805 46.6399 112.637 46.2959C112.47 45.943 112.386 45.5152 112.386 45.0124V41.6382H111.499C111.349 41.6382 111.235 41.6029 111.155 41.5324C111.076 41.453 111.036 41.3471 111.036 41.2148C111.036 41.0825 111.076 40.981 111.155 40.9105C111.235 40.8399 111.349 40.8046 111.499 40.8046H112.386V39.2829C112.386 39.1065 112.434 38.9742 112.531 38.886C112.628 38.7889 112.761 38.7404 112.928 38.7404C113.096 38.7404 113.224 38.7889 113.312 38.886C113.409 38.9742 113.458 39.1065 113.458 39.2829V40.8046H115.125C115.275 40.8046 115.39 40.8399 115.469 40.9105C115.548 40.981 115.588 41.0825 115.588 41.2148C115.588 41.3471 115.548 41.453 115.469 41.5324C115.39 41.6029 115.275 41.6382 115.125 41.6382H113.458V44.9065C113.458 45.4093 113.564 45.7931 113.775 46.0577C113.987 46.3135 114.331 46.4414 114.807 46.4414C114.975 46.4414 115.116 46.4238 115.231 46.3885C115.354 46.3532 115.456 46.3356 115.535 46.3356C115.615 46.3268 115.681 46.3532 115.734 46.415C115.787 46.4767 115.813 46.5826 115.813 46.7325C115.813 46.8384 115.791 46.9354 115.747 47.0236C115.712 47.1119 115.645 47.1736 115.548 47.2089C115.442 47.2442 115.301 47.275 115.125 47.3015C114.957 47.3368 114.803 47.3544 114.662 47.3544ZM118.732 47.3544C118.291 47.3544 117.894 47.2706 117.541 47.103C117.197 46.9266 116.924 46.6884 116.721 46.3885C116.518 46.0886 116.416 45.7534 116.416 45.3829C116.416 44.9065 116.536 44.5316 116.774 44.2582C117.021 43.9847 117.422 43.7906 117.978 43.6759C118.542 43.5613 119.31 43.5039 120.28 43.5039H120.876V44.2052H120.293C119.579 44.2052 119.014 44.2405 118.6 44.3111C118.194 44.3728 117.907 44.4831 117.74 44.6419C117.581 44.8007 117.502 45.0256 117.502 45.3167C117.502 45.6784 117.625 45.9739 117.872 46.2033C118.128 46.4326 118.472 46.5473 118.904 46.5473C119.257 46.5473 119.566 46.4635 119.83 46.2959C120.104 46.1283 120.316 45.8989 120.465 45.6078C120.624 45.3167 120.704 44.9815 120.704 44.6022V43.0937C120.704 42.5468 120.593 42.1543 120.373 41.9161C120.152 41.6691 119.791 41.5456 119.288 41.5456C118.979 41.5456 118.67 41.5853 118.362 41.6647C118.053 41.7441 117.726 41.872 117.382 42.0484C117.259 42.1102 117.153 42.1322 117.065 42.1146C116.977 42.0881 116.906 42.0396 116.853 41.969C116.8 41.8984 116.769 41.8191 116.761 41.7308C116.752 41.6338 116.769 41.5412 116.813 41.453C116.866 41.3648 116.946 41.2942 117.052 41.2413C117.44 41.0472 117.823 40.906 118.203 40.8178C118.582 40.7296 118.944 40.6855 119.288 40.6855C119.844 40.6855 120.302 40.7781 120.664 40.9634C121.026 41.1398 121.295 41.4133 121.471 41.7838C121.648 42.1454 121.736 42.613 121.736 43.1864V46.7722C121.736 46.9487 121.692 47.0854 121.603 47.1824C121.524 47.2795 121.405 47.328 121.246 47.328C121.079 47.328 120.951 47.2795 120.862 47.1824C120.774 47.0854 120.73 46.9487 120.73 46.7722V45.7401H120.849C120.779 46.0753 120.642 46.362 120.439 46.6002C120.245 46.8384 120.002 47.0236 119.711 47.156C119.42 47.2883 119.094 47.3544 118.732 47.3544ZM126.569 49.7362C126.102 49.7362 125.643 49.6789 125.193 49.5642C124.752 49.4583 124.35 49.2863 123.989 49.0481C123.883 48.9864 123.812 48.9114 123.777 48.8232C123.751 48.735 123.746 48.6468 123.764 48.5586C123.782 48.4792 123.821 48.4042 123.883 48.3336C123.945 48.2719 124.015 48.2322 124.095 48.2145C124.183 48.1969 124.271 48.2101 124.359 48.2542C124.747 48.4924 125.118 48.6556 125.471 48.7438C125.824 48.832 126.172 48.8761 126.516 48.8761C127.142 48.8761 127.614 48.7085 127.932 48.3733C128.258 48.0381 128.422 47.5529 128.422 46.9178V45.4226H128.554C128.422 45.9342 128.139 46.34 127.707 46.6399C127.284 46.9398 126.785 47.0898 126.212 47.0898C125.621 47.0898 125.109 46.9575 124.677 46.6928C124.245 46.4194 123.909 46.0401 123.671 45.5549C123.442 45.0697 123.327 44.5096 123.327 43.8744C123.327 43.3981 123.393 42.9658 123.526 42.5777C123.658 42.1807 123.848 41.8455 124.095 41.5721C124.35 41.2898 124.655 41.0736 125.008 40.9237C125.369 40.7649 125.771 40.6855 126.212 40.6855C126.794 40.6855 127.297 40.8355 127.72 41.1354C128.144 41.4265 128.417 41.8235 128.541 42.3263L128.408 42.4851V41.2545C128.408 41.0781 128.452 40.9457 128.541 40.8575C128.638 40.7605 128.77 40.712 128.938 40.712C129.114 40.712 129.246 40.7605 129.335 40.8575C129.423 40.9457 129.467 41.0781 129.467 41.2545V46.7722C129.467 47.7514 129.22 48.488 128.726 48.982C128.241 49.4848 127.522 49.7362 126.569 49.7362ZM126.41 46.2165C126.825 46.2165 127.182 46.1239 127.482 45.9386C127.782 45.7445 128.011 45.4711 128.17 45.1182C128.338 44.7654 128.422 44.3508 128.422 43.8744C128.422 43.1599 128.241 42.5953 127.879 42.1807C127.517 41.7573 127.028 41.5456 126.41 41.5456C126.004 41.5456 125.652 41.6426 125.352 41.8367C125.052 42.0219 124.818 42.291 124.65 42.6438C124.492 42.9879 124.412 43.3981 124.412 43.8744C124.412 44.589 124.593 45.1579 124.955 45.5814C125.316 46.0048 125.802 46.2165 126.41 46.2165ZM133.436 47.3544C132.8 47.3544 132.315 47.1604 131.98 46.7722C131.645 46.3841 131.477 45.8283 131.477 45.105V38.3567C131.477 38.1803 131.521 38.0479 131.61 37.9597C131.698 37.8627 131.83 37.8142 132.007 37.8142C132.174 37.8142 132.306 37.8627 132.404 37.9597C132.501 38.0479 132.549 38.1803 132.549 38.3567V45.0256C132.549 45.502 132.642 45.8592 132.827 46.0974C133.021 46.3268 133.303 46.4414 133.674 46.4414C133.753 46.4414 133.824 46.437 133.886 46.4282C133.947 46.4194 134.009 46.415 134.071 46.415C134.168 46.4061 134.234 46.4282 134.269 46.4811C134.313 46.5341 134.335 46.6399 134.335 46.7987C134.335 46.9575 134.3 47.0766 134.23 47.156C134.159 47.2354 134.044 47.2883 133.886 47.3147C133.815 47.3236 133.74 47.3324 133.661 47.3412C133.581 47.35 133.506 47.3544 133.436 47.3544ZM135.922 47.3015C135.745 47.3015 135.613 47.253 135.525 47.156C135.437 47.0501 135.393 46.9046 135.393 46.7193V41.3074C135.393 41.1222 135.437 40.981 135.525 40.884C135.613 40.787 135.745 40.7384 135.922 40.7384C136.09 40.7384 136.222 40.787 136.319 40.884C136.416 40.981 136.464 41.1222 136.464 41.3074V46.7193C136.464 46.9046 136.416 47.0501 136.319 47.156C136.231 47.253 136.098 47.3015 135.922 47.3015ZM135.922 39.2565C135.701 39.2565 135.529 39.1991 135.406 39.0844C135.282 38.9609 135.221 38.7977 135.221 38.5949C135.221 38.3831 135.282 38.2244 135.406 38.1185C135.529 38.0038 135.701 37.9465 135.922 37.9465C136.151 37.9465 136.323 38.0038 136.438 38.1185C136.561 38.2244 136.623 38.3831 136.623 38.5949C136.623 38.7977 136.561 38.9609 136.438 39.0844C136.323 39.1991 136.151 39.2565 135.922 39.2565ZM138.997 47.328C138.821 47.328 138.689 47.2795 138.6 47.1824C138.512 47.0854 138.468 46.9487 138.468 46.7722V41.2545C138.468 41.0781 138.512 40.9457 138.6 40.8575C138.689 40.7605 138.816 40.712 138.984 40.712C139.152 40.712 139.28 40.7605 139.368 40.8575C139.465 40.9457 139.513 41.0781 139.513 41.2545V42.3924L139.368 42.2337C139.553 41.722 139.853 41.3383 140.268 41.0825C140.691 40.8178 141.176 40.6855 141.723 40.6855C142.235 40.6855 142.658 40.7781 142.993 40.9634C143.337 41.1486 143.593 41.4309 143.761 41.8102C143.928 42.1807 144.012 42.6527 144.012 43.2261V46.7722C144.012 46.9487 143.964 47.0854 143.867 47.1824C143.778 47.2795 143.651 47.328 143.483 47.328C143.307 47.328 143.17 47.2795 143.073 47.1824C142.985 47.0854 142.94 46.9487 142.94 46.7722V43.2922C142.94 42.6924 142.821 42.2557 142.583 41.9822C142.354 41.7 141.983 41.5588 141.472 41.5588C140.881 41.5588 140.409 41.7441 140.056 42.1146C139.712 42.4762 139.54 42.9614 139.54 43.5701V46.7722C139.54 47.1427 139.359 47.328 138.997 47.328ZM148.886 47.3544C148.207 47.3544 147.621 47.2221 147.127 46.9575C146.641 46.684 146.262 46.3003 145.989 45.8063C145.724 45.3123 145.592 44.7213 145.592 44.0332C145.592 43.3628 145.724 42.7806 145.989 42.2866C146.253 41.7838 146.615 41.3912 147.074 41.1089C147.541 40.8267 148.079 40.6855 148.688 40.6855C149.12 40.6855 149.508 40.7605 149.852 40.9105C150.196 41.0516 150.487 41.2589 150.726 41.5324C150.973 41.8058 151.158 42.1366 151.281 42.5248C151.414 42.9129 151.48 43.3496 151.48 43.8347C151.48 43.9759 151.44 44.0817 151.361 44.1523C151.281 44.214 151.167 44.2449 151.017 44.2449H146.412V43.5436H150.765L150.554 43.7156C150.554 43.2393 150.483 42.8379 150.342 42.5115C150.201 42.1763 149.993 41.9205 149.72 41.7441C149.455 41.5676 149.12 41.4794 148.714 41.4794C148.264 41.4794 147.881 41.5853 147.563 41.797C147.254 41.9999 147.021 42.2866 146.862 42.6571C146.703 43.0188 146.624 43.4422 146.624 43.9274V44.0067C146.624 44.8183 146.818 45.4358 147.206 45.8592C147.603 46.2826 148.163 46.4944 148.886 46.4944C149.186 46.4944 149.482 46.4547 149.773 46.3753C150.073 46.2959 150.364 46.1636 150.646 45.9783C150.77 45.8989 150.88 45.8636 150.977 45.8725C151.083 45.8725 151.167 45.9033 151.228 45.9651C151.29 46.018 151.33 46.0886 151.348 46.1768C151.374 46.2562 151.365 46.3444 151.321 46.4414C151.286 46.5385 151.211 46.6223 151.096 46.6928C150.805 46.9046 150.461 47.0677 150.064 47.1824C149.667 47.2971 149.275 47.3544 148.886 47.3544Z" fill="#787F8C"/>
<path d="M31.2095 24.7082C29.7895 23.0036 27.7195 22.2251 25.7095 22.3631C22.0495 22.6094 18.9795 19.7618 18.3095 16.3328C17.9495 14.5001 18.6696 12.7856 18.4296 10.9529C18.1596 8.85413 17.1295 6.88346 15.5595 5.44487C15.2995 5.20839 15.0295 4.98176 14.7395 4.77484C11.3895 2.3115 6.67954 2.42974 3.43954 5.02117C-0.890455 8.48956 -1.13045 14.776 2.70955 18.5597C4.01955 19.8505 5.71955 20.7373 7.54955 21.0723C9.53955 21.4369 11.4495 20.688 13.4195 20.9442C14.9095 21.1314 16.3195 21.8113 17.3895 22.8656C20.6895 26.1172 20.6895 31.438 17.3895 34.6798L17.1595 34.9064C15.7995 36.2465 14.0296 37.0347 12.1496 37.3993C11.3096 37.557 10.5095 37.9511 9.85954 38.5916C8.14954 40.2568 8.09955 43.0453 9.73955 44.7696C11.4795 46.5925 14.3996 46.6221 16.1796 44.8682C16.9096 44.1489 17.3395 43.2424 17.4595 42.3063C17.6795 40.5623 18.5996 38.966 19.8696 37.7245L20.0096 37.5865C21.6296 35.9903 23.8496 35.202 26.1496 35.2119C28.0596 35.2119 29.9795 34.394 31.2995 32.7485C33.1595 30.3837 33.1195 26.9942 31.2095 24.7082Z" fill="#0B59DB"/>
<path d="M36.7996 4.32085C34.9096 2.59651 31.8896 2.61622 30.0196 4.37012C28.7396 5.57223 28.2596 7.267 28.5796 8.85339C28.7996 9.96682 28.4896 11.1098 27.6796 11.9079L27.2796 12.3021C26.7296 12.844 25.9896 13.11 25.2096 13.1593C24.4396 13.1987 23.6896 13.5535 23.1696 14.2235C22.4196 15.1891 22.4296 16.5883 23.1996 17.5441C24.2396 18.8348 26.1596 18.9137 27.3096 17.7805C27.7996 17.2977 28.0696 16.677 28.1096 16.0365C28.1596 15.2187 28.4996 14.4501 29.0796 13.8688L29.3796 13.5732C30.1796 12.7849 31.3296 12.4597 32.4396 12.6765C34.0096 12.9918 35.7096 12.5484 36.9396 11.3463C38.9296 9.41503 38.8796 6.21269 36.7996 4.32085Z" fill="#0B59DB"/>
</svg>
