<svg width="203" height="50" viewBox="0 0 203 50" fill="none" xmlns="http://www.w3.org/2000/svg">
<path d="M66.3811 27.369C64.9274 27.369 63.576 27.1029 62.327 26.5705C61.0984 26.0381 60.0337 25.301 59.1328 24.3591C58.2523 23.3968 57.6073 22.2809 57.1978 21.0114L60.6684 19.5064C61.2213 20.8169 62.0198 21.8509 63.0641 22.6085C64.1083 23.3456 65.2857 23.7142 66.5961 23.7142C67.3332 23.7142 67.968 23.6015 68.5004 23.3763C69.0532 23.1306 69.4729 22.803 69.7596 22.3935C70.0667 21.984 70.2203 21.4926 70.2203 20.9192C70.2203 20.2435 70.0155 19.6907 69.606 19.2607C69.217 18.8102 68.6232 18.4622 67.8247 18.2165L63.4326 16.8036C61.6513 16.2508 60.3101 15.4215 59.4092 14.3159C58.5083 13.2102 58.0578 11.91 58.0578 10.4153C58.0578 9.10481 58.3752 7.94794 59.0099 6.94464C59.6651 5.94133 60.5661 5.16326 61.7127 4.61042C62.8798 4.0371 64.2107 3.75044 65.7054 3.75044C67.0773 3.75044 68.3365 3.99615 69.4832 4.48756C70.6298 4.9585 71.6126 5.62396 72.4317 6.48394C73.2712 7.32344 73.8957 8.3165 74.3052 9.46314L70.8653 10.9988C70.4148 9.85217 69.7391 8.97172 68.8382 8.35745C67.9373 7.72271 66.893 7.40534 65.7054 7.40534C65.0093 7.40534 64.395 7.52819 63.8626 7.7739C63.3303 7.99913 62.9105 8.32674 62.6034 8.75673C62.3167 9.16624 62.1734 9.65766 62.1734 10.231C62.1734 10.8657 62.3781 11.4288 62.7877 11.9202C63.1972 12.3911 63.8217 12.7597 64.6612 13.0259L68.8689 14.3466C70.6912 14.9404 72.0529 15.7594 72.9538 16.8036C73.8752 17.8479 74.3359 19.1379 74.3359 20.6735C74.3359 21.984 73.9981 23.1408 73.3224 24.1441C72.6467 25.1474 71.715 25.9358 70.5274 26.5091C69.3399 27.0824 67.9578 27.369 66.3811 27.369ZM86.9118 27.369C85.1509 27.369 83.5846 27.0005 82.2127 26.2634C80.8613 25.5262 79.7966 24.5127 79.0185 23.2227C78.2404 21.9328 77.8514 20.4688 77.8514 18.8307V4.119H82.0284V18.6157C82.0284 19.5576 82.2332 20.4073 82.6427 21.1649C83.0727 21.9225 83.6562 22.5163 84.3933 22.9463C85.1305 23.3558 85.97 23.5606 86.9118 23.5606C87.8742 23.5606 88.7137 23.3558 89.4303 22.9463C90.1675 22.5163 90.7408 21.9225 91.1503 21.1649C91.5803 20.4073 91.7953 19.5576 91.7953 18.6157V4.119H95.9723V18.8307C95.9723 20.4688 95.5833 21.9328 94.8052 23.2227C94.0271 24.5127 92.9521 25.5262 91.5803 26.2634C90.2289 27.0005 88.6727 27.369 86.9118 27.369ZM100.142 27.0005V4.119H103.398L115.99 21.0728L114.301 21.4106V4.119H118.478V27.0005H115.192L102.784 9.92384L104.319 9.58599V27.0005H100.142ZM126.962 27.0005V7.80461H121.034V4.119H137.005V7.80461H131.169V27.0005H126.962ZM139.554 27.0005V4.119H154.757V7.80461H143.731V13.6709H154.143V17.3565H143.731V23.3149H154.757V27.0005H139.554ZM168.57 27.369C166.932 27.369 165.416 27.0722 164.024 26.4784C162.652 25.8846 161.444 25.0553 160.4 23.9906C159.376 22.9258 158.578 21.6768 158.004 20.2435C157.431 18.8102 157.144 17.2439 157.144 15.5444C157.144 13.8449 157.421 12.2785 157.974 10.8452C158.547 9.39147 159.345 8.14246 160.369 7.09821C161.413 6.03347 162.632 5.21445 164.024 4.64113C165.416 4.04734 166.932 3.75044 168.57 3.75044C170.208 3.75044 171.672 4.02686 172.962 4.57971C174.272 5.13255 175.378 5.86967 176.279 6.79107C177.18 7.692 177.825 8.68506 178.214 9.77027L174.467 11.5209C174.037 10.3743 173.31 9.43242 172.286 8.6953C171.262 7.9377 170.023 7.55891 168.57 7.55891C167.136 7.55891 165.867 7.89675 164.761 8.57245C163.676 9.24814 162.826 10.1798 162.212 11.3674C161.618 12.555 161.321 13.9473 161.321 15.5444C161.321 17.1415 161.618 18.5441 162.212 19.7521C162.826 20.9397 163.676 21.8714 164.761 22.547C165.867 23.2227 167.136 23.5606 168.57 23.5606C170.023 23.5606 171.262 23.192 172.286 22.4549C173.31 21.6973 174.037 20.7452 174.467 19.5986L178.214 21.3492C177.825 22.4344 177.18 23.4377 176.279 24.3591C175.378 25.2601 174.272 25.9869 172.962 26.5398C171.672 27.0926 170.208 27.369 168.57 27.369ZM181.605 27.0005V4.119H185.782V14.1009H195.518V4.119H199.726V27.0005H195.518V17.7865H185.782V27.0005H181.605Z" fill="#0B59DB"/>
<path d="M59.5859 46.1196C59.0831 46.1196 58.6596 46.0314 58.3156 45.8549C57.9804 45.6697 57.729 45.405 57.5614 45.061C57.3938 44.7082 57.31 44.2803 57.31 43.7775V40.4034H56.4234C56.2735 40.4034 56.1588 40.3681 56.0794 40.2975C56 40.2181 55.9603 40.1122 55.9603 39.9799C55.9603 39.8476 56 39.7462 56.0794 39.6756C56.1588 39.605 56.2735 39.5697 56.4234 39.5697H57.31V38.0481C57.31 37.8716 57.3585 37.7393 57.4555 37.6511C57.5526 37.5541 57.6849 37.5055 57.8525 37.5055C58.0201 37.5055 58.148 37.5541 58.2362 37.6511C58.3332 37.7393 58.3818 37.8716 58.3818 38.0481V39.5697H60.049C60.199 39.5697 60.3136 39.605 60.393 39.6756C60.4724 39.7462 60.5121 39.8476 60.5121 39.9799C60.5121 40.1122 60.4724 40.2181 60.393 40.2975C60.3136 40.3681 60.199 40.4034 60.049 40.4034H58.3818V43.6717C58.3818 44.1745 58.4876 44.5582 58.6993 44.8228C58.911 45.0787 59.2551 45.2066 59.7314 45.2066C59.899 45.2066 60.0402 45.1889 60.1548 45.1536C60.2783 45.1184 60.3798 45.1007 60.4592 45.1007C60.5386 45.0919 60.6047 45.1184 60.6577 45.1801C60.7106 45.2419 60.7371 45.3477 60.7371 45.4977C60.7371 45.6035 60.715 45.7006 60.6709 45.7888C60.6356 45.877 60.5695 45.9387 60.4724 45.974C60.3666 46.0093 60.2254 46.0402 60.049 46.0666C59.8814 46.1019 59.727 46.1196 59.5859 46.1196ZM64.4649 46.1196C63.7856 46.1196 63.199 45.9873 62.705 45.7226C62.2198 45.4492 61.8405 45.0654 61.5671 44.5714C61.3024 44.0774 61.1701 43.4864 61.1701 42.7983C61.1701 42.1279 61.3024 41.5457 61.5671 41.0517C61.8317 40.5489 62.1934 40.1564 62.6521 39.8741C63.1196 39.5918 63.6577 39.4506 64.2664 39.4506C64.6986 39.4506 65.0868 39.5256 65.4308 39.6756C65.7748 39.8167 66.0659 40.024 66.3041 40.2975C66.5511 40.571 66.7364 40.9018 66.8599 41.2899C66.9922 41.678 67.0583 42.1147 67.0583 42.5999C67.0583 42.741 67.0186 42.8469 66.9392 42.9174C66.8599 42.9792 66.7452 43.0101 66.5952 43.0101H61.9905V42.3088H66.3438L66.1321 42.4808C66.1321 42.0044 66.0615 41.6031 65.9204 41.2767C65.7792 40.9415 65.5719 40.6856 65.2985 40.5092C65.0338 40.3328 64.6986 40.2446 64.2928 40.2446C63.843 40.2446 63.4592 40.3504 63.1417 40.5621C62.8329 40.765 62.5992 41.0517 62.4404 41.4222C62.2816 41.7839 62.2022 42.2073 62.2022 42.6925V42.7719C62.2022 43.5834 62.3963 44.2009 62.7844 44.6244C63.1814 45.0478 63.7415 45.2595 64.4649 45.2595C64.7648 45.2595 65.0603 45.2198 65.3514 45.1404C65.6513 45.061 65.9424 44.9287 66.2247 44.7434C66.3482 44.6641 66.4585 44.6288 66.5555 44.6376C66.6614 44.6376 66.7452 44.6685 66.8069 44.7302C66.8687 44.7831 66.9084 44.8537 66.926 44.9419C66.9525 45.0213 66.9437 45.1095 66.8996 45.2066C66.8643 45.3036 66.7893 45.3874 66.6746 45.458C66.3835 45.6697 66.0395 45.8329 65.6425 45.9476C65.2456 46.0622 64.853 46.1196 64.4649 46.1196ZM71.3353 46.1196C70.6913 46.1196 70.1356 45.9784 69.668 45.6962C69.2005 45.4139 68.8388 45.0213 68.583 44.5185C68.336 44.0069 68.2125 43.4158 68.2125 42.7454C68.2125 42.2338 68.2831 41.7751 68.4242 41.3693C68.5654 40.9635 68.7727 40.6195 69.0461 40.3372C69.3196 40.0461 69.646 39.8256 70.0253 39.6756C70.4134 39.5256 70.8501 39.4506 71.3353 39.4506C71.6528 39.4506 71.9836 39.4992 72.3277 39.5962C72.6717 39.6932 72.9849 39.8608 73.2671 40.099C73.3554 40.1608 73.4127 40.2357 73.4392 40.324C73.4656 40.4122 73.4656 40.5004 73.4392 40.5886C73.4127 40.668 73.3686 40.7386 73.3068 40.8003C73.2451 40.8532 73.1657 40.8841 73.0687 40.8929C72.9804 40.9018 72.8878 40.8709 72.7908 40.8003C72.5614 40.6239 72.3277 40.5004 72.0895 40.4298C71.8513 40.3592 71.622 40.324 71.4014 40.324C71.0574 40.324 70.7575 40.3813 70.5017 40.496C70.2458 40.6018 70.0297 40.7562 69.8533 40.9591C69.6769 41.162 69.5401 41.4134 69.4431 41.7133C69.3549 42.0132 69.3108 42.3617 69.3108 42.7586C69.3108 43.5261 69.4916 44.1348 69.8533 44.5847C70.215 45.0257 70.731 45.2463 71.4014 45.2463C71.622 45.2463 71.8469 45.211 72.0763 45.1404C72.3144 45.0698 72.5526 44.9463 72.7908 44.7699C72.8878 44.6993 72.9804 44.6685 73.0687 44.6773C73.1569 44.6861 73.2319 44.7214 73.2936 44.7831C73.3554 44.8361 73.395 44.9066 73.4127 44.9949C73.4392 45.0831 73.4392 45.1713 73.4127 45.2595C73.3862 45.3389 73.3289 45.4095 73.2407 45.4712C72.9584 45.7006 72.6496 45.8682 72.3144 45.974C71.9792 46.0711 71.6528 46.1196 71.3353 46.1196ZM75.2637 46.0931C75.0873 46.0931 74.955 46.0446 74.8668 45.9476C74.7786 45.8505 74.7344 45.7138 74.7344 45.5374V37.1218C74.7344 36.9454 74.7786 36.8131 74.8668 36.7249C74.955 36.6278 75.0873 36.5793 75.2637 36.5793C75.4313 36.5793 75.5637 36.6278 75.6607 36.7249C75.7577 36.8131 75.8062 36.9454 75.8062 37.1218V40.9988H75.6342C75.8195 40.4872 76.1194 40.1034 76.534 39.8476C76.9574 39.583 77.4426 39.4506 77.9895 39.4506C78.5012 39.4506 78.9246 39.5433 79.2598 39.7285C79.6038 39.9138 79.8596 40.1961 80.0272 40.5754C80.1949 40.9459 80.2787 41.4178 80.2787 41.9912V45.5374C80.2787 45.7138 80.2301 45.8505 80.1331 45.9476C80.0449 46.0446 79.917 46.0931 79.7494 46.0931C79.5729 46.0931 79.4362 46.0446 79.3392 45.9476C79.251 45.8505 79.2069 45.7138 79.2069 45.5374V42.0574C79.2069 41.4575 79.0878 41.0208 78.8496 40.7474C78.6202 40.4651 78.2497 40.324 77.7381 40.324C77.1471 40.324 76.6751 40.5092 76.3223 40.8797C75.9783 41.2414 75.8062 41.7266 75.8062 42.3352V45.5374C75.8062 45.9079 75.6254 46.0931 75.2637 46.0931ZM87.8364 46.1196C87.4394 46.1196 87.0381 46.0711 86.6323 45.974C86.2353 45.877 85.8648 45.7094 85.5208 45.4712C85.4326 45.4095 85.3708 45.3389 85.3356 45.2595C85.3003 45.1713 85.287 45.0875 85.2959 45.0081C85.3135 44.9199 85.3488 44.8449 85.4017 44.7831C85.4635 44.7214 85.534 44.6861 85.6134 44.6773C85.7016 44.6596 85.7987 44.6773 85.9045 44.7302C86.2486 44.9419 86.5794 45.0919 86.8969 45.1801C87.2233 45.2595 87.5453 45.2992 87.8629 45.2992C88.3657 45.2992 88.745 45.2066 89.0008 45.0213C89.2566 44.8361 89.3845 44.5847 89.3845 44.2671C89.3845 44.0201 89.3007 43.826 89.1331 43.6849C88.9655 43.5349 88.7009 43.4202 88.3392 43.3409L87.1351 43.0762C86.5794 42.9615 86.1648 42.7631 85.8913 42.4808C85.6267 42.1985 85.4943 41.8324 85.4943 41.3825C85.4943 40.9856 85.5958 40.6459 85.7987 40.3637C86.0104 40.0726 86.3059 39.8476 86.6852 39.6888C87.0645 39.53 87.5056 39.4506 88.0084 39.4506C88.3966 39.4506 88.7626 39.5036 89.1067 39.6094C89.4595 39.7065 89.7771 39.8653 90.0594 40.0858C90.1476 40.1475 90.2049 40.2225 90.2314 40.3107C90.2667 40.3901 90.2711 40.4739 90.2446 40.5621C90.227 40.6415 90.1873 40.7121 90.1255 40.7738C90.0638 40.8268 89.9888 40.8577 89.9006 40.8665C89.8124 40.8753 89.7198 40.8488 89.6227 40.7871C89.3581 40.6107 89.089 40.4827 88.8156 40.4034C88.5421 40.3151 88.2731 40.271 88.0084 40.271C87.5144 40.271 87.1395 40.3681 86.8837 40.5621C86.6279 40.7562 86.5 41.012 86.5 41.3296C86.5 41.5766 86.5794 41.7795 86.7381 41.9383C86.8969 42.097 87.1439 42.2117 87.4791 42.2823L88.6832 42.5337C89.2566 42.6572 89.6845 42.8557 89.9668 43.1291C90.2579 43.3938 90.4034 43.7555 90.4034 44.2142C90.4034 44.7964 90.1696 45.2595 89.7021 45.6035C89.2346 45.9476 88.6127 46.1196 87.8364 46.1196ZM93.9952 46.1196C93.36 46.1196 92.8749 45.9255 92.5397 45.5374C92.2044 45.1492 92.0368 44.5935 92.0368 43.8701V37.1218C92.0368 36.9454 92.0809 36.8131 92.1692 36.7249C92.2574 36.6278 92.3897 36.5793 92.5661 36.5793C92.7337 36.5793 92.866 36.6278 92.9631 36.7249C93.0601 36.8131 93.1086 36.9454 93.1086 37.1218V43.7907C93.1086 44.2671 93.2013 44.6244 93.3865 44.8625C93.5806 45.0919 93.8629 45.2066 94.2333 45.2066C94.3127 45.2066 94.3833 45.2022 94.4451 45.1933C94.5068 45.1845 94.5686 45.1801 94.6303 45.1801C94.7273 45.1713 94.7935 45.1933 94.8288 45.2463C94.8729 45.2992 94.8949 45.405 94.8949 45.5638C94.8949 45.7226 94.8597 45.8417 94.7891 45.9211C94.7185 46.0005 94.6038 46.0534 94.4451 46.0799C94.3745 46.0887 94.2995 46.0975 94.2201 46.1063C94.1407 46.1152 94.0657 46.1196 93.9952 46.1196ZM98.5604 46.1196C97.9341 46.1196 97.3916 45.9828 96.9329 45.7094C96.4742 45.4359 96.1169 45.0522 95.8611 44.5582C95.6141 44.0554 95.4906 43.4644 95.4906 42.7851C95.4906 42.2735 95.5612 41.8148 95.7023 41.409C95.8434 40.9944 96.0508 40.6415 96.3242 40.3504C96.5977 40.0593 96.9197 39.8388 97.2901 39.6888C97.6695 39.53 98.0929 39.4506 98.5604 39.4506C99.1867 39.4506 99.7292 39.5874 100.188 39.8608C100.647 40.1343 101 40.5224 101.247 41.0253C101.502 41.5193 101.63 42.1059 101.63 42.7851C101.63 43.2967 101.56 43.7555 101.419 44.1612C101.277 44.567 101.07 44.9199 100.797 45.2198C100.523 45.5109 100.197 45.7358 99.8175 45.8946C99.447 46.0446 99.028 46.1196 98.5604 46.1196ZM98.5604 45.2595C98.9574 45.2595 99.3058 45.1625 99.6057 44.9684C99.9057 44.7743 100.135 44.492 100.294 44.1215C100.461 43.751 100.545 43.3056 100.545 42.7851C100.545 41.9824 100.364 41.3693 100.003 40.9459C99.6499 40.5224 99.1691 40.3107 98.5604 40.3107C98.1546 40.3107 97.8018 40.4078 97.5019 40.6018C97.2108 40.7871 96.9814 41.065 96.8138 41.4354C96.655 41.7971 96.5756 42.247 96.5756 42.7851C96.5756 43.579 96.7565 44.1921 97.1181 44.6244C97.4798 45.0478 97.9606 45.2595 98.5604 45.2595ZM106.085 48.5013C105.617 48.5013 105.159 48.444 104.709 48.3293C104.268 48.2235 103.866 48.0514 103.505 47.8133C103.399 47.7515 103.328 47.6765 103.293 47.5883C103.267 47.5001 103.262 47.4119 103.28 47.3237C103.297 47.2443 103.337 47.1693 103.399 47.0987C103.461 47.037 103.531 46.9973 103.611 46.9797C103.699 46.962 103.787 46.9752 103.875 47.0194C104.263 47.2575 104.634 47.4207 104.987 47.5089C105.34 47.5971 105.688 47.6413 106.032 47.6413C106.658 47.6413 107.13 47.4737 107.448 47.1384C107.774 46.8032 107.937 46.3181 107.937 45.6829V44.1877H108.07C107.937 44.6993 107.655 45.1051 107.223 45.405C106.8 45.705 106.301 45.8549 105.728 45.8549C105.137 45.8549 104.625 45.7226 104.193 45.458C103.761 45.1845 103.425 44.8052 103.187 44.32C102.958 43.8349 102.843 43.2747 102.843 42.6396C102.843 42.1632 102.909 41.731 103.042 41.3428C103.174 40.9459 103.364 40.6107 103.611 40.3372C103.866 40.0549 104.171 39.8388 104.524 39.6888C104.885 39.53 105.287 39.4506 105.728 39.4506C106.31 39.4506 106.813 39.6006 107.236 39.9005C107.66 40.1916 107.933 40.5886 108.057 41.0914L107.924 41.2502V40.0196C107.924 39.8432 107.968 39.7109 108.057 39.6227C108.154 39.5256 108.286 39.4771 108.454 39.4771C108.63 39.4771 108.762 39.5256 108.85 39.6227C108.939 39.7109 108.983 39.8432 108.983 40.0196V45.5374C108.983 46.5165 108.736 47.2531 108.242 47.7471C107.757 48.2499 107.038 48.5013 106.085 48.5013ZM105.926 44.9816C106.341 44.9816 106.698 44.889 106.998 44.7038C107.298 44.5097 107.527 44.2362 107.686 43.8834C107.854 43.5305 107.937 43.1159 107.937 42.6396C107.937 41.925 107.757 41.3605 107.395 40.9459C107.033 40.5224 106.544 40.3107 105.926 40.3107C105.52 40.3107 105.168 40.4078 104.868 40.6018C104.568 40.7871 104.334 41.0561 104.166 41.409C104.008 41.753 103.928 42.1632 103.928 42.6396C103.928 43.3541 104.109 43.9231 104.471 44.3465C104.832 44.7699 105.318 44.9816 105.926 44.9816ZM113.018 46.1196C112.577 46.1196 112.18 46.0358 111.827 45.8682C111.483 45.6917 111.209 45.4536 111.006 45.1536C110.804 44.8537 110.702 44.5185 110.702 44.148C110.702 43.6717 110.821 43.2967 111.059 43.0233C111.306 42.7498 111.708 42.5558 112.263 42.4411C112.828 42.3264 113.596 42.2691 114.566 42.2691H115.161V42.9704H114.579C113.865 42.9704 113.3 43.0056 112.885 43.0762C112.48 43.138 112.193 43.2482 112.025 43.407C111.867 43.5658 111.787 43.7907 111.787 44.0818C111.787 44.4435 111.911 44.739 112.158 44.9684C112.413 45.1977 112.757 45.3124 113.19 45.3124C113.543 45.3124 113.851 45.2286 114.116 45.061C114.389 44.8934 114.601 44.6641 114.751 44.373C114.91 44.0818 114.989 43.7466 114.989 43.3673V41.8589C114.989 41.3119 114.879 40.9194 114.658 40.6812C114.438 40.4342 114.076 40.3107 113.573 40.3107C113.265 40.3107 112.956 40.3504 112.647 40.4298C112.338 40.5092 112.012 40.6371 111.668 40.8135C111.545 40.8753 111.439 40.8973 111.35 40.8797C111.262 40.8532 111.192 40.8047 111.139 40.7342C111.086 40.6636 111.055 40.5842 111.046 40.496C111.037 40.3989 111.055 40.3063 111.099 40.2181C111.152 40.1299 111.231 40.0593 111.337 40.0064C111.725 39.8123 112.109 39.6712 112.488 39.583C112.868 39.4948 113.229 39.4506 113.573 39.4506C114.129 39.4506 114.588 39.5433 114.95 39.7285C115.311 39.9049 115.58 40.1784 115.757 40.5489C115.933 40.9106 116.021 41.3781 116.021 41.9515V45.5374C116.021 45.7138 115.977 45.8505 115.889 45.9476C115.81 46.0446 115.691 46.0931 115.532 46.0931C115.364 46.0931 115.236 46.0446 115.148 45.9476C115.06 45.8505 115.016 45.7138 115.016 45.5374V44.5053H115.135C115.064 44.8405 114.928 45.1272 114.725 45.3654C114.531 45.6035 114.288 45.7888 113.997 45.9211C113.706 46.0534 113.379 46.1196 113.018 46.1196ZM118.539 46.0931C118.363 46.0931 118.23 46.0446 118.142 45.9476C118.054 45.8505 118.01 45.7138 118.01 45.5374V40.0196C118.01 39.8432 118.054 39.7109 118.142 39.6227C118.23 39.5256 118.358 39.4771 118.526 39.4771C118.693 39.4771 118.821 39.5256 118.91 39.6227C119.007 39.7109 119.055 39.8432 119.055 40.0196V41.1576L118.91 40.9988C119.095 40.4872 119.395 40.1034 119.809 39.8476C120.233 39.583 120.718 39.4506 121.265 39.4506C121.777 39.4506 122.2 39.5433 122.535 39.7285C122.879 39.9138 123.135 40.1961 123.303 40.5754C123.47 40.9459 123.554 41.4178 123.554 41.9912V45.5374C123.554 45.7138 123.505 45.8505 123.408 45.9476C123.32 46.0446 123.192 46.0931 123.025 46.0931C122.848 46.0931 122.712 46.0446 122.615 45.9476C122.526 45.8505 122.482 45.7138 122.482 45.5374V42.0574C122.482 41.4575 122.363 41.0208 122.125 40.7474C121.896 40.4651 121.525 40.324 121.013 40.324C120.422 40.324 119.95 40.5092 119.598 40.8797C119.254 41.2414 119.082 41.7266 119.082 42.3352V45.5374C119.082 45.9079 118.901 46.0931 118.539 46.0931Z" fill="#787F8C"/>
<path d="M38.9362 28.1496C37.7695 28.1681 36.6769 28.5004 35.751 29.0635C34.4455 29.8573 32.8343 29.9404 31.5103 29.1742L30.9825 28.8696C29.6677 28.1127 28.9547 26.6819 28.9917 25.1681C29.0473 22.8789 27.8436 20.6358 25.6862 19.4635C23.6029 18.3374 21.1769 18.5035 19.3066 19.685C18.0288 20.4973 16.3806 20.4512 15.0751 19.6943L14.6584 19.4543C13.3621 18.7066 12.5751 17.3127 12.6399 15.8266C12.6399 15.7343 12.6492 15.642 12.6492 15.5589V15.5035C12.6399 13.8881 13.501 12.3927 14.9084 11.5897L14.9362 11.5712C16.3158 10.7774 18.0103 10.8143 19.3621 11.6543C19.6677 11.8389 19.9918 12.005 20.3436 12.1435C22.3158 12.9281 24.4362 12.6512 26.0936 11.5897C27.3343 10.7958 28.8899 10.6851 30.1677 11.4235L30.7047 11.7281C32.0288 12.4851 32.7418 13.925 32.714 15.4389C32.6955 16.2327 32.8343 17.045 33.1399 17.8296C34.214 20.6081 37.1862 22.2788 40.1214 21.7435C44.2973 20.9865 46.5751 16.482 44.6399 12.6697C43.4362 10.2974 40.7788 8.93123 38.1399 9.30969C37.1955 9.44816 36.3436 9.78045 35.6029 10.2512C34.3436 11.0635 32.714 11.0266 31.4269 10.2789L30.9084 9.97428C29.6491 9.24505 28.9547 7.87891 28.9917 6.42968C29.0473 3.80815 27.4455 1.30664 24.7973 0.355871C21.7047 -0.742587 18.1862 0.789716 16.8806 3.7897C16.5103 4.64816 16.3436 5.54354 16.3621 6.41123C16.3992 7.9343 15.538 9.33737 14.214 10.1035L14.001 10.2328C12.6121 11.0358 10.9177 10.9528 9.53805 10.1312C8.59361 9.56814 7.49174 9.25428 6.31582 9.25428C2.97323 9.26351 0.149156 11.9681 0.0195264 15.3004C-0.119363 18.8912 2.76027 21.845 6.32509 21.845C7.51027 21.845 8.62138 21.5219 9.56583 20.9496C10.8714 20.165 12.4918 20.0727 13.8066 20.8296L14.3621 21.1527C15.6769 21.9096 16.3899 23.3404 16.3529 24.845C16.2973 27.1342 17.501 29.3681 19.6584 30.5311C21.7325 31.6481 24.1584 31.4911 26.0195 30.3188C27.2973 29.5158 28.9362 29.5619 30.2418 30.3188L30.5751 30.5127C31.8991 31.2696 32.7603 32.6819 32.7047 34.1957C32.6954 34.3527 32.6954 34.5004 32.7047 34.6573C32.7047 34.6665 32.7047 34.6757 32.7047 34.685C32.7603 36.1065 32.0843 37.4634 30.8529 38.1742L30.2325 38.5342C28.9732 39.2634 27.3899 39.2727 26.1769 38.4696C24.3899 37.2788 22.038 37.0296 19.9547 38.0173C19.6769 38.1465 19.4177 38.2942 19.1677 38.4603C18.001 39.2357 16.5288 39.3465 15.3158 38.6542L14.501 38.1834C13.2695 37.4727 12.5658 36.1342 12.6214 34.7219C12.7232 32.4881 11.6214 30.2635 9.53805 29.0358C6.69546 27.3558 2.91767 28.1958 1.07508 30.9373C-0.934178 33.9281 -0.0360259 37.9527 3.01027 39.8173C5.14916 41.128 7.76026 41.008 9.74174 39.7434C10.9454 38.968 12.4732 38.8942 13.714 39.6142L14.4825 40.0573C15.714 40.768 16.4084 42.0972 16.3621 43.5096C16.3251 44.5803 16.5566 45.6695 17.1029 46.6849C18.6029 49.4911 22.0843 50.7465 25.038 49.5465C27.6214 48.4942 29.0936 45.9834 28.964 43.408C28.8992 42.0326 29.6492 40.7496 30.8436 40.0573L31.5751 39.6326C32.7973 38.9311 34.3343 38.9126 35.5103 39.6973C36.5658 40.408 37.8529 40.7957 39.2232 40.7496C42.7973 40.6296 45.5658 37.565 45.2973 33.9834C45.0751 30.6973 42.2232 28.1034 38.9362 28.1496Z" fill="#0B59DB"/>
</svg>
