<svg width="186" height="50" viewBox="0 0 186 50" fill="none" xmlns="http://www.w3.org/2000/svg">
<path d="M67.7314 47.2211C67.0875 47.2211 66.5317 47.08 66.0642 46.7977C65.5967 46.5154 65.235 46.1229 64.9792 45.6201C64.7322 45.1084 64.6087 44.5174 64.6087 43.847C64.6087 43.3353 64.6792 42.8766 64.8204 42.4709C64.9615 42.0651 65.1688 41.721 65.4423 41.4388C65.7157 41.1477 66.0421 40.9271 66.4215 40.7772C66.8096 40.6272 67.2463 40.5522 67.7314 40.5522C68.049 40.5522 68.3798 40.6007 68.7238 40.6978C69.0679 40.7948 69.381 40.9624 69.6633 41.2006C69.7515 41.2623 69.8088 41.3373 69.8353 41.4255C69.8618 41.5137 69.8618 41.6019 69.8353 41.6902C69.8088 41.7696 69.7647 41.8401 69.703 41.9019C69.6412 41.9548 69.5619 41.9857 69.4648 41.9945C69.3766 42.0033 69.284 41.9724 69.1869 41.9019C68.9576 41.7254 68.7238 41.6019 68.4856 41.5314C68.2475 41.4608 68.0181 41.4255 67.7976 41.4255C67.4536 41.4255 67.1536 41.4829 66.8978 41.5975C66.642 41.7034 66.4259 41.8578 66.2494 42.0607C66.073 42.2635 65.9363 42.515 65.8392 42.8149C65.751 43.1148 65.7069 43.4633 65.7069 43.8602C65.7069 44.6277 65.8878 45.2363 66.2494 45.6862C66.6111 46.1273 67.1272 46.3478 67.7976 46.3478C68.0181 46.3478 68.2431 46.3125 68.4724 46.242C68.7106 46.1714 68.9488 46.0479 69.1869 45.8715C69.284 45.8009 69.3766 45.77 69.4648 45.7789C69.553 45.7877 69.628 45.823 69.6898 45.8847C69.7515 45.9376 69.7912 46.0082 69.8088 46.0964C69.8353 46.1846 69.8353 46.2728 69.8088 46.3611C69.7824 46.4405 69.725 46.511 69.6368 46.5728C69.3545 46.8021 69.0458 46.9697 68.7106 47.0756C68.3754 47.1726 68.049 47.2211 67.7314 47.2211ZM73.6742 47.2211C73.0479 47.2211 72.5054 47.0844 72.0467 46.8109C71.588 46.5375 71.2307 46.1538 70.9749 45.6598C70.7279 45.1569 70.6044 44.5659 70.6044 43.8867C70.6044 43.375 70.675 42.9163 70.8161 42.5105C70.9573 42.0959 71.1646 41.7431 71.438 41.452C71.7115 41.1609 72.0335 40.9403 72.404 40.7904C72.7833 40.6316 73.2067 40.5522 73.6742 40.5522C74.3006 40.5522 74.8431 40.6889 75.3018 40.9624C75.7605 41.2359 76.1133 41.624 76.3603 42.1268C76.6162 42.6208 76.7441 43.2074 76.7441 43.8867C76.7441 44.3983 76.6735 44.857 76.5324 45.2628C76.3912 45.6686 76.1839 46.0214 75.9105 46.3214C75.637 46.6125 75.3106 46.8374 74.9313 46.9962C74.5608 47.1462 74.1418 47.2211 73.6742 47.2211ZM73.6742 46.3611C74.0712 46.3611 74.4196 46.264 74.7196 46.07C75.0195 45.8759 75.2489 45.5936 75.4076 45.2231C75.5752 44.8526 75.659 44.4071 75.659 43.8867C75.659 43.0839 75.4782 42.4709 75.1165 42.0474C74.7637 41.624 74.2829 41.4123 73.6742 41.4123C73.2685 41.4123 72.9156 41.5093 72.6157 41.7034C72.3246 41.8886 72.0952 42.1665 71.9276 42.537C71.7688 42.8987 71.6894 43.3486 71.6894 43.8867C71.6894 44.6806 71.8703 45.2937 72.232 45.7259C72.5936 46.1493 73.0744 46.3611 73.6742 46.3611ZM78.9097 47.1947C78.7332 47.1947 78.6009 47.1462 78.5127 47.0491C78.4245 46.9521 78.3804 46.8154 78.3804 46.6389V41.1212C78.3804 40.9448 78.4245 40.8124 78.5127 40.7242C78.6009 40.6272 78.7288 40.5787 78.8964 40.5787C79.064 40.5787 79.192 40.6272 79.2802 40.7242C79.3772 40.8124 79.4257 40.9448 79.4257 41.1212V42.2856L79.2802 42.1004C79.4478 41.6064 79.7168 41.227 80.0873 40.9624C80.4666 40.6889 80.9165 40.5522 81.437 40.5522C81.9839 40.5522 82.425 40.6845 82.7602 40.9492C83.1042 41.205 83.3336 41.6064 83.4482 42.1533H83.2498C83.4086 41.6593 83.6908 41.2711 84.0966 40.9889C84.5112 40.6978 84.992 40.5522 85.5389 40.5522C86.0241 40.5522 86.421 40.6448 86.7298 40.8301C87.0474 41.0153 87.2855 41.2976 87.4443 41.6769C87.6031 42.0474 87.6825 42.5194 87.6825 43.0928V46.6389C87.6825 46.8154 87.634 46.9521 87.5369 47.0491C87.4487 47.1462 87.3164 47.1947 87.14 47.1947C86.9724 47.1947 86.8401 47.1462 86.743 47.0491C86.6548 46.9521 86.6107 46.8154 86.6107 46.6389V43.1457C86.6107 42.5547 86.5093 42.1224 86.3064 41.8489C86.1035 41.5667 85.7594 41.4255 85.2743 41.4255C84.745 41.4255 84.326 41.6108 84.0172 41.9813C83.7173 42.3429 83.5673 42.8369 83.5673 43.4633V46.6389C83.5673 46.8154 83.5188 46.9521 83.4218 47.0491C83.3336 47.1462 83.2013 47.1947 83.0248 47.1947C82.8572 47.1947 82.7249 47.1462 82.6279 47.0491C82.5397 46.9521 82.4955 46.8154 82.4955 46.6389V43.1457C82.4955 42.5547 82.3897 42.1224 82.178 41.8489C81.9751 41.5667 81.6355 41.4255 81.1591 41.4255C80.6298 41.4255 80.2108 41.6108 79.9021 41.9813C79.6021 42.3429 79.4522 42.8369 79.4522 43.4633V46.6389C79.4522 47.0094 79.2713 47.1947 78.9097 47.1947ZM90.2157 49.5764C90.0393 49.5764 89.9069 49.5279 89.8187 49.4309C89.7305 49.3427 89.6864 49.2103 89.6864 49.0339V41.1212C89.6864 40.9448 89.7305 40.8124 89.8187 40.7242C89.9069 40.6272 90.0349 40.5787 90.2025 40.5787C90.3789 40.5787 90.5112 40.6272 90.5994 40.7242C90.6965 40.8124 90.745 40.9448 90.745 41.1212V42.3782L90.5994 42.193C90.7406 41.6902 91.0184 41.2932 91.433 41.0021C91.8565 40.7022 92.3593 40.5522 92.9415 40.5522C93.5149 40.5522 94.0133 40.6889 94.4367 40.9624C94.8689 41.227 95.1997 41.6108 95.4291 42.1136C95.6673 42.6076 95.7864 43.1986 95.7864 43.8867C95.7864 44.5659 95.6673 45.1569 95.4291 45.6598C95.1997 46.1538 94.8734 46.5375 94.4499 46.8109C94.0265 47.0844 93.5237 47.2211 92.9415 47.2211C92.3593 47.2211 91.8609 47.0756 91.4463 46.7845C91.0317 46.4846 90.7494 46.0876 90.5994 45.5936H90.7582V49.0339C90.7582 49.2103 90.7097 49.3427 90.6127 49.4309C90.5156 49.5279 90.3833 49.5764 90.2157 49.5764ZM92.7165 46.3611C93.1223 46.3611 93.4708 46.264 93.7619 46.07C94.0618 45.8759 94.2912 45.5936 94.4499 45.2231C94.6175 44.8526 94.7013 44.4071 94.7013 43.8867C94.7013 43.0839 94.5205 42.4709 94.1588 42.0474C93.806 41.624 93.3252 41.4123 92.7165 41.4123C92.3196 41.4123 91.9711 41.5093 91.6712 41.7034C91.3713 41.8886 91.1375 42.1665 90.9699 42.537C90.8111 42.8987 90.7317 43.3486 90.7317 43.8867C90.7317 44.6806 90.9126 45.2937 91.2743 45.7259C91.6359 46.1493 92.1167 46.3611 92.7165 46.3611ZM99.4253 47.2211C98.9842 47.2211 98.5872 47.1373 98.2344 46.9697C97.8904 46.7933 97.6169 46.5551 97.414 46.2552C97.2111 45.9553 97.1097 45.6201 97.1097 45.2496C97.1097 44.7732 97.2288 44.3983 97.4669 44.1249C97.7139 43.8514 98.1153 43.6573 98.671 43.5426C99.2356 43.428 100.003 43.3706 100.973 43.3706H101.569V44.0719H100.987C100.272 44.0719 99.7076 44.1072 99.2929 44.1778C98.8872 44.2395 98.6005 44.3498 98.4329 44.5086C98.2741 44.6674 98.1947 44.8923 98.1947 45.1834C98.1947 45.5451 98.3182 45.8406 98.5652 46.07C98.821 46.2993 99.165 46.414 99.5973 46.414C99.9501 46.414 100.259 46.3302 100.524 46.1626C100.797 45.995 101.009 45.7656 101.159 45.4745C101.317 45.1834 101.397 44.8482 101.397 44.4689V42.9604C101.397 42.4135 101.287 42.021 101.066 41.7828C100.846 41.5358 100.484 41.4123 99.981 41.4123C99.6723 41.4123 99.3635 41.452 99.0548 41.5314C98.746 41.6108 98.4196 41.7387 98.0756 41.9151C97.9521 41.9769 97.8463 41.9989 97.758 41.9813C97.6698 41.9548 97.5993 41.9063 97.5463 41.8357C97.4934 41.7651 97.4625 41.6858 97.4537 41.5975C97.4449 41.5005 97.4625 41.4079 97.5066 41.3197C97.5596 41.2315 97.6389 41.1609 97.7448 41.108C98.1329 40.9139 98.5167 40.7727 98.896 40.6845C99.2753 40.5963 99.637 40.5522 99.981 40.5522C100.537 40.5522 100.995 40.6448 101.357 40.8301C101.719 41.0065 101.988 41.28 102.164 41.6505C102.341 42.0121 102.429 42.4797 102.429 43.0531V46.6389C102.429 46.8154 102.385 46.9521 102.297 47.0491C102.217 47.1462 102.098 47.1947 101.939 47.1947C101.772 47.1947 101.644 47.1462 101.556 47.0491C101.467 46.9521 101.423 46.8154 101.423 46.6389V45.6068H101.542C101.472 45.942 101.335 46.2287 101.132 46.4669C100.938 46.7051 100.696 46.8903 100.404 47.0227C100.113 47.155 99.7869 47.2211 99.4253 47.2211ZM104.947 47.1947C104.77 47.1947 104.638 47.1462 104.55 47.0491C104.461 46.9521 104.417 46.8154 104.417 46.6389V41.1212C104.417 40.9448 104.461 40.8124 104.55 40.7242C104.638 40.6272 104.766 40.5787 104.933 40.5787C105.101 40.5787 105.229 40.6272 105.317 40.7242C105.414 40.8124 105.463 40.9448 105.463 41.1212V42.2591L105.317 42.1004C105.502 41.5887 105.802 41.205 106.217 40.9492C106.64 40.6845 107.126 40.5522 107.672 40.5522C108.184 40.5522 108.607 40.6448 108.943 40.8301C109.287 41.0153 109.543 41.2976 109.71 41.6769C109.878 42.0474 109.962 42.5194 109.962 43.0928V46.6389C109.962 46.8154 109.913 46.9521 109.816 47.0491C109.728 47.1462 109.6 47.1947 109.432 47.1947C109.256 47.1947 109.119 47.1462 109.022 47.0491C108.934 46.9521 108.89 46.8154 108.89 46.6389V43.1589C108.89 42.5591 108.771 42.1224 108.533 41.8489C108.303 41.5667 107.933 41.4255 107.421 41.4255C106.83 41.4255 106.358 41.6108 106.005 41.9813C105.661 42.3429 105.489 42.8281 105.489 43.4368V46.6389C105.489 47.0094 105.308 47.1947 104.947 47.1947ZM113.302 49.5764C113.17 49.5764 113.064 49.5411 112.985 49.4706C112.905 49.4 112.857 49.303 112.839 49.1795C112.83 49.0648 112.852 48.9457 112.905 48.8222L113.818 46.7713V47.2344L111.278 41.3329C111.225 41.2006 111.207 41.0771 111.225 40.9624C111.243 40.8477 111.295 40.7551 111.384 40.6845C111.472 40.614 111.595 40.5787 111.754 40.5787C111.895 40.5787 112.006 40.6095 112.085 40.6713C112.164 40.733 112.235 40.8433 112.297 41.0021L114.467 46.3214H114.109L116.306 41.0021C116.377 40.8433 116.452 40.733 116.531 40.6713C116.61 40.6095 116.725 40.5787 116.875 40.5787C117.016 40.5787 117.122 40.614 117.193 40.6845C117.272 40.7551 117.316 40.8477 117.325 40.9624C117.343 41.0683 117.325 41.1873 117.272 41.3197L113.885 49.153C113.814 49.3118 113.735 49.4221 113.646 49.4838C113.567 49.5456 113.452 49.5764 113.302 49.5764ZM124.252 47.2211C123.855 47.2211 123.453 47.1726 123.047 47.0756C122.651 46.9786 122.28 46.8109 121.936 46.5728C121.848 46.511 121.786 46.4405 121.751 46.3611C121.715 46.2728 121.702 46.189 121.711 46.1097C121.729 46.0214 121.764 45.9465 121.817 45.8847C121.879 45.823 121.949 45.7877 122.029 45.7789C122.117 45.7612 122.214 45.7789 122.32 45.8318C122.664 46.0435 122.995 46.1935 123.312 46.2817C123.639 46.3611 123.961 46.4008 124.278 46.4008C124.781 46.4008 125.16 46.3081 125.416 46.1229C125.672 45.9376 125.8 45.6862 125.8 45.3687C125.8 45.1217 125.716 44.9276 125.548 44.7865C125.381 44.6365 125.116 44.5218 124.754 44.4424L123.55 44.1778C122.995 44.0631 122.58 43.8646 122.306 43.5823C122.042 43.3001 121.91 42.934 121.91 42.4841C121.91 42.0871 122.011 41.7475 122.214 41.4652C122.426 41.1741 122.721 40.9492 123.1 40.7904C123.48 40.6316 123.921 40.5522 124.424 40.5522C124.812 40.5522 125.178 40.6051 125.522 40.711C125.875 40.808 126.192 40.9668 126.475 41.1873C126.563 41.2491 126.62 41.3241 126.647 41.4123C126.682 41.4917 126.686 41.5755 126.66 41.6637C126.642 41.7431 126.602 41.8137 126.541 41.8754C126.479 41.9283 126.404 41.9592 126.316 41.968C126.228 41.9769 126.135 41.9504 126.038 41.8886C125.773 41.7122 125.504 41.5843 125.231 41.5049C124.957 41.4167 124.688 41.3726 124.424 41.3726C123.93 41.3726 123.555 41.4696 123.299 41.6637C123.043 41.8578 122.915 42.1136 122.915 42.4312C122.915 42.6782 122.995 42.881 123.153 43.0398C123.312 43.1986 123.559 43.3133 123.894 43.3839L125.098 43.6353C125.672 43.7588 126.1 43.9572 126.382 44.2307C126.673 44.4953 126.819 44.857 126.819 45.3157C126.819 45.8979 126.585 46.3611 126.117 46.7051C125.65 47.0491 125.028 47.2211 124.252 47.2211ZM130.41 47.2211C129.775 47.2211 129.29 47.0271 128.955 46.6389C128.62 46.2508 128.452 45.695 128.452 44.9717V38.2234C128.452 38.047 128.496 37.9146 128.584 37.8264C128.673 37.7294 128.805 37.6809 128.981 37.6809C129.149 37.6809 129.281 37.7294 129.378 37.8264C129.475 37.9146 129.524 38.047 129.524 38.2234V44.8923C129.524 45.3687 129.616 45.7259 129.802 45.9641C129.996 46.1935 130.278 46.3081 130.649 46.3081C130.728 46.3081 130.799 46.3037 130.86 46.2949C130.922 46.2861 130.984 46.2817 131.046 46.2817C131.143 46.2728 131.209 46.2949 131.244 46.3478C131.288 46.4008 131.31 46.5066 131.31 46.6654C131.31 46.8242 131.275 46.9433 131.204 47.0227C131.134 47.1021 131.019 47.155 130.86 47.1814C130.79 47.1903 130.715 47.1991 130.635 47.2079C130.556 47.2167 130.481 47.2211 130.41 47.2211ZM134.976 47.2211C134.349 47.2211 133.807 47.0844 133.348 46.8109C132.889 46.5375 132.532 46.1538 132.276 45.6598C132.029 45.1569 131.906 44.5659 131.906 43.8867C131.906 43.375 131.976 42.9163 132.118 42.5105C132.259 42.0959 132.466 41.7431 132.739 41.452C133.013 41.1609 133.335 40.9403 133.705 40.7904C134.085 40.6316 134.508 40.5522 134.976 40.5522C135.602 40.5522 136.144 40.6889 136.603 40.9624C137.062 41.2359 137.415 41.624 137.662 42.1268C137.918 42.6208 138.045 43.2074 138.045 43.8867C138.045 44.3983 137.975 44.857 137.834 45.2628C137.693 45.6686 137.485 46.0214 137.212 46.3214C136.938 46.6125 136.612 46.8374 136.233 46.9962C135.862 47.1462 135.443 47.2211 134.976 47.2211ZM134.976 46.3611C135.373 46.3611 135.721 46.264 136.021 46.07C136.321 45.8759 136.55 45.5936 136.709 45.2231C136.877 44.8526 136.96 44.4071 136.96 43.8867C136.96 43.0839 136.78 42.4709 136.418 42.0474C136.065 41.624 135.584 41.4123 134.976 41.4123C134.57 41.4123 134.217 41.5093 133.917 41.7034C133.626 41.8886 133.397 42.1665 133.229 42.537C133.07 42.8987 132.991 43.3486 132.991 43.8867C132.991 44.6806 133.172 45.2937 133.533 45.7259C133.895 46.1493 134.376 46.3611 134.976 46.3611ZM142.5 49.6029C142.033 49.6029 141.574 49.5456 141.124 49.4309C140.683 49.325 140.282 49.153 139.92 48.9148C139.814 48.8531 139.744 48.7781 139.708 48.6899C139.682 48.6017 139.677 48.5135 139.695 48.4253C139.713 48.3459 139.752 48.2709 139.814 48.2003C139.876 48.1386 139.946 48.0989 140.026 48.0812C140.114 48.0636 140.202 48.0768 140.29 48.1209C140.679 48.3591 141.049 48.5223 141.402 48.6105C141.755 48.6987 142.103 48.7428 142.447 48.7428C143.074 48.7428 143.546 48.5752 143.863 48.24C144.189 47.9048 144.353 47.4196 144.353 46.7845V45.2893H144.485C144.353 45.8009 144.07 46.2067 143.638 46.5066C143.215 46.8065 142.716 46.9565 142.143 46.9565C141.552 46.9565 141.04 46.8242 140.608 46.5595C140.176 46.2861 139.841 45.9068 139.602 45.4216C139.373 44.9364 139.258 44.3763 139.258 43.7411C139.258 43.2648 139.325 42.8325 139.457 42.4444C139.589 42.0474 139.779 41.7122 140.026 41.4388C140.282 41.1565 140.586 40.9403 140.939 40.7904C141.3 40.6316 141.702 40.5522 142.143 40.5522C142.725 40.5522 143.228 40.7022 143.651 41.0021C144.075 41.2932 144.348 41.6902 144.472 42.193L144.339 42.3518V41.1212C144.339 40.9448 144.384 40.8124 144.472 40.7242C144.569 40.6272 144.701 40.5787 144.869 40.5787C145.045 40.5787 145.177 40.6272 145.266 40.7242C145.354 40.8124 145.398 40.9448 145.398 41.1212V46.6389C145.398 47.6181 145.151 48.3547 144.657 48.8487C144.172 49.3515 143.453 49.6029 142.5 49.6029ZM142.341 46.0832C142.756 46.0832 143.113 45.9906 143.413 45.8053C143.713 45.6112 143.942 45.3378 144.101 44.9849C144.269 44.6321 144.353 44.2175 144.353 43.7411C144.353 43.0266 144.172 42.462 143.81 42.0474C143.448 41.624 142.959 41.4123 142.341 41.4123C141.936 41.4123 141.583 41.5093 141.283 41.7034C140.983 41.8886 140.749 42.1577 140.582 42.5105C140.423 42.8546 140.343 43.2648 140.343 43.7411C140.343 44.4557 140.524 45.0246 140.886 45.4481C141.248 45.8715 141.733 46.0832 142.341 46.0832ZM149.433 47.2211C148.992 47.2211 148.595 47.1373 148.242 46.9697C147.898 46.7933 147.625 46.5551 147.422 46.2552C147.219 45.9553 147.117 45.6201 147.117 45.2496C147.117 44.7732 147.236 44.3983 147.475 44.1249C147.722 43.8514 148.123 43.6573 148.679 43.5426C149.243 43.428 150.011 43.3706 150.981 43.3706H151.577V44.0719H150.994C150.28 44.0719 149.715 44.1072 149.301 44.1778C148.895 44.2395 148.608 44.3498 148.441 44.5086C148.282 44.6674 148.202 44.8923 148.202 45.1834C148.202 45.5451 148.326 45.8406 148.573 46.07C148.829 46.2993 149.173 46.414 149.605 46.414C149.958 46.414 150.267 46.3302 150.531 46.1626C150.805 45.995 151.016 45.7656 151.166 45.4745C151.325 45.1834 151.404 44.8482 151.404 44.4689V42.9604C151.404 42.4135 151.294 42.021 151.074 41.7828C150.853 41.5358 150.491 41.4123 149.989 41.4123C149.68 41.4123 149.371 41.452 149.062 41.5314C148.754 41.6108 148.427 41.7387 148.083 41.9151C147.96 41.9769 147.854 41.9989 147.766 41.9813C147.677 41.9548 147.607 41.9063 147.554 41.8357C147.501 41.7651 147.47 41.6858 147.461 41.5975C147.453 41.5005 147.47 41.4079 147.514 41.3197C147.567 41.2315 147.647 41.1609 147.752 41.108C148.141 40.9139 148.524 40.7727 148.904 40.6845C149.283 40.5963 149.645 40.5522 149.989 40.5522C150.544 40.5522 151.003 40.6448 151.365 40.8301C151.726 41.0065 151.996 41.28 152.172 41.6505C152.348 42.0121 152.437 42.4797 152.437 43.0531V46.6389C152.437 46.8154 152.392 46.9521 152.304 47.0491C152.225 47.1462 152.106 47.1947 151.947 47.1947C151.779 47.1947 151.651 47.1462 151.563 47.0491C151.475 46.9521 151.431 46.8154 151.431 46.6389V45.6068H151.55C151.479 45.942 151.343 46.2287 151.14 46.4669C150.946 46.7051 150.703 46.8903 150.412 47.0227C150.121 47.155 149.795 47.2211 149.433 47.2211ZM154.954 47.1947C154.778 47.1947 154.646 47.1462 154.557 47.0491C154.469 46.9521 154.425 46.8154 154.425 46.6389V41.1212C154.425 40.9448 154.469 40.8124 154.557 40.7242C154.646 40.6272 154.773 40.5787 154.941 40.5787C155.109 40.5787 155.237 40.6272 155.325 40.7242C155.422 40.8124 155.47 40.9448 155.47 41.1212V42.2591L155.325 42.1004C155.51 41.5887 155.81 41.205 156.225 40.9492C156.648 40.6845 157.133 40.5522 157.68 40.5522C158.192 40.5522 158.615 40.6448 158.95 40.8301C159.294 41.0153 159.55 41.2976 159.718 41.6769C159.885 42.0474 159.969 42.5194 159.969 43.0928V46.6389C159.969 46.8154 159.921 46.9521 159.824 47.0491C159.735 47.1462 159.608 47.1947 159.44 47.1947C159.264 47.1947 159.127 47.1462 159.03 47.0491C158.942 46.9521 158.897 46.8154 158.897 46.6389V43.1589C158.897 42.5591 158.778 42.1224 158.54 41.8489C158.311 41.5667 157.94 41.4255 157.429 41.4255C156.838 41.4255 156.366 41.6108 156.013 41.9813C155.669 42.3429 155.497 42.8281 155.497 43.4368V46.6389C155.497 47.0094 155.316 47.1947 154.954 47.1947Z" fill="#787F8C"/>
<path d="M70.2655 32.0005V12.8046H64.3378V9.119H80.3088V12.8046H74.4733V32.0005H70.2655ZM88.2845 32.369C86.5645 32.369 85.0596 31.98 83.7696 31.2019C82.4796 30.4239 81.4763 29.3694 80.7597 28.0385C80.043 26.7075 79.6847 25.2333 79.6847 23.6157C79.6847 21.9367 80.043 20.4522 80.7597 19.1623C81.4968 17.8518 82.4899 16.8178 83.7389 16.0602C85.0084 15.3026 86.4212 14.9238 87.9773 14.9238C89.2878 14.9238 90.4344 15.1388 91.4172 15.5688C92.4205 15.9988 93.2703 16.5926 93.9664 17.3502C94.6626 18.1078 95.195 18.978 95.5635 19.9608C95.9321 20.9232 96.1164 21.9674 96.1164 23.0936C96.1164 23.3803 96.0959 23.6772 96.055 23.9843C96.0345 24.2914 95.9833 24.5576 95.9014 24.7828H83.0018V21.7115H93.6286L91.7244 23.155C91.9086 22.2132 91.8575 21.3737 91.5708 20.6365C91.3046 19.8994 90.8541 19.3159 90.2194 18.8859C89.6051 18.4559 88.8578 18.2409 87.9773 18.2409C87.1378 18.2409 86.3905 18.4559 85.7352 18.8859C85.08 19.2954 84.5784 19.9096 84.2303 20.7287C83.9027 21.5272 83.7798 22.4998 83.8617 23.6464C83.7798 24.6702 83.9129 25.5814 84.261 26.3799C84.6296 27.158 85.1619 27.762 85.8581 28.192C86.5747 28.622 87.3938 28.837 88.3152 28.837C89.2366 28.837 90.0147 28.6425 90.6494 28.2535C91.3046 27.8644 91.8165 27.3423 92.1851 26.6871L95.4407 28.2842C95.1131 29.0827 94.6012 29.7891 93.905 30.4034C93.2088 31.0177 92.3796 31.4988 91.4172 31.8469C90.4754 32.195 89.4311 32.369 88.2845 32.369ZM107.213 32.369C105.555 32.369 104.06 31.9903 102.729 31.2327C101.419 30.4546 100.385 29.4103 99.6271 28.0999C98.8695 26.769 98.4907 25.2743 98.4907 23.6157C98.4907 21.9572 98.8695 20.4727 99.6271 19.1623C100.385 17.8518 101.419 16.8178 102.729 16.0602C104.06 15.3026 105.555 14.9238 107.213 14.9238C108.401 14.9238 109.507 15.1388 110.53 15.5688C111.554 15.9783 112.435 16.5516 113.172 17.2888C113.929 18.0054 114.472 18.8654 114.799 19.8687L111.267 21.4044C110.96 20.5649 110.438 19.8892 109.701 19.3773C108.984 18.8654 108.155 18.6094 107.213 18.6094C106.333 18.6094 105.545 18.8244 104.848 19.2544C104.173 19.6844 103.64 20.2782 103.251 21.0358C102.862 21.7934 102.668 22.6636 102.668 23.6464C102.668 24.6293 102.862 25.4995 103.251 26.2571C103.64 27.0147 104.173 27.6085 104.848 28.0385C105.545 28.4684 106.333 28.6834 107.213 28.6834C108.176 28.6834 109.015 28.4275 109.732 27.9156C110.448 27.4037 110.96 26.7178 111.267 25.8578L114.799 27.4549C114.472 28.3968 113.94 29.2465 113.202 30.0041C112.465 30.7412 111.585 31.3248 110.561 31.7548C109.537 32.1643 108.421 32.369 107.213 32.369ZM117.852 32.0005V8.75044H121.876V18.5787L121.323 17.9952C121.712 16.9919 122.347 16.2343 123.227 15.7224C124.128 15.19 125.172 14.9238 126.36 14.9238C127.588 14.9238 128.674 15.19 129.616 15.7224C130.578 16.2548 131.325 17.0021 131.858 17.9645C132.39 18.9063 132.656 20.0018 132.656 21.2508V32.0005H128.633V22.2029C128.633 21.4658 128.489 20.831 128.203 20.2987C127.916 19.7663 127.517 19.3568 127.005 19.0701C126.514 18.763 125.93 18.6094 125.254 18.6094C124.599 18.6094 124.016 18.763 123.504 19.0701C122.992 19.3568 122.592 19.7663 122.306 20.2987C122.019 20.831 121.876 21.4658 121.876 22.2029V32.0005H117.852ZM147.146 32.369C145.508 32.369 143.993 32.0722 142.6 31.4784C141.229 30.8846 140.02 30.0553 138.976 28.9906C137.952 27.9258 137.154 26.6768 136.581 25.2435C136.007 23.8102 135.721 22.2439 135.721 20.5444C135.721 18.8449 135.997 17.2785 136.55 15.8452C137.123 14.3915 137.922 13.1425 138.945 12.0982C139.99 11.0335 141.208 10.2144 142.6 9.64113C143.993 9.04734 145.508 8.75044 147.146 8.75044C148.784 8.75044 150.248 9.02686 151.538 9.57971C152.848 10.1325 153.954 10.8697 154.855 11.7911C155.756 12.692 156.401 13.6851 156.79 14.7703L153.043 16.5209C152.613 15.3743 151.886 14.4324 150.862 13.6953C149.839 12.9377 148.6 12.5589 147.146 12.5589C145.713 12.5589 144.443 12.8968 143.338 13.5724C142.252 14.2481 141.403 15.1798 140.788 16.3674C140.195 17.555 139.898 18.9473 139.898 20.5444C139.898 22.1415 140.195 23.5441 140.788 24.7521C141.403 25.9397 142.252 26.8714 143.338 27.547C144.443 28.2227 145.713 28.5606 147.146 28.5606C148.6 28.5606 149.839 28.192 150.862 27.4549C151.886 26.6973 152.613 25.7452 153.043 24.5986L156.79 26.3492C156.401 27.4344 155.756 28.4377 154.855 29.3591C153.954 30.2601 152.848 30.9869 151.538 31.5398C150.248 32.0926 148.784 32.369 147.146 32.369ZM71.8319 71.369C70.542 71.369 69.4158 71.0824 68.4534 70.5091C67.5116 69.9358 66.7847 69.1372 66.2728 68.1134C65.7814 67.0896 65.5357 65.8918 65.5357 64.52V54.2924H69.5591V64.1821C69.5591 64.8783 69.6922 65.4926 69.9584 66.0249C70.2451 66.5368 70.6443 66.9463 71.1562 67.2535C71.6886 67.5401 72.2824 67.6834 72.9376 67.6834C73.5928 67.6834 74.1764 67.5401 74.6883 67.2535C75.2002 66.9463 75.5994 66.5266 75.8861 65.9942C76.1727 65.4618 76.3161 64.8271 76.3161 64.09V54.2924H80.3395V71.0005H76.5311V67.7142L76.8689 68.2977C76.4799 69.3215 75.8349 70.0893 74.934 70.6012C74.0535 71.1131 73.0195 71.369 71.8319 71.369ZM93.2015 71.369C91.9934 71.369 90.8775 71.1336 89.8537 70.6626C88.8504 70.1712 88.0519 69.4751 87.4581 68.5741L87.8574 67.7756V71.0005H84.0796V47.7504H88.1031V57.6094L87.4888 56.7802C88.0621 55.8793 88.8402 55.1831 89.823 54.6917C90.8058 54.1798 91.9422 53.9238 93.2322 53.9238C94.8088 53.9238 96.2319 54.3129 97.5014 55.0909C98.7708 55.869 99.7742 56.9133 100.511 58.2237C101.269 59.5342 101.648 61.0084 101.648 62.6464C101.648 64.264 101.279 65.7383 100.542 67.0692C99.8049 68.4001 98.8016 69.4546 97.5321 70.2327C96.2626 70.9903 94.8191 71.369 93.2015 71.369ZM92.7408 67.6834C93.6622 67.6834 94.4812 67.4684 95.1979 67.0385C95.9145 66.6085 96.4673 66.0147 96.8564 65.2571C97.2659 64.4995 97.4706 63.6293 97.4706 62.6464C97.4706 61.6636 97.2659 60.8036 96.8564 60.0665C96.4673 59.3089 95.9145 58.7151 95.1979 58.2851C94.4812 57.8347 93.6622 57.6094 92.7408 57.6094C91.8603 57.6094 91.0618 57.8244 90.3451 58.2544C89.649 58.6844 89.0961 59.2884 88.6866 60.0665C88.2976 60.8241 88.1031 61.6841 88.1031 62.6464C88.1031 63.6293 88.2976 64.4995 88.6866 65.2571C89.0961 66.0147 89.649 66.6085 90.3451 67.0385C91.0618 67.4684 91.8603 67.6834 92.7408 67.6834ZM112.639 71.369C110.919 71.369 109.414 70.98 108.124 70.2019C106.834 69.4239 105.831 68.3694 105.114 67.0385C104.398 65.7075 104.039 64.2333 104.039 62.6157C104.039 60.9367 104.398 59.4522 105.114 58.1623C105.852 56.8518 106.845 55.8178 108.094 55.0602C109.363 54.3026 110.776 53.9238 112.332 53.9238C113.643 53.9238 114.789 54.1388 115.772 54.5688C116.775 54.9988 117.625 55.5926 118.321 56.3502C119.017 57.1078 119.55 57.978 119.918 58.9608C120.287 59.9232 120.471 60.9674 120.471 62.0936C120.471 62.3803 120.451 62.6772 120.41 62.9843C120.389 63.2914 120.338 63.5576 120.256 63.7828H107.357V60.7115H117.983L116.079 62.155C116.263 61.2132 116.212 60.3737 115.926 59.6365C115.659 58.8994 115.209 58.3159 114.574 57.8859C113.96 57.4559 113.213 57.2409 112.332 57.2409C111.493 57.2409 110.745 57.4559 110.09 57.8859C109.435 58.2954 108.933 58.9096 108.585 59.7287C108.257 60.5272 108.135 61.4998 108.216 62.6464C108.135 63.6702 108.268 64.5814 108.616 65.3799C108.984 66.158 109.517 66.762 110.213 67.192C110.93 67.622 111.749 67.837 112.67 67.837C113.591 67.837 114.369 67.6425 115.004 67.2535C115.659 66.8644 116.171 66.3423 116.54 65.6871L119.795 67.2842C119.468 68.0827 118.956 68.7891 118.26 69.4034C117.564 70.0177 116.734 70.4988 115.772 70.8469C114.83 71.195 113.786 71.369 112.639 71.369Z" fill="#0B59DB"/>
<path d="M34.2582 36.5779L35.777 35.0676C37.2757 33.5771 39.324 32.8518 41.4423 32.8617C43.7204 32.8816 45.9986 31.878 47.5373 29.851C49.5257 27.2278 49.5257 23.5214 47.5373 20.8982C45.9986 18.8712 43.7204 17.8676 41.4423 17.8875C39.324 17.9074 37.2757 17.1721 35.777 15.6816L34.2582 14.1713C32.7594 12.6808 32.03 10.6438 32.05 8.53729C32.07 6.27178 31.0608 4.00626 29.0225 2.47605C26.3247 0.449013 22.4779 0.508646 19.8401 2.61517C16.273 5.457 16.0631 10.6537 19.2006 13.7738C20.6893 15.2543 22.6378 15.9797 24.5862 15.9598C26.6944 15.9399 28.7527 16.6653 30.2415 18.1558L31.7103 19.6164C33.2291 21.1268 33.9884 23.2035 33.9784 25.3398C33.9784 25.3597 33.9784 25.3796 33.9784 25.3994C33.9884 27.5358 33.2291 29.6125 31.7103 31.1228L30.3015 32.5239C28.7827 34.0342 26.6944 34.7894 24.5462 34.7794C24.5262 34.7794 24.5062 34.7794 24.4862 34.7794C22.338 34.7894 20.2497 34.0342 18.7309 32.5239L17.2622 31.0632C15.7634 29.5728 15.034 27.5358 15.054 25.4292C15.074 23.1637 14.0648 20.8982 12.0265 19.368C9.32868 17.341 5.48183 17.4006 2.844 19.5071C-0.72307 22.349 -0.932882 27.5457 2.20454 30.6657C3.69332 32.1463 5.6417 32.8716 7.5901 32.8518C9.69837 32.8319 11.7567 33.5572 13.2455 35.0477L14.7742 36.568C16.273 38.0585 17.0024 40.0954 16.9924 42.202C16.9724 44.4675 17.9816 46.733 20.0199 48.2632C22.6577 50.2406 26.3847 50.2406 29.0225 48.2632C31.0608 46.733 32.07 44.4675 32.05 42.202C32.03 40.1153 32.7594 38.0684 34.2582 36.5779Z" fill="#0B59DB"/>
</svg>
