<svg width="180" height="50" viewBox="0 0 180 50" fill="none" xmlns="http://www.w3.org/2000/svg">
<path d="M56.4347 47.4739C56.3024 47.4739 56.1965 47.4386 56.1171 47.368C56.0377 47.2975 55.9892 47.2004 55.9716 47.0769C55.9627 46.9623 55.9848 46.8432 56.0377 46.7197L56.9507 44.6687V45.1318L54.4102 39.2304C54.3573 39.098 54.3396 38.9745 54.3573 38.8599C54.3749 38.7452 54.4278 38.6526 54.516 38.582C54.6043 38.5114 54.7278 38.4761 54.8865 38.4761C55.0277 38.4761 55.138 38.507 55.2173 38.5688C55.2967 38.6305 55.3673 38.7408 55.4291 38.8996L57.5991 44.2188H57.2418L59.4384 38.8996C59.5089 38.7408 59.5839 38.6305 59.6633 38.5688C59.7427 38.507 59.8574 38.4761 60.0073 38.4761C60.1485 38.4761 60.2543 38.5114 60.3249 38.582C60.4043 38.6526 60.4484 38.7452 60.4572 38.8599C60.4749 38.9657 60.4572 39.0848 60.4043 39.2171L57.0169 47.0505C56.9463 47.2093 56.8669 47.3195 56.7787 47.3813C56.6993 47.443 56.5847 47.4739 56.4347 47.4739ZM64.3849 45.1186C63.7586 45.1186 63.2161 44.9819 62.7574 44.7084C62.2987 44.4349 61.9414 44.0512 61.6856 43.5572C61.4386 43.0544 61.3151 42.4634 61.3151 41.7841C61.3151 41.2725 61.3857 40.8138 61.5268 40.408C61.668 39.9934 61.8753 39.6406 62.1487 39.3494C62.4222 39.0583 62.7442 38.8378 63.1147 38.6878C63.494 38.5291 63.9174 38.4497 64.3849 38.4497C65.0113 38.4497 65.5538 38.5864 66.0125 38.8599C66.4712 39.1333 66.824 39.5215 67.071 40.0243C67.3269 40.5183 67.4548 41.1049 67.4548 41.7841C67.4548 42.2958 67.3842 42.7545 67.2431 43.1603C67.1019 43.566 66.8946 43.9189 66.6212 44.2188C66.3477 44.5099 66.0213 44.7349 65.642 44.8937C65.2715 45.0436 64.8525 45.1186 64.3849 45.1186ZM64.3849 44.2585C64.7819 44.2585 65.1304 44.1615 65.4303 43.9674C65.7302 43.7733 65.9596 43.4911 66.1183 43.1206C66.2859 42.7501 66.3697 42.3046 66.3697 41.7841C66.3697 40.9814 66.1889 40.3683 65.8272 39.9449C65.4744 39.5215 64.9936 39.3098 64.3849 39.3098C63.9792 39.3098 63.6263 39.4068 63.3264 39.6009C63.0353 39.7861 62.8059 40.064 62.6383 40.4345C62.4795 40.7961 62.4001 41.246 62.4001 41.7841C62.4001 42.5781 62.581 43.1911 62.9427 43.6234C63.3043 44.0468 63.7851 44.2585 64.3849 44.2585ZM71.3405 45.1186C70.8201 45.1186 70.3878 45.026 70.0438 44.8407C69.7086 44.6467 69.4528 44.36 69.2763 43.9806C69.1087 43.6013 69.0249 43.1294 69.0249 42.5648V39.0186C69.0249 38.8334 69.069 38.6967 69.1573 38.6085C69.2543 38.5202 69.3866 38.4761 69.5542 38.4761C69.7306 38.4761 69.863 38.5202 69.9512 38.6085C70.0482 38.6967 70.0967 38.8334 70.0967 39.0186V42.5516C70.0967 43.1162 70.2114 43.5396 70.4408 43.8219C70.6789 44.0953 71.0494 44.2321 71.5522 44.2321C72.0992 44.2321 72.5446 44.0468 72.8887 43.6763C73.2327 43.3058 73.4047 42.8206 73.4047 42.2208V39.0186C73.4047 38.8334 73.4488 38.6967 73.537 38.6085C73.6341 38.5202 73.7708 38.4761 73.9472 38.4761C74.1148 38.4761 74.2428 38.5202 74.331 38.6085C74.428 38.6967 74.4765 38.8334 74.4765 39.0186V44.5364C74.4765 44.9069 74.3045 45.0921 73.9605 45.0921C73.7929 45.0921 73.6605 45.0436 73.5635 44.9466C73.4753 44.8495 73.4312 44.7128 73.4312 44.5364V43.3323L73.6032 43.5175C73.4268 44.038 73.1357 44.4349 72.7299 44.7084C72.3329 44.9819 71.8698 45.1186 71.3405 45.1186ZM77.0243 45.0921C76.8479 45.0921 76.7111 45.0436 76.6141 44.9466C76.5259 44.8495 76.4818 44.7128 76.4818 44.5364V39.0186C76.4818 38.8422 76.5259 38.7099 76.6141 38.6217C76.7023 38.5247 76.8302 38.4761 76.9978 38.4761C77.1654 38.4761 77.2934 38.5247 77.3816 38.6217C77.4786 38.7099 77.5271 38.8422 77.5271 39.0186V40.0904H77.3948C77.5359 39.57 77.805 39.1686 78.2019 38.8863C78.5989 38.604 79.0885 38.4541 79.6707 38.4364C79.803 38.4276 79.9089 38.4585 79.9883 38.5291C80.0677 38.5908 80.1118 38.7011 80.1206 38.8599C80.1294 39.0098 80.0941 39.1289 80.0147 39.2171C79.9353 39.3053 79.8118 39.3583 79.6442 39.3759L79.4325 39.4024C78.8327 39.4553 78.3696 39.6494 78.0432 39.9846C77.7256 40.311 77.5668 40.7609 77.5668 41.3342V44.5364C77.5668 44.7128 77.5183 44.8495 77.4213 44.9466C77.333 45.0436 77.2007 45.0921 77.0243 45.0921ZM87.2157 45.1186C86.7129 45.1186 86.2895 45.0304 85.9455 44.854C85.6102 44.6687 85.3588 44.4041 85.1912 44.06C85.0236 43.7072 84.9398 43.2794 84.9398 42.7765V39.4024H84.0533C83.9033 39.4024 83.7886 39.3671 83.7093 39.2965C83.6299 39.2171 83.5902 39.1113 83.5902 38.979C83.5902 38.8466 83.6299 38.7452 83.7093 38.6746C83.7886 38.604 83.9033 38.5688 84.0533 38.5688H84.9398V37.0471C84.9398 36.8707 84.9883 36.7383 85.0854 36.6501C85.1824 36.5531 85.3147 36.5046 85.4823 36.5046C85.6499 36.5046 85.7779 36.5531 85.8661 36.6501C85.9631 36.7383 86.0116 36.8707 86.0116 37.0471V38.5688H87.6789C87.8288 38.5688 87.9435 38.604 88.0229 38.6746C88.1023 38.7452 88.142 38.8466 88.142 38.979C88.142 39.1113 88.1023 39.2171 88.0229 39.2965C87.9435 39.3671 87.8288 39.4024 87.6789 39.4024H86.0116V42.6707C86.0116 43.1735 86.1175 43.5572 86.3292 43.8219C86.5409 44.0777 86.8849 44.2056 87.3613 44.2056C87.5289 44.2056 87.67 44.1879 87.7847 44.1527C87.9082 44.1174 88.0097 44.0997 88.089 44.0997C88.1684 44.0909 88.2346 44.1174 88.2875 44.1791C88.3405 44.2409 88.3669 44.3467 88.3669 44.4967C88.3669 44.6026 88.3449 44.6996 88.3008 44.7878C88.2655 44.876 88.1993 44.9378 88.1023 44.973C87.9964 45.0083 87.8553 45.0392 87.6789 45.0657C87.5112 45.101 87.3569 45.1186 87.2157 45.1186ZM91.286 45.1186C90.845 45.1186 90.448 45.0348 90.0951 44.8672C89.7511 44.6908 89.4776 44.4526 89.2748 44.1527C89.0719 43.8527 88.9704 43.5175 88.9704 43.147C88.9704 42.6707 89.0895 42.2958 89.3277 42.0223C89.5747 41.7489 89.9761 41.5548 90.5318 41.4401C91.0964 41.3254 91.8638 41.2681 92.8342 41.2681H93.4296V41.9694H92.8474C92.1329 41.9694 91.5683 42.0047 91.1537 42.0752C90.7479 42.137 90.4612 42.2473 90.2936 42.406C90.1348 42.5648 90.0554 42.7898 90.0554 43.0809C90.0554 43.4425 90.1789 43.7381 90.4259 43.9674C90.6818 44.1968 91.0258 44.3114 91.458 44.3114C91.8109 44.3114 92.1196 44.2276 92.3843 44.06C92.6577 43.8924 92.8694 43.6631 93.0194 43.372C93.1782 43.0809 93.2576 42.7457 93.2576 42.3663V40.8579C93.2576 40.311 93.1473 39.9184 92.9268 39.6802C92.7063 39.4333 92.3446 39.3098 91.8418 39.3098C91.533 39.3098 91.2243 39.3494 90.9155 39.4288C90.6068 39.5082 90.2804 39.6361 89.9364 39.8126C89.8129 39.8743 89.707 39.8964 89.6188 39.8787C89.5306 39.8523 89.46 39.8037 89.4071 39.7332C89.3541 39.6626 89.3233 39.5832 89.3144 39.495C89.3056 39.398 89.3233 39.3053 89.3674 39.2171C89.4203 39.1289 89.4997 39.0583 89.6056 39.0054C89.9937 38.8113 90.3774 38.6702 90.7567 38.582C91.1361 38.4938 91.4977 38.4497 91.8418 38.4497C92.3975 38.4497 92.8562 38.5423 93.2179 38.7275C93.5796 38.904 93.8486 39.1774 94.025 39.5479C94.2015 39.9096 94.2897 40.3771 94.2897 40.9505V44.5364C94.2897 44.7128 94.2456 44.8495 94.1574 44.9466C94.078 45.0436 93.9589 45.0921 93.8001 45.0921C93.6325 45.0921 93.5046 45.0436 93.4164 44.9466C93.3282 44.8495 93.2841 44.7128 93.2841 44.5364V43.5043H93.4031C93.3326 43.8395 93.1958 44.1262 92.9929 44.3644C92.7989 44.6026 92.5563 44.7878 92.2652 44.9201C91.9741 45.0524 91.6477 45.1186 91.286 45.1186ZM99.123 47.5004C98.6555 47.5004 98.1967 47.443 97.7469 47.3283C97.3058 47.2225 96.9044 47.0505 96.5427 46.8123C96.4369 46.7505 96.3663 46.6756 96.331 46.5874C96.3046 46.4991 96.3002 46.4109 96.3178 46.3227C96.3354 46.2433 96.3751 46.1683 96.4369 46.0978C96.4986 46.036 96.5692 45.9963 96.6486 45.9787C96.7368 45.961 96.825 45.9743 96.9132 46.0184C97.3014 46.2566 97.6719 46.4197 98.0247 46.508C98.3776 46.5962 98.726 46.6403 99.0701 46.6403C99.6964 46.6403 100.168 46.4727 100.486 46.1375C100.812 45.8023 100.975 45.3171 100.975 44.6819V43.1867H101.108C100.975 43.6984 100.693 44.1041 100.261 44.4041C99.8375 44.704 99.3391 44.854 98.7657 44.854C98.1747 44.854 97.6631 44.7216 97.2308 44.457C96.7986 44.1835 96.4633 43.8042 96.2252 43.319C95.9958 42.8339 95.8811 42.2737 95.8811 41.6386C95.8811 41.1622 95.9473 40.73 96.0796 40.3418C96.2119 39.9449 96.4016 39.6097 96.6486 39.3362C96.9044 39.0539 97.2088 38.8378 97.5616 38.6878C97.9233 38.5291 98.3247 38.4497 98.7657 38.4497C99.3479 38.4497 99.8507 38.5996 100.274 38.8996C100.698 39.1907 100.971 39.5876 101.095 40.0904L100.962 40.2492V39.0186C100.962 38.8422 101.006 38.7099 101.095 38.6217C101.192 38.5247 101.324 38.4761 101.492 38.4761C101.668 38.4761 101.8 38.5247 101.888 38.6217C101.977 38.7099 102.021 38.8422 102.021 39.0186V44.5364C102.021 45.5156 101.774 46.2521 101.28 46.7461C100.795 47.249 100.076 47.5004 99.123 47.5004ZM98.9642 43.9806C99.3788 43.9806 99.7361 43.888 100.036 43.7028C100.336 43.5087 100.565 43.2352 100.724 42.8824C100.892 42.5295 100.975 42.1149 100.975 41.6386C100.975 40.9241 100.795 40.3595 100.433 39.9449C100.071 39.5215 99.5817 39.3098 98.9642 39.3098C98.5584 39.3098 98.2056 39.4068 97.9056 39.6009C97.6057 39.7861 97.3719 40.0552 97.2043 40.408C97.0456 40.752 96.9662 41.1622 96.9662 41.6386C96.9662 42.3531 97.147 42.9221 97.5087 43.3455C97.8704 43.7689 98.3555 43.9806 98.9642 43.9806ZM105.99 45.1186C105.354 45.1186 104.869 44.9245 104.534 44.5364C104.199 44.1483 104.031 43.5925 104.031 42.8692V36.1208C104.031 35.9444 104.075 35.8121 104.164 35.7239C104.252 35.6268 104.384 35.5783 104.561 35.5783C104.728 35.5783 104.86 35.6268 104.957 35.7239C105.055 35.8121 105.103 35.9444 105.103 36.1208V42.7898C105.103 43.2661 105.196 43.6234 105.381 43.8616C105.575 44.0909 105.857 44.2056 106.228 44.2056C106.307 44.2056 106.378 44.2012 106.439 44.1924C106.501 44.1835 106.563 44.1791 106.625 44.1791C106.722 44.1703 106.788 44.1924 106.823 44.2453C106.867 44.2982 106.889 44.4041 106.889 44.5629C106.889 44.7216 106.854 44.8407 106.783 44.9201C106.713 44.9995 106.598 45.0524 106.439 45.0789C106.369 45.0877 106.294 45.0965 106.215 45.1054C106.135 45.1142 106.06 45.1186 105.99 45.1186ZM108.476 45.0657C108.299 45.0657 108.167 45.0172 108.079 44.9201C107.991 44.8143 107.947 44.6687 107.947 44.4835V39.0716C107.947 38.8863 107.991 38.7452 108.079 38.6482C108.167 38.5511 108.299 38.5026 108.476 38.5026C108.643 38.5026 108.776 38.5511 108.873 38.6482C108.97 38.7452 109.018 38.8863 109.018 39.0716V44.4835C109.018 44.6687 108.97 44.8143 108.873 44.9201C108.785 45.0172 108.652 45.0657 108.476 45.0657ZM108.476 37.0206C108.255 37.0206 108.083 36.9633 107.96 36.8486C107.836 36.7251 107.775 36.5619 107.775 36.359C107.775 36.1473 107.836 35.9885 107.96 35.8827C108.083 35.768 108.255 35.7106 108.476 35.7106C108.705 35.7106 108.877 35.768 108.992 35.8827C109.115 35.9885 109.177 36.1473 109.177 36.359C109.177 36.5619 109.115 36.7251 108.992 36.8486C108.877 36.9633 108.705 37.0206 108.476 37.0206ZM111.551 45.0921C111.375 45.0921 111.242 45.0436 111.154 44.9466C111.066 44.8495 111.022 44.7128 111.022 44.5364V39.0186C111.022 38.8422 111.066 38.7099 111.154 38.6217C111.242 38.5247 111.37 38.4761 111.538 38.4761C111.706 38.4761 111.834 38.5247 111.922 38.6217C112.019 38.7099 112.067 38.8422 112.067 39.0186V40.1566L111.922 39.9978C112.107 39.4862 112.407 39.1024 112.822 38.8466C113.245 38.582 113.73 38.4497 114.277 38.4497C114.789 38.4497 115.212 38.5423 115.547 38.7275C115.891 38.9128 116.147 39.1951 116.315 39.5744C116.482 39.9449 116.566 40.4168 116.566 40.9902V44.5364C116.566 44.7128 116.518 44.8495 116.421 44.9466C116.332 45.0436 116.204 45.0921 116.037 45.0921C115.86 45.0921 115.724 45.0436 115.627 44.9466C115.538 44.8495 115.494 44.7128 115.494 44.5364V41.0564C115.494 40.4565 115.375 40.0199 115.137 39.7464C114.908 39.4641 114.537 39.323 114.026 39.323C113.435 39.323 112.963 39.5082 112.61 39.8787C112.266 40.2404 112.094 40.7256 112.094 41.3342V44.5364C112.094 44.9069 111.913 45.0921 111.551 45.0921ZM121.44 45.1186C120.761 45.1186 120.174 44.9863 119.68 44.7216C119.195 44.4482 118.816 44.0645 118.542 43.5705C118.278 43.0765 118.146 42.4854 118.146 41.7974C118.146 41.1269 118.278 40.5447 118.542 40.0507C118.807 39.5479 119.169 39.1554 119.628 38.8731C120.095 38.5908 120.633 38.4497 121.242 38.4497C121.674 38.4497 122.062 38.5247 122.406 38.6746C122.75 38.8158 123.041 39.0231 123.28 39.2965C123.527 39.57 123.712 39.9008 123.835 40.2889C123.968 40.6771 124.034 41.1137 124.034 41.5989C124.034 41.74 123.994 41.8459 123.915 41.9165C123.835 41.9782 123.721 42.0091 123.571 42.0091H118.966V41.3078H123.319L123.108 41.4798C123.108 41.0034 123.037 40.6021 122.896 40.2757C122.755 39.9405 122.547 39.6847 122.274 39.5082C122.009 39.3318 121.674 39.2436 121.268 39.2436C120.818 39.2436 120.435 39.3494 120.117 39.5612C119.808 39.7641 119.575 40.0507 119.416 40.4212C119.257 40.7829 119.178 41.2063 119.178 41.6915V41.7709C119.178 42.5825 119.372 43.2 119.76 43.6234C120.157 44.0468 120.717 44.2585 121.44 44.2585C121.74 44.2585 122.036 44.2188 122.327 44.1394C122.627 44.06 122.918 43.9277 123.2 43.7425C123.324 43.6631 123.434 43.6278 123.531 43.6366C123.637 43.6366 123.721 43.6675 123.782 43.7292C123.844 43.7822 123.884 43.8527 123.901 43.941C123.928 44.0203 123.919 44.1086 123.875 44.2056C123.84 44.3026 123.765 44.3864 123.65 44.457C123.359 44.6687 123.015 44.8319 122.618 44.9466C122.221 45.0613 121.828 45.1186 121.44 45.1186Z" fill="#787F8C"/>
<path d="M55.8735 32.0015V8.75142H59.897V18.5797L59.3441 17.9962C59.7332 16.9928 60.3679 16.2353 61.2484 15.7234C62.1493 15.191 63.1935 14.9248 64.3811 14.9248C65.6097 14.9248 66.6949 15.191 67.6368 15.7234C68.5991 16.2557 69.3465 17.0031 69.8788 17.9654C70.4112 18.9073 70.6774 20.0028 70.6774 21.2518V32.0015H66.6539V22.2039C66.6539 21.4668 66.5106 20.832 66.2239 20.2997C65.9373 19.7673 65.538 19.3578 65.0261 19.0711C64.5347 18.764 63.9511 18.6104 63.2754 18.6104C62.6202 18.6104 62.0367 18.764 61.5248 19.0711C61.0129 19.3578 60.6136 19.7673 60.327 20.2997C60.0403 20.832 59.897 21.4668 59.897 22.2039V32.0015H55.8735ZM74.0796 32.0015V15.2934H78.1031V32.0015H74.0796ZM74.0796 13.4199V9.11998H78.1031V13.4199H74.0796ZM82.6472 25.4288V21.8968H95.7004V25.4288H82.6472ZM104.626 32.0015V12.8056H98.6983V9.11998H114.669V12.8056H108.834V32.0015H104.626ZM117.218 32.0015V9.11998H132.421V12.8056H121.395V18.6718H131.807V22.3575H121.395V28.3159H132.421V32.0015H117.218ZM146.234 32.37C144.596 32.37 143.081 32.0731 141.688 31.4793C140.317 30.8855 139.109 30.0563 138.064 28.9916C137.04 27.9268 136.242 26.6778 135.669 25.2445C135.095 23.8112 134.809 22.2448 134.809 20.5454C134.809 18.8459 135.085 17.2795 135.638 15.8462C136.211 14.3924 137.01 13.1434 138.034 12.0992C139.078 11.0344 140.296 10.2154 141.688 9.64211C143.081 9.04832 144.596 8.75142 146.234 8.75142C147.872 8.75142 149.336 9.02784 150.626 9.58068C151.936 10.1335 153.042 10.8706 153.943 11.792C154.844 12.693 155.489 13.686 155.878 14.7712L152.131 16.5219C151.701 15.3753 150.974 14.4334 149.95 13.6963C148.927 12.9387 147.688 12.5599 146.234 12.5599C144.801 12.5599 143.531 12.8977 142.426 13.5734C141.34 14.2491 140.491 15.1808 139.876 16.3683C139.283 17.5559 138.986 18.9483 138.986 20.5454C138.986 22.1425 139.283 23.545 139.876 24.7531C140.491 25.9407 141.34 26.8723 142.426 27.548C143.531 28.2237 144.801 28.5616 146.234 28.5616C147.688 28.5616 148.927 28.193 149.95 27.4559C150.974 26.6983 151.701 25.7462 152.131 24.5995L155.878 26.3502C155.489 27.4354 154.844 28.4387 153.943 29.3601C153.042 30.261 151.936 30.9879 150.626 31.5408C149.336 32.0936 147.872 32.37 146.234 32.37ZM159.269 32.0015V9.11998H163.446V19.1018H173.182V9.11998H177.39V32.0015H173.182V22.7874H163.446V32.0015H159.269Z" fill="#0B59DB"/>
<path d="M0.121472 12.6847C0.601472 15.3447 2.45146 17.3947 4.80146 18.2747C6.74146 18.9947 8.51148 20.1247 10.0015 21.5647C12.4215 23.9147 15.7115 25.3547 19.3415 25.3547C23.0015 25.3547 26.3315 23.8747 28.7515 21.4947C30.2515 20.0247 32.1015 18.9947 34.0515 18.2147C36.1515 17.3747 37.8415 15.5747 38.4515 13.1847C39.3815 9.52469 37.3015 5.6547 33.7315 4.4147C29.7315 3.0247 25.4215 5.26469 24.2415 9.28469C23.7315 11.0147 23.8815 12.7747 24.5515 14.3147C26.1915 18.0747 23.6915 22.3447 19.5915 22.4347C19.5115 22.4347 19.4315 22.4347 19.3515 22.4347C19.2715 22.4347 19.1815 22.4347 19.1015 22.4347C15.0515 22.3447 12.3915 18.1147 14.0815 14.4347C14.7115 13.0547 14.9315 11.4647 14.5915 9.8547C13.7315 5.7547 9.61146 3.1747 5.51146 4.2447C1.82146 5.2047 -0.558528 8.93469 0.121472 12.6847Z" fill="#0B59DB"/>
<path d="M38.5515 34.9752C38.0715 32.3152 36.2215 30.2652 33.8715 29.3852C31.9315 28.6652 30.1614 27.5352 28.6714 26.0952C26.2514 23.7452 22.9615 22.3052 19.3315 22.3052C15.6715 22.3052 12.3414 23.7852 9.92145 26.1652C8.42145 27.6352 6.57146 28.6652 4.62146 29.4452C2.52146 30.2852 0.831467 32.0852 0.221467 34.4752C-0.708533 38.1352 1.37147 42.0052 4.94147 43.2452C8.94147 44.6352 13.2515 42.3952 14.4315 38.3752C14.9415 36.6452 14.7915 34.8852 14.1215 33.3452C12.4815 29.5852 14.9815 25.3252 19.0815 25.2252C19.1615 25.2252 19.2414 25.2252 19.3214 25.2252C19.4014 25.2252 19.4914 25.2252 19.5714 25.2252C23.6214 25.3152 26.2815 29.5452 24.5915 33.2252C23.9615 34.6052 23.7415 36.1952 24.0815 37.8052C24.9415 41.9052 29.0615 44.4852 33.1615 43.4152C36.8515 42.4552 39.2315 38.7152 38.5515 34.9752Z" fill="#0B59DB"/>
</svg>
