<svg width="203" height="50" viewBox="0 0 203 50" fill="none" xmlns="http://www.w3.org/2000/svg">
<path d="M66.3811 27.369C64.9274 27.369 63.576 27.1029 62.327 26.5705C61.0984 26.0381 60.0337 25.301 59.1328 24.3591C58.2523 23.3968 57.6073 22.2809 57.1978 21.0114L60.6684 19.5064C61.2213 20.8169 62.0198 21.8509 63.0641 22.6085C64.1083 23.3456 65.2857 23.7142 66.5961 23.7142C67.3332 23.7142 67.968 23.6015 68.5004 23.3763C69.0532 23.1306 69.4729 22.803 69.7596 22.3935C70.0667 21.984 70.2203 21.4926 70.2203 20.9192C70.2203 20.2435 70.0155 19.6907 69.606 19.2607C69.217 18.8102 68.6232 18.4622 67.8247 18.2165L63.4326 16.8036C61.6513 16.2508 60.3101 15.4215 59.4092 14.3159C58.5083 13.2102 58.0578 11.91 58.0578 10.4153C58.0578 9.10481 58.3752 7.94794 59.0099 6.94464C59.6651 5.94133 60.5661 5.16326 61.7127 4.61042C62.8798 4.0371 64.2107 3.75044 65.7054 3.75044C67.0773 3.75044 68.3365 3.99615 69.4832 4.48756C70.6298 4.9585 71.6126 5.62396 72.4317 6.48394C73.2712 7.32344 73.8957 8.3165 74.3052 9.46314L70.8653 10.9988C70.4148 9.85217 69.7391 8.97172 68.8382 8.35745C67.9373 7.72271 66.893 7.40534 65.7054 7.40534C65.0093 7.40534 64.395 7.52819 63.8626 7.7739C63.3303 7.99913 62.9105 8.32674 62.6034 8.75673C62.3167 9.16624 62.1734 9.65766 62.1734 10.231C62.1734 10.8657 62.3781 11.4288 62.7877 11.9202C63.1972 12.3911 63.8217 12.7597 64.6612 13.0259L68.8689 14.3466C70.6912 14.9404 72.0529 15.7594 72.9538 16.8036C73.8752 17.8479 74.3359 19.1379 74.3359 20.6735C74.3359 21.984 73.9981 23.1408 73.3224 24.1441C72.6467 25.1474 71.715 25.9358 70.5274 26.5091C69.3399 27.0824 67.9578 27.369 66.3811 27.369ZM86.9118 27.369C85.1509 27.369 83.5846 27.0005 82.2127 26.2634C80.8613 25.5262 79.7966 24.5127 79.0185 23.2227C78.2404 21.9328 77.8514 20.4688 77.8514 18.8307V4.119H82.0284V18.6157C82.0284 19.5576 82.2332 20.4073 82.6427 21.1649C83.0727 21.9225 83.6562 22.5163 84.3933 22.9463C85.1305 23.3558 85.97 23.5606 86.9118 23.5606C87.8742 23.5606 88.7137 23.3558 89.4303 22.9463C90.1675 22.5163 90.7408 21.9225 91.1503 21.1649C91.5803 20.4073 91.7953 19.5576 91.7953 18.6157V4.119H95.9723V18.8307C95.9723 20.4688 95.5833 21.9328 94.8052 23.2227C94.0271 24.5127 92.9521 25.5262 91.5803 26.2634C90.2289 27.0005 88.6727 27.369 86.9118 27.369ZM100.142 27.0005V4.119H103.398L115.99 21.0728L114.301 21.4106V4.119H118.478V27.0005H115.192L102.784 9.92384L104.319 9.58599V27.0005H100.142ZM126.962 27.0005V7.80461H121.034V4.119H137.005V7.80461H131.169V27.0005H126.962ZM139.554 27.0005V4.119H154.757V7.80461H143.731V13.6709H154.143V17.3565H143.731V23.3149H154.757V27.0005H139.554ZM168.57 27.369C166.932 27.369 165.416 27.0722 164.024 26.4784C162.652 25.8846 161.444 25.0553 160.4 23.9906C159.376 22.9258 158.578 21.6768 158.004 20.2435C157.431 18.8102 157.144 17.2439 157.144 15.5444C157.144 13.8449 157.421 12.2785 157.974 10.8452C158.547 9.39147 159.345 8.14246 160.369 7.09821C161.413 6.03347 162.632 5.21445 164.024 4.64113C165.416 4.04734 166.932 3.75044 168.57 3.75044C170.208 3.75044 171.672 4.02686 172.962 4.57971C174.272 5.13255 175.378 5.86967 176.279 6.79107C177.18 7.692 177.825 8.68506 178.214 9.77027L174.467 11.5209C174.037 10.3743 173.31 9.43242 172.286 8.6953C171.262 7.9377 170.023 7.55891 168.57 7.55891C167.136 7.55891 165.867 7.89675 164.761 8.57245C163.676 9.24814 162.826 10.1798 162.212 11.3674C161.618 12.555 161.321 13.9473 161.321 15.5444C161.321 17.1415 161.618 18.5441 162.212 19.7521C162.826 20.9397 163.676 21.8714 164.761 22.547C165.867 23.2227 167.136 23.5606 168.57 23.5606C170.023 23.5606 171.262 23.192 172.286 22.4549C173.31 21.6973 174.037 20.7452 174.467 19.5986L178.214 21.3492C177.825 22.4344 177.18 23.4377 176.279 24.3591C175.378 25.2601 174.272 25.9869 172.962 26.5398C171.672 27.0926 170.208 27.369 168.57 27.369ZM181.605 27.0005V4.119H185.782V14.1009H195.518V4.119H199.726V27.0005H195.518V17.7865H185.782V27.0005H181.605Z" fill="#0B59DB"/>
<path d="M59.5859 43.7573C59.0831 43.7573 58.6596 43.6691 58.3156 43.4926C57.9804 43.3074 57.729 43.0427 57.5614 42.6987C57.3938 42.3459 57.31 41.918 57.31 41.4152V38.041H56.4234C56.2735 38.041 56.1588 38.0058 56.0794 37.9352C56 37.8558 55.9603 37.7499 55.9603 37.6176C55.9603 37.4853 56 37.3839 56.0794 37.3133C56.1588 37.2427 56.2735 37.2074 56.4234 37.2074H57.31V35.6858C57.31 35.5093 57.3585 35.377 57.4555 35.2888C57.5526 35.1918 57.6849 35.1432 57.8525 35.1432C58.0201 35.1432 58.148 35.1918 58.2362 35.2888C58.3332 35.377 58.3818 35.5093 58.3818 35.6858V37.2074H60.049C60.199 37.2074 60.3136 37.2427 60.393 37.3133C60.4724 37.3839 60.5121 37.4853 60.5121 37.6176C60.5121 37.7499 60.4724 37.8558 60.393 37.9352C60.3136 38.0058 60.199 38.041 60.049 38.041H58.3818V41.3094C58.3818 41.8122 58.4876 42.1959 58.6993 42.4605C58.911 42.7164 59.2551 42.8443 59.7314 42.8443C59.899 42.8443 60.0402 42.8266 60.1548 42.7913C60.2783 42.7561 60.3798 42.7384 60.4592 42.7384C60.5386 42.7296 60.6047 42.7561 60.6577 42.8178C60.7106 42.8795 60.7371 42.9854 60.7371 43.1354C60.7371 43.2412 60.715 43.3383 60.6709 43.4265C60.6356 43.5147 60.5695 43.5764 60.4724 43.6117C60.3666 43.647 60.2254 43.6779 60.049 43.7043C59.8814 43.7396 59.727 43.7573 59.5859 43.7573ZM64.4649 43.7573C63.7856 43.7573 63.199 43.625 62.705 43.3603C62.2198 43.0869 61.8405 42.7031 61.5671 42.2091C61.3024 41.7151 61.1701 41.1241 61.1701 40.436C61.1701 39.7656 61.3024 39.1834 61.5671 38.6894C61.8317 38.1866 62.1934 37.794 62.6521 37.5118C63.1196 37.2295 63.6577 37.0883 64.2664 37.0883C64.6986 37.0883 65.0868 37.1633 65.4308 37.3133C65.7748 37.4544 66.0659 37.6617 66.3041 37.9352C66.5511 38.2087 66.7364 38.5395 66.8599 38.9276C66.9922 39.3157 67.0583 39.7524 67.0583 40.2376C67.0583 40.3787 67.0186 40.4846 66.9392 40.5551C66.8599 40.6169 66.7452 40.6478 66.5952 40.6478H61.9905V39.9465H66.3438L66.1321 40.1185C66.1321 39.6421 66.0615 39.2407 65.9204 38.9144C65.7792 38.5791 65.5719 38.3233 65.2985 38.1469C65.0338 37.9705 64.6986 37.8823 64.2928 37.8823C63.843 37.8823 63.4592 37.9881 63.1417 38.1998C62.8329 38.4027 62.5992 38.6894 62.4404 39.0599C62.2816 39.4216 62.2022 39.845 62.2022 40.3302V40.4096C62.2022 41.2211 62.3963 41.8386 62.7844 42.2621C63.1814 42.6855 63.7415 42.8972 64.4649 42.8972C64.7648 42.8972 65.0603 42.8575 65.3514 42.7781C65.6513 42.6987 65.9424 42.5664 66.2247 42.3811C66.3482 42.3018 66.4585 42.2665 66.5555 42.2753C66.6614 42.2753 66.7452 42.3062 66.8069 42.3679C66.8687 42.4208 66.9084 42.4914 66.926 42.5796C66.9525 42.659 66.9437 42.7472 66.8996 42.8443C66.8643 42.9413 66.7893 43.0251 66.6746 43.0957C66.3835 43.3074 66.0395 43.4706 65.6425 43.5853C65.2456 43.6999 64.853 43.7573 64.4649 43.7573ZM71.3353 43.7573C70.6913 43.7573 70.1356 43.6161 69.668 43.3338C69.2005 43.0516 68.8388 42.659 68.583 42.1562C68.336 41.6446 68.2125 41.0535 68.2125 40.3831C68.2125 39.8715 68.2831 39.4128 68.4242 39.007C68.5654 38.6012 68.7727 38.2572 69.0461 37.9749C69.3196 37.6838 69.646 37.4632 70.0253 37.3133C70.4134 37.1633 70.8501 37.0883 71.3353 37.0883C71.6528 37.0883 71.9836 37.1369 72.3277 37.2339C72.6717 37.3309 72.9849 37.4985 73.2671 37.7367C73.3554 37.7985 73.4127 37.8734 73.4392 37.9617C73.4656 38.0499 73.4656 38.1381 73.4392 38.2263C73.4127 38.3057 73.3686 38.3763 73.3068 38.438C73.2451 38.4909 73.1657 38.5218 73.0687 38.5306C72.9804 38.5395 72.8878 38.5086 72.7908 38.438C72.5614 38.2616 72.3277 38.1381 72.0895 38.0675C71.8513 37.9969 71.622 37.9617 71.4014 37.9617C71.0574 37.9617 70.7575 38.019 70.5017 38.1337C70.2458 38.2395 70.0297 38.3939 69.8533 38.5968C69.6769 38.7997 69.5401 39.0511 69.4431 39.351C69.3549 39.6509 69.3108 39.9994 69.3108 40.3963C69.3108 41.1638 69.4916 41.7725 69.8533 42.2224C70.215 42.6634 70.731 42.884 71.4014 42.884C71.622 42.884 71.8469 42.8487 72.0763 42.7781C72.3144 42.7075 72.5526 42.584 72.7908 42.4076C72.8878 42.337 72.9804 42.3062 73.0687 42.315C73.1569 42.3238 73.2319 42.3591 73.2936 42.4208C73.3554 42.4738 73.395 42.5443 73.4127 42.6326C73.4392 42.7208 73.4392 42.809 73.4127 42.8972C73.3862 42.9766 73.3289 43.0472 73.2407 43.1089C72.9584 43.3383 72.6496 43.5059 72.3144 43.6117C71.9792 43.7088 71.6528 43.7573 71.3353 43.7573ZM75.2637 43.7308C75.0873 43.7308 74.955 43.6823 74.8668 43.5853C74.7786 43.4882 74.7344 43.3515 74.7344 43.1751V34.7595C74.7344 34.5831 74.7786 34.4508 74.8668 34.3626C74.955 34.2655 75.0873 34.217 75.2637 34.217C75.4313 34.217 75.5637 34.2655 75.6607 34.3626C75.7577 34.4508 75.8062 34.5831 75.8062 34.7595V38.6365H75.6342C75.8195 38.1248 76.1194 37.7411 76.534 37.4853C76.9574 37.2207 77.4426 37.0883 77.9895 37.0883C78.5012 37.0883 78.9246 37.181 79.2598 37.3662C79.6038 37.5515 79.8596 37.8337 80.0272 38.2131C80.1949 38.5836 80.2787 39.0555 80.2787 39.6289V43.1751C80.2787 43.3515 80.2301 43.4882 80.1331 43.5853C80.0449 43.6823 79.917 43.7308 79.7494 43.7308C79.5729 43.7308 79.4362 43.6823 79.3392 43.5853C79.251 43.4882 79.2069 43.3515 79.2069 43.1751V39.695C79.2069 39.0952 79.0878 38.6585 78.8496 38.3851C78.6202 38.1028 78.2497 37.9617 77.7381 37.9617C77.1471 37.9617 76.6751 38.1469 76.3223 38.5174C75.9783 38.8791 75.8062 39.3642 75.8062 39.9729V43.1751C75.8062 43.5456 75.6254 43.7308 75.2637 43.7308ZM87.8364 43.7573C87.4394 43.7573 87.0381 43.7088 86.6323 43.6117C86.2353 43.5147 85.8648 43.3471 85.5208 43.1089C85.4326 43.0472 85.3708 42.9766 85.3356 42.8972C85.3003 42.809 85.287 42.7252 85.2959 42.6458C85.3135 42.5576 85.3488 42.4826 85.4017 42.4208C85.4635 42.3591 85.534 42.3238 85.6134 42.315C85.7016 42.2973 85.7987 42.315 85.9045 42.3679C86.2486 42.5796 86.5794 42.7296 86.8969 42.8178C87.2233 42.8972 87.5453 42.9369 87.8629 42.9369C88.3657 42.9369 88.745 42.8443 89.0008 42.659C89.2566 42.4738 89.3845 42.2224 89.3845 41.9048C89.3845 41.6578 89.3007 41.4637 89.1331 41.3226C88.9655 41.1726 88.7009 41.0579 88.3392 40.9786L87.1351 40.7139C86.5794 40.5992 86.1648 40.4008 85.8913 40.1185C85.6267 39.8362 85.4943 39.4701 85.4943 39.0202C85.4943 38.6233 85.5958 38.2836 85.7987 38.0014C86.0104 37.7102 86.3059 37.4853 86.6852 37.3265C87.0645 37.1677 87.5056 37.0883 88.0084 37.0883C88.3966 37.0883 88.7626 37.1413 89.1067 37.2471C89.4595 37.3442 89.7771 37.5029 90.0594 37.7235C90.1476 37.7852 90.2049 37.8602 90.2314 37.9484C90.2667 38.0278 90.2711 38.1116 90.2446 38.1998C90.227 38.2792 90.1873 38.3498 90.1255 38.4115C90.0638 38.4645 89.9888 38.4953 89.9006 38.5042C89.8124 38.513 89.7198 38.4865 89.6227 38.4248C89.3581 38.2483 89.089 38.1204 88.8156 38.041C88.5421 37.9528 88.2731 37.9087 88.0084 37.9087C87.5144 37.9087 87.1395 38.0058 86.8837 38.1998C86.6279 38.3939 86.5 38.6497 86.5 38.9673C86.5 39.2143 86.5794 39.4172 86.7381 39.576C86.8969 39.7347 87.1439 39.8494 87.4791 39.92L88.6832 40.1714C89.2566 40.2949 89.6845 40.4934 89.9668 40.7668C90.2579 41.0315 90.4034 41.3932 90.4034 41.8519C90.4034 42.4341 90.1696 42.8972 89.7021 43.2412C89.2346 43.5853 88.6127 43.7573 87.8364 43.7573ZM93.9952 43.7573C93.36 43.7573 92.8749 43.5632 92.5397 43.1751C92.2044 42.7869 92.0368 42.2312 92.0368 41.5078V34.7595C92.0368 34.5831 92.0809 34.4508 92.1692 34.3626C92.2574 34.2655 92.3897 34.217 92.5661 34.217C92.7337 34.217 92.866 34.2655 92.9631 34.3626C93.0601 34.4508 93.1086 34.5831 93.1086 34.7595V41.4284C93.1086 41.9048 93.2013 42.2621 93.3865 42.5002C93.5806 42.7296 93.8629 42.8443 94.2333 42.8443C94.3127 42.8443 94.3833 42.8399 94.4451 42.831C94.5068 42.8222 94.5686 42.8178 94.6303 42.8178C94.7273 42.809 94.7935 42.831 94.8288 42.884C94.8729 42.9369 94.8949 43.0427 94.8949 43.2015C94.8949 43.3603 94.8597 43.4794 94.7891 43.5588C94.7185 43.6382 94.6038 43.6911 94.4451 43.7176C94.3745 43.7264 94.2995 43.7352 94.2201 43.744C94.1407 43.7529 94.0657 43.7573 93.9952 43.7573ZM98.5604 43.7573C97.9341 43.7573 97.3916 43.6205 96.9329 43.3471C96.4742 43.0736 96.1169 42.6899 95.8611 42.1959C95.6141 41.6931 95.4906 41.1021 95.4906 40.4228C95.4906 39.9112 95.5612 39.4525 95.7023 39.0467C95.8434 38.6321 96.0508 38.2792 96.3242 37.9881C96.5977 37.697 96.9197 37.4765 97.2901 37.3265C97.6695 37.1677 98.0929 37.0883 98.5604 37.0883C99.1867 37.0883 99.7292 37.2251 100.188 37.4985C100.647 37.772 101 38.1601 101.247 38.663C101.502 39.1569 101.63 39.7436 101.63 40.4228C101.63 40.9344 101.56 41.3932 101.419 41.7989C101.277 42.2047 101.07 42.5576 100.797 42.8575C100.523 43.1486 100.197 43.3735 99.8175 43.5323C99.447 43.6823 99.028 43.7573 98.5604 43.7573ZM98.5604 42.8972C98.9574 42.8972 99.3058 42.8002 99.6057 42.6061C99.9057 42.412 100.135 42.1297 100.294 41.7592C100.461 41.3887 100.545 40.9433 100.545 40.4228C100.545 39.6201 100.364 39.007 100.003 38.5836C99.6499 38.1601 99.1691 37.9484 98.5604 37.9484C98.1546 37.9484 97.8018 38.0455 97.5019 38.2395C97.2108 38.4248 96.9814 38.7026 96.8138 39.0731C96.655 39.4348 96.5756 39.8847 96.5756 40.4228C96.5756 41.2167 96.7565 41.8298 97.1181 42.2621C97.4798 42.6855 97.9606 42.8972 98.5604 42.8972ZM106.085 46.139C105.617 46.139 105.159 46.0817 104.709 45.967C104.268 45.8612 103.866 45.6891 103.505 45.451C103.399 45.3892 103.328 45.3142 103.293 45.226C103.267 45.1378 103.262 45.0496 103.28 44.9614C103.297 44.882 103.337 44.807 103.399 44.7364C103.461 44.6747 103.531 44.635 103.611 44.6174C103.699 44.5997 103.787 44.6129 103.875 44.657C104.263 44.8952 104.634 45.0584 104.987 45.1466C105.34 45.2348 105.688 45.279 106.032 45.279C106.658 45.279 107.13 45.1113 107.448 44.7761C107.774 44.4409 107.937 43.9558 107.937 43.3206V41.8254H108.07C107.937 42.337 107.655 42.7428 107.223 43.0427C106.8 43.3427 106.301 43.4926 105.728 43.4926C105.137 43.4926 104.625 43.3603 104.193 43.0957C103.761 42.8222 103.425 42.4429 103.187 41.9577C102.958 41.4725 102.843 40.9124 102.843 40.2773C102.843 39.8009 102.909 39.3687 103.042 38.9805C103.174 38.5836 103.364 38.2483 103.611 37.9749C103.866 37.6926 104.171 37.4765 104.524 37.3265C104.885 37.1677 105.287 37.0883 105.728 37.0883C106.31 37.0883 106.813 37.2383 107.236 37.5382C107.66 37.8293 107.933 38.2263 108.057 38.7291L107.924 38.8879V37.6573C107.924 37.4809 107.968 37.3486 108.057 37.2604C108.154 37.1633 108.286 37.1148 108.454 37.1148C108.63 37.1148 108.762 37.1633 108.85 37.2604C108.939 37.3486 108.983 37.4809 108.983 37.6573V43.1751C108.983 44.1542 108.736 44.8908 108.242 45.3848C107.757 45.8876 107.038 46.139 106.085 46.139ZM105.926 42.6193C106.341 42.6193 106.698 42.5267 106.998 42.3414C107.298 42.1474 107.527 41.8739 107.686 41.5211C107.854 41.1682 107.937 40.7536 107.937 40.2773C107.937 39.5627 107.757 38.9982 107.395 38.5836C107.033 38.1601 106.544 37.9484 105.926 37.9484C105.52 37.9484 105.168 38.0455 104.868 38.2395C104.568 38.4248 104.334 38.6938 104.166 39.0467C104.008 39.3907 103.928 39.8009 103.928 40.2773C103.928 40.9918 104.109 41.5608 104.471 41.9842C104.832 42.4076 105.318 42.6193 105.926 42.6193ZM113.018 43.7573C112.577 43.7573 112.18 43.6735 111.827 43.5059C111.483 43.3294 111.209 43.0913 111.006 42.7913C110.804 42.4914 110.702 42.1562 110.702 41.7857C110.702 41.3094 110.821 40.9344 111.059 40.661C111.306 40.3875 111.708 40.1935 112.263 40.0788C112.828 39.9641 113.596 39.9068 114.566 39.9068H115.161V40.6081H114.579C113.865 40.6081 113.3 40.6433 112.885 40.7139C112.48 40.7757 112.193 40.8859 112.025 41.0447C111.867 41.2035 111.787 41.4284 111.787 41.7195C111.787 42.0812 111.911 42.3767 112.158 42.6061C112.413 42.8354 112.757 42.9501 113.19 42.9501C113.543 42.9501 113.851 42.8663 114.116 42.6987C114.389 42.5311 114.601 42.3018 114.751 42.0106C114.91 41.7195 114.989 41.3843 114.989 41.005V39.4966C114.989 38.9496 114.879 38.5571 114.658 38.3189C114.438 38.0719 114.076 37.9484 113.573 37.9484C113.265 37.9484 112.956 37.9881 112.647 38.0675C112.338 38.1469 112.012 38.2748 111.668 38.4512C111.545 38.513 111.439 38.535 111.35 38.5174C111.262 38.4909 111.192 38.4424 111.139 38.3718C111.086 38.3013 111.055 38.2219 111.046 38.1337C111.037 38.0366 111.055 37.944 111.099 37.8558C111.152 37.7676 111.231 37.697 111.337 37.6441C111.725 37.45 112.109 37.3089 112.488 37.2207C112.868 37.1324 113.229 37.0883 113.573 37.0883C114.129 37.0883 114.588 37.181 114.95 37.3662C115.311 37.5426 115.58 37.8161 115.757 38.1866C115.933 38.5483 116.021 39.0158 116.021 39.5892V43.1751C116.021 43.3515 115.977 43.4882 115.889 43.5853C115.81 43.6823 115.691 43.7308 115.532 43.7308C115.364 43.7308 115.236 43.6823 115.148 43.5853C115.06 43.4882 115.016 43.3515 115.016 43.1751V42.143H115.135C115.064 42.4782 114.928 42.7649 114.725 43.003C114.531 43.2412 114.288 43.4265 113.997 43.5588C113.706 43.6911 113.379 43.7573 113.018 43.7573ZM118.539 43.7308C118.363 43.7308 118.23 43.6823 118.142 43.5853C118.054 43.4882 118.01 43.3515 118.01 43.1751V37.6573C118.01 37.4809 118.054 37.3486 118.142 37.2604C118.23 37.1633 118.358 37.1148 118.526 37.1148C118.693 37.1148 118.821 37.1633 118.91 37.2604C119.007 37.3486 119.055 37.4809 119.055 37.6573V38.7953L118.91 38.6365C119.095 38.1248 119.395 37.7411 119.809 37.4853C120.233 37.2207 120.718 37.0883 121.265 37.0883C121.777 37.0883 122.2 37.181 122.535 37.3662C122.879 37.5515 123.135 37.8337 123.303 38.2131C123.47 38.5836 123.554 39.0555 123.554 39.6289V43.1751C123.554 43.3515 123.505 43.4882 123.408 43.5853C123.32 43.6823 123.192 43.7308 123.025 43.7308C122.848 43.7308 122.712 43.6823 122.615 43.5853C122.526 43.4882 122.482 43.3515 122.482 43.1751V39.695C122.482 39.0952 122.363 38.6585 122.125 38.3851C121.896 38.1028 121.525 37.9617 121.013 37.9617C120.422 37.9617 119.95 38.1469 119.598 38.5174C119.254 38.8791 119.082 39.3642 119.082 39.9729V43.1751C119.082 43.5456 118.901 43.7308 118.539 43.7308Z" fill="#787F8C"/>
<path d="M38.9362 28.1496C37.7695 28.1681 36.6769 28.5004 35.751 29.0635C34.4455 29.8573 32.8343 29.9404 31.5103 29.1742L30.9825 28.8696C29.6677 28.1127 28.9547 26.6819 28.9917 25.1681C29.0473 22.8789 27.8436 20.6358 25.6862 19.4635C23.6029 18.3374 21.1769 18.5035 19.3066 19.685C18.0288 20.4973 16.3806 20.4512 15.0751 19.6943L14.6584 19.4543C13.3621 18.7066 12.5751 17.3127 12.6399 15.8266C12.6399 15.7343 12.6492 15.642 12.6492 15.5589V15.5035C12.6399 13.8881 13.501 12.3927 14.9084 11.5897L14.9362 11.5712C16.3158 10.7774 18.0103 10.8143 19.3621 11.6543C19.6677 11.8389 19.9918 12.005 20.3436 12.1435C22.3158 12.9281 24.4362 12.6512 26.0936 11.5897C27.3343 10.7958 28.8899 10.6851 30.1677 11.4235L30.7047 11.7281C32.0288 12.4851 32.7418 13.925 32.714 15.4389C32.6955 16.2327 32.8343 17.045 33.1399 17.8296C34.214 20.6081 37.1862 22.2788 40.1214 21.7435C44.2973 20.9865 46.5751 16.482 44.6399 12.6697C43.4362 10.2974 40.7788 8.93123 38.1399 9.30969C37.1955 9.44816 36.3436 9.78045 35.6029 10.2512C34.3436 11.0635 32.714 11.0266 31.4269 10.2789L30.9084 9.97428C29.6491 9.24505 28.9547 7.87891 28.9917 6.42968C29.0473 3.80815 27.4455 1.30664 24.7973 0.355871C21.7047 -0.742587 18.1862 0.789716 16.8806 3.7897C16.5103 4.64816 16.3436 5.54354 16.3621 6.41123C16.3992 7.9343 15.538 9.33737 14.214 10.1035L14.001 10.2328C12.6121 11.0358 10.9177 10.9528 9.53805 10.1312C8.59361 9.56814 7.49174 9.25428 6.31582 9.25428C2.97323 9.26351 0.149156 11.9681 0.0195264 15.3004C-0.119363 18.8912 2.76027 21.845 6.32509 21.845C7.51027 21.845 8.62138 21.5219 9.56583 20.9496C10.8714 20.165 12.4918 20.0727 13.8066 20.8296L14.3621 21.1527C15.6769 21.9096 16.3899 23.3404 16.3529 24.845C16.2973 27.1342 17.501 29.3681 19.6584 30.5311C21.7325 31.6481 24.1584 31.4911 26.0195 30.3188C27.2973 29.5158 28.9362 29.5619 30.2418 30.3188L30.5751 30.5127C31.8991 31.2696 32.7603 32.6819 32.7047 34.1957C32.6954 34.3527 32.6954 34.5004 32.7047 34.6573C32.7047 34.6665 32.7047 34.6757 32.7047 34.685C32.7603 36.1065 32.0843 37.4634 30.8529 38.1742L30.2325 38.5342C28.9732 39.2634 27.3899 39.2727 26.1769 38.4696C24.3899 37.2788 22.038 37.0296 19.9547 38.0173C19.6769 38.1465 19.4177 38.2942 19.1677 38.4603C18.001 39.2357 16.5288 39.3465 15.3158 38.6542L14.501 38.1834C13.2695 37.4727 12.5658 36.1342 12.6214 34.7219C12.7232 32.4881 11.6214 30.2635 9.53805 29.0358C6.69546 27.3558 2.91767 28.1958 1.07508 30.9373C-0.934178 33.9281 -0.0360259 37.9527 3.01027 39.8173C5.14916 41.128 7.76026 41.008 9.74174 39.7434C10.9454 38.968 12.4732 38.8942 13.714 39.6142L14.4825 40.0573C15.714 40.768 16.4084 42.0972 16.3621 43.5096C16.3251 44.5803 16.5566 45.6695 17.1029 46.6849C18.6029 49.4911 22.0843 50.7465 25.038 49.5465C27.6214 48.4942 29.0936 45.9834 28.964 43.408C28.8992 42.0326 29.6492 40.7496 30.8436 40.0573L31.5751 39.6326C32.7973 38.9311 34.3343 38.9126 35.5103 39.6973C36.5658 40.408 37.8529 40.7957 39.2232 40.7496C42.7973 40.6296 45.5658 37.565 45.2973 33.9834C45.0751 30.6973 42.2232 28.1034 38.9362 28.1496Z" fill="#0B59DB"/>
</svg>
