<svg width="198" height="50" viewBox="0 0 198 50" fill="none" xmlns="http://www.w3.org/2000/svg">
<path d="M68.5859 45.1181C68.0831 45.1181 67.6596 45.0299 67.3156 44.8535C66.9804 44.6682 66.729 44.4036 66.5614 44.0596C66.3938 43.7067 66.31 43.2789 66.31 42.776V39.4019H65.4234C65.2735 39.4019 65.1588 39.3666 65.0794 39.296C65 39.2166 64.9603 39.1108 64.9603 38.9785C64.9603 38.8461 65 38.7447 65.0794 38.6741C65.1588 38.6036 65.2735 38.5683 65.4234 38.5683H66.31V37.0466C66.31 36.8702 66.3585 36.7378 66.4555 36.6496C66.5526 36.5526 66.6849 36.5041 66.8525 36.5041C67.0201 36.5041 67.148 36.5526 67.2362 36.6496C67.3332 36.7378 67.3818 36.8702 67.3818 37.0466V38.5683H69.049C69.199 38.5683 69.3136 38.6036 69.393 38.6741C69.4724 38.7447 69.5121 38.8461 69.5121 38.9785C69.5121 39.1108 69.4724 39.2166 69.393 39.296C69.3136 39.3666 69.199 39.4019 69.049 39.4019H67.3818V42.6702C67.3818 43.173 67.4876 43.5567 67.6993 43.8214C67.911 44.0772 68.2551 44.2051 68.7314 44.2051C68.899 44.2051 69.0402 44.1875 69.1548 44.1522C69.2783 44.1169 69.3798 44.0992 69.4592 44.0992C69.5386 44.0904 69.6047 44.1169 69.6577 44.1786C69.7106 44.2404 69.7371 44.3462 69.7371 44.4962C69.7371 44.6021 69.715 44.6991 69.6709 44.7873C69.6356 44.8755 69.5695 44.9373 69.4724 44.9726C69.3666 45.0078 69.2254 45.0387 69.049 45.0652C68.8814 45.1005 68.727 45.1181 68.5859 45.1181ZM72.6562 45.1181C72.2151 45.1181 71.8181 45.0343 71.4653 44.8667C71.1212 44.6903 70.8478 44.4521 70.6449 44.1522C70.442 43.8523 70.3406 43.517 70.3406 43.1465C70.3406 42.6702 70.4596 42.2953 70.6978 42.0218C70.9448 41.7484 71.3462 41.5543 71.9019 41.4396C72.4665 41.3249 73.234 41.2676 74.2043 41.2676H74.7997V41.9689H74.2175C73.503 41.9689 72.9384 42.0042 72.5238 42.0748C72.1181 42.1365 71.8314 42.2468 71.6638 42.4056C71.505 42.5643 71.4256 42.7893 71.4256 43.0804C71.4256 43.4421 71.5491 43.7376 71.7961 43.9669C72.0519 44.1963 72.3959 44.311 72.8282 44.311C73.181 44.311 73.4898 44.2272 73.7544 44.0596C74.0279 43.8919 74.2396 43.6626 74.3896 43.3715C74.5483 43.0804 74.6277 42.7452 74.6277 42.3659V40.8574C74.6277 40.3105 74.5175 39.9179 74.2969 39.6798C74.0764 39.4328 73.7147 39.3093 73.2119 39.3093C72.9032 39.3093 72.5944 39.349 72.2857 39.4284C71.9769 39.5077 71.6505 39.6357 71.3065 39.8121C71.183 39.8738 71.0771 39.8959 70.9889 39.8782C70.9007 39.8518 70.8301 39.8033 70.7772 39.7327C70.7243 39.6621 70.6934 39.5827 70.6846 39.4945C70.6758 39.3975 70.6934 39.3049 70.7375 39.2166C70.7904 39.1284 70.8698 39.0579 70.9757 39.0049C71.3638 38.8109 71.7476 38.6697 72.1269 38.5815C72.5062 38.4933 72.8679 38.4492 73.2119 38.4492C73.7676 38.4492 74.2264 38.5418 74.588 38.7271C74.9497 38.9035 75.2188 39.1769 75.3952 39.5474C75.5716 39.9091 75.6598 40.3766 75.6598 40.95V44.5359C75.6598 44.7123 75.6157 44.8491 75.5275 44.9461C75.4481 45.0431 75.329 45.0916 75.1702 45.0916C75.0026 45.0916 74.8747 45.0431 74.7865 44.9461C74.6983 44.8491 74.6542 44.7123 74.6542 44.5359V43.5038H74.7733C74.7027 43.839 74.566 44.1257 74.3631 44.3639C74.169 44.6021 73.9264 44.7873 73.6353 44.9196C73.3442 45.052 73.0178 45.1181 72.6562 45.1181ZM80.4931 47.4999C80.0256 47.4999 79.5669 47.4425 79.117 47.3279C78.6759 47.222 78.2746 47.05 77.9129 46.8118C77.807 46.7501 77.7365 46.6751 77.7012 46.5869C77.6747 46.4987 77.6703 46.4104 77.6879 46.3222C77.7056 46.2428 77.7453 46.1679 77.807 46.0973C77.8688 46.0355 77.9393 45.9958 78.0187 45.9782C78.107 45.9605 78.1952 45.9738 78.2834 46.0179C78.6715 46.2561 79.042 46.4193 79.3949 46.5075C79.7477 46.5957 80.0962 46.6398 80.4402 46.6398C81.0665 46.6398 81.5384 46.4722 81.856 46.137C82.1824 45.8018 82.3456 45.3166 82.3456 44.6815V43.1862H82.4779C82.3456 43.6979 82.0633 44.1037 81.6311 44.4036C81.2076 44.7035 80.7092 44.8535 80.1359 44.8535C79.5448 44.8535 79.0332 44.7212 78.6009 44.4565C78.1687 44.1831 77.8335 43.8037 77.5953 43.3186C77.366 42.8334 77.2513 42.2732 77.2513 41.6381C77.2513 41.1617 77.3174 40.7295 77.4498 40.3414C77.5821 39.9444 77.7717 39.6092 78.0187 39.3357C78.2746 39.0534 78.5789 38.8373 78.9317 38.6874C79.2934 38.5286 79.6948 38.4492 80.1359 38.4492C80.7181 38.4492 81.2209 38.5991 81.6443 38.8991C82.0677 39.1902 82.3412 39.5871 82.4647 40.09L82.3324 40.2487V39.0182C82.3324 38.8417 82.3765 38.7094 82.4647 38.6212C82.5617 38.5242 82.694 38.4756 82.8617 38.4756C83.0381 38.4756 83.1704 38.5242 83.2586 38.6212C83.3468 38.7094 83.3909 38.8417 83.3909 39.0182V44.5359C83.3909 45.5151 83.1439 46.2517 82.6499 46.7456C82.1648 47.2485 81.4458 47.4999 80.4931 47.4999ZM80.3343 43.9802C80.7489 43.9802 81.1062 43.8875 81.4061 43.7023C81.7061 43.5082 81.9354 43.2348 82.0942 42.8819C82.2618 42.529 82.3456 42.1144 82.3456 41.6381C82.3456 40.9236 82.1648 40.359 81.8031 39.9444C81.4414 39.521 80.9518 39.3093 80.3343 39.3093C79.9286 39.3093 79.5757 39.4063 79.2758 39.6004C78.9759 39.7856 78.7421 40.0547 78.5745 40.4075C78.4157 40.7516 78.3363 41.1617 78.3363 41.6381C78.3363 42.3526 78.5171 42.9216 78.8788 43.345C79.2405 43.7684 79.7257 43.9802 80.3343 43.9802ZM87.3597 45.1181C86.7246 45.1181 86.2394 44.924 85.9042 44.5359C85.569 44.1478 85.4014 43.592 85.4014 42.8687V36.1204C85.4014 35.9439 85.4455 35.8116 85.5337 35.7234C85.6219 35.6264 85.7542 35.5778 85.9306 35.5778C86.0983 35.5778 86.2306 35.6264 86.3276 35.7234C86.4246 35.8116 86.4732 35.9439 86.4732 36.1204V42.7893C86.4732 43.2656 86.5658 43.6229 86.751 43.8611C86.9451 44.0904 87.2274 44.2051 87.5979 44.2051C87.6773 44.2051 87.7478 44.2007 87.8096 44.1919C87.8713 44.1831 87.9331 44.1786 87.9948 44.1786C88.0919 44.1698 88.158 44.1919 88.1933 44.2448C88.2374 44.2977 88.2595 44.4036 88.2595 44.5624C88.2595 44.7212 88.2242 44.8402 88.1536 44.9196C88.0831 44.999 87.9684 45.052 87.8096 45.0784C87.739 45.0872 87.664 45.0961 87.5846 45.1049C87.5053 45.1137 87.4303 45.1181 87.3597 45.1181ZM89.846 45.0652C89.6695 45.0652 89.5372 45.0167 89.449 44.9196C89.3608 44.8138 89.3167 44.6682 89.3167 44.483V39.0711C89.3167 38.8858 89.3608 38.7447 89.449 38.6477C89.5372 38.5506 89.6695 38.5021 89.846 38.5021C90.0136 38.5021 90.1459 38.5506 90.2429 38.6477C90.34 38.7447 90.3885 38.8858 90.3885 39.0711V44.483C90.3885 44.6682 90.34 44.8138 90.2429 44.9196C90.1547 45.0167 90.0224 45.0652 89.846 45.0652ZM89.846 37.0201C89.6254 37.0201 89.4534 36.9628 89.3299 36.8481C89.2064 36.7246 89.1447 36.5614 89.1447 36.3585C89.1447 36.1468 89.2064 35.988 89.3299 35.8822C89.4534 35.7675 89.6254 35.7102 89.846 35.7102C90.0753 35.7102 90.2473 35.7675 90.362 35.8822C90.4855 35.988 90.5473 36.1468 90.5473 36.3585C90.5473 36.5614 90.4855 36.7246 90.362 36.8481C90.2473 36.9628 90.0753 37.0201 89.846 37.0201ZM92.9214 45.0916C92.745 45.0916 92.6126 45.0431 92.5244 44.9461C92.4362 44.8491 92.3921 44.7123 92.3921 44.5359V39.0182C92.3921 38.8417 92.4362 38.7094 92.5244 38.6212C92.6126 38.5242 92.7405 38.4756 92.9081 38.4756C93.0758 38.4756 93.2037 38.5242 93.2919 38.6212C93.3889 38.7094 93.4374 38.8417 93.4374 39.0182V40.1561L93.2919 39.9973C93.4771 39.4857 93.7771 39.102 94.1917 38.8461C94.6151 38.5815 95.1003 38.4492 95.6472 38.4492C96.1588 38.4492 96.5822 38.5418 96.9174 38.7271C97.2615 38.9123 97.5173 39.1946 97.6849 39.5739C97.8525 39.9444 97.9363 40.4163 97.9363 40.9897V44.5359C97.9363 44.7123 97.8878 44.8491 97.7908 44.9461C97.7025 45.0431 97.5746 45.0916 97.407 45.0916C97.2306 45.0916 97.0939 45.0431 96.9968 44.9461C96.9086 44.8491 96.8645 44.7123 96.8645 44.5359V41.0559C96.8645 40.456 96.7454 40.0194 96.5073 39.7459C96.2779 39.4636 95.9074 39.3225 95.3958 39.3225C94.8047 39.3225 94.3328 39.5077 93.9799 39.8782C93.6359 40.2399 93.4639 40.7251 93.4639 41.3338V44.5359C93.4639 44.9064 93.2831 45.0916 92.9214 45.0916ZM102.81 45.1181C102.131 45.1181 101.545 44.9858 101.051 44.7212C100.565 44.4477 100.186 44.064 99.9126 43.57C99.648 43.076 99.5157 42.4849 99.5157 41.7969C99.5157 41.1265 99.648 40.5442 99.9126 40.0503C100.177 39.5474 100.539 39.1549 100.998 38.8726C101.465 38.5903 102.003 38.4492 102.612 38.4492C103.044 38.4492 103.432 38.5242 103.776 38.6741C104.12 38.8153 104.412 39.0226 104.65 39.296C104.897 39.5695 105.082 39.9003 105.205 40.2884C105.338 40.6766 105.404 41.1132 105.404 41.5984C105.404 41.7395 105.364 41.8454 105.285 41.916C105.205 41.9777 105.091 42.0086 104.941 42.0086H100.336V41.3073H104.689L104.478 41.4793C104.478 41.003 104.407 40.6016 104.266 40.2752C104.125 39.94 103.918 39.6842 103.644 39.5077C103.379 39.3313 103.044 39.2431 102.638 39.2431C102.189 39.2431 101.805 39.349 101.487 39.5607C101.178 39.7636 100.945 40.0503 100.786 40.4208C100.627 40.7824 100.548 41.2058 100.548 41.691V41.7704C100.548 42.582 100.742 43.1995 101.13 43.6229C101.527 44.0463 102.087 44.258 102.81 44.258C103.11 44.258 103.406 44.2183 103.697 44.1389C103.997 44.0596 104.288 43.9272 104.57 43.742C104.694 43.6626 104.804 43.6273 104.901 43.6361C105.007 43.6361 105.091 43.667 105.153 43.7288C105.214 43.7817 105.254 43.8523 105.272 43.9405C105.298 44.0199 105.289 44.1081 105.245 44.2051C105.21 44.3021 105.135 44.3859 105.02 44.4565C104.729 44.6682 104.385 44.8314 103.988 44.9461C103.591 45.0608 103.199 45.1181 102.81 45.1181ZM110.896 45.0916C110.719 45.0916 110.587 45.0431 110.499 44.9461C110.411 44.8491 110.366 44.7123 110.366 44.5359V36.1204C110.366 35.9439 110.411 35.8116 110.499 35.7234C110.587 35.6264 110.719 35.5778 110.896 35.5778C111.063 35.5778 111.196 35.6264 111.293 35.7234C111.39 35.8116 111.438 35.9439 111.438 36.1204V39.9973H111.266C111.451 39.4857 111.751 39.102 112.166 38.8461C112.589 38.5815 113.075 38.4492 113.622 38.4492C114.133 38.4492 114.557 38.5418 114.892 38.7271C115.236 38.9123 115.492 39.1946 115.659 39.5739C115.827 39.9444 115.911 40.4163 115.911 40.9897V44.5359C115.911 44.7123 115.862 44.8491 115.765 44.9461C115.677 45.0431 115.549 45.0916 115.381 45.0916C115.205 45.0916 115.068 45.0431 114.971 44.9461C114.883 44.8491 114.839 44.7123 114.839 44.5359V41.0559C114.839 40.456 114.72 40.0194 114.482 39.7459C114.252 39.4636 113.882 39.3225 113.37 39.3225C112.779 39.3225 112.307 39.5077 111.954 39.8782C111.61 40.2399 111.438 40.7251 111.438 41.3338V44.5359C111.438 44.9064 111.257 45.0916 110.896 45.0916ZM120.785 45.1181C120.106 45.1181 119.519 44.9858 119.025 44.7212C118.54 44.4477 118.16 44.064 117.887 43.57C117.622 43.076 117.49 42.4849 117.49 41.7969C117.49 41.1265 117.622 40.5442 117.887 40.0503C118.152 39.5474 118.513 39.1549 118.972 38.8726C119.44 38.5903 119.978 38.4492 120.586 38.4492C121.019 38.4492 121.407 38.5242 121.751 38.6741C122.095 38.8153 122.386 39.0226 122.624 39.296C122.871 39.5695 123.056 39.9003 123.18 40.2884C123.312 40.6766 123.378 41.1132 123.378 41.5984C123.378 41.7395 123.339 41.8454 123.259 41.916C123.18 41.9777 123.065 42.0086 122.915 42.0086H118.31V41.3073H122.664L122.452 41.4793C122.452 41.003 122.381 40.6016 122.24 40.2752C122.099 39.94 121.892 39.6842 121.618 39.5077C121.354 39.3313 121.019 39.2431 120.613 39.2431C120.163 39.2431 119.779 39.349 119.462 39.5607C119.153 39.7636 118.919 40.0503 118.76 40.4208C118.601 40.7824 118.522 41.2058 118.522 41.691V41.7704C118.522 42.582 118.716 43.1995 119.104 43.6229C119.501 44.0463 120.061 44.258 120.785 44.258C121.085 44.258 121.38 44.2183 121.671 44.1389C121.971 44.0596 122.262 43.9272 122.545 43.742C122.668 43.6626 122.778 43.6273 122.875 43.6361C122.981 43.6361 123.065 43.667 123.127 43.7288C123.189 43.7817 123.228 43.8523 123.246 43.9405C123.272 44.0199 123.264 44.1081 123.219 44.2051C123.184 44.3021 123.109 44.3859 122.995 44.4565C122.703 44.6682 122.359 44.8314 121.962 44.9461C121.565 45.0608 121.173 45.1181 120.785 45.1181ZM125.472 45.0916C125.295 45.0916 125.159 45.0431 125.062 44.9461C124.973 44.8491 124.929 44.7123 124.929 44.5359V39.0182C124.929 38.8417 124.973 38.7094 125.062 38.6212C125.15 38.5242 125.278 38.4756 125.445 38.4756C125.613 38.4756 125.741 38.5242 125.829 38.6212C125.926 38.7094 125.975 38.8417 125.975 39.0182V40.09H125.842C125.984 39.5695 126.253 39.1681 126.65 38.8858C127.047 38.6036 127.536 38.4536 128.118 38.436C128.251 38.4271 128.356 38.458 128.436 38.5286C128.515 38.5903 128.559 38.7006 128.568 38.8594C128.577 39.0093 128.542 39.1284 128.462 39.2166C128.383 39.3049 128.259 39.3578 128.092 39.3754L127.88 39.4019C127.28 39.4548 126.817 39.6489 126.491 39.9841C126.173 40.3105 126.014 40.7604 126.014 41.3338V44.5359C126.014 44.7123 125.966 44.8491 125.869 44.9461C125.781 45.0431 125.648 45.0916 125.472 45.0916ZM132.492 45.1181C131.813 45.1181 131.226 44.9858 130.732 44.7212C130.247 44.4477 129.868 44.064 129.594 43.57C129.33 43.076 129.197 42.4849 129.197 41.7969C129.197 41.1265 129.33 40.5442 129.594 40.0503C129.859 39.5474 130.22 39.1549 130.679 38.8726C131.147 38.5903 131.685 38.4492 132.294 38.4492C132.726 38.4492 133.114 38.5242 133.458 38.6741C133.802 38.8153 134.093 39.0226 134.331 39.296C134.578 39.5695 134.763 39.9003 134.887 40.2884C135.019 40.6766 135.085 41.1132 135.085 41.5984C135.085 41.7395 135.046 41.8454 134.966 41.916C134.887 41.9777 134.772 42.0086 134.622 42.0086H130.018V41.3073H134.371L134.159 41.4793C134.159 41.003 134.089 40.6016 133.948 40.2752C133.806 39.94 133.599 39.6842 133.326 39.5077C133.061 39.3313 132.726 39.2431 132.32 39.2431C131.87 39.2431 131.486 39.349 131.169 39.5607C130.86 39.7636 130.626 40.0503 130.467 40.4208C130.309 40.7824 130.229 41.2058 130.229 41.691V41.7704C130.229 42.582 130.423 43.1995 130.812 43.6229C131.208 44.0463 131.769 44.258 132.492 44.258C132.792 44.258 133.087 44.2183 133.379 44.1389C133.678 44.0596 133.97 43.9272 134.252 43.742C134.375 43.6626 134.486 43.6273 134.583 43.6361C134.689 43.6361 134.772 43.667 134.834 43.7288C134.896 43.7817 134.936 43.8523 134.953 43.9405C134.98 44.0199 134.971 44.1081 134.927 44.2051C134.891 44.3021 134.816 44.3859 134.702 44.4565C134.411 44.6682 134.067 44.8314 133.67 44.9461C133.273 45.0608 132.88 45.1181 132.492 45.1181Z" fill="#787F8C"/>
<path d="M78.0532 32.3705C76.4151 32.3705 74.9 32.0736 73.5076 31.4798C72.1153 30.886 70.897 30.0568 69.8527 28.992C68.8085 27.9273 67.9894 26.6783 67.3956 25.245C66.8223 23.8117 66.5357 22.2453 66.5357 20.5459C66.5357 18.8464 66.8121 17.28 67.3649 15.8467C67.9382 14.3929 68.7368 13.1439 69.7606 12.0997C70.8048 11.0349 72.0231 10.2159 73.4155 9.6426C74.8078 9.0488 76.323 8.75191 77.9611 8.75191C79.5991 8.75191 81.0631 9.02833 82.3531 9.58117C83.6635 10.134 84.7692 10.8711 85.6701 11.7925C86.571 12.6935 87.216 13.6865 87.6051 14.7717L83.8887 16.5531C83.4588 15.3655 82.7319 14.4032 81.7081 13.6661C80.6843 12.9289 79.4353 12.5604 77.9611 12.5604C76.5278 12.5604 75.2583 12.8982 74.1526 13.5739C73.0674 14.2496 72.2176 15.1812 71.6034 16.3688C71.0096 17.5564 70.7127 18.9488 70.7127 20.5459C70.7127 22.143 71.0198 23.5455 71.6341 24.7536C72.2688 25.9412 73.1391 26.8728 74.2447 27.5485C75.3504 28.2242 76.6199 28.5621 78.0532 28.5621C79.2203 28.5621 80.2953 28.3368 81.2781 27.8864C82.2609 27.4154 83.0492 26.7602 83.643 25.9207C84.2368 25.0607 84.5337 24.0472 84.5337 22.8801V21.1294L86.438 22.7879H77.9611V19.2559H88.7107V21.5594C88.7107 23.3203 88.4138 24.8764 87.8201 26.2278C87.2263 27.5792 86.4175 28.7156 85.3937 29.637C84.3904 30.5379 83.254 31.2239 81.9845 31.6948C80.715 32.1453 79.4046 32.3705 78.0532 32.3705ZM103.288 32.3705C101.609 32.3705 100.042 32.0736 98.5887 31.4798C97.1349 30.886 95.8654 30.0568 94.7802 28.992C93.695 27.9273 92.8453 26.6783 92.231 25.245C91.6372 23.7912 91.3403 22.2249 91.3403 20.5459C91.3403 18.8464 91.6372 17.28 92.231 15.8467C92.8248 14.4134 93.6643 13.1644 94.7495 12.0997C95.8347 11.0349 97.1042 10.2159 98.558 9.6426C100.012 9.0488 101.588 8.75191 103.288 8.75191C104.987 8.75191 106.564 9.0488 108.018 9.6426C109.471 10.2364 110.741 11.0657 111.826 12.1304C112.911 13.1746 113.751 14.4134 114.345 15.8467C114.959 17.28 115.266 18.8464 115.266 20.5459C115.266 22.2249 114.959 23.7912 114.345 25.245C113.73 26.6783 112.881 27.9273 111.795 28.992C110.71 30.0568 109.441 30.886 107.987 31.4798C106.554 32.0736 104.987 32.3705 103.288 32.3705ZM103.288 28.5621C104.414 28.5621 105.448 28.3675 106.39 27.9785C107.332 27.569 108.151 27.0059 108.847 26.2893C109.564 25.5726 110.106 24.7229 110.475 23.74C110.864 22.7572 111.058 21.6925 111.058 20.5459C111.058 19.3992 110.864 18.3447 110.475 17.3824C110.106 16.3995 109.564 15.5498 108.847 14.8332C108.151 14.096 107.332 13.533 106.39 13.1439C105.448 12.7549 104.414 12.5604 103.288 12.5604C102.182 12.5604 101.158 12.7549 100.217 13.1439C99.2746 13.533 98.4454 14.096 97.7287 14.8332C97.0326 15.5498 96.49 16.3995 96.1009 17.3824C95.7119 18.3447 95.5174 19.3992 95.5174 20.5459C95.5174 21.6925 95.7119 22.7572 96.1009 23.74C96.49 24.7229 97.0326 25.5726 97.7287 26.2893C98.4454 27.0059 99.2746 27.569 100.217 27.9785C101.158 28.3675 102.182 28.5621 103.288 28.5621ZM122.105 32.002V12.8061H116.177V9.12047H132.148V12.8061H126.312V32.002H122.105ZM134.697 32.002V9.12047H149.9V12.8061H138.874V18.6723H149.286V22.3579H138.874V28.3163H149.9V32.002H134.697ZM163.713 32.3705C162.075 32.3705 160.559 32.0736 159.167 31.4798C157.795 30.886 156.587 30.0568 155.543 28.992C154.519 27.9273 153.721 26.6783 153.147 25.245C152.574 23.8117 152.287 22.2453 152.287 20.5459C152.287 18.8464 152.564 17.28 153.117 15.8467C153.69 14.3929 154.488 13.1439 155.512 12.0997C156.556 11.0349 157.775 10.2159 159.167 9.6426C160.559 9.0488 162.075 8.75191 163.713 8.75191C165.351 8.75191 166.815 9.02833 168.105 9.58117C169.415 10.134 170.521 10.8711 171.422 11.7925C172.323 12.6935 172.968 13.6865 173.357 14.7717L169.61 16.5224C169.18 15.3758 168.453 14.4339 167.429 13.6968C166.405 12.9392 165.166 12.5604 163.713 12.5604C162.279 12.5604 161.01 12.8982 159.904 13.5739C158.819 14.2496 157.969 15.1812 157.355 16.3688C156.761 17.5564 156.464 18.9488 156.464 20.5459C156.464 22.143 156.761 23.5455 157.355 24.7536C157.969 25.9412 158.819 26.8728 159.904 27.5485C161.01 28.2242 162.279 28.5621 163.713 28.5621C165.166 28.5621 166.405 28.1935 167.429 27.4564C168.453 26.6988 169.18 25.7467 169.61 24.6L173.357 26.3507C172.968 27.4359 172.323 28.4392 171.422 29.3606C170.521 30.2615 169.415 30.9884 168.105 31.5413C166.815 32.0941 165.351 32.3705 163.713 32.3705ZM176.748 32.002V9.12047H180.925V19.1023H190.661V9.12047H194.869V32.002H190.661V22.7879H180.925V32.002H176.748Z" fill="#0B59DB"/>
<path d="M36.7501 23.4657C41.5101 18.7057 41.1801 10.7957 35.7801 6.46574C31.6601 3.16574 25.6701 3.18574 21.5601 6.49574C18.1301 9.25574 16.7701 13.4657 17.4601 17.3857C17.9901 20.3657 17.1501 23.4257 15.0001 25.5657L14.7601 25.8057C13.0201 27.5457 10.6301 28.5557 8.17012 28.4357C5.93012 28.3357 3.6501 29.1857 2.0001 31.0057C-0.689898 33.9757 -0.65988 38.6357 2.05012 41.5757C5.09012 44.8657 10.2201 44.9357 13.3601 41.8057C14.9901 40.1757 15.7501 38.0057 15.6401 35.8757C15.5201 33.4157 16.5601 31.0457 18.3001 29.3057L18.5101 29.0857C20.6501 26.9457 23.7001 26.0957 26.6701 26.6257C30.2201 27.2657 34.0101 26.2057 36.7501 23.4657Z" fill="#0B59DB"/>
<path d="M26.84 29.416C22.83 29.416 19.63 32.886 20.09 36.986C20.44 40.106 22.97 42.626 26.09 42.966C28.7 43.246 31.05 42.046 32.41 40.106C33.44 38.626 35.09 37.696 36.89 37.696H37.09C38.56 37.696 39.99 38.276 40.97 39.366C41.87 40.356 43.19 40.956 44.65 40.886C47.03 40.766 48.99 38.796 49.08 36.406C49.19 33.736 47.06 31.546 44.41 31.546C43.04 31.546 41.8 32.136 40.95 33.086C39.97 34.176 38.53 34.736 37.06 34.736H36.88C35.08 34.736 33.44 33.806 32.41 32.336C31.18 30.576 29.15 29.416 26.84 29.416Z" fill="#0B59DB"/>
</svg>
